<?xml version="1.0" encoding="utf-8"?>
<svg xmlns="http://www.w3.org/2000/svg" xmlns:xlink="http://www.w3.org/1999/xlink" width="600" height="400" viewBox="0 0 2400 1600">
<defs>
  <clipPath id="clip020">
    <rect x="0" y="0" width="2400" height="1600"/>
  </clipPath>
</defs>
<path clip-path="url(#clip020)" d="
M0 1600 L2400 1600 L2400 0 L0 0  Z
  " fill="#12273f" fill-rule="evenodd" fill-opacity="1"/>
<defs>
  <clipPath id="clip021">
    <rect x="480" y="0" width="1681" height="1600"/>
  </clipPath>
</defs>
<path clip-path="url(#clip020)" d="
M149.191 1486.45 L2352.76 1486.45 L2352.76 47.2441 L149.191 47.2441  Z
  " fill="#12273f" fill-rule="evenodd" fill-opacity="1"/>
<defs>
  <clipPath id="clip022">
    <rect x="149" y="47" width="2205" height="1440"/>
  </clipPath>
</defs>
<polyline clip-path="url(#clip022)" style="stroke:#ffffff; stroke-linecap:round; stroke-linejoin:round; stroke-width:2; stroke-opacity:0.1; fill:none" points="
  419.478,1486.45 419.478,47.2441 
  "/>
<polyline clip-path="url(#clip022)" style="stroke:#ffffff; stroke-linecap:round; stroke-linejoin:round; stroke-width:2; stroke-opacity:0.1; fill:none" points="
  838.72,1486.45 838.72,47.2441 
  "/>
<polyline clip-path="url(#clip022)" style="stroke:#ffffff; stroke-linecap:round; stroke-linejoin:round; stroke-width:2; stroke-opacity:0.1; fill:none" points="
  1257.96,1486.45 1257.96,47.2441 
  "/>
<polyline clip-path="url(#clip022)" style="stroke:#ffffff; stroke-linecap:round; stroke-linejoin:round; stroke-width:2; stroke-opacity:0.1; fill:none" points="
  1677.2,1486.45 1677.2,47.2441 
  "/>
<polyline clip-path="url(#clip022)" style="stroke:#ffffff; stroke-linecap:round; stroke-linejoin:round; stroke-width:2; stroke-opacity:0.1; fill:none" points="
  2096.44,1486.45 2096.44,47.2441 
  "/>
<polyline clip-path="url(#clip020)" style="stroke:#ffffff; stroke-linecap:round; stroke-linejoin:round; stroke-width:4; stroke-opacity:1; fill:none" points="
  149.191,1486.45 2352.76,1486.45 
  "/>
<polyline clip-path="url(#clip020)" style="stroke:#ffffff; stroke-linecap:round; stroke-linejoin:round; stroke-width:4; stroke-opacity:1; fill:none" points="
  419.478,1486.45 419.478,1467.55 
  "/>
<polyline clip-path="url(#clip020)" style="stroke:#ffffff; stroke-linecap:round; stroke-linejoin:round; stroke-width:4; stroke-opacity:1; fill:none" points="
  838.72,1486.45 838.72,1467.55 
  "/>
<polyline clip-path="url(#clip020)" style="stroke:#ffffff; stroke-linecap:round; stroke-linejoin:round; stroke-width:4; stroke-opacity:1; fill:none" points="
  1257.96,1486.45 1257.96,1467.55 
  "/>
<polyline clip-path="url(#clip020)" style="stroke:#ffffff; stroke-linecap:round; stroke-linejoin:round; stroke-width:4; stroke-opacity:1; fill:none" points="
  1677.2,1486.45 1677.2,1467.55 
  "/>
<polyline clip-path="url(#clip020)" style="stroke:#ffffff; stroke-linecap:round; stroke-linejoin:round; stroke-width:4; stroke-opacity:1; fill:none" points="
  2096.44,1486.45 2096.44,1467.55 
  "/>
<path clip-path="url(#clip020)" d="M388.379 1532.02 L418.055 1532.02 L418.055 1535.95 L388.379 1535.95 L388.379 1532.02 Z" fill="#ffffff" fill-rule="evenodd" fill-opacity="1" /><path clip-path="url(#clip020)" d="M440.995 1518.36 L429.189 1536.81 L440.995 1536.81 L440.995 1518.36 M439.768 1514.29 L445.647 1514.29 L445.647 1536.81 L450.578 1536.81 L450.578 1540.7 L445.647 1540.7 L445.647 1548.85 L440.995 1548.85 L440.995 1540.7 L425.393 1540.7 L425.393 1536.19 L439.768 1514.29 Z" fill="#ffffff" fill-rule="evenodd" fill-opacity="1" /><path clip-path="url(#clip020)" d="M808.662 1532.02 L838.338 1532.02 L838.338 1535.95 L808.662 1535.95 L808.662 1532.02 Z" fill="#ffffff" fill-rule="evenodd" fill-opacity="1" /><path clip-path="url(#clip020)" d="M852.458 1544.91 L868.778 1544.91 L868.778 1548.85 L846.833 1548.85 L846.833 1544.91 Q849.495 1542.16 854.079 1537.53 Q858.685 1532.88 859.866 1531.53 Q862.111 1529.01 862.991 1527.27 Q863.893 1525.51 863.893 1523.82 Q863.893 1521.07 861.949 1519.33 Q860.028 1517.6 856.926 1517.6 Q854.727 1517.6 852.273 1518.36 Q849.843 1519.13 847.065 1520.68 L847.065 1515.95 Q849.889 1514.82 852.342 1514.24 Q854.796 1513.66 856.833 1513.66 Q862.204 1513.66 865.398 1516.35 Q868.592 1519.03 868.592 1523.52 Q868.592 1525.65 867.782 1527.57 Q866.995 1529.47 864.889 1532.07 Q864.31 1532.74 861.208 1535.95 Q858.106 1539.15 852.458 1544.91 Z" fill="#ffffff" fill-rule="evenodd" fill-opacity="1" /><path clip-path="url(#clip020)" d="M1257.96 1517.37 Q1254.35 1517.37 1252.52 1520.93 Q1250.72 1524.47 1250.72 1531.6 Q1250.72 1538.71 1252.52 1542.27 Q1254.35 1545.82 1257.96 1545.82 Q1261.6 1545.82 1263.4 1542.27 Q1265.23 1538.71 1265.23 1531.6 Q1265.23 1524.47 1263.4 1520.93 Q1261.6 1517.37 1257.96 1517.37 M1257.96 1513.66 Q1263.77 1513.66 1266.83 1518.27 Q1269.91 1522.85 1269.91 1531.6 Q1269.91 1540.33 1266.83 1544.94 Q1263.77 1549.52 1257.96 1549.52 Q1252.15 1549.52 1249.07 1544.94 Q1246.02 1540.33 1246.02 1531.6 Q1246.02 1522.85 1249.07 1518.27 Q1252.15 1513.66 1257.96 1513.66 Z" fill="#ffffff" fill-rule="evenodd" fill-opacity="1" /><path clip-path="url(#clip020)" d="M1671.86 1544.91 L1688.17 1544.91 L1688.17 1548.85 L1666.23 1548.85 L1666.23 1544.91 Q1668.89 1542.16 1673.48 1537.53 Q1678.08 1532.88 1679.26 1531.53 Q1681.51 1529.01 1682.39 1527.27 Q1683.29 1525.51 1683.29 1523.82 Q1683.29 1521.07 1681.35 1519.33 Q1679.42 1517.6 1676.32 1517.6 Q1674.12 1517.6 1671.67 1518.36 Q1669.24 1519.13 1666.46 1520.68 L1666.46 1515.95 Q1669.29 1514.82 1671.74 1514.24 Q1674.19 1513.66 1676.23 1513.66 Q1681.6 1513.66 1684.8 1516.35 Q1687.99 1519.03 1687.99 1523.52 Q1687.99 1525.65 1687.18 1527.57 Q1686.39 1529.47 1684.29 1532.07 Q1683.71 1532.74 1680.61 1535.95 Q1677.5 1539.15 1671.86 1544.91 Z" fill="#ffffff" fill-rule="evenodd" fill-opacity="1" /><path clip-path="url(#clip020)" d="M2099.45 1518.36 L2087.65 1536.81 L2099.45 1536.81 L2099.45 1518.36 M2098.23 1514.29 L2104.11 1514.29 L2104.11 1536.81 L2109.04 1536.81 L2109.04 1540.7 L2104.11 1540.7 L2104.11 1548.85 L2099.45 1548.85 L2099.45 1540.7 L2083.85 1540.7 L2083.85 1536.19 L2098.23 1514.29 Z" fill="#ffffff" fill-rule="evenodd" fill-opacity="1" /><polyline clip-path="url(#clip022)" style="stroke:#ffffff; stroke-linecap:round; stroke-linejoin:round; stroke-width:2; stroke-opacity:0.1; fill:none" points="
  149.191,1312.48 2352.76,1312.48 
  "/>
<polyline clip-path="url(#clip022)" style="stroke:#ffffff; stroke-linecap:round; stroke-linejoin:round; stroke-width:2; stroke-opacity:0.1; fill:none" points="
  149.191,1038.07 2352.76,1038.07 
  "/>
<polyline clip-path="url(#clip022)" style="stroke:#ffffff; stroke-linecap:round; stroke-linejoin:round; stroke-width:2; stroke-opacity:0.1; fill:none" points="
  149.191,763.659 2352.76,763.659 
  "/>
<polyline clip-path="url(#clip022)" style="stroke:#ffffff; stroke-linecap:round; stroke-linejoin:round; stroke-width:2; stroke-opacity:0.1; fill:none" points="
  149.191,489.25 2352.76,489.25 
  "/>
<polyline clip-path="url(#clip022)" style="stroke:#ffffff; stroke-linecap:round; stroke-linejoin:round; stroke-width:2; stroke-opacity:0.1; fill:none" points="
  149.191,214.842 2352.76,214.842 
  "/>
<polyline clip-path="url(#clip020)" style="stroke:#ffffff; stroke-linecap:round; stroke-linejoin:round; stroke-width:4; stroke-opacity:1; fill:none" points="
  149.191,1486.45 149.191,47.2441 
  "/>
<polyline clip-path="url(#clip020)" style="stroke:#ffffff; stroke-linecap:round; stroke-linejoin:round; stroke-width:4; stroke-opacity:1; fill:none" points="
  149.191,1312.48 168.089,1312.48 
  "/>
<polyline clip-path="url(#clip020)" style="stroke:#ffffff; stroke-linecap:round; stroke-linejoin:round; stroke-width:4; stroke-opacity:1; fill:none" points="
  149.191,1038.07 168.089,1038.07 
  "/>
<polyline clip-path="url(#clip020)" style="stroke:#ffffff; stroke-linecap:round; stroke-linejoin:round; stroke-width:4; stroke-opacity:1; fill:none" points="
  149.191,763.659 168.089,763.659 
  "/>
<polyline clip-path="url(#clip020)" style="stroke:#ffffff; stroke-linecap:round; stroke-linejoin:round; stroke-width:4; stroke-opacity:1; fill:none" points="
  149.191,489.25 168.089,489.25 
  "/>
<polyline clip-path="url(#clip020)" style="stroke:#ffffff; stroke-linecap:round; stroke-linejoin:round; stroke-width:4; stroke-opacity:1; fill:none" points="
  149.191,214.842 168.089,214.842 
  "/>
<path clip-path="url(#clip020)" d="M50.9921 1312.93 L80.6679 1312.93 L80.6679 1316.86 L50.9921 1316.86 L50.9921 1312.93 Z" fill="#ffffff" fill-rule="evenodd" fill-opacity="1" /><path clip-path="url(#clip020)" d="M103.608 1299.27 L91.8021 1317.72 L103.608 1317.72 L103.608 1299.27 M102.381 1295.2 L108.26 1295.2 L108.26 1317.72 L113.191 1317.72 L113.191 1321.61 L108.26 1321.61 L108.26 1329.76 L103.608 1329.76 L103.608 1321.61 L88.0058 1321.61 L88.0058 1317.09 L102.381 1295.2 Z" fill="#ffffff" fill-rule="evenodd" fill-opacity="1" /><path clip-path="url(#clip020)" d="M53.0754 1038.52 L82.7512 1038.52 L82.7512 1042.45 L53.0754 1042.45 L53.0754 1038.52 Z" fill="#ffffff" fill-rule="evenodd" fill-opacity="1" /><path clip-path="url(#clip020)" d="M96.8715 1051.41 L113.191 1051.41 L113.191 1055.35 L91.2465 1055.35 L91.2465 1051.41 Q93.9086 1048.66 98.4919 1044.03 Q103.098 1039.37 104.279 1038.03 Q106.524 1035.51 107.404 1033.77 Q108.307 1032.01 108.307 1030.32 Q108.307 1027.57 106.362 1025.83 Q104.441 1024.1 101.339 1024.1 Q99.14 1024.1 96.6863 1024.86 Q94.2558 1025.62 91.478 1027.18 L91.478 1022.45 Q94.3021 1021.32 96.7558 1020.74 Q99.2095 1020.16 101.246 1020.16 Q106.617 1020.16 109.811 1022.85 Q113.006 1025.53 113.006 1030.02 Q113.006 1032.15 112.196 1034.07 Q111.408 1035.97 109.302 1038.56 Q108.723 1039.24 105.621 1042.45 Q102.52 1045.65 96.8715 1051.41 Z" fill="#ffffff" fill-rule="evenodd" fill-opacity="1" /><path clip-path="url(#clip020)" d="M101.246 749.457 Q97.6354 749.457 95.8067 753.022 Q94.0012 756.564 94.0012 763.693 Q94.0012 770.8 95.8067 774.365 Q97.6354 777.906 101.246 777.906 Q104.881 777.906 106.686 774.365 Q108.515 770.8 108.515 763.693 Q108.515 756.564 106.686 753.022 Q104.881 749.457 101.246 749.457 M101.246 745.754 Q107.057 745.754 110.112 750.36 Q113.191 754.943 113.191 763.693 Q113.191 772.42 110.112 777.027 Q107.057 781.61 101.246 781.61 Q95.4363 781.61 92.3576 777.027 Q89.3021 772.42 89.3021 763.693 Q89.3021 754.943 92.3576 750.36 Q95.4363 745.754 101.246 745.754 Z" fill="#ffffff" fill-rule="evenodd" fill-opacity="1" /><path clip-path="url(#clip020)" d="M96.8715 502.595 L113.191 502.595 L113.191 506.53 L91.2465 506.53 L91.2465 502.595 Q93.9086 499.841 98.4919 495.211 Q103.098 490.558 104.279 489.216 Q106.524 486.693 107.404 484.956 Q108.307 483.197 108.307 481.507 Q108.307 478.753 106.362 477.017 Q104.441 475.281 101.339 475.281 Q99.14 475.281 96.6863 476.045 Q94.2558 476.808 91.478 478.359 L91.478 473.637 Q94.3021 472.503 96.7558 471.924 Q99.2095 471.345 101.246 471.345 Q106.617 471.345 109.811 474.031 Q113.006 476.716 113.006 481.207 Q113.006 483.336 112.196 485.257 Q111.408 487.156 109.302 489.748 Q108.723 490.419 105.621 493.637 Q102.52 496.831 96.8715 502.595 Z" fill="#ffffff" fill-rule="evenodd" fill-opacity="1" /><path clip-path="url(#clip020)" d="M103.608 201.636 L91.8021 220.085 L103.608 220.085 L103.608 201.636 M102.381 197.562 L108.26 197.562 L108.26 220.085 L113.191 220.085 L113.191 223.974 L108.26 223.974 L108.26 232.122 L103.608 232.122 L103.608 223.974 L88.0058 223.974 L88.0058 219.46 L102.381 197.562 Z" fill="#ffffff" fill-rule="evenodd" fill-opacity="1" /><circle clip-path="url(#clip022)" cx="416.67" cy="1252.05" r="14.4" fill="#3cd7d9" fill-rule="evenodd" fill-opacity="0.7" stroke="#ffffff" stroke-opacity="0.7" stroke-width="3.2"/>
<circle clip-path="url(#clip022)" cx="839.603" cy="1109.85" r="14.4" fill="#3cd7d9" fill-rule="evenodd" fill-opacity="0.7" stroke="#ffffff" stroke-opacity="0.7" stroke-width="3.2"/>
<circle clip-path="url(#clip022)" cx="369.278" cy="1259.44" r="14.4" fill="#3cd7d9" fill-rule="evenodd" fill-opacity="0.7" stroke="#ffffff" stroke-opacity="0.7" stroke-width="3.2"/>
<circle clip-path="url(#clip022)" cx="637.225" cy="1238.37" r="14.4" fill="#3cd7d9" fill-rule="evenodd" fill-opacity="0.7" stroke="#ffffff" stroke-opacity="0.7" stroke-width="3.2"/>
<circle clip-path="url(#clip022)" cx="1137.48" cy="881.616" r="14.4" fill="#3cd7d9" fill-rule="evenodd" fill-opacity="0.7" stroke="#ffffff" stroke-opacity="0.7" stroke-width="3.2"/>
<circle clip-path="url(#clip022)" cx="427.613" cy="960.817" r="14.4" fill="#3cd7d9" fill-rule="evenodd" fill-opacity="0.7" stroke="#ffffff" stroke-opacity="0.7" stroke-width="3.2"/>
<circle clip-path="url(#clip022)" cx="818.078" cy="1054.82" r="14.4" fill="#3cd7d9" fill-rule="evenodd" fill-opacity="0.7" stroke="#ffffff" stroke-opacity="0.7" stroke-width="3.2"/>
<circle clip-path="url(#clip022)" cx="311.036" cy="911.228" r="14.4" fill="#3cd7d9" fill-rule="evenodd" fill-opacity="0.7" stroke="#ffffff" stroke-opacity="0.7" stroke-width="3.2"/>
<circle clip-path="url(#clip022)" cx="529.454" cy="1045.59" r="14.4" fill="#3cd7d9" fill-rule="evenodd" fill-opacity="0.7" stroke="#ffffff" stroke-opacity="0.7" stroke-width="3.2"/>
<circle clip-path="url(#clip022)" cx="662.207" cy="1380.7" r="14.4" fill="#3cd7d9" fill-rule="evenodd" fill-opacity="0.7" stroke="#ffffff" stroke-opacity="0.7" stroke-width="3.2"/>
<circle clip-path="url(#clip022)" cx="231.556" cy="1302.37" r="14.4" fill="#3cd7d9" fill-rule="evenodd" fill-opacity="0.7" stroke="#ffffff" stroke-opacity="0.7" stroke-width="3.2"/>
<circle clip-path="url(#clip022)" cx="427.801" cy="988.441" r="14.4" fill="#3cd7d9" fill-rule="evenodd" fill-opacity="0.7" stroke="#ffffff" stroke-opacity="0.7" stroke-width="3.2"/>
<circle clip-path="url(#clip022)" cx="832.853" cy="1402.15" r="14.4" fill="#3cd7d9" fill-rule="evenodd" fill-opacity="0.7" stroke="#ffffff" stroke-opacity="0.7" stroke-width="3.2"/>
<circle clip-path="url(#clip022)" cx="350.582" cy="1431.49" r="14.4" fill="#3cd7d9" fill-rule="evenodd" fill-opacity="0.7" stroke="#ffffff" stroke-opacity="0.7" stroke-width="3.2"/>
<circle clip-path="url(#clip022)" cx="837.654" cy="973.029" r="14.4" fill="#3cd7d9" fill-rule="evenodd" fill-opacity="0.7" stroke="#ffffff" stroke-opacity="0.7" stroke-width="3.2"/>
<circle clip-path="url(#clip022)" cx="1052.15" cy="1086.57" r="14.4" fill="#3cd7d9" fill-rule="evenodd" fill-opacity="0.7" stroke="#ffffff" stroke-opacity="0.7" stroke-width="3.2"/>
<circle clip-path="url(#clip022)" cx="958.324" cy="1405.1" r="14.4" fill="#3cd7d9" fill-rule="evenodd" fill-opacity="0.7" stroke="#ffffff" stroke-opacity="0.7" stroke-width="3.2"/>
<circle clip-path="url(#clip022)" cx="233.282" cy="1201.11" r="14.4" fill="#3cd7d9" fill-rule="evenodd" fill-opacity="0.7" stroke="#ffffff" stroke-opacity="0.7" stroke-width="3.2"/>
<circle clip-path="url(#clip022)" cx="358.868" cy="848.971" r="14.4" fill="#3cd7d9" fill-rule="evenodd" fill-opacity="0.7" stroke="#ffffff" stroke-opacity="0.7" stroke-width="3.2"/>
<circle clip-path="url(#clip022)" cx="670.828" cy="910.54" r="14.4" fill="#3cd7d9" fill-rule="evenodd" fill-opacity="0.7" stroke="#ffffff" stroke-opacity="0.7" stroke-width="3.2"/>
<circle clip-path="url(#clip022)" cx="512.357" cy="1066.96" r="14.4" fill="#3cd7d9" fill-rule="evenodd" fill-opacity="0.7" stroke="#ffffff" stroke-opacity="0.7" stroke-width="3.2"/>
<circle clip-path="url(#clip022)" cx="573.502" cy="1232.13" r="14.4" fill="#3cd7d9" fill-rule="evenodd" fill-opacity="0.7" stroke="#ffffff" stroke-opacity="0.7" stroke-width="3.2"/>
<circle clip-path="url(#clip022)" cx="388.288" cy="929.652" r="14.4" fill="#3cd7d9" fill-rule="evenodd" fill-opacity="0.7" stroke="#ffffff" stroke-opacity="0.7" stroke-width="3.2"/>
<circle clip-path="url(#clip022)" cx="566.358" cy="1138.78" r="14.4" fill="#3cd7d9" fill-rule="evenodd" fill-opacity="0.7" stroke="#ffffff" stroke-opacity="0.7" stroke-width="3.2"/>
<circle clip-path="url(#clip022)" cx="297.641" cy="1353.99" r="14.4" fill="#3cd7d9" fill-rule="evenodd" fill-opacity="0.7" stroke="#ffffff" stroke-opacity="0.7" stroke-width="3.2"/>
<circle clip-path="url(#clip022)" cx="857.839" cy="1353.29" r="14.4" fill="#3cd7d9" fill-rule="evenodd" fill-opacity="0.7" stroke="#ffffff" stroke-opacity="0.7" stroke-width="3.2"/>
<circle clip-path="url(#clip022)" cx="967.813" cy="955.701" r="14.4" fill="#3cd7d9" fill-rule="evenodd" fill-opacity="0.7" stroke="#ffffff" stroke-opacity="0.7" stroke-width="3.2"/>
<circle clip-path="url(#clip022)" cx="295.448" cy="1279.75" r="14.4" fill="#3cd7d9" fill-rule="evenodd" fill-opacity="0.7" stroke="#ffffff" stroke-opacity="0.7" stroke-width="3.2"/>
<circle clip-path="url(#clip022)" cx="211.556" cy="842.599" r="14.4" fill="#3cd7d9" fill-rule="evenodd" fill-opacity="0.7" stroke="#ffffff" stroke-opacity="0.7" stroke-width="3.2"/>
<circle clip-path="url(#clip022)" cx="856.431" cy="1122.61" r="14.4" fill="#3cd7d9" fill-rule="evenodd" fill-opacity="0.7" stroke="#ffffff" stroke-opacity="0.7" stroke-width="3.2"/>
<circle clip-path="url(#clip022)" cx="1036.3" cy="846.436" r="14.4" fill="#3cd7d9" fill-rule="evenodd" fill-opacity="0.7" stroke="#ffffff" stroke-opacity="0.7" stroke-width="3.2"/>
<circle clip-path="url(#clip022)" cx="927.462" cy="1304.06" r="14.4" fill="#3cd7d9" fill-rule="evenodd" fill-opacity="0.7" stroke="#ffffff" stroke-opacity="0.7" stroke-width="3.2"/>
<circle clip-path="url(#clip022)" cx="662.649" cy="1277.37" r="14.4" fill="#3cd7d9" fill-rule="evenodd" fill-opacity="0.7" stroke="#ffffff" stroke-opacity="0.7" stroke-width="3.2"/>
<circle clip-path="url(#clip022)" cx="909.415" cy="1445.72" r="14.4" fill="#3cd7d9" fill-rule="evenodd" fill-opacity="0.7" stroke="#ffffff" stroke-opacity="0.7" stroke-width="3.2"/>
<circle clip-path="url(#clip022)" cx="345.241" cy="1426.81" r="14.4" fill="#3cd7d9" fill-rule="evenodd" fill-opacity="0.7" stroke="#ffffff" stroke-opacity="0.7" stroke-width="3.2"/>
<circle clip-path="url(#clip022)" cx="507.062" cy="1038.29" r="14.4" fill="#3cd7d9" fill-rule="evenodd" fill-opacity="0.7" stroke="#ffffff" stroke-opacity="0.7" stroke-width="3.2"/>
<circle clip-path="url(#clip022)" cx="645.516" cy="1056.96" r="14.4" fill="#3cd7d9" fill-rule="evenodd" fill-opacity="0.7" stroke="#ffffff" stroke-opacity="0.7" stroke-width="3.2"/>
<circle clip-path="url(#clip022)" cx="1034.3" cy="1160.03" r="14.4" fill="#3cd7d9" fill-rule="evenodd" fill-opacity="0.7" stroke="#ffffff" stroke-opacity="0.7" stroke-width="3.2"/>
<circle clip-path="url(#clip022)" cx="630.169" cy="1013.52" r="14.4" fill="#3cd7d9" fill-rule="evenodd" fill-opacity="0.7" stroke="#ffffff" stroke-opacity="0.7" stroke-width="3.2"/>
<circle clip-path="url(#clip022)" cx="381.744" cy="1399.62" r="14.4" fill="#3cd7d9" fill-rule="evenodd" fill-opacity="0.7" stroke="#ffffff" stroke-opacity="0.7" stroke-width="3.2"/>
<circle clip-path="url(#clip022)" cx="511.73" cy="926.986" r="14.4" fill="#3cd7d9" fill-rule="evenodd" fill-opacity="0.7" stroke="#ffffff" stroke-opacity="0.7" stroke-width="3.2"/>
<circle clip-path="url(#clip022)" cx="439.8" cy="996.403" r="14.4" fill="#3cd7d9" fill-rule="evenodd" fill-opacity="0.7" stroke="#ffffff" stroke-opacity="0.7" stroke-width="3.2"/>
<circle clip-path="url(#clip022)" cx="1119.27" cy="1020.64" r="14.4" fill="#3cd7d9" fill-rule="evenodd" fill-opacity="0.7" stroke="#ffffff" stroke-opacity="0.7" stroke-width="3.2"/>
<circle clip-path="url(#clip022)" cx="662.215" cy="1422.87" r="14.4" fill="#3cd7d9" fill-rule="evenodd" fill-opacity="0.7" stroke="#ffffff" stroke-opacity="0.7" stroke-width="3.2"/>
<circle clip-path="url(#clip022)" cx="460.254" cy="946.961" r="14.4" fill="#3cd7d9" fill-rule="evenodd" fill-opacity="0.7" stroke="#ffffff" stroke-opacity="0.7" stroke-width="3.2"/>
<circle clip-path="url(#clip022)" cx="764.692" cy="1357.05" r="14.4" fill="#3cd7d9" fill-rule="evenodd" fill-opacity="0.7" stroke="#ffffff" stroke-opacity="0.7" stroke-width="3.2"/>
<circle clip-path="url(#clip022)" cx="1020.85" cy="1284.4" r="14.4" fill="#3cd7d9" fill-rule="evenodd" fill-opacity="0.7" stroke="#ffffff" stroke-opacity="0.7" stroke-width="3.2"/>
<circle clip-path="url(#clip022)" cx="683.455" cy="1253.96" r="14.4" fill="#3cd7d9" fill-rule="evenodd" fill-opacity="0.7" stroke="#ffffff" stroke-opacity="0.7" stroke-width="3.2"/>
<circle clip-path="url(#clip022)" cx="706.112" cy="1051.91" r="14.4" fill="#3cd7d9" fill-rule="evenodd" fill-opacity="0.7" stroke="#ffffff" stroke-opacity="0.7" stroke-width="3.2"/>
<circle clip-path="url(#clip022)" cx="460.27" cy="1311.38" r="14.4" fill="#3cd7d9" fill-rule="evenodd" fill-opacity="0.7" stroke="#ffffff" stroke-opacity="0.7" stroke-width="3.2"/>
<circle clip-path="url(#clip022)" cx="1569.58" cy="497.423" r="14.4" fill="#ff7300" fill-rule="evenodd" fill-opacity="0.7" stroke="#ffffff" stroke-opacity="0.7" stroke-width="3.2"/>
<circle clip-path="url(#clip022)" cx="1992.52" cy="355.225" r="14.4" fill="#ff7300" fill-rule="evenodd" fill-opacity="0.7" stroke="#ffffff" stroke-opacity="0.7" stroke-width="3.2"/>
<circle clip-path="url(#clip022)" cx="1522.19" cy="504.816" r="14.4" fill="#ff7300" fill-rule="evenodd" fill-opacity="0.7" stroke="#ffffff" stroke-opacity="0.7" stroke-width="3.2"/>
<circle clip-path="url(#clip022)" cx="1790.14" cy="483.748" r="14.4" fill="#ff7300" fill-rule="evenodd" fill-opacity="0.7" stroke="#ffffff" stroke-opacity="0.7" stroke-width="3.2"/>
<circle clip-path="url(#clip022)" cx="2290.39" cy="126.994" r="14.4" fill="#ff7300" fill-rule="evenodd" fill-opacity="0.7" stroke="#ffffff" stroke-opacity="0.7" stroke-width="3.2"/>
<circle clip-path="url(#clip022)" cx="1580.53" cy="206.195" r="14.4" fill="#ff7300" fill-rule="evenodd" fill-opacity="0.7" stroke="#ffffff" stroke-opacity="0.7" stroke-width="3.2"/>
<circle clip-path="url(#clip022)" cx="1970.99" cy="300.198" r="14.4" fill="#ff7300" fill-rule="evenodd" fill-opacity="0.7" stroke="#ffffff" stroke-opacity="0.7" stroke-width="3.2"/>
<circle clip-path="url(#clip022)" cx="1463.95" cy="156.605" r="14.4" fill="#ff7300" fill-rule="evenodd" fill-opacity="0.7" stroke="#ffffff" stroke-opacity="0.7" stroke-width="3.2"/>
<circle clip-path="url(#clip022)" cx="1682.37" cy="290.965" r="14.4" fill="#ff7300" fill-rule="evenodd" fill-opacity="0.7" stroke="#ffffff" stroke-opacity="0.7" stroke-width="3.2"/>
<circle clip-path="url(#clip022)" cx="1815.12" cy="626.077" r="14.4" fill="#ff7300" fill-rule="evenodd" fill-opacity="0.7" stroke="#ffffff" stroke-opacity="0.7" stroke-width="3.2"/>
<circle clip-path="url(#clip022)" cx="1384.47" cy="547.748" r="14.4" fill="#ff7300" fill-rule="evenodd" fill-opacity="0.7" stroke="#ffffff" stroke-opacity="0.7" stroke-width="3.2"/>
<circle clip-path="url(#clip022)" cx="1580.71" cy="233.819" r="14.4" fill="#ff7300" fill-rule="evenodd" fill-opacity="0.7" stroke="#ffffff" stroke-opacity="0.7" stroke-width="3.2"/>
<circle clip-path="url(#clip022)" cx="1985.77" cy="647.53" r="14.4" fill="#ff7300" fill-rule="evenodd" fill-opacity="0.7" stroke="#ffffff" stroke-opacity="0.7" stroke-width="3.2"/>
<circle clip-path="url(#clip022)" cx="1503.5" cy="676.867" r="14.4" fill="#ff7300" fill-rule="evenodd" fill-opacity="0.7" stroke="#ffffff" stroke-opacity="0.7" stroke-width="3.2"/>
<circle clip-path="url(#clip022)" cx="1990.57" cy="218.406" r="14.4" fill="#ff7300" fill-rule="evenodd" fill-opacity="0.7" stroke="#ffffff" stroke-opacity="0.7" stroke-width="3.2"/>
<circle clip-path="url(#clip022)" cx="2205.07" cy="331.952" r="14.4" fill="#ff7300" fill-rule="evenodd" fill-opacity="0.7" stroke="#ffffff" stroke-opacity="0.7" stroke-width="3.2"/>
<circle clip-path="url(#clip022)" cx="2111.24" cy="650.477" r="14.4" fill="#ff7300" fill-rule="evenodd" fill-opacity="0.7" stroke="#ffffff" stroke-opacity="0.7" stroke-width="3.2"/>
<circle clip-path="url(#clip022)" cx="1386.2" cy="446.482" r="14.4" fill="#ff7300" fill-rule="evenodd" fill-opacity="0.7" stroke="#ffffff" stroke-opacity="0.7" stroke-width="3.2"/>
<circle clip-path="url(#clip022)" cx="1511.78" cy="94.3482" r="14.4" fill="#ff7300" fill-rule="evenodd" fill-opacity="0.7" stroke="#ffffff" stroke-opacity="0.7" stroke-width="3.2"/>
<circle clip-path="url(#clip022)" cx="1823.74" cy="155.917" r="14.4" fill="#ff7300" fill-rule="evenodd" fill-opacity="0.7" stroke="#ffffff" stroke-opacity="0.7" stroke-width="3.2"/>
<circle clip-path="url(#clip022)" cx="1665.27" cy="312.341" r="14.4" fill="#ff7300" fill-rule="evenodd" fill-opacity="0.7" stroke="#ffffff" stroke-opacity="0.7" stroke-width="3.2"/>
<circle clip-path="url(#clip022)" cx="1726.42" cy="477.505" r="14.4" fill="#ff7300" fill-rule="evenodd" fill-opacity="0.7" stroke="#ffffff" stroke-opacity="0.7" stroke-width="3.2"/>
<circle clip-path="url(#clip022)" cx="1541.2" cy="175.029" r="14.4" fill="#ff7300" fill-rule="evenodd" fill-opacity="0.7" stroke="#ffffff" stroke-opacity="0.7" stroke-width="3.2"/>
<circle clip-path="url(#clip022)" cx="1719.27" cy="384.156" r="14.4" fill="#ff7300" fill-rule="evenodd" fill-opacity="0.7" stroke="#ffffff" stroke-opacity="0.7" stroke-width="3.2"/>
<circle clip-path="url(#clip022)" cx="1450.55" cy="599.363" r="14.4" fill="#ff7300" fill-rule="evenodd" fill-opacity="0.7" stroke="#ffffff" stroke-opacity="0.7" stroke-width="3.2"/>
<circle clip-path="url(#clip022)" cx="2010.75" cy="598.665" r="14.4" fill="#ff7300" fill-rule="evenodd" fill-opacity="0.7" stroke="#ffffff" stroke-opacity="0.7" stroke-width="3.2"/>
<circle clip-path="url(#clip022)" cx="2120.73" cy="201.079" r="14.4" fill="#ff7300" fill-rule="evenodd" fill-opacity="0.7" stroke="#ffffff" stroke-opacity="0.7" stroke-width="3.2"/>
<circle clip-path="url(#clip022)" cx="1448.36" cy="525.123" r="14.4" fill="#ff7300" fill-rule="evenodd" fill-opacity="0.7" stroke="#ffffff" stroke-opacity="0.7" stroke-width="3.2"/>
<circle clip-path="url(#clip022)" cx="1364.47" cy="87.9763" r="14.4" fill="#ff7300" fill-rule="evenodd" fill-opacity="0.7" stroke="#ffffff" stroke-opacity="0.7" stroke-width="3.2"/>
<circle clip-path="url(#clip022)" cx="2009.34" cy="367.991" r="14.4" fill="#ff7300" fill-rule="evenodd" fill-opacity="0.7" stroke="#ffffff" stroke-opacity="0.7" stroke-width="3.2"/>
<circle clip-path="url(#clip022)" cx="2189.21" cy="91.8132" r="14.4" fill="#ff7300" fill-rule="evenodd" fill-opacity="0.7" stroke="#ffffff" stroke-opacity="0.7" stroke-width="3.2"/>
<circle clip-path="url(#clip022)" cx="2080.38" cy="549.441" r="14.4" fill="#ff7300" fill-rule="evenodd" fill-opacity="0.7" stroke="#ffffff" stroke-opacity="0.7" stroke-width="3.2"/>
<circle clip-path="url(#clip022)" cx="1815.56" cy="522.746" r="14.4" fill="#ff7300" fill-rule="evenodd" fill-opacity="0.7" stroke="#ffffff" stroke-opacity="0.7" stroke-width="3.2"/>
<circle clip-path="url(#clip022)" cx="2062.33" cy="691.093" r="14.4" fill="#ff7300" fill-rule="evenodd" fill-opacity="0.7" stroke="#ffffff" stroke-opacity="0.7" stroke-width="3.2"/>
<circle clip-path="url(#clip022)" cx="1498.16" cy="672.186" r="14.4" fill="#ff7300" fill-rule="evenodd" fill-opacity="0.7" stroke="#ffffff" stroke-opacity="0.7" stroke-width="3.2"/>
<circle clip-path="url(#clip022)" cx="1659.98" cy="283.669" r="14.4" fill="#ff7300" fill-rule="evenodd" fill-opacity="0.7" stroke="#ffffff" stroke-opacity="0.7" stroke-width="3.2"/>
<circle clip-path="url(#clip022)" cx="1798.43" cy="302.333" r="14.4" fill="#ff7300" fill-rule="evenodd" fill-opacity="0.7" stroke="#ffffff" stroke-opacity="0.7" stroke-width="3.2"/>
<circle clip-path="url(#clip022)" cx="2187.22" cy="405.408" r="14.4" fill="#ff7300" fill-rule="evenodd" fill-opacity="0.7" stroke="#ffffff" stroke-opacity="0.7" stroke-width="3.2"/>
<circle clip-path="url(#clip022)" cx="1783.08" cy="258.898" r="14.4" fill="#ff7300" fill-rule="evenodd" fill-opacity="0.7" stroke="#ffffff" stroke-opacity="0.7" stroke-width="3.2"/>
<circle clip-path="url(#clip022)" cx="1534.66" cy="644.993" r="14.4" fill="#ff7300" fill-rule="evenodd" fill-opacity="0.7" stroke="#ffffff" stroke-opacity="0.7" stroke-width="3.2"/>
<circle clip-path="url(#clip022)" cx="1664.64" cy="172.363" r="14.4" fill="#ff7300" fill-rule="evenodd" fill-opacity="0.7" stroke="#ffffff" stroke-opacity="0.7" stroke-width="3.2"/>
<circle clip-path="url(#clip022)" cx="1592.71" cy="241.78" r="14.4" fill="#ff7300" fill-rule="evenodd" fill-opacity="0.7" stroke="#ffffff" stroke-opacity="0.7" stroke-width="3.2"/>
<circle clip-path="url(#clip022)" cx="2272.19" cy="266.017" r="14.4" fill="#ff7300" fill-rule="evenodd" fill-opacity="0.7" stroke="#ffffff" stroke-opacity="0.7" stroke-width="3.2"/>
<circle clip-path="url(#clip022)" cx="1815.13" cy="668.252" r="14.4" fill="#ff7300" fill-rule="evenodd" fill-opacity="0.7" stroke="#ffffff" stroke-opacity="0.7" stroke-width="3.2"/>
<circle clip-path="url(#clip022)" cx="1613.17" cy="192.338" r="14.4" fill="#ff7300" fill-rule="evenodd" fill-opacity="0.7" stroke="#ffffff" stroke-opacity="0.7" stroke-width="3.2"/>
<circle clip-path="url(#clip022)" cx="1917.61" cy="602.431" r="14.4" fill="#ff7300" fill-rule="evenodd" fill-opacity="0.7" stroke="#ffffff" stroke-opacity="0.7" stroke-width="3.2"/>
<circle clip-path="url(#clip022)" cx="2173.76" cy="529.773" r="14.4" fill="#ff7300" fill-rule="evenodd" fill-opacity="0.7" stroke="#ffffff" stroke-opacity="0.7" stroke-width="3.2"/>
<circle clip-path="url(#clip022)" cx="1836.37" cy="499.334" r="14.4" fill="#ff7300" fill-rule="evenodd" fill-opacity="0.7" stroke="#ffffff" stroke-opacity="0.7" stroke-width="3.2"/>
<circle clip-path="url(#clip022)" cx="1859.03" cy="297.287" r="14.4" fill="#ff7300" fill-rule="evenodd" fill-opacity="0.7" stroke="#ffffff" stroke-opacity="0.7" stroke-width="3.2"/>
<circle clip-path="url(#clip022)" cx="1613.18" cy="556.76" r="14.4" fill="#ff7300" fill-rule="evenodd" fill-opacity="0.7" stroke="#ffffff" stroke-opacity="0.7" stroke-width="3.2"/>
<line clip-path="url(#clip022)" x1="2111.24" y1="650.477" x2="2111.24" y2="610.477" style="stroke:#8b0000; stroke-width:16; stroke-opacity:1"/>
<line clip-path="url(#clip022)" x1="2111.24" y1="650.477" x2="2071.24" y2="650.477" style="stroke:#8b0000; stroke-width:16; stroke-opacity:1"/>
<line clip-path="url(#clip022)" x1="2111.24" y1="650.477" x2="2111.24" y2="690.477" style="stroke:#8b0000; stroke-width:16; stroke-opacity:1"/>
<line clip-path="url(#clip022)" x1="2111.24" y1="650.477" x2="2151.24" y2="650.477" style="stroke:#8b0000; stroke-width:16; stroke-opacity:1"/>
<path clip-path="url(#clip020)" d="
M1676.15 1438.47 L2279.3 1438.47 L2279.3 1231.11 L1676.15 1231.11  Z
  " fill="#12273f" fill-rule="evenodd" fill-opacity="1"/>
<polyline clip-path="url(#clip020)" style="stroke:#ffffff; stroke-linecap:round; stroke-linejoin:round; stroke-width:4; stroke-opacity:1; fill:none" points="
  1676.15,1438.47 2279.3,1438.47 2279.3,1231.11 1676.15,1231.11 1676.15,1438.47 
  "/>
<circle clip-path="url(#clip020)" cx="1774.09" cy="1282.95" r="23.04" fill="#3cd7d9" fill-rule="evenodd" fill-opacity="0.7" stroke="#ffffff" stroke-opacity="0.7" stroke-width="5.12"/>
<path clip-path="url(#clip020)" d="M1883.97 1268.75 Q1880.36 1268.75 1878.53 1272.32 Q1876.73 1275.86 1876.73 1282.99 Q1876.73 1290.1 1878.53 1293.66 Q1880.36 1297.2 1883.97 1297.2 Q1887.61 1297.2 1889.41 1293.66 Q1891.24 1290.1 1891.24 1282.99 Q1891.24 1275.86 1889.41 1272.32 Q1887.61 1268.75 1883.97 1268.75 M1883.97 1265.05 Q1889.78 1265.05 1892.84 1269.66 Q1895.92 1274.24 1895.92 1282.99 Q1895.92 1291.72 1892.84 1296.32 Q1889.78 1300.91 1883.97 1300.91 Q1878.16 1300.91 1875.08 1296.32 Q1872.03 1291.72 1872.03 1282.99 Q1872.03 1274.24 1875.08 1269.66 Q1878.16 1265.05 1883.97 1265.05 Z" fill="#ffffff" fill-rule="evenodd" fill-opacity="1" /><path clip-path="url(#clip020)" d="M1904.13 1294.35 L1909.02 1294.35 L1909.02 1300.23 L1904.13 1300.23 L1904.13 1294.35 Z" fill="#ffffff" fill-rule="evenodd" fill-opacity="1" /><path clip-path="url(#clip020)" d="M1929.2 1268.75 Q1925.59 1268.75 1923.76 1272.32 Q1921.96 1275.86 1921.96 1282.99 Q1921.96 1290.1 1923.76 1293.66 Q1925.59 1297.2 1929.2 1297.2 Q1932.84 1297.2 1934.64 1293.66 Q1936.47 1290.1 1936.47 1282.99 Q1936.47 1275.86 1934.64 1272.32 Q1932.84 1268.75 1929.2 1268.75 M1929.2 1265.05 Q1935.01 1265.05 1938.07 1269.66 Q1941.15 1274.24 1941.15 1282.99 Q1941.15 1291.72 1938.07 1296.32 Q1935.01 1300.91 1929.2 1300.91 Q1923.39 1300.91 1920.31 1296.32 Q1917.26 1291.72 1917.26 1282.99 Q1917.26 1274.24 1920.31 1269.66 Q1923.39 1265.05 1929.2 1265.05 Z" fill="#ffffff" fill-rule="evenodd" fill-opacity="1" /><circle clip-path="url(#clip020)" cx="1774.09" cy="1334.79" r="23.04" fill="#ff7300" fill-rule="evenodd" fill-opacity="0.7" stroke="#ffffff" stroke-opacity="0.7" stroke-width="5.12"/>
<path clip-path="url(#clip020)" d="M1872.7 1348.14 L1880.34 1348.14 L1880.34 1321.77 L1872.03 1323.44 L1872.03 1319.18 L1880.29 1317.51 L1884.97 1317.51 L1884.97 1348.14 L1892.61 1348.14 L1892.61 1352.07 L1872.7 1352.07 L1872.7 1348.14 Z" fill="#ffffff" fill-rule="evenodd" fill-opacity="1" /><path clip-path="url(#clip020)" d="M1902.05 1346.19 L1906.93 1346.19 L1906.93 1352.07 L1902.05 1352.07 L1902.05 1346.19 Z" fill="#ffffff" fill-rule="evenodd" fill-opacity="1" /><path clip-path="url(#clip020)" d="M1927.12 1320.59 Q1923.51 1320.59 1921.68 1324.16 Q1919.87 1327.7 1919.87 1334.83 Q1919.87 1341.94 1921.68 1345.5 Q1923.51 1349.04 1927.12 1349.04 Q1930.75 1349.04 1932.56 1345.5 Q1934.39 1341.94 1934.39 1334.83 Q1934.39 1327.7 1932.56 1324.16 Q1930.75 1320.59 1927.12 1320.59 M1927.12 1316.89 Q1932.93 1316.89 1935.99 1321.5 Q1939.06 1326.08 1939.06 1334.83 Q1939.06 1343.56 1935.99 1348.16 Q1932.93 1352.75 1927.12 1352.75 Q1921.31 1352.75 1918.23 1348.16 Q1915.18 1343.56 1915.18 1334.83 Q1915.18 1326.08 1918.23 1321.5 Q1921.31 1316.89 1927.12 1316.89 Z" fill="#ffffff" fill-rule="evenodd" fill-opacity="1" /><line clip-path="url(#clip020)" x1="1774.09" y1="1386.63" x2="1774.09" y2="1361.03" style="stroke:#8b0000; stroke-width:10.24; stroke-opacity:1"/>
<line clip-path="url(#clip020)" x1="1774.09" y1="1386.63" x2="1748.49" y2="1386.63" style="stroke:#8b0000; stroke-width:10.24; stroke-opacity:1"/>
<line clip-path="url(#clip020)" x1="1774.09" y1="1386.63" x2="1774.09" y2="1412.23" style="stroke:#8b0000; stroke-width:10.24; stroke-opacity:1"/>
<line clip-path="url(#clip020)" x1="1774.09" y1="1386.63" x2="1799.69" y2="1386.63" style="stroke:#8b0000; stroke-width:10.24; stroke-opacity:1"/>
<path clip-path="url(#clip020)" d="M1899.9 1372.02 L1899.9 1376.95 Q1897.54 1374.75 1894.85 1373.66 Q1892.19 1372.57 1889.18 1372.57 Q1883.25 1372.57 1880.11 1376.21 Q1876.96 1379.82 1876.96 1386.67 Q1876.96 1393.5 1880.11 1397.13 Q1883.25 1400.74 1889.18 1400.74 Q1892.19 1400.74 1894.85 1399.66 Q1897.54 1398.57 1899.9 1396.37 L1899.9 1401.25 Q1897.44 1402.92 1894.69 1403.75 Q1891.96 1404.59 1888.9 1404.59 Q1881.06 1404.59 1876.54 1399.79 Q1872.03 1394.98 1872.03 1386.67 Q1872.03 1378.34 1876.54 1373.54 Q1881.06 1368.73 1888.9 1368.73 Q1892 1368.73 1894.74 1369.56 Q1897.49 1370.37 1899.9 1372.02 Z" fill="#ffffff" fill-rule="evenodd" fill-opacity="1" /><path clip-path="url(#clip020)" d="M1928.49 1388.27 L1928.49 1403.91 L1924.23 1403.91 L1924.23 1388.41 Q1924.23 1384.72 1922.79 1382.9 Q1921.36 1381.07 1918.49 1381.07 Q1915.04 1381.07 1913.05 1383.27 Q1911.05 1385.47 1911.05 1389.26 L1911.05 1403.91 L1906.77 1403.91 L1906.77 1367.9 L1911.05 1367.9 L1911.05 1382.02 Q1912.58 1379.68 1914.64 1378.52 Q1916.73 1377.36 1919.43 1377.36 Q1923.9 1377.36 1926.19 1380.14 Q1928.49 1382.9 1928.49 1388.27 Z" fill="#ffffff" fill-rule="evenodd" fill-opacity="1" /><path clip-path="url(#clip020)" d="M1947.03 1380.97 Q1943.6 1380.97 1941.61 1383.66 Q1939.62 1386.32 1939.62 1390.97 Q1939.62 1395.63 1941.59 1398.31 Q1943.58 1400.97 1947.03 1400.97 Q1950.43 1400.97 1952.42 1398.29 Q1954.41 1395.6 1954.41 1390.97 Q1954.41 1386.37 1952.42 1383.68 Q1950.43 1380.97 1947.03 1380.97 M1947.03 1377.36 Q1952.58 1377.36 1955.75 1380.97 Q1958.93 1384.59 1958.93 1390.97 Q1958.93 1397.34 1955.75 1400.97 Q1952.58 1404.59 1947.03 1404.59 Q1941.45 1404.59 1938.28 1400.97 Q1935.13 1397.34 1935.13 1390.97 Q1935.13 1384.59 1938.28 1380.97 Q1941.45 1377.36 1947.03 1377.36 Z" fill="#ffffff" fill-rule="evenodd" fill-opacity="1" /><path clip-path="url(#clip020)" d="M1982.51 1378.75 L1982.51 1382.78 Q1980.71 1381.85 1978.76 1381.39 Q1976.82 1380.93 1974.74 1380.93 Q1971.56 1380.93 1969.97 1381.9 Q1968.39 1382.87 1968.39 1384.82 Q1968.39 1386.3 1969.53 1387.16 Q1970.66 1387.99 1974.09 1388.75 L1975.55 1389.08 Q1980.08 1390.05 1981.98 1391.83 Q1983.9 1393.59 1983.9 1396.76 Q1983.9 1400.37 1981.03 1402.48 Q1978.18 1404.59 1973.18 1404.59 Q1971.1 1404.59 1968.83 1404.17 Q1966.59 1403.78 1964.09 1402.97 L1964.09 1398.57 Q1966.45 1399.79 1968.74 1400.42 Q1971.03 1401.02 1973.28 1401.02 Q1976.29 1401.02 1977.91 1400 Q1979.53 1398.96 1979.53 1397.09 Q1979.53 1395.35 1978.35 1394.42 Q1977.19 1393.5 1973.23 1392.64 L1971.75 1392.29 Q1967.79 1391.46 1966.03 1389.75 Q1964.27 1388.01 1964.27 1385 Q1964.27 1381.35 1966.86 1379.35 Q1969.46 1377.36 1974.23 1377.36 Q1976.59 1377.36 1978.67 1377.71 Q1980.75 1378.06 1982.51 1378.75 Z" fill="#ffffff" fill-rule="evenodd" fill-opacity="1" /><path clip-path="url(#clip020)" d="M2012.86 1389.89 L2012.86 1391.97 L1993.28 1391.97 Q1993.55 1396.37 1995.92 1398.68 Q1998.3 1400.97 2002.54 1400.97 Q2004.99 1400.97 2007.28 1400.37 Q2009.6 1399.77 2011.86 1398.57 L2011.86 1402.59 Q2009.57 1403.57 2007.17 1404.08 Q2004.76 1404.59 2002.28 1404.59 Q1996.08 1404.59 1992.44 1400.97 Q1988.83 1397.36 1988.83 1391.21 Q1988.83 1384.84 1992.26 1381.11 Q1995.71 1377.36 2001.54 1377.36 Q2006.77 1377.36 2009.8 1380.74 Q2012.86 1384.1 2012.86 1389.89 M2008.6 1388.64 Q2008.55 1385.14 2006.63 1383.06 Q2004.73 1380.97 2001.59 1380.97 Q1998.02 1380.97 1995.87 1382.99 Q1993.74 1385 1993.42 1388.66 L2008.6 1388.64 Z" fill="#ffffff" fill-rule="evenodd" fill-opacity="1" /><path clip-path="url(#clip020)" d="M2041.4 1388.27 L2041.4 1403.91 L2037.14 1403.91 L2037.14 1388.41 Q2037.14 1384.72 2035.71 1382.9 Q2034.27 1381.07 2031.4 1381.07 Q2027.95 1381.07 2025.96 1383.27 Q2023.97 1385.47 2023.97 1389.26 L2023.97 1403.91 L2019.69 1403.91 L2019.69 1377.99 L2023.97 1377.99 L2023.97 1382.02 Q2025.5 1379.68 2027.56 1378.52 Q2029.64 1377.36 2032.35 1377.36 Q2036.82 1377.36 2039.11 1380.14 Q2041.4 1382.9 2041.4 1388.27 Z" fill="#ffffff" fill-rule="evenodd" fill-opacity="1" /><path clip-path="url(#clip020)" d="M2081.49 1378.75 L2081.49 1382.78 Q2079.69 1381.85 2077.74 1381.39 Q2075.8 1380.93 2073.72 1380.93 Q2070.54 1380.93 2068.95 1381.9 Q2067.37 1382.87 2067.37 1384.82 Q2067.37 1386.3 2068.51 1387.16 Q2069.64 1387.99 2073.07 1388.75 L2074.53 1389.08 Q2079.06 1390.05 2080.96 1391.83 Q2082.88 1393.59 2082.88 1396.76 Q2082.88 1400.37 2080.01 1402.48 Q2077.17 1404.59 2072.17 1404.59 Q2070.08 1404.59 2067.81 1404.17 Q2065.57 1403.78 2063.07 1402.97 L2063.07 1398.57 Q2065.43 1399.79 2067.72 1400.42 Q2070.01 1401.02 2072.26 1401.02 Q2075.27 1401.02 2076.89 1400 Q2078.51 1398.96 2078.51 1397.09 Q2078.51 1395.35 2077.33 1394.42 Q2076.17 1393.5 2072.21 1392.64 L2070.73 1392.29 Q2066.77 1391.46 2065.01 1389.75 Q2063.25 1388.01 2063.25 1385 Q2063.25 1381.35 2065.85 1379.35 Q2068.44 1377.36 2073.21 1377.36 Q2075.57 1377.36 2077.65 1377.71 Q2079.73 1378.06 2081.49 1378.75 Z" fill="#ffffff" fill-rule="evenodd" fill-opacity="1" /><path clip-path="url(#clip020)" d="M2101.45 1390.88 Q2096.29 1390.88 2094.29 1392.06 Q2092.3 1393.24 2092.3 1396.09 Q2092.3 1398.36 2093.79 1399.7 Q2095.29 1401.02 2097.86 1401.02 Q2101.4 1401.02 2103.53 1398.52 Q2105.68 1396 2105.68 1391.83 L2105.68 1390.88 L2101.45 1390.88 M2109.94 1389.12 L2109.94 1403.91 L2105.68 1403.91 L2105.68 1399.98 Q2104.23 1402.34 2102.05 1403.47 Q2099.87 1404.59 2096.73 1404.59 Q2092.74 1404.59 2090.38 1402.36 Q2088.04 1400.12 2088.04 1396.37 Q2088.04 1391.99 2090.96 1389.77 Q2093.9 1387.55 2099.71 1387.55 L2105.68 1387.55 L2105.68 1387.13 Q2105.68 1384.19 2103.74 1382.6 Q2101.82 1380.97 2098.32 1380.97 Q2096.1 1380.97 2093.99 1381.51 Q2091.89 1382.04 2089.94 1383.1 L2089.94 1379.17 Q2092.28 1378.27 2094.48 1377.83 Q2096.68 1377.36 2098.76 1377.36 Q2104.39 1377.36 2107.16 1380.28 Q2109.94 1383.2 2109.94 1389.12 Z" fill="#ffffff" fill-rule="evenodd" fill-opacity="1" /><path clip-path="url(#clip020)" d="M2138.9 1382.97 Q2140.5 1380.1 2142.72 1378.73 Q2144.94 1377.36 2147.95 1377.36 Q2152 1377.36 2154.2 1380.21 Q2156.4 1383.03 2156.4 1388.27 L2156.4 1403.91 L2152.12 1403.91 L2152.12 1388.41 Q2152.12 1384.68 2150.8 1382.87 Q2149.48 1381.07 2146.77 1381.07 Q2143.46 1381.07 2141.54 1383.27 Q2139.62 1385.47 2139.62 1389.26 L2139.62 1403.91 L2135.34 1403.91 L2135.34 1388.41 Q2135.34 1384.66 2134.02 1382.87 Q2132.7 1381.07 2129.94 1381.07 Q2126.68 1381.07 2124.76 1383.29 Q2122.84 1385.49 2122.84 1389.26 L2122.84 1403.91 L2118.55 1403.91 L2118.55 1377.99 L2122.84 1377.99 L2122.84 1382.02 Q2124.29 1379.63 2126.33 1378.5 Q2128.37 1377.36 2131.17 1377.36 Q2133.99 1377.36 2135.96 1378.8 Q2137.95 1380.23 2138.9 1382.97 Z" fill="#ffffff" fill-rule="evenodd" fill-opacity="1" /><path clip-path="url(#clip020)" d="M2169.02 1400.03 L2169.02 1413.78 L2164.73 1413.78 L2164.73 1377.99 L2169.02 1377.99 L2169.02 1381.92 Q2170.36 1379.61 2172.4 1378.5 Q2174.46 1377.36 2177.3 1377.36 Q2182.03 1377.36 2184.97 1381.11 Q2187.93 1384.86 2187.93 1390.97 Q2187.93 1397.09 2184.97 1400.84 Q2182.03 1404.59 2177.3 1404.59 Q2174.46 1404.59 2172.4 1403.47 Q2170.36 1402.34 2169.02 1400.03 M2183.51 1390.97 Q2183.51 1386.28 2181.56 1383.61 Q2179.64 1380.93 2176.26 1380.93 Q2172.88 1380.93 2170.94 1383.61 Q2169.02 1386.28 2169.02 1390.97 Q2169.02 1395.67 2170.94 1398.36 Q2172.88 1401.02 2176.26 1401.02 Q2179.64 1401.02 2181.56 1398.36 Q2183.51 1395.67 2183.51 1390.97 Z" fill="#ffffff" fill-rule="evenodd" fill-opacity="1" /><path clip-path="url(#clip020)" d="M2194.99 1367.9 L2199.25 1367.9 L2199.25 1403.91 L2194.99 1403.91 L2194.99 1367.9 Z" fill="#ffffff" fill-rule="evenodd" fill-opacity="1" /><path clip-path="url(#clip020)" d="M2230.34 1389.89 L2230.34 1391.97 L2210.75 1391.97 Q2211.03 1396.37 2213.39 1398.68 Q2215.78 1400.97 2220.01 1400.97 Q2222.47 1400.97 2224.76 1400.37 Q2227.07 1399.77 2229.34 1398.57 L2229.34 1402.59 Q2227.05 1403.57 2224.64 1404.08 Q2222.23 1404.59 2219.76 1404.59 Q2213.55 1404.59 2209.92 1400.97 Q2206.31 1397.36 2206.31 1391.21 Q2206.31 1384.84 2209.73 1381.11 Q2213.18 1377.36 2219.02 1377.36 Q2224.25 1377.36 2227.28 1380.74 Q2230.34 1384.1 2230.34 1389.89 M2226.08 1388.64 Q2226.03 1385.14 2224.11 1383.06 Q2222.21 1380.97 2219.06 1380.97 Q2215.5 1380.97 2213.34 1382.99 Q2211.22 1385 2210.89 1388.66 L2226.08 1388.64 Z" fill="#ffffff" fill-rule="evenodd" fill-opacity="1" /></svg>
