<?xml version="1.0" encoding="utf-8"?>
<svg xmlns="http://www.w3.org/2000/svg" xmlns:xlink="http://www.w3.org/1999/xlink" width="600" height="400" viewBox="0 0 2400 1600">
<defs>
  <clipPath id="clip400">
    <rect x="0" y="0" width="2400" height="1600"/>
  </clipPath>
</defs>
<path clip-path="url(#clip400)" d="
M0 1600 L2400 1600 L2400 0 L0 0  Z
  " fill="#12273f" fill-rule="evenodd" fill-opacity="1"/>
<defs>
  <clipPath id="clip401">
    <rect x="480" y="0" width="1681" height="1600"/>
  </clipPath>
</defs>
<path clip-path="url(#clip400)" d="
M257.204 1423.18 L2352.76 1423.18 L2352.76 47.2441 L257.204 47.2441  Z
  " fill="#12273f" fill-rule="evenodd" fill-opacity="1"/>
<defs>
  <clipPath id="clip402">
    <rect x="257" y="47" width="2097" height="1377"/>
  </clipPath>
</defs>
<polyline clip-path="url(#clip402)" style="stroke:#ffffff; stroke-linecap:round; stroke-linejoin:round; stroke-width:2; stroke-opacity:0.1; fill:none" points="
  483.069,1423.18 483.069,47.2441 
  "/>
<polyline clip-path="url(#clip402)" style="stroke:#ffffff; stroke-linecap:round; stroke-linejoin:round; stroke-width:2; stroke-opacity:0.1; fill:none" points="
  779.653,1423.18 779.653,47.2441 
  "/>
<polyline clip-path="url(#clip402)" style="stroke:#ffffff; stroke-linecap:round; stroke-linejoin:round; stroke-width:2; stroke-opacity:0.1; fill:none" points="
  1076.24,1423.18 1076.24,47.2441 
  "/>
<polyline clip-path="url(#clip402)" style="stroke:#ffffff; stroke-linecap:round; stroke-linejoin:round; stroke-width:2; stroke-opacity:0.1; fill:none" points="
  1372.82,1423.18 1372.82,47.2441 
  "/>
<polyline clip-path="url(#clip402)" style="stroke:#ffffff; stroke-linecap:round; stroke-linejoin:round; stroke-width:2; stroke-opacity:0.1; fill:none" points="
  1669.41,1423.18 1669.41,47.2441 
  "/>
<polyline clip-path="url(#clip402)" style="stroke:#ffffff; stroke-linecap:round; stroke-linejoin:round; stroke-width:2; stroke-opacity:0.1; fill:none" points="
  1965.99,1423.18 1965.99,47.2441 
  "/>
<polyline clip-path="url(#clip402)" style="stroke:#ffffff; stroke-linecap:round; stroke-linejoin:round; stroke-width:2; stroke-opacity:0.1; fill:none" points="
  2262.58,1423.18 2262.58,47.2441 
  "/>
<polyline clip-path="url(#clip400)" style="stroke:#ffffff; stroke-linecap:round; stroke-linejoin:round; stroke-width:4; stroke-opacity:1; fill:none" points="
  257.204,1423.18 2352.76,1423.18 
  "/>
<polyline clip-path="url(#clip400)" style="stroke:#ffffff; stroke-linecap:round; stroke-linejoin:round; stroke-width:4; stroke-opacity:1; fill:none" points="
  483.069,1423.18 483.069,1404.28 
  "/>
<polyline clip-path="url(#clip400)" style="stroke:#ffffff; stroke-linecap:round; stroke-linejoin:round; stroke-width:4; stroke-opacity:1; fill:none" points="
  779.653,1423.18 779.653,1404.28 
  "/>
<polyline clip-path="url(#clip400)" style="stroke:#ffffff; stroke-linecap:round; stroke-linejoin:round; stroke-width:4; stroke-opacity:1; fill:none" points="
  1076.24,1423.18 1076.24,1404.28 
  "/>
<polyline clip-path="url(#clip400)" style="stroke:#ffffff; stroke-linecap:round; stroke-linejoin:round; stroke-width:4; stroke-opacity:1; fill:none" points="
  1372.82,1423.18 1372.82,1404.28 
  "/>
<polyline clip-path="url(#clip400)" style="stroke:#ffffff; stroke-linecap:round; stroke-linejoin:round; stroke-width:4; stroke-opacity:1; fill:none" points="
  1669.41,1423.18 1669.41,1404.28 
  "/>
<polyline clip-path="url(#clip400)" style="stroke:#ffffff; stroke-linecap:round; stroke-linejoin:round; stroke-width:4; stroke-opacity:1; fill:none" points="
  1965.99,1423.18 1965.99,1404.28 
  "/>
<polyline clip-path="url(#clip400)" style="stroke:#ffffff; stroke-linecap:round; stroke-linejoin:round; stroke-width:4; stroke-opacity:1; fill:none" points="
  2262.58,1423.18 2262.58,1404.28 
  "/>
<path clip-path="url(#clip400)" d="M429.921 1468.75 L459.597 1468.75 L459.597 1472.69 L429.921 1472.69 L429.921 1468.75 Z" fill="#ffffff" fill-rule="evenodd" fill-opacity="1" /><path clip-path="url(#clip400)" d="M479.689 1454.1 Q476.078 1454.1 474.249 1457.66 Q472.444 1461.2 472.444 1468.33 Q472.444 1475.44 474.249 1479.01 Q476.078 1482.55 479.689 1482.55 Q483.324 1482.55 485.129 1479.01 Q486.958 1475.44 486.958 1468.33 Q486.958 1461.2 485.129 1457.66 Q483.324 1454.1 479.689 1454.1 M479.689 1450.39 Q485.499 1450.39 488.555 1455 Q491.634 1459.58 491.634 1468.33 Q491.634 1477.06 488.555 1481.67 Q485.499 1486.25 479.689 1486.25 Q473.879 1486.25 470.8 1481.67 Q467.745 1477.06 467.745 1468.33 Q467.745 1459.58 470.8 1455 Q473.879 1450.39 479.689 1450.39 Z" fill="#ffffff" fill-rule="evenodd" fill-opacity="1" /><path clip-path="url(#clip400)" d="M499.851 1479.7 L504.735 1479.7 L504.735 1485.58 L499.851 1485.58 L499.851 1479.7 Z" fill="#ffffff" fill-rule="evenodd" fill-opacity="1" /><path clip-path="url(#clip400)" d="M529.087 1466.95 Q532.444 1467.66 534.319 1469.93 Q536.217 1472.2 536.217 1475.53 Q536.217 1480.65 532.698 1483.45 Q529.18 1486.25 522.698 1486.25 Q520.522 1486.25 518.208 1485.81 Q515.916 1485.39 513.462 1484.54 L513.462 1480.02 Q515.407 1481.16 517.721 1481.74 Q520.036 1482.32 522.559 1482.32 Q526.958 1482.32 529.249 1480.58 Q531.564 1478.84 531.564 1475.53 Q531.564 1472.48 529.411 1470.77 Q527.282 1469.03 523.462 1469.03 L519.434 1469.03 L519.434 1465.19 L523.647 1465.19 Q527.096 1465.19 528.925 1463.82 Q530.754 1462.43 530.754 1459.84 Q530.754 1457.18 528.856 1455.77 Q526.981 1454.33 523.462 1454.33 Q521.541 1454.33 519.342 1454.75 Q517.143 1455.16 514.504 1456.04 L514.504 1451.88 Q517.166 1451.14 519.481 1450.77 Q521.819 1450.39 523.879 1450.39 Q529.203 1450.39 532.305 1452.83 Q535.407 1455.23 535.407 1459.35 Q535.407 1462.22 533.763 1464.21 Q532.12 1466.18 529.087 1466.95 Z" fill="#ffffff" fill-rule="evenodd" fill-opacity="1" /><path clip-path="url(#clip400)" d="M726.98 1468.75 L756.656 1468.75 L756.656 1472.69 L726.98 1472.69 L726.98 1468.75 Z" fill="#ffffff" fill-rule="evenodd" fill-opacity="1" /><path clip-path="url(#clip400)" d="M776.748 1454.1 Q773.137 1454.1 771.308 1457.66 Q769.503 1461.2 769.503 1468.33 Q769.503 1475.44 771.308 1479.01 Q773.137 1482.55 776.748 1482.55 Q780.382 1482.55 782.188 1479.01 Q784.017 1475.44 784.017 1468.33 Q784.017 1461.2 782.188 1457.66 Q780.382 1454.1 776.748 1454.1 M776.748 1450.39 Q782.558 1450.39 785.614 1455 Q788.693 1459.58 788.693 1468.33 Q788.693 1477.06 785.614 1481.67 Q782.558 1486.25 776.748 1486.25 Q770.938 1486.25 767.859 1481.67 Q764.804 1477.06 764.804 1468.33 Q764.804 1459.58 767.859 1455 Q770.938 1450.39 776.748 1450.39 Z" fill="#ffffff" fill-rule="evenodd" fill-opacity="1" /><path clip-path="url(#clip400)" d="M796.91 1479.7 L801.794 1479.7 L801.794 1485.58 L796.91 1485.58 L796.91 1479.7 Z" fill="#ffffff" fill-rule="evenodd" fill-opacity="1" /><path clip-path="url(#clip400)" d="M816.007 1481.64 L832.327 1481.64 L832.327 1485.58 L810.382 1485.58 L810.382 1481.64 Q813.044 1478.89 817.628 1474.26 Q822.234 1469.61 823.415 1468.27 Q825.66 1465.74 826.54 1464.01 Q827.442 1462.25 827.442 1460.56 Q827.442 1457.8 825.498 1456.07 Q823.577 1454.33 820.475 1454.33 Q818.276 1454.33 815.822 1455.09 Q813.392 1455.86 810.614 1457.41 L810.614 1452.69 Q813.438 1451.55 815.892 1450.97 Q818.345 1450.39 820.382 1450.39 Q825.753 1450.39 828.947 1453.08 Q832.141 1455.77 832.141 1460.26 Q832.141 1462.39 831.331 1464.31 Q830.544 1466.2 828.438 1468.8 Q827.859 1469.47 824.757 1472.69 Q821.655 1475.88 816.007 1481.64 Z" fill="#ffffff" fill-rule="evenodd" fill-opacity="1" /><path clip-path="url(#clip400)" d="M1023.38 1468.75 L1053.05 1468.75 L1053.05 1472.69 L1023.38 1472.69 L1023.38 1468.75 Z" fill="#ffffff" fill-rule="evenodd" fill-opacity="1" /><path clip-path="url(#clip400)" d="M1073.15 1454.1 Q1069.54 1454.1 1067.71 1457.66 Q1065.9 1461.2 1065.9 1468.33 Q1065.9 1475.44 1067.71 1479.01 Q1069.54 1482.55 1073.15 1482.55 Q1076.78 1482.55 1078.59 1479.01 Q1080.42 1475.44 1080.42 1468.33 Q1080.42 1461.2 1078.59 1457.66 Q1076.78 1454.1 1073.15 1454.1 M1073.15 1450.39 Q1078.96 1450.39 1082.01 1455 Q1085.09 1459.58 1085.09 1468.33 Q1085.09 1477.06 1082.01 1481.67 Q1078.96 1486.25 1073.15 1486.25 Q1067.34 1486.25 1064.26 1481.67 Q1061.2 1477.06 1061.2 1468.33 Q1061.2 1459.58 1064.26 1455 Q1067.34 1450.39 1073.15 1450.39 Z" fill="#ffffff" fill-rule="evenodd" fill-opacity="1" /><path clip-path="url(#clip400)" d="M1093.31 1479.7 L1098.19 1479.7 L1098.19 1485.58 L1093.31 1485.58 L1093.31 1479.7 Z" fill="#ffffff" fill-rule="evenodd" fill-opacity="1" /><path clip-path="url(#clip400)" d="M1109.19 1481.64 L1116.83 1481.64 L1116.83 1455.28 L1108.52 1456.95 L1108.52 1452.69 L1116.78 1451.02 L1121.46 1451.02 L1121.46 1481.64 L1129.1 1481.64 L1129.1 1485.58 L1109.19 1485.58 L1109.19 1481.64 Z" fill="#ffffff" fill-rule="evenodd" fill-opacity="1" /><path clip-path="url(#clip400)" d="M1350.21 1454.1 Q1346.6 1454.1 1344.77 1457.66 Q1342.96 1461.2 1342.96 1468.33 Q1342.96 1475.44 1344.77 1479.01 Q1346.6 1482.55 1350.21 1482.55 Q1353.84 1482.55 1355.65 1479.01 Q1357.47 1475.44 1357.47 1468.33 Q1357.47 1461.2 1355.65 1457.66 Q1353.84 1454.1 1350.21 1454.1 M1350.21 1450.39 Q1356.02 1450.39 1359.07 1455 Q1362.15 1459.58 1362.15 1468.33 Q1362.15 1477.06 1359.07 1481.67 Q1356.02 1486.25 1350.21 1486.25 Q1344.4 1486.25 1341.32 1481.67 Q1338.26 1477.06 1338.26 1468.33 Q1338.26 1459.58 1341.32 1455 Q1344.4 1450.39 1350.21 1450.39 Z" fill="#ffffff" fill-rule="evenodd" fill-opacity="1" /><path clip-path="url(#clip400)" d="M1370.37 1479.7 L1375.25 1479.7 L1375.25 1485.58 L1370.37 1485.58 L1370.37 1479.7 Z" fill="#ffffff" fill-rule="evenodd" fill-opacity="1" /><path clip-path="url(#clip400)" d="M1395.44 1454.1 Q1391.83 1454.1 1390 1457.66 Q1388.19 1461.2 1388.19 1468.33 Q1388.19 1475.44 1390 1479.01 Q1391.83 1482.55 1395.44 1482.55 Q1399.07 1482.55 1400.88 1479.01 Q1402.71 1475.44 1402.71 1468.33 Q1402.71 1461.2 1400.88 1457.66 Q1399.07 1454.1 1395.44 1454.1 M1395.44 1450.39 Q1401.25 1450.39 1404.3 1455 Q1407.38 1459.58 1407.38 1468.33 Q1407.38 1477.06 1404.3 1481.67 Q1401.25 1486.25 1395.44 1486.25 Q1389.63 1486.25 1386.55 1481.67 Q1383.49 1477.06 1383.49 1468.33 Q1383.49 1459.58 1386.55 1455 Q1389.63 1450.39 1395.44 1450.39 Z" fill="#ffffff" fill-rule="evenodd" fill-opacity="1" /><path clip-path="url(#clip400)" d="M1647.4 1454.1 Q1643.79 1454.1 1641.96 1457.66 Q1640.16 1461.2 1640.16 1468.33 Q1640.16 1475.44 1641.96 1479.01 Q1643.79 1482.55 1647.4 1482.55 Q1651.04 1482.55 1652.84 1479.01 Q1654.67 1475.44 1654.67 1468.33 Q1654.67 1461.2 1652.84 1457.66 Q1651.04 1454.1 1647.4 1454.1 M1647.4 1450.39 Q1653.21 1450.39 1656.27 1455 Q1659.35 1459.58 1659.35 1468.33 Q1659.35 1477.06 1656.27 1481.67 Q1653.21 1486.25 1647.4 1486.25 Q1641.59 1486.25 1638.52 1481.67 Q1635.46 1477.06 1635.46 1468.33 Q1635.46 1459.58 1638.52 1455 Q1641.59 1450.39 1647.4 1450.39 Z" fill="#ffffff" fill-rule="evenodd" fill-opacity="1" /><path clip-path="url(#clip400)" d="M1667.57 1479.7 L1672.45 1479.7 L1672.45 1485.58 L1667.57 1485.58 L1667.57 1479.7 Z" fill="#ffffff" fill-rule="evenodd" fill-opacity="1" /><path clip-path="url(#clip400)" d="M1683.45 1481.64 L1691.08 1481.64 L1691.08 1455.28 L1682.77 1456.95 L1682.77 1452.69 L1691.04 1451.02 L1695.71 1451.02 L1695.71 1481.64 L1703.35 1481.64 L1703.35 1485.58 L1683.45 1485.58 L1683.45 1481.64 Z" fill="#ffffff" fill-rule="evenodd" fill-opacity="1" /><path clip-path="url(#clip400)" d="M1944.17 1454.1 Q1940.56 1454.1 1938.73 1457.66 Q1936.93 1461.2 1936.93 1468.33 Q1936.93 1475.44 1938.73 1479.01 Q1940.56 1482.55 1944.17 1482.55 Q1947.81 1482.55 1949.61 1479.01 Q1951.44 1475.44 1951.44 1468.33 Q1951.44 1461.2 1949.61 1457.66 Q1947.81 1454.1 1944.17 1454.1 M1944.17 1450.39 Q1949.98 1450.39 1953.04 1455 Q1956.12 1459.58 1956.12 1468.33 Q1956.12 1477.06 1953.04 1481.67 Q1949.98 1486.25 1944.17 1486.25 Q1938.36 1486.25 1935.29 1481.67 Q1932.23 1477.06 1932.23 1468.33 Q1932.23 1459.58 1935.29 1455 Q1938.36 1450.39 1944.17 1450.39 Z" fill="#ffffff" fill-rule="evenodd" fill-opacity="1" /><path clip-path="url(#clip400)" d="M1964.34 1479.7 L1969.22 1479.7 L1969.22 1485.58 L1964.34 1485.58 L1964.34 1479.7 Z" fill="#ffffff" fill-rule="evenodd" fill-opacity="1" /><path clip-path="url(#clip400)" d="M1983.43 1481.64 L1999.75 1481.64 L1999.75 1485.58 L1977.81 1485.58 L1977.81 1481.64 Q1980.47 1478.89 1985.05 1474.26 Q1989.66 1469.61 1990.84 1468.27 Q1993.09 1465.74 1993.97 1464.01 Q1994.87 1462.25 1994.87 1460.56 Q1994.87 1457.8 1992.92 1456.07 Q1991 1454.33 1987.9 1454.33 Q1985.7 1454.33 1983.25 1455.09 Q1980.82 1455.86 1978.04 1457.41 L1978.04 1452.69 Q1980.86 1451.55 1983.32 1450.97 Q1985.77 1450.39 1987.81 1450.39 Q1993.18 1450.39 1996.37 1453.08 Q1999.57 1455.77 1999.57 1460.26 Q1999.57 1462.39 1998.76 1464.31 Q1997.97 1466.2 1995.86 1468.8 Q1995.28 1469.47 1992.18 1472.69 Q1989.08 1475.88 1983.43 1481.64 Z" fill="#ffffff" fill-rule="evenodd" fill-opacity="1" /><path clip-path="url(#clip400)" d="M2240.28 1454.1 Q2236.67 1454.1 2234.84 1457.66 Q2233.04 1461.2 2233.04 1468.33 Q2233.04 1475.44 2234.84 1479.01 Q2236.67 1482.55 2240.28 1482.55 Q2243.92 1482.55 2245.72 1479.01 Q2247.55 1475.44 2247.55 1468.33 Q2247.55 1461.2 2245.72 1457.66 Q2243.92 1454.1 2240.28 1454.1 M2240.28 1450.39 Q2246.09 1450.39 2249.15 1455 Q2252.23 1459.58 2252.23 1468.33 Q2252.23 1477.06 2249.15 1481.67 Q2246.09 1486.25 2240.28 1486.25 Q2234.47 1486.25 2231.39 1481.67 Q2228.34 1477.06 2228.34 1468.33 Q2228.34 1459.58 2231.39 1455 Q2234.47 1450.39 2240.28 1450.39 Z" fill="#ffffff" fill-rule="evenodd" fill-opacity="1" /><path clip-path="url(#clip400)" d="M2260.45 1479.7 L2265.33 1479.7 L2265.33 1485.58 L2260.45 1485.58 L2260.45 1479.7 Z" fill="#ffffff" fill-rule="evenodd" fill-opacity="1" /><path clip-path="url(#clip400)" d="M2289.68 1466.95 Q2293.04 1467.66 2294.91 1469.93 Q2296.81 1472.2 2296.81 1475.53 Q2296.81 1480.65 2293.29 1483.45 Q2289.77 1486.25 2283.29 1486.25 Q2281.12 1486.25 2278.8 1485.81 Q2276.51 1485.39 2274.06 1484.54 L2274.06 1480.02 Q2276 1481.16 2278.32 1481.74 Q2280.63 1482.32 2283.15 1482.32 Q2287.55 1482.32 2289.84 1480.58 Q2292.16 1478.84 2292.16 1475.53 Q2292.16 1472.48 2290.01 1470.77 Q2287.88 1469.03 2284.06 1469.03 L2280.03 1469.03 L2280.03 1465.19 L2284.24 1465.19 Q2287.69 1465.19 2289.52 1463.82 Q2291.35 1462.43 2291.35 1459.84 Q2291.35 1457.18 2289.45 1455.77 Q2287.58 1454.33 2284.06 1454.33 Q2282.14 1454.33 2279.94 1454.75 Q2277.74 1455.16 2275.1 1456.04 L2275.1 1451.88 Q2277.76 1451.14 2280.08 1450.77 Q2282.41 1450.39 2284.47 1450.39 Q2289.8 1450.39 2292.9 1452.83 Q2296 1455.23 2296 1459.35 Q2296 1462.22 2294.36 1464.21 Q2292.71 1466.18 2289.68 1466.95 Z" fill="#ffffff" fill-rule="evenodd" fill-opacity="1" /><path clip-path="url(#clip400)" d="M1190.41 1532.4 L1196.27 1532.4 L1196.27 1568.04 L1190.41 1568.04 L1190.41 1532.4 M1190.41 1518.52 L1196.27 1518.52 L1196.27 1525.93 L1190.41 1525.93 L1190.41 1518.52 Z" fill="#ffffff" fill-rule="evenodd" fill-opacity="1" /><path clip-path="url(#clip400)" d="M1238.16 1546.53 L1238.16 1568.04 L1232.3 1568.04 L1232.3 1546.72 Q1232.3 1541.66 1230.33 1539.14 Q1228.35 1536.63 1224.41 1536.63 Q1219.66 1536.63 1216.93 1539.65 Q1214.19 1542.68 1214.19 1547.9 L1214.19 1568.04 L1208.3 1568.04 L1208.3 1532.4 L1214.19 1532.4 L1214.19 1537.93 Q1216.29 1534.72 1219.12 1533.13 Q1221.99 1531.54 1225.71 1531.54 Q1231.85 1531.54 1235 1535.36 Q1238.16 1539.14 1238.16 1546.53 Z" fill="#ffffff" fill-rule="evenodd" fill-opacity="1" /><path clip-path="url(#clip400)" d="M1275.49 1533.76 L1275.49 1539.24 Q1273.01 1537.87 1270.49 1537.2 Q1268.01 1536.5 1265.46 1536.5 Q1259.77 1536.5 1256.62 1540.13 Q1253.47 1543.73 1253.47 1550.25 Q1253.47 1556.78 1256.62 1560.4 Q1259.77 1564 1265.46 1564 Q1268.01 1564 1270.49 1563.33 Q1273.01 1562.63 1275.49 1561.26 L1275.49 1566.68 Q1273.04 1567.82 1270.4 1568.39 Q1267.79 1568.97 1264.83 1568.97 Q1256.78 1568.97 1252.03 1563.91 Q1247.29 1558.85 1247.29 1550.25 Q1247.29 1541.53 1252.07 1536.53 Q1256.87 1531.54 1265.21 1531.54 Q1267.92 1531.54 1270.49 1532.11 Q1273.07 1532.65 1275.49 1533.76 Z" fill="#ffffff" fill-rule="evenodd" fill-opacity="1" /><path clip-path="url(#clip400)" d="M1299.49 1536.5 Q1294.78 1536.5 1292.04 1540.19 Q1289.3 1543.85 1289.3 1550.25 Q1289.3 1556.65 1292.01 1560.34 Q1294.75 1564 1299.49 1564 Q1304.17 1564 1306.91 1560.31 Q1309.64 1556.62 1309.64 1550.25 Q1309.64 1543.92 1306.91 1540.23 Q1304.17 1536.5 1299.49 1536.5 M1299.49 1531.54 Q1307.13 1531.54 1311.49 1536.5 Q1315.85 1541.47 1315.85 1550.25 Q1315.85 1559 1311.49 1564 Q1307.13 1568.97 1299.49 1568.97 Q1291.82 1568.97 1287.46 1564 Q1283.13 1559 1283.13 1550.25 Q1283.13 1541.47 1287.46 1536.5 Q1291.82 1531.54 1299.49 1531.54 Z" fill="#ffffff" fill-rule="evenodd" fill-opacity="1" /><path clip-path="url(#clip400)" d="M1353.31 1539.24 Q1355.51 1535.29 1358.56 1533.41 Q1361.62 1531.54 1365.76 1531.54 Q1371.33 1531.54 1374.35 1535.45 Q1377.37 1539.33 1377.37 1546.53 L1377.37 1568.04 L1371.49 1568.04 L1371.49 1546.72 Q1371.49 1541.59 1369.67 1539.11 Q1367.86 1536.63 1364.13 1536.63 Q1359.58 1536.63 1356.94 1539.65 Q1354.3 1542.68 1354.3 1547.9 L1354.3 1568.04 L1348.41 1568.04 L1348.41 1546.72 Q1348.41 1541.56 1346.6 1539.11 Q1344.78 1536.63 1340.99 1536.63 Q1336.51 1536.63 1333.86 1539.68 Q1331.22 1542.71 1331.22 1547.9 L1331.22 1568.04 L1325.33 1568.04 L1325.33 1532.4 L1331.22 1532.4 L1331.22 1537.93 Q1333.23 1534.66 1336.03 1533.1 Q1338.83 1531.54 1342.68 1531.54 Q1346.56 1531.54 1349.27 1533.51 Q1352.01 1535.48 1353.31 1539.24 Z" fill="#ffffff" fill-rule="evenodd" fill-opacity="1" /><path clip-path="url(#clip400)" d="M1419.55 1548.76 L1419.55 1551.62 L1392.62 1551.62 Q1393 1557.67 1396.25 1560.85 Q1399.53 1564 1405.35 1564 Q1408.73 1564 1411.88 1563.17 Q1415.06 1562.35 1418.18 1560.69 L1418.18 1566.23 Q1415.03 1567.57 1411.72 1568.27 Q1408.41 1568.97 1405 1568.97 Q1396.47 1568.97 1391.47 1564 Q1386.51 1559.04 1386.51 1550.57 Q1386.51 1541.82 1391.22 1536.69 Q1395.96 1531.54 1403.98 1531.54 Q1411.18 1531.54 1415.35 1536.18 Q1419.55 1540.8 1419.55 1548.76 M1413.69 1547.04 Q1413.63 1542.23 1410.98 1539.37 Q1408.37 1536.5 1404.05 1536.5 Q1399.14 1536.5 1396.18 1539.27 Q1393.26 1542.04 1392.81 1547.07 L1413.69 1547.04 Z" fill="#ffffff" fill-rule="evenodd" fill-opacity="1" /><polyline clip-path="url(#clip402)" style="stroke:#ffffff; stroke-linecap:round; stroke-linejoin:round; stroke-width:2; stroke-opacity:0.1; fill:none" points="
  257.204,1249 2352.76,1249 
  "/>
<polyline clip-path="url(#clip402)" style="stroke:#ffffff; stroke-linecap:round; stroke-linejoin:round; stroke-width:2; stroke-opacity:0.1; fill:none" points="
  257.204,981.708 2352.76,981.708 
  "/>
<polyline clip-path="url(#clip402)" style="stroke:#ffffff; stroke-linecap:round; stroke-linejoin:round; stroke-width:2; stroke-opacity:0.1; fill:none" points="
  257.204,714.419 2352.76,714.419 
  "/>
<polyline clip-path="url(#clip402)" style="stroke:#ffffff; stroke-linecap:round; stroke-linejoin:round; stroke-width:2; stroke-opacity:0.1; fill:none" points="
  257.204,447.131 2352.76,447.131 
  "/>
<polyline clip-path="url(#clip402)" style="stroke:#ffffff; stroke-linecap:round; stroke-linejoin:round; stroke-width:2; stroke-opacity:0.1; fill:none" points="
  257.204,179.842 2352.76,179.842 
  "/>
<polyline clip-path="url(#clip400)" style="stroke:#ffffff; stroke-linecap:round; stroke-linejoin:round; stroke-width:4; stroke-opacity:1; fill:none" points="
  257.204,1423.18 257.204,47.2441 
  "/>
<polyline clip-path="url(#clip400)" style="stroke:#ffffff; stroke-linecap:round; stroke-linejoin:round; stroke-width:4; stroke-opacity:1; fill:none" points="
  257.204,1249 276.102,1249 
  "/>
<polyline clip-path="url(#clip400)" style="stroke:#ffffff; stroke-linecap:round; stroke-linejoin:round; stroke-width:4; stroke-opacity:1; fill:none" points="
  257.204,981.708 276.102,981.708 
  "/>
<polyline clip-path="url(#clip400)" style="stroke:#ffffff; stroke-linecap:round; stroke-linejoin:round; stroke-width:4; stroke-opacity:1; fill:none" points="
  257.204,714.419 276.102,714.419 
  "/>
<polyline clip-path="url(#clip400)" style="stroke:#ffffff; stroke-linecap:round; stroke-linejoin:round; stroke-width:4; stroke-opacity:1; fill:none" points="
  257.204,447.131 276.102,447.131 
  "/>
<polyline clip-path="url(#clip400)" style="stroke:#ffffff; stroke-linecap:round; stroke-linejoin:round; stroke-width:4; stroke-opacity:1; fill:none" points="
  257.204,179.842 276.102,179.842 
  "/>
<path clip-path="url(#clip400)" d="M115.256 1249.45 L144.931 1249.45 L144.931 1253.38 L115.256 1253.38 L115.256 1249.45 Z" fill="#ffffff" fill-rule="evenodd" fill-opacity="1" /><path clip-path="url(#clip400)" d="M155.834 1262.34 L163.473 1262.34 L163.473 1235.98 L155.163 1237.64 L155.163 1233.38 L163.427 1231.72 L168.102 1231.72 L168.102 1262.34 L175.741 1262.34 L175.741 1266.28 L155.834 1266.28 L155.834 1262.34 Z" fill="#ffffff" fill-rule="evenodd" fill-opacity="1" /><path clip-path="url(#clip400)" d="M185.186 1260.4 L190.07 1260.4 L190.07 1266.28 L185.186 1266.28 L185.186 1260.4 Z" fill="#ffffff" fill-rule="evenodd" fill-opacity="1" /><path clip-path="url(#clip400)" d="M200.301 1231.72 L218.658 1231.72 L218.658 1235.65 L204.584 1235.65 L204.584 1244.12 Q205.602 1243.78 206.621 1243.62 Q207.639 1243.43 208.658 1243.43 Q214.445 1243.43 217.824 1246.6 Q221.204 1249.77 221.204 1255.19 Q221.204 1260.77 217.732 1263.87 Q214.26 1266.95 207.94 1266.95 Q205.764 1266.95 203.496 1266.58 Q201.25 1266.21 198.843 1265.47 L198.843 1260.77 Q200.926 1261.9 203.149 1262.46 Q205.371 1263.01 207.848 1263.01 Q211.852 1263.01 214.19 1260.91 Q216.528 1258.8 216.528 1255.19 Q216.528 1251.58 214.19 1249.47 Q211.852 1247.37 207.848 1247.37 Q205.973 1247.37 204.098 1247.78 Q202.246 1248.2 200.301 1249.08 L200.301 1231.72 Z" fill="#ffffff" fill-rule="evenodd" fill-opacity="1" /><path clip-path="url(#clip400)" d="M114.26 982.16 L143.936 982.16 L143.936 986.095 L114.26 986.095 L114.26 982.16 Z" fill="#ffffff" fill-rule="evenodd" fill-opacity="1" /><path clip-path="url(#clip400)" d="M154.839 995.053 L162.477 995.053 L162.477 968.687 L154.167 970.354 L154.167 966.095 L162.431 964.428 L167.107 964.428 L167.107 995.053 L174.746 995.053 L174.746 998.988 L154.839 998.988 L154.839 995.053 Z" fill="#ffffff" fill-rule="evenodd" fill-opacity="1" /><path clip-path="url(#clip400)" d="M184.19 993.109 L189.075 993.109 L189.075 998.988 L184.19 998.988 L184.19 993.109 Z" fill="#ffffff" fill-rule="evenodd" fill-opacity="1" /><path clip-path="url(#clip400)" d="M209.26 967.507 Q205.649 967.507 203.82 971.072 Q202.014 974.613 202.014 981.743 Q202.014 988.849 203.82 992.414 Q205.649 995.956 209.26 995.956 Q212.894 995.956 214.699 992.414 Q216.528 988.849 216.528 981.743 Q216.528 974.613 214.699 971.072 Q212.894 967.507 209.26 967.507 M209.26 963.803 Q215.07 963.803 218.125 968.41 Q221.204 972.993 221.204 981.743 Q221.204 990.47 218.125 995.076 Q215.07 999.659 209.26 999.659 Q203.449 999.659 200.371 995.076 Q197.315 990.47 197.315 981.743 Q197.315 972.993 200.371 968.41 Q203.449 963.803 209.26 963.803 Z" fill="#ffffff" fill-rule="evenodd" fill-opacity="1" /><path clip-path="url(#clip400)" d="M115.256 714.871 L144.931 714.871 L144.931 718.806 L115.256 718.806 L115.256 714.871 Z" fill="#ffffff" fill-rule="evenodd" fill-opacity="1" /><path clip-path="url(#clip400)" d="M165.024 700.218 Q161.413 700.218 159.584 703.783 Q157.778 707.324 157.778 714.454 Q157.778 721.561 159.584 725.125 Q161.413 728.667 165.024 728.667 Q168.658 728.667 170.464 725.125 Q172.292 721.561 172.292 714.454 Q172.292 707.324 170.464 703.783 Q168.658 700.218 165.024 700.218 M165.024 696.514 Q170.834 696.514 173.889 701.121 Q176.968 705.704 176.968 714.454 Q176.968 723.181 173.889 727.787 Q170.834 732.371 165.024 732.371 Q159.214 732.371 156.135 727.787 Q153.079 723.181 153.079 714.454 Q153.079 705.704 156.135 701.121 Q159.214 696.514 165.024 696.514 Z" fill="#ffffff" fill-rule="evenodd" fill-opacity="1" /><path clip-path="url(#clip400)" d="M185.186 725.82 L190.07 725.82 L190.07 731.699 L185.186 731.699 L185.186 725.82 Z" fill="#ffffff" fill-rule="evenodd" fill-opacity="1" /><path clip-path="url(#clip400)" d="M200.301 697.139 L218.658 697.139 L218.658 701.075 L204.584 701.075 L204.584 709.547 Q205.602 709.199 206.621 709.037 Q207.639 708.852 208.658 708.852 Q214.445 708.852 217.824 712.024 Q221.204 715.195 221.204 720.611 Q221.204 726.19 217.732 729.292 Q214.26 732.371 207.94 732.371 Q205.764 732.371 203.496 732 Q201.25 731.63 198.843 730.889 L198.843 726.19 Q200.926 727.324 203.149 727.88 Q205.371 728.435 207.848 728.435 Q211.852 728.435 214.19 726.329 Q216.528 724.223 216.528 720.611 Q216.528 717 214.19 714.894 Q211.852 712.787 207.848 712.787 Q205.973 712.787 204.098 713.204 Q202.246 713.621 200.301 714.5 L200.301 697.139 Z" fill="#ffffff" fill-rule="evenodd" fill-opacity="1" /><path clip-path="url(#clip400)" d="M164.028 432.929 Q160.417 432.929 158.589 436.494 Q156.783 440.036 156.783 447.165 Q156.783 454.272 158.589 457.836 Q160.417 461.378 164.028 461.378 Q167.663 461.378 169.468 457.836 Q171.297 454.272 171.297 447.165 Q171.297 440.036 169.468 436.494 Q167.663 432.929 164.028 432.929 M164.028 429.226 Q169.839 429.226 172.894 433.832 Q175.973 438.415 175.973 447.165 Q175.973 455.892 172.894 460.499 Q169.839 465.082 164.028 465.082 Q158.218 465.082 155.14 460.499 Q152.084 455.892 152.084 447.165 Q152.084 438.415 155.14 433.832 Q158.218 429.226 164.028 429.226 Z" fill="#ffffff" fill-rule="evenodd" fill-opacity="1" /><path clip-path="url(#clip400)" d="M184.19 458.531 L189.075 458.531 L189.075 464.411 L184.19 464.411 L184.19 458.531 Z" fill="#ffffff" fill-rule="evenodd" fill-opacity="1" /><path clip-path="url(#clip400)" d="M209.26 432.929 Q205.649 432.929 203.82 436.494 Q202.014 440.036 202.014 447.165 Q202.014 454.272 203.82 457.836 Q205.649 461.378 209.26 461.378 Q212.894 461.378 214.699 457.836 Q216.528 454.272 216.528 447.165 Q216.528 440.036 214.699 436.494 Q212.894 432.929 209.26 432.929 M209.26 429.226 Q215.07 429.226 218.125 433.832 Q221.204 438.415 221.204 447.165 Q221.204 455.892 218.125 460.499 Q215.07 465.082 209.26 465.082 Q203.449 465.082 200.371 460.499 Q197.315 455.892 197.315 447.165 Q197.315 438.415 200.371 433.832 Q203.449 429.226 209.26 429.226 Z" fill="#ffffff" fill-rule="evenodd" fill-opacity="1" /><path clip-path="url(#clip400)" d="M165.024 165.64 Q161.413 165.64 159.584 169.205 Q157.778 172.747 157.778 179.876 Q157.778 186.983 159.584 190.548 Q161.413 194.089 165.024 194.089 Q168.658 194.089 170.464 190.548 Q172.292 186.983 172.292 179.876 Q172.292 172.747 170.464 169.205 Q168.658 165.64 165.024 165.64 M165.024 161.937 Q170.834 161.937 173.889 166.543 Q176.968 171.126 176.968 179.876 Q176.968 188.603 173.889 193.21 Q170.834 197.793 165.024 197.793 Q159.214 197.793 156.135 193.21 Q153.079 188.603 153.079 179.876 Q153.079 171.126 156.135 166.543 Q159.214 161.937 165.024 161.937 Z" fill="#ffffff" fill-rule="evenodd" fill-opacity="1" /><path clip-path="url(#clip400)" d="M185.186 191.242 L190.07 191.242 L190.07 197.122 L185.186 197.122 L185.186 191.242 Z" fill="#ffffff" fill-rule="evenodd" fill-opacity="1" /><path clip-path="url(#clip400)" d="M200.301 162.562 L218.658 162.562 L218.658 166.497 L204.584 166.497 L204.584 174.969 Q205.602 174.622 206.621 174.46 Q207.639 174.275 208.658 174.275 Q214.445 174.275 217.824 177.446 Q221.204 180.617 221.204 186.034 Q221.204 191.612 217.732 194.714 Q214.26 197.793 207.94 197.793 Q205.764 197.793 203.496 197.423 Q201.25 197.052 198.843 196.312 L198.843 191.612 Q200.926 192.747 203.149 193.302 Q205.371 193.858 207.848 193.858 Q211.852 193.858 214.19 191.751 Q216.528 189.645 216.528 186.034 Q216.528 182.423 214.19 180.316 Q211.852 178.21 207.848 178.21 Q205.973 178.21 204.098 178.626 Q202.246 179.043 200.301 179.923 L200.301 162.562 Z" fill="#ffffff" fill-rule="evenodd" fill-opacity="1" /><path clip-path="url(#clip400)" d="M46.0847 773.804 Q46.0847 780.902 47.7079 783.639 Q49.3312 786.376 53.2461 786.376 Q56.3653 786.376 58.2114 784.339 Q60.0256 782.27 60.0256 778.737 Q60.0256 773.868 56.5881 770.939 Q53.1188 767.979 47.3897 767.979 L46.0847 767.979 L46.0847 773.804 M43.6657 762.123 L64.0042 762.123 L64.0042 767.979 L58.5933 767.979 Q61.8398 769.985 63.3994 772.977 Q64.9272 775.968 64.9272 780.297 Q64.9272 785.772 61.8716 789.018 Q58.7843 792.233 53.6281 792.233 Q47.6125 792.233 44.5569 788.222 Q41.5014 784.18 41.5014 776.191 L41.5014 767.979 L40.9285 767.979 Q36.8862 767.979 34.6901 770.653 Q32.4621 773.295 32.4621 778.101 Q32.4621 781.156 33.1941 784.053 Q33.9262 786.949 35.3903 789.623 L29.9795 789.623 Q28.7381 786.408 28.1334 783.384 Q27.4968 780.361 27.4968 777.496 Q27.4968 769.762 31.5072 765.942 Q35.5176 762.123 43.6657 762.123 Z" fill="#ffffff" fill-rule="evenodd" fill-opacity="1" /><path clip-path="url(#clip400)" d="M45.7664 726.602 Q39.4007 726.602 35.8996 729.244 Q32.3984 731.854 32.3984 736.597 Q32.3984 741.307 35.8996 743.949 Q39.4007 746.559 45.7664 746.559 Q52.1003 746.559 55.6014 743.949 Q59.1026 741.307 59.1026 736.597 Q59.1026 731.854 55.6014 729.244 Q52.1003 726.602 45.7664 726.602 M59.58 720.746 Q68.683 720.746 73.1071 724.788 Q77.5631 728.83 77.5631 737.169 Q77.5631 740.257 77.0857 742.994 Q76.6401 745.731 75.6852 748.309 L69.9879 748.309 Q71.3884 745.731 72.0568 743.217 Q72.7252 740.702 72.7252 738.092 Q72.7252 732.331 69.7015 729.467 Q66.7096 726.602 60.6303 726.602 L57.7339 726.602 Q60.885 728.417 62.4446 731.249 Q64.0042 734.082 64.0042 738.029 Q64.0042 744.585 59.0071 748.596 Q54.01 752.606 45.7664 752.606 Q37.491 752.606 32.4939 748.596 Q27.4968 744.585 27.4968 738.029 Q27.4968 734.082 29.0564 731.249 Q30.616 728.417 33.7671 726.602 L28.3562 726.602 L28.3562 720.746 L59.58 720.746 Z" fill="#ffffff" fill-rule="evenodd" fill-opacity="1" /><path clip-path="url(#clip400)" d="M44.7161 678.191 L47.5806 678.191 L47.5806 705.118 Q53.6281 704.736 56.8109 701.49 Q59.9619 698.211 59.9619 692.387 Q59.9619 689.013 59.1344 685.862 Q58.3069 682.679 56.6518 679.56 L62.1899 679.56 Q63.5267 682.711 64.227 686.021 Q64.9272 689.331 64.9272 692.737 Q64.9272 701.267 59.9619 706.264 Q54.9967 711.229 46.5303 711.229 Q37.7774 711.229 32.6531 706.519 Q27.4968 701.776 27.4968 693.755 Q27.4968 686.562 32.1438 682.393 Q36.7589 678.191 44.7161 678.191 M42.9973 684.048 Q38.1912 684.111 35.3266 686.753 Q32.4621 689.363 32.4621 693.692 Q32.4621 698.593 35.2312 701.553 Q38.0002 704.482 43.0292 704.927 L42.9973 684.048 Z" fill="#ffffff" fill-rule="evenodd" fill-opacity="1" /><circle clip-path="url(#clip402)" cx="925.983" cy="976.636" r="36" fill="#ff7300" fill-rule="evenodd" fill-opacity="1" stroke="#ffffff" stroke-opacity="1" stroke-width="3.2"/>
<circle clip-path="url(#clip402)" cx="1625.34" cy="953.08" r="36" fill="#3cd7d9" fill-rule="evenodd" fill-opacity="1" stroke="#ffffff" stroke-opacity="1" stroke-width="3.2"/>
<polyline clip-path="url(#clip402)" style="stroke:#ffffff; stroke-linecap:round; stroke-linejoin:round; stroke-width:8; stroke-opacity:1; fill:none" points="
  925.983,976.636 1625.34,953.08 
  "/>
<polyline clip-path="url(#clip402)" style="stroke:#ffffff; stroke-linecap:round; stroke-linejoin:round; stroke-width:8; stroke-opacity:1; fill:none" points="
  1588.76,936.302 1625.34,953.08 1589.97,972.282 
  "/>
<polyline clip-path="url(#clip402)" style="stroke:#ffffff; stroke-linecap:round; stroke-linejoin:round; stroke-width:8; stroke-opacity:1; fill:none" points="
  1625.34,953.08 925.983,976.636 
  "/>
<circle clip-path="url(#clip402)" cx="1028.45" cy="235.54" r="36" fill="#ff7300" fill-rule="evenodd" fill-opacity="1" stroke="#ffffff" stroke-opacity="1" stroke-width="3.2"/>
<circle clip-path="url(#clip402)" cx="1810.36" cy="235.54" r="36" fill="#3cd7d9" fill-rule="evenodd" fill-opacity="1" stroke="#ffffff" stroke-opacity="1" stroke-width="3.2"/>
<polyline clip-path="url(#clip402)" style="stroke:#ffffff; stroke-linecap:round; stroke-linejoin:round; stroke-width:8; stroke-opacity:1; fill:none" points="
  1028.45,235.54 1810.36,235.54 
  "/>
<polyline clip-path="url(#clip402)" style="stroke:#ffffff; stroke-linecap:round; stroke-linejoin:round; stroke-width:8; stroke-opacity:1; fill:none" points="
  1774.36,217.54 1810.36,235.54 1774.36,253.54 
  "/>
<polyline clip-path="url(#clip402)" style="stroke:#ffffff; stroke-linecap:round; stroke-linejoin:round; stroke-width:8; stroke-opacity:1; fill:none" points="
  1810.36,235.54 1028.45,235.54 
  "/>
<circle clip-path="url(#clip402)" cx="770.728" cy="87.3209" r="36" fill="#ff7300" fill-rule="evenodd" fill-opacity="1" stroke="#ffffff" stroke-opacity="1" stroke-width="3.2"/>
<circle clip-path="url(#clip402)" cx="1434.59" cy="86.1857" r="36" fill="#3cd7d9" fill-rule="evenodd" fill-opacity="1" stroke="#ffffff" stroke-opacity="1" stroke-width="3.2"/>
<polyline clip-path="url(#clip402)" style="stroke:#ffffff; stroke-linecap:round; stroke-linejoin:round; stroke-width:8; stroke-opacity:1; fill:none" points="
  770.728,87.3209 1434.59,86.1857 
  "/>
<polyline clip-path="url(#clip402)" style="stroke:#ffffff; stroke-linecap:round; stroke-linejoin:round; stroke-width:8; stroke-opacity:1; fill:none" points="
  1398.56,68.2473 1434.59,86.1857 1398.62,104.247 
  "/>
<polyline clip-path="url(#clip402)" style="stroke:#ffffff; stroke-linecap:round; stroke-linejoin:round; stroke-width:8; stroke-opacity:1; fill:none" points="
  1434.59,86.1857 770.728,87.3209 
  "/>
<circle clip-path="url(#clip402)" cx="1268.86" cy="754.307" r="36" fill="#ff7300" fill-rule="evenodd" fill-opacity="1" stroke="#ffffff" stroke-opacity="1" stroke-width="3.2"/>
<circle clip-path="url(#clip402)" cx="1419.53" cy="748.933" r="36" fill="#3cd7d9" fill-rule="evenodd" fill-opacity="1" stroke="#ffffff" stroke-opacity="1" stroke-width="3.2"/>
<polyline clip-path="url(#clip402)" style="stroke:#ffffff; stroke-linecap:round; stroke-linejoin:round; stroke-width:8; stroke-opacity:1; fill:none" points="
  1268.86,754.307 1419.53,748.933 
  "/>
<polyline clip-path="url(#clip402)" style="stroke:#ffffff; stroke-linecap:round; stroke-linejoin:round; stroke-width:8; stroke-opacity:1; fill:none" points="
  1382.91,732.228 1419.53,748.933 1384.2,768.205 
  "/>
<polyline clip-path="url(#clip402)" style="stroke:#ffffff; stroke-linecap:round; stroke-linejoin:round; stroke-width:8; stroke-opacity:1; fill:none" points="
  1419.53,748.933 1268.86,754.307 
  "/>
<circle clip-path="url(#clip402)" cx="1475.04" cy="606.088" r="36" fill="#ff7300" fill-rule="evenodd" fill-opacity="1" stroke="#ffffff" stroke-opacity="1" stroke-width="3.2"/>
<circle clip-path="url(#clip402)" cx="2177.95" cy="606.088" r="36" fill="#3cd7d9" fill-rule="evenodd" fill-opacity="1" stroke="#ffffff" stroke-opacity="1" stroke-width="3.2"/>
<polyline clip-path="url(#clip402)" style="stroke:#ffffff; stroke-linecap:round; stroke-linejoin:round; stroke-width:8; stroke-opacity:1; fill:none" points="
  1475.04,606.088 2177.95,606.088 
  "/>
<polyline clip-path="url(#clip402)" style="stroke:#ffffff; stroke-linecap:round; stroke-linejoin:round; stroke-width:8; stroke-opacity:1; fill:none" points="
  2141.95,588.088 2177.95,606.088 2141.95,624.088 
  "/>
<polyline clip-path="url(#clip402)" style="stroke:#ffffff; stroke-linecap:round; stroke-linejoin:round; stroke-width:8; stroke-opacity:1; fill:none" points="
  2177.95,606.088 1475.04,606.088 
  "/>
<circle clip-path="url(#clip402)" cx="2223.27" cy="1236.02" r="36" fill="#ff7300" fill-rule="evenodd" fill-opacity="1" stroke="#ffffff" stroke-opacity="1" stroke-width="3.2"/>
<circle clip-path="url(#clip402)" cx="2293.45" cy="1223.47" r="36" fill="#3cd7d9" fill-rule="evenodd" fill-opacity="1" stroke="#ffffff" stroke-opacity="1" stroke-width="3.2"/>
<polyline clip-path="url(#clip402)" style="stroke:#ffffff; stroke-linecap:round; stroke-linejoin:round; stroke-width:8; stroke-opacity:1; fill:none" points="
  2223.27,1236.02 2293.45,1223.47 
  "/>
<polyline clip-path="url(#clip402)" style="stroke:#ffffff; stroke-linecap:round; stroke-linejoin:round; stroke-width:8; stroke-opacity:1; fill:none" points="
  2254.84,1212.09 2293.45,1223.47 2261.18,1247.53 
  "/>
<polyline clip-path="url(#clip402)" style="stroke:#ffffff; stroke-linecap:round; stroke-linejoin:round; stroke-width:8; stroke-opacity:1; fill:none" points="
  2293.45,1223.47 2223.27,1236.02 
  "/>
<circle clip-path="url(#clip402)" cx="896.499" cy="976.636" r="36" fill="#ff7300" fill-rule="evenodd" fill-opacity="1" stroke="#ffffff" stroke-opacity="1" stroke-width="3.2"/>
<circle clip-path="url(#clip402)" cx="1385.08" cy="921.687" r="36" fill="#3cd7d9" fill-rule="evenodd" fill-opacity="1" stroke="#ffffff" stroke-opacity="1" stroke-width="3.2"/>
<polyline clip-path="url(#clip402)" style="stroke:#ffffff; stroke-linecap:round; stroke-linejoin:round; stroke-width:8; stroke-opacity:1; fill:none" points="
  896.499,976.636 1385.08,921.687 
  "/>
<polyline clip-path="url(#clip402)" style="stroke:#ffffff; stroke-linecap:round; stroke-linejoin:round; stroke-width:8; stroke-opacity:1; fill:none" points="
  1347.29,907.823 1385.08,921.687 1351.32,943.598 
  "/>
<polyline clip-path="url(#clip402)" style="stroke:#ffffff; stroke-linecap:round; stroke-linejoin:round; stroke-width:8; stroke-opacity:1; fill:none" points="
  1385.08,921.687 896.499,976.636 
  "/>
<circle clip-path="url(#clip402)" cx="1983.07" cy="272.595" r="36" fill="#ff7300" fill-rule="evenodd" fill-opacity="1" stroke="#ffffff" stroke-opacity="1" stroke-width="3.2"/>
<circle clip-path="url(#clip402)" cx="2068.61" cy="267.539" r="36" fill="#3cd7d9" fill-rule="evenodd" fill-opacity="1" stroke="#ffffff" stroke-opacity="1" stroke-width="3.2"/>
<polyline clip-path="url(#clip402)" style="stroke:#ffffff; stroke-linecap:round; stroke-linejoin:round; stroke-width:8; stroke-opacity:1; fill:none" points="
  1983.07,272.595 2068.61,267.539 
  "/>
<polyline clip-path="url(#clip402)" style="stroke:#ffffff; stroke-linecap:round; stroke-linejoin:round; stroke-width:8; stroke-opacity:1; fill:none" points="
  2031.62,251.694 2068.61,267.539 2033.74,287.632 
  "/>
<polyline clip-path="url(#clip402)" style="stroke:#ffffff; stroke-linecap:round; stroke-linejoin:round; stroke-width:8; stroke-opacity:1; fill:none" points="
  2068.61,267.539 1983.07,272.595 
  "/>
<circle clip-path="url(#clip402)" cx="316.512" cy="1384.24" r="36" fill="#ff7300" fill-rule="evenodd" fill-opacity="1" stroke="#ffffff" stroke-opacity="1" stroke-width="3.2"/>
<circle clip-path="url(#clip402)" cx="751.967" cy="1378.51" r="36" fill="#3cd7d9" fill-rule="evenodd" fill-opacity="1" stroke="#ffffff" stroke-opacity="1" stroke-width="3.2"/>
<polyline clip-path="url(#clip402)" style="stroke:#ffffff; stroke-linecap:round; stroke-linejoin:round; stroke-width:8; stroke-opacity:1; fill:none" points="
  316.512,1384.24 751.967,1378.51 
  "/>
<polyline clip-path="url(#clip402)" style="stroke:#ffffff; stroke-linecap:round; stroke-linejoin:round; stroke-width:8; stroke-opacity:1; fill:none" points="
  715.734,1360.99 751.967,1378.51 716.207,1396.99 
  "/>
<polyline clip-path="url(#clip402)" style="stroke:#ffffff; stroke-linecap:round; stroke-linejoin:round; stroke-width:8; stroke-opacity:1; fill:none" points="
  751.967,1378.51 316.512,1384.24 
  "/>
<circle clip-path="url(#clip402)" cx="1715.66" cy="865.471" r="36" fill="#ff7300" fill-rule="evenodd" fill-opacity="1" stroke="#ffffff" stroke-opacity="1" stroke-width="3.2"/>
<circle clip-path="url(#clip402)" cx="1774.93" cy="845.004" r="36" fill="#3cd7d9" fill-rule="evenodd" fill-opacity="1" stroke="#ffffff" stroke-opacity="1" stroke-width="3.2"/>
<polyline clip-path="url(#clip402)" style="stroke:#ffffff; stroke-linecap:round; stroke-linejoin:round; stroke-width:8; stroke-opacity:1; fill:none" points="
  1715.66,865.471 1774.93,845.004 
  "/>
<polyline clip-path="url(#clip402)" style="stroke:#ffffff; stroke-linecap:round; stroke-linejoin:round; stroke-width:8; stroke-opacity:1; fill:none" points="
  1735.03,839.739 1774.93,845.004 1746.78,873.768 
  "/>
<polyline clip-path="url(#clip402)" style="stroke:#ffffff; stroke-linecap:round; stroke-linejoin:round; stroke-width:8; stroke-opacity:1; fill:none" points="
  1774.93,845.004 1715.66,865.471 
  "/>
</svg>
