<?xml version="1.0" encoding="utf-8"?>
<svg xmlns="http://www.w3.org/2000/svg" xmlns:xlink="http://www.w3.org/1999/xlink" width="600" height="400" viewBox="0 0 2400 1600">
<defs>
  <clipPath id="clip360">
    <rect x="0" y="0" width="2400" height="1600"/>
  </clipPath>
</defs>
<path clip-path="url(#clip360)" d="
M0 1600 L2400 1600 L2400 0 L0 0  Z
  " fill="#12273f" fill-rule="evenodd" fill-opacity="1"/>
<defs>
  <clipPath id="clip361">
    <rect x="480" y="0" width="1681" height="1600"/>
  </clipPath>
</defs>
<path clip-path="url(#clip360)" d="
M257.204 1423.18 L2352.76 1423.18 L2352.76 47.2441 L257.204 47.2441  Z
  " fill="#12273f" fill-rule="evenodd" fill-opacity="1"/>
<defs>
  <clipPath id="clip362">
    <rect x="257" y="47" width="2097" height="1377"/>
  </clipPath>
</defs>
<polyline clip-path="url(#clip362)" style="stroke:#ffffff; stroke-linecap:round; stroke-linejoin:round; stroke-width:2; stroke-opacity:0.1; fill:none" points="
  537.114,1423.18 537.114,47.2441 
  "/>
<polyline clip-path="url(#clip362)" style="stroke:#ffffff; stroke-linecap:round; stroke-linejoin:round; stroke-width:2; stroke-opacity:0.1; fill:none" points="
  926.129,1423.18 926.129,47.2441 
  "/>
<polyline clip-path="url(#clip362)" style="stroke:#ffffff; stroke-linecap:round; stroke-linejoin:round; stroke-width:2; stroke-opacity:0.1; fill:none" points="
  1315.14,1423.18 1315.14,47.2441 
  "/>
<polyline clip-path="url(#clip362)" style="stroke:#ffffff; stroke-linecap:round; stroke-linejoin:round; stroke-width:2; stroke-opacity:0.1; fill:none" points="
  1704.16,1423.18 1704.16,47.2441 
  "/>
<polyline clip-path="url(#clip362)" style="stroke:#ffffff; stroke-linecap:round; stroke-linejoin:round; stroke-width:2; stroke-opacity:0.1; fill:none" points="
  2093.17,1423.18 2093.17,47.2441 
  "/>
<polyline clip-path="url(#clip360)" style="stroke:#ffffff; stroke-linecap:round; stroke-linejoin:round; stroke-width:4; stroke-opacity:1; fill:none" points="
  257.204,1423.18 2352.76,1423.18 
  "/>
<polyline clip-path="url(#clip360)" style="stroke:#ffffff; stroke-linecap:round; stroke-linejoin:round; stroke-width:4; stroke-opacity:1; fill:none" points="
  537.114,1423.18 537.114,1404.28 
  "/>
<polyline clip-path="url(#clip360)" style="stroke:#ffffff; stroke-linecap:round; stroke-linejoin:round; stroke-width:4; stroke-opacity:1; fill:none" points="
  926.129,1423.18 926.129,1404.28 
  "/>
<polyline clip-path="url(#clip360)" style="stroke:#ffffff; stroke-linecap:round; stroke-linejoin:round; stroke-width:4; stroke-opacity:1; fill:none" points="
  1315.14,1423.18 1315.14,1404.28 
  "/>
<polyline clip-path="url(#clip360)" style="stroke:#ffffff; stroke-linecap:round; stroke-linejoin:round; stroke-width:4; stroke-opacity:1; fill:none" points="
  1704.16,1423.18 1704.16,1404.28 
  "/>
<polyline clip-path="url(#clip360)" style="stroke:#ffffff; stroke-linecap:round; stroke-linejoin:round; stroke-width:4; stroke-opacity:1; fill:none" points="
  2093.17,1423.18 2093.17,1404.28 
  "/>
<path clip-path="url(#clip360)" d="M468.561 1468.75 L498.237 1468.75 L498.237 1472.69 L468.561 1472.69 L468.561 1468.75 Z" fill="#ffffff" fill-rule="evenodd" fill-opacity="1" /><path clip-path="url(#clip360)" d="M518.33 1454.1 Q514.718 1454.1 512.89 1457.66 Q511.084 1461.2 511.084 1468.33 Q511.084 1475.44 512.89 1479.01 Q514.718 1482.55 518.33 1482.55 Q521.964 1482.55 523.769 1479.01 Q525.598 1475.44 525.598 1468.33 Q525.598 1461.2 523.769 1457.66 Q521.964 1454.1 518.33 1454.1 M518.33 1450.39 Q524.14 1450.39 527.195 1455 Q530.274 1459.58 530.274 1468.33 Q530.274 1477.06 527.195 1481.67 Q524.14 1486.25 518.33 1486.25 Q512.519 1486.25 509.441 1481.67 Q506.385 1477.06 506.385 1468.33 Q506.385 1459.58 509.441 1455 Q512.519 1450.39 518.33 1450.39 Z" fill="#ffffff" fill-rule="evenodd" fill-opacity="1" /><path clip-path="url(#clip360)" d="M538.492 1479.7 L543.376 1479.7 L543.376 1485.58 L538.492 1485.58 L538.492 1479.7 Z" fill="#ffffff" fill-rule="evenodd" fill-opacity="1" /><path clip-path="url(#clip360)" d="M553.607 1451.02 L571.964 1451.02 L571.964 1454.96 L557.89 1454.96 L557.89 1463.43 Q558.908 1463.08 559.927 1462.92 Q560.945 1462.73 561.964 1462.73 Q567.751 1462.73 571.13 1465.9 Q574.51 1469.08 574.51 1474.49 Q574.51 1480.07 571.038 1483.17 Q567.565 1486.25 561.246 1486.25 Q559.07 1486.25 556.802 1485.88 Q554.556 1485.51 552.149 1484.77 L552.149 1480.07 Q554.232 1481.2 556.454 1481.76 Q558.677 1482.32 561.153 1482.32 Q565.158 1482.32 567.496 1480.21 Q569.834 1478.1 569.834 1474.49 Q569.834 1470.88 567.496 1468.77 Q565.158 1466.67 561.153 1466.67 Q559.278 1466.67 557.403 1467.08 Q555.552 1467.5 553.607 1468.38 L553.607 1451.02 Z" fill="#ffffff" fill-rule="evenodd" fill-opacity="1" /><path clip-path="url(#clip360)" d="M593.723 1454.1 Q590.112 1454.1 588.283 1457.66 Q586.477 1461.2 586.477 1468.33 Q586.477 1475.44 588.283 1479.01 Q590.112 1482.55 593.723 1482.55 Q597.357 1482.55 599.162 1479.01 Q600.991 1475.44 600.991 1468.33 Q600.991 1461.2 599.162 1457.66 Q597.357 1454.1 593.723 1454.1 M593.723 1450.39 Q599.533 1450.39 602.588 1455 Q605.667 1459.58 605.667 1468.33 Q605.667 1477.06 602.588 1481.67 Q599.533 1486.25 593.723 1486.25 Q587.913 1486.25 584.834 1481.67 Q581.778 1477.06 581.778 1468.33 Q581.778 1459.58 584.834 1455 Q587.913 1450.39 593.723 1450.39 Z" fill="#ffffff" fill-rule="evenodd" fill-opacity="1" /><path clip-path="url(#clip360)" d="M858.074 1468.75 L887.75 1468.75 L887.75 1472.69 L858.074 1472.69 L858.074 1468.75 Z" fill="#ffffff" fill-rule="evenodd" fill-opacity="1" /><path clip-path="url(#clip360)" d="M907.842 1454.1 Q904.231 1454.1 902.403 1457.66 Q900.597 1461.2 900.597 1468.33 Q900.597 1475.44 902.403 1479.01 Q904.231 1482.55 907.842 1482.55 Q911.477 1482.55 913.282 1479.01 Q915.111 1475.44 915.111 1468.33 Q915.111 1461.2 913.282 1457.66 Q911.477 1454.1 907.842 1454.1 M907.842 1450.39 Q913.653 1450.39 916.708 1455 Q919.787 1459.58 919.787 1468.33 Q919.787 1477.06 916.708 1481.67 Q913.653 1486.25 907.842 1486.25 Q902.032 1486.25 898.954 1481.67 Q895.898 1477.06 895.898 1468.33 Q895.898 1459.58 898.954 1455 Q902.032 1450.39 907.842 1450.39 Z" fill="#ffffff" fill-rule="evenodd" fill-opacity="1" /><path clip-path="url(#clip360)" d="M928.004 1479.7 L932.889 1479.7 L932.889 1485.58 L928.004 1485.58 L928.004 1479.7 Z" fill="#ffffff" fill-rule="evenodd" fill-opacity="1" /><path clip-path="url(#clip360)" d="M947.101 1481.64 L963.421 1481.64 L963.421 1485.58 L941.477 1485.58 L941.477 1481.64 Q944.139 1478.89 948.722 1474.26 Q953.328 1469.61 954.509 1468.27 Q956.754 1465.74 957.634 1464.01 Q958.537 1462.25 958.537 1460.56 Q958.537 1457.8 956.592 1456.07 Q954.671 1454.33 951.569 1454.33 Q949.37 1454.33 946.916 1455.09 Q944.486 1455.86 941.708 1457.41 L941.708 1452.69 Q944.532 1451.55 946.986 1450.97 Q949.439 1450.39 951.476 1450.39 Q956.847 1450.39 960.041 1453.08 Q963.236 1455.77 963.236 1460.26 Q963.236 1462.39 962.425 1464.31 Q961.638 1466.2 959.532 1468.8 Q958.953 1469.47 955.851 1472.69 Q952.75 1475.88 947.101 1481.64 Z" fill="#ffffff" fill-rule="evenodd" fill-opacity="1" /><path clip-path="url(#clip360)" d="M973.282 1451.02 L991.638 1451.02 L991.638 1454.96 L977.564 1454.96 L977.564 1463.43 Q978.583 1463.08 979.601 1462.92 Q980.62 1462.73 981.638 1462.73 Q987.425 1462.73 990.805 1465.9 Q994.185 1469.08 994.185 1474.49 Q994.185 1480.07 990.712 1483.17 Q987.24 1486.25 980.921 1486.25 Q978.745 1486.25 976.476 1485.88 Q974.231 1485.51 971.824 1484.77 L971.824 1480.07 Q973.907 1481.2 976.129 1481.76 Q978.351 1482.32 980.828 1482.32 Q984.833 1482.32 987.171 1480.21 Q989.509 1478.1 989.509 1474.49 Q989.509 1470.88 987.171 1468.77 Q984.833 1466.67 980.828 1466.67 Q978.953 1466.67 977.078 1467.08 Q975.226 1467.5 973.282 1468.38 L973.282 1451.02 Z" fill="#ffffff" fill-rule="evenodd" fill-opacity="1" /><path clip-path="url(#clip360)" d="M1277.45 1454.1 Q1273.84 1454.1 1272.01 1457.66 Q1270.2 1461.2 1270.2 1468.33 Q1270.2 1475.44 1272.01 1479.01 Q1273.84 1482.55 1277.45 1482.55 Q1281.08 1482.55 1282.89 1479.01 Q1284.72 1475.44 1284.72 1468.33 Q1284.72 1461.2 1282.89 1457.66 Q1281.08 1454.1 1277.45 1454.1 M1277.45 1450.39 Q1283.26 1450.39 1286.31 1455 Q1289.39 1459.58 1289.39 1468.33 Q1289.39 1477.06 1286.31 1481.67 Q1283.26 1486.25 1277.45 1486.25 Q1271.64 1486.25 1268.56 1481.67 Q1265.5 1477.06 1265.5 1468.33 Q1265.5 1459.58 1268.56 1455 Q1271.64 1450.39 1277.45 1450.39 Z" fill="#ffffff" fill-rule="evenodd" fill-opacity="1" /><path clip-path="url(#clip360)" d="M1297.61 1479.7 L1302.49 1479.7 L1302.49 1485.58 L1297.61 1485.58 L1297.61 1479.7 Z" fill="#ffffff" fill-rule="evenodd" fill-opacity="1" /><path clip-path="url(#clip360)" d="M1322.68 1454.1 Q1319.07 1454.1 1317.24 1457.66 Q1315.43 1461.2 1315.43 1468.33 Q1315.43 1475.44 1317.24 1479.01 Q1319.07 1482.55 1322.68 1482.55 Q1326.31 1482.55 1328.12 1479.01 Q1329.95 1475.44 1329.95 1468.33 Q1329.95 1461.2 1328.12 1457.66 Q1326.31 1454.1 1322.68 1454.1 M1322.68 1450.39 Q1328.49 1450.39 1331.54 1455 Q1334.62 1459.58 1334.62 1468.33 Q1334.62 1477.06 1331.54 1481.67 Q1328.49 1486.25 1322.68 1486.25 Q1316.87 1486.25 1313.79 1481.67 Q1310.73 1477.06 1310.73 1468.33 Q1310.73 1459.58 1313.79 1455 Q1316.87 1450.39 1322.68 1450.39 Z" fill="#ffffff" fill-rule="evenodd" fill-opacity="1" /><path clip-path="url(#clip360)" d="M1352.84 1454.1 Q1349.23 1454.1 1347.4 1457.66 Q1345.6 1461.2 1345.6 1468.33 Q1345.6 1475.44 1347.4 1479.01 Q1349.23 1482.55 1352.84 1482.55 Q1356.48 1482.55 1358.28 1479.01 Q1360.11 1475.44 1360.11 1468.33 Q1360.11 1461.2 1358.28 1457.66 Q1356.48 1454.1 1352.84 1454.1 M1352.84 1450.39 Q1358.65 1450.39 1361.71 1455 Q1364.79 1459.58 1364.79 1468.33 Q1364.79 1477.06 1361.71 1481.67 Q1358.65 1486.25 1352.84 1486.25 Q1347.03 1486.25 1343.95 1481.67 Q1340.9 1477.06 1340.9 1468.33 Q1340.9 1459.58 1343.95 1455 Q1347.03 1450.39 1352.84 1450.39 Z" fill="#ffffff" fill-rule="evenodd" fill-opacity="1" /><path clip-path="url(#clip360)" d="M1666.96 1454.1 Q1663.35 1454.1 1661.52 1457.66 Q1659.72 1461.2 1659.72 1468.33 Q1659.72 1475.44 1661.52 1479.01 Q1663.35 1482.55 1666.96 1482.55 Q1670.6 1482.55 1672.4 1479.01 Q1674.23 1475.44 1674.23 1468.33 Q1674.23 1461.2 1672.4 1457.66 Q1670.6 1454.1 1666.96 1454.1 M1666.96 1450.39 Q1672.77 1450.39 1675.83 1455 Q1678.91 1459.58 1678.91 1468.33 Q1678.91 1477.06 1675.83 1481.67 Q1672.77 1486.25 1666.96 1486.25 Q1661.15 1486.25 1658.07 1481.67 Q1655.02 1477.06 1655.02 1468.33 Q1655.02 1459.58 1658.07 1455 Q1661.15 1450.39 1666.96 1450.39 Z" fill="#ffffff" fill-rule="evenodd" fill-opacity="1" /><path clip-path="url(#clip360)" d="M1687.12 1479.7 L1692.01 1479.7 L1692.01 1485.58 L1687.12 1485.58 L1687.12 1479.7 Z" fill="#ffffff" fill-rule="evenodd" fill-opacity="1" /><path clip-path="url(#clip360)" d="M1706.22 1481.64 L1722.54 1481.64 L1722.54 1485.58 L1700.59 1485.58 L1700.59 1481.64 Q1703.26 1478.89 1707.84 1474.26 Q1712.45 1469.61 1713.63 1468.27 Q1715.87 1465.74 1716.75 1464.01 Q1717.66 1462.25 1717.66 1460.56 Q1717.66 1457.8 1715.71 1456.07 Q1713.79 1454.33 1710.69 1454.33 Q1708.49 1454.33 1706.03 1455.09 Q1703.6 1455.86 1700.83 1457.41 L1700.83 1452.69 Q1703.65 1451.55 1706.1 1450.97 Q1708.56 1450.39 1710.59 1450.39 Q1715.97 1450.39 1719.16 1453.08 Q1722.35 1455.77 1722.35 1460.26 Q1722.35 1462.39 1721.54 1464.31 Q1720.76 1466.2 1718.65 1468.8 Q1718.07 1469.47 1714.97 1472.69 Q1711.87 1475.88 1706.22 1481.64 Z" fill="#ffffff" fill-rule="evenodd" fill-opacity="1" /><path clip-path="url(#clip360)" d="M1732.4 1451.02 L1750.76 1451.02 L1750.76 1454.96 L1736.68 1454.96 L1736.68 1463.43 Q1737.7 1463.08 1738.72 1462.92 Q1739.74 1462.73 1740.76 1462.73 Q1746.54 1462.73 1749.92 1465.9 Q1753.3 1469.08 1753.3 1474.49 Q1753.3 1480.07 1749.83 1483.17 Q1746.36 1486.25 1740.04 1486.25 Q1737.86 1486.25 1735.59 1485.88 Q1733.35 1485.51 1730.94 1484.77 L1730.94 1480.07 Q1733.03 1481.2 1735.25 1481.76 Q1737.47 1482.32 1739.95 1482.32 Q1743.95 1482.32 1746.29 1480.21 Q1748.63 1478.1 1748.63 1474.49 Q1748.63 1470.88 1746.29 1468.77 Q1743.95 1466.67 1739.95 1466.67 Q1738.07 1466.67 1736.2 1467.08 Q1734.34 1467.5 1732.4 1468.38 L1732.4 1451.02 Z" fill="#ffffff" fill-rule="evenodd" fill-opacity="1" /><path clip-path="url(#clip360)" d="M2055.48 1454.1 Q2051.87 1454.1 2050.04 1457.66 Q2048.23 1461.2 2048.23 1468.33 Q2048.23 1475.44 2050.04 1479.01 Q2051.87 1482.55 2055.48 1482.55 Q2059.11 1482.55 2060.92 1479.01 Q2062.75 1475.44 2062.75 1468.33 Q2062.75 1461.2 2060.92 1457.66 Q2059.11 1454.1 2055.48 1454.1 M2055.48 1450.39 Q2061.29 1450.39 2064.34 1455 Q2067.42 1459.58 2067.42 1468.33 Q2067.42 1477.06 2064.34 1481.67 Q2061.29 1486.25 2055.48 1486.25 Q2049.67 1486.25 2046.59 1481.67 Q2043.53 1477.06 2043.53 1468.33 Q2043.53 1459.58 2046.59 1455 Q2049.67 1450.39 2055.48 1450.39 Z" fill="#ffffff" fill-rule="evenodd" fill-opacity="1" /><path clip-path="url(#clip360)" d="M2075.64 1479.7 L2080.52 1479.7 L2080.52 1485.58 L2075.64 1485.58 L2075.64 1479.7 Z" fill="#ffffff" fill-rule="evenodd" fill-opacity="1" /><path clip-path="url(#clip360)" d="M2090.76 1451.02 L2109.11 1451.02 L2109.11 1454.96 L2095.04 1454.96 L2095.04 1463.43 Q2096.06 1463.08 2097.08 1462.92 Q2098.09 1462.73 2099.11 1462.73 Q2104.9 1462.73 2108.28 1465.9 Q2111.66 1469.08 2111.66 1474.49 Q2111.66 1480.07 2108.19 1483.17 Q2104.71 1486.25 2098.39 1486.25 Q2096.22 1486.25 2093.95 1485.88 Q2091.71 1485.51 2089.3 1484.77 L2089.3 1480.07 Q2091.38 1481.2 2093.6 1481.76 Q2095.83 1482.32 2098.3 1482.32 Q2102.31 1482.32 2104.64 1480.21 Q2106.98 1478.1 2106.98 1474.49 Q2106.98 1470.88 2104.64 1468.77 Q2102.31 1466.67 2098.3 1466.67 Q2096.43 1466.67 2094.55 1467.08 Q2092.7 1467.5 2090.76 1468.38 L2090.76 1451.02 Z" fill="#ffffff" fill-rule="evenodd" fill-opacity="1" /><path clip-path="url(#clip360)" d="M2130.87 1454.1 Q2127.26 1454.1 2125.43 1457.66 Q2123.63 1461.2 2123.63 1468.33 Q2123.63 1475.44 2125.43 1479.01 Q2127.26 1482.55 2130.87 1482.55 Q2134.51 1482.55 2136.31 1479.01 Q2138.14 1475.44 2138.14 1468.33 Q2138.14 1461.2 2136.31 1457.66 Q2134.51 1454.1 2130.87 1454.1 M2130.87 1450.39 Q2136.68 1450.39 2139.74 1455 Q2142.82 1459.58 2142.82 1468.33 Q2142.82 1477.06 2139.74 1481.67 Q2136.68 1486.25 2130.87 1486.25 Q2125.06 1486.25 2121.98 1481.67 Q2118.93 1477.06 2118.93 1468.33 Q2118.93 1459.58 2121.98 1455 Q2125.06 1450.39 2130.87 1450.39 Z" fill="#ffffff" fill-rule="evenodd" fill-opacity="1" /><path clip-path="url(#clip360)" d="M1190.41 1532.4 L1196.27 1532.4 L1196.27 1568.04 L1190.41 1568.04 L1190.41 1532.4 M1190.41 1518.52 L1196.27 1518.52 L1196.27 1525.93 L1190.41 1525.93 L1190.41 1518.52 Z" fill="#ffffff" fill-rule="evenodd" fill-opacity="1" /><path clip-path="url(#clip360)" d="M1238.16 1546.53 L1238.16 1568.04 L1232.3 1568.04 L1232.3 1546.72 Q1232.3 1541.66 1230.33 1539.14 Q1228.35 1536.63 1224.41 1536.63 Q1219.66 1536.63 1216.93 1539.65 Q1214.19 1542.68 1214.19 1547.9 L1214.19 1568.04 L1208.3 1568.04 L1208.3 1532.4 L1214.19 1532.4 L1214.19 1537.93 Q1216.29 1534.72 1219.12 1533.13 Q1221.99 1531.54 1225.71 1531.54 Q1231.85 1531.54 1235 1535.36 Q1238.16 1539.14 1238.16 1546.53 Z" fill="#ffffff" fill-rule="evenodd" fill-opacity="1" /><path clip-path="url(#clip360)" d="M1275.49 1533.76 L1275.49 1539.24 Q1273.01 1537.87 1270.49 1537.2 Q1268.01 1536.5 1265.46 1536.5 Q1259.77 1536.5 1256.62 1540.13 Q1253.47 1543.73 1253.47 1550.25 Q1253.47 1556.78 1256.62 1560.4 Q1259.77 1564 1265.46 1564 Q1268.01 1564 1270.49 1563.33 Q1273.01 1562.63 1275.49 1561.26 L1275.49 1566.68 Q1273.04 1567.82 1270.4 1568.39 Q1267.79 1568.97 1264.83 1568.97 Q1256.78 1568.97 1252.03 1563.91 Q1247.29 1558.85 1247.29 1550.25 Q1247.29 1541.53 1252.07 1536.53 Q1256.87 1531.54 1265.21 1531.54 Q1267.92 1531.54 1270.49 1532.11 Q1273.07 1532.65 1275.49 1533.76 Z" fill="#ffffff" fill-rule="evenodd" fill-opacity="1" /><path clip-path="url(#clip360)" d="M1299.49 1536.5 Q1294.78 1536.5 1292.04 1540.19 Q1289.3 1543.85 1289.3 1550.25 Q1289.3 1556.65 1292.01 1560.34 Q1294.75 1564 1299.49 1564 Q1304.17 1564 1306.91 1560.31 Q1309.64 1556.62 1309.64 1550.25 Q1309.64 1543.92 1306.91 1540.23 Q1304.17 1536.5 1299.49 1536.5 M1299.49 1531.54 Q1307.13 1531.54 1311.49 1536.5 Q1315.85 1541.47 1315.85 1550.25 Q1315.85 1559 1311.49 1564 Q1307.13 1568.97 1299.49 1568.97 Q1291.82 1568.97 1287.46 1564 Q1283.13 1559 1283.13 1550.25 Q1283.13 1541.47 1287.46 1536.5 Q1291.82 1531.54 1299.49 1531.54 Z" fill="#ffffff" fill-rule="evenodd" fill-opacity="1" /><path clip-path="url(#clip360)" d="M1353.31 1539.24 Q1355.51 1535.29 1358.56 1533.41 Q1361.62 1531.54 1365.76 1531.54 Q1371.33 1531.54 1374.35 1535.45 Q1377.37 1539.33 1377.37 1546.53 L1377.37 1568.04 L1371.49 1568.04 L1371.49 1546.72 Q1371.49 1541.59 1369.67 1539.11 Q1367.86 1536.63 1364.13 1536.63 Q1359.58 1536.63 1356.94 1539.65 Q1354.3 1542.68 1354.3 1547.9 L1354.3 1568.04 L1348.41 1568.04 L1348.41 1546.72 Q1348.41 1541.56 1346.6 1539.11 Q1344.78 1536.63 1340.99 1536.63 Q1336.51 1536.63 1333.86 1539.68 Q1331.22 1542.71 1331.22 1547.9 L1331.22 1568.04 L1325.33 1568.04 L1325.33 1532.4 L1331.22 1532.4 L1331.22 1537.93 Q1333.23 1534.66 1336.03 1533.1 Q1338.83 1531.54 1342.68 1531.54 Q1346.56 1531.54 1349.27 1533.51 Q1352.01 1535.48 1353.31 1539.24 Z" fill="#ffffff" fill-rule="evenodd" fill-opacity="1" /><path clip-path="url(#clip360)" d="M1419.55 1548.76 L1419.55 1551.62 L1392.62 1551.62 Q1393 1557.67 1396.25 1560.85 Q1399.53 1564 1405.35 1564 Q1408.73 1564 1411.88 1563.17 Q1415.06 1562.35 1418.18 1560.69 L1418.18 1566.23 Q1415.03 1567.57 1411.72 1568.27 Q1408.41 1568.97 1405 1568.97 Q1396.47 1568.97 1391.47 1564 Q1386.51 1559.04 1386.51 1550.57 Q1386.51 1541.82 1391.22 1536.69 Q1395.96 1531.54 1403.98 1531.54 Q1411.18 1531.54 1415.35 1536.18 Q1419.55 1540.8 1419.55 1548.76 M1413.69 1547.04 Q1413.63 1542.23 1410.98 1539.37 Q1408.37 1536.5 1404.05 1536.5 Q1399.14 1536.5 1396.18 1539.27 Q1393.26 1542.04 1392.81 1547.07 L1413.69 1547.04 Z" fill="#ffffff" fill-rule="evenodd" fill-opacity="1" /><polyline clip-path="url(#clip362)" style="stroke:#ffffff; stroke-linecap:round; stroke-linejoin:round; stroke-width:2; stroke-opacity:0.1; fill:none" points="
  257.204,1343.82 2352.76,1343.82 
  "/>
<polyline clip-path="url(#clip362)" style="stroke:#ffffff; stroke-linecap:round; stroke-linejoin:round; stroke-width:2; stroke-opacity:0.1; fill:none" points="
  257.204,927.039 2352.76,927.039 
  "/>
<polyline clip-path="url(#clip362)" style="stroke:#ffffff; stroke-linecap:round; stroke-linejoin:round; stroke-width:2; stroke-opacity:0.1; fill:none" points="
  257.204,510.253 2352.76,510.253 
  "/>
<polyline clip-path="url(#clip362)" style="stroke:#ffffff; stroke-linecap:round; stroke-linejoin:round; stroke-width:2; stroke-opacity:0.1; fill:none" points="
  257.204,93.4664 2352.76,93.4664 
  "/>
<polyline clip-path="url(#clip360)" style="stroke:#ffffff; stroke-linecap:round; stroke-linejoin:round; stroke-width:4; stroke-opacity:1; fill:none" points="
  257.204,1423.18 257.204,47.2441 
  "/>
<polyline clip-path="url(#clip360)" style="stroke:#ffffff; stroke-linecap:round; stroke-linejoin:round; stroke-width:4; stroke-opacity:1; fill:none" points="
  257.204,1343.82 276.102,1343.82 
  "/>
<polyline clip-path="url(#clip360)" style="stroke:#ffffff; stroke-linecap:round; stroke-linejoin:round; stroke-width:4; stroke-opacity:1; fill:none" points="
  257.204,927.039 276.102,927.039 
  "/>
<polyline clip-path="url(#clip360)" style="stroke:#ffffff; stroke-linecap:round; stroke-linejoin:round; stroke-width:4; stroke-opacity:1; fill:none" points="
  257.204,510.253 276.102,510.253 
  "/>
<polyline clip-path="url(#clip360)" style="stroke:#ffffff; stroke-linecap:round; stroke-linejoin:round; stroke-width:4; stroke-opacity:1; fill:none" points="
  257.204,93.4664 276.102,93.4664 
  "/>
<path clip-path="url(#clip360)" d="M115.256 1344.28 L144.931 1344.28 L144.931 1348.21 L115.256 1348.21 L115.256 1344.28 Z" fill="#ffffff" fill-rule="evenodd" fill-opacity="1" /><path clip-path="url(#clip360)" d="M155.834 1357.17 L163.473 1357.17 L163.473 1330.8 L155.163 1332.47 L155.163 1328.21 L163.427 1326.54 L168.102 1326.54 L168.102 1357.17 L175.741 1357.17 L175.741 1361.1 L155.834 1361.1 L155.834 1357.17 Z" fill="#ffffff" fill-rule="evenodd" fill-opacity="1" /><path clip-path="url(#clip360)" d="M185.186 1355.23 L190.07 1355.23 L190.07 1361.1 L185.186 1361.1 L185.186 1355.23 Z" fill="#ffffff" fill-rule="evenodd" fill-opacity="1" /><path clip-path="url(#clip360)" d="M200.301 1326.54 L218.658 1326.54 L218.658 1330.48 L204.584 1330.48 L204.584 1338.95 Q205.602 1338.6 206.621 1338.44 Q207.639 1338.26 208.658 1338.26 Q214.445 1338.26 217.824 1341.43 Q221.204 1344.6 221.204 1350.02 Q221.204 1355.6 217.732 1358.7 Q214.26 1361.78 207.94 1361.78 Q205.764 1361.78 203.496 1361.41 Q201.25 1361.04 198.843 1360.29 L198.843 1355.6 Q200.926 1356.73 203.149 1357.29 Q205.371 1357.84 207.848 1357.84 Q211.852 1357.84 214.19 1355.73 Q216.528 1353.63 216.528 1350.02 Q216.528 1346.41 214.19 1344.3 Q211.852 1342.19 207.848 1342.19 Q205.973 1342.19 204.098 1342.61 Q202.246 1343.03 200.301 1343.91 L200.301 1326.54 Z" fill="#ffffff" fill-rule="evenodd" fill-opacity="1" /><path clip-path="url(#clip360)" d="M114.26 927.49 L143.936 927.49 L143.936 931.425 L114.26 931.425 L114.26 927.49 Z" fill="#ffffff" fill-rule="evenodd" fill-opacity="1" /><path clip-path="url(#clip360)" d="M154.839 940.383 L162.477 940.383 L162.477 914.018 L154.167 915.684 L154.167 911.425 L162.431 909.759 L167.107 909.759 L167.107 940.383 L174.746 940.383 L174.746 944.319 L154.839 944.319 L154.839 940.383 Z" fill="#ffffff" fill-rule="evenodd" fill-opacity="1" /><path clip-path="url(#clip360)" d="M184.19 938.439 L189.075 938.439 L189.075 944.319 L184.19 944.319 L184.19 938.439 Z" fill="#ffffff" fill-rule="evenodd" fill-opacity="1" /><path clip-path="url(#clip360)" d="M209.26 912.837 Q205.649 912.837 203.82 916.402 Q202.014 919.944 202.014 927.073 Q202.014 934.18 203.82 937.745 Q205.649 941.286 209.26 941.286 Q212.894 941.286 214.699 937.745 Q216.528 934.18 216.528 927.073 Q216.528 919.944 214.699 916.402 Q212.894 912.837 209.26 912.837 M209.26 909.134 Q215.07 909.134 218.125 913.74 Q221.204 918.323 221.204 927.073 Q221.204 935.8 218.125 940.407 Q215.07 944.99 209.26 944.99 Q203.449 944.99 200.371 940.407 Q197.315 935.8 197.315 927.073 Q197.315 918.323 200.371 913.74 Q203.449 909.134 209.26 909.134 Z" fill="#ffffff" fill-rule="evenodd" fill-opacity="1" /><path clip-path="url(#clip360)" d="M115.256 510.704 L144.931 510.704 L144.931 514.639 L115.256 514.639 L115.256 510.704 Z" fill="#ffffff" fill-rule="evenodd" fill-opacity="1" /><path clip-path="url(#clip360)" d="M165.024 496.051 Q161.413 496.051 159.584 499.616 Q157.778 503.158 157.778 510.287 Q157.778 517.394 159.584 520.958 Q161.413 524.5 165.024 524.5 Q168.658 524.5 170.464 520.958 Q172.292 517.394 172.292 510.287 Q172.292 503.158 170.464 499.616 Q168.658 496.051 165.024 496.051 M165.024 492.348 Q170.834 492.348 173.889 496.954 Q176.968 501.537 176.968 510.287 Q176.968 519.014 173.889 523.621 Q170.834 528.204 165.024 528.204 Q159.214 528.204 156.135 523.621 Q153.079 519.014 153.079 510.287 Q153.079 501.537 156.135 496.954 Q159.214 492.348 165.024 492.348 Z" fill="#ffffff" fill-rule="evenodd" fill-opacity="1" /><path clip-path="url(#clip360)" d="M185.186 521.653 L190.07 521.653 L190.07 527.533 L185.186 527.533 L185.186 521.653 Z" fill="#ffffff" fill-rule="evenodd" fill-opacity="1" /><path clip-path="url(#clip360)" d="M200.301 492.973 L218.658 492.973 L218.658 496.908 L204.584 496.908 L204.584 505.38 Q205.602 505.033 206.621 504.871 Q207.639 504.685 208.658 504.685 Q214.445 504.685 217.824 507.857 Q221.204 511.028 221.204 516.445 Q221.204 522.023 217.732 525.125 Q214.26 528.204 207.94 528.204 Q205.764 528.204 203.496 527.833 Q201.25 527.463 198.843 526.722 L198.843 522.023 Q200.926 523.158 203.149 523.713 Q205.371 524.269 207.848 524.269 Q211.852 524.269 214.19 522.162 Q216.528 520.056 216.528 516.445 Q216.528 512.834 214.19 510.727 Q211.852 508.621 207.848 508.621 Q205.973 508.621 204.098 509.037 Q202.246 509.454 200.301 510.334 L200.301 492.973 Z" fill="#ffffff" fill-rule="evenodd" fill-opacity="1" /><path clip-path="url(#clip360)" d="M164.028 79.2651 Q160.417 79.2651 158.589 82.8299 Q156.783 86.3716 156.783 93.5012 Q156.783 100.608 158.589 104.172 Q160.417 107.714 164.028 107.714 Q167.663 107.714 169.468 104.172 Q171.297 100.608 171.297 93.5012 Q171.297 86.3716 169.468 82.8299 Q167.663 79.2651 164.028 79.2651 M164.028 75.5615 Q169.839 75.5615 172.894 80.1679 Q175.973 84.7512 175.973 93.5012 Q175.973 102.228 172.894 106.834 Q169.839 111.418 164.028 111.418 Q158.218 111.418 155.14 106.834 Q152.084 102.228 152.084 93.5012 Q152.084 84.7512 155.14 80.1679 Q158.218 75.5615 164.028 75.5615 Z" fill="#ffffff" fill-rule="evenodd" fill-opacity="1" /><path clip-path="url(#clip360)" d="M184.19 104.867 L189.075 104.867 L189.075 110.746 L184.19 110.746 L184.19 104.867 Z" fill="#ffffff" fill-rule="evenodd" fill-opacity="1" /><path clip-path="url(#clip360)" d="M209.26 79.2651 Q205.649 79.2651 203.82 82.8299 Q202.014 86.3716 202.014 93.5012 Q202.014 100.608 203.82 104.172 Q205.649 107.714 209.26 107.714 Q212.894 107.714 214.699 104.172 Q216.528 100.608 216.528 93.5012 Q216.528 86.3716 214.699 82.8299 Q212.894 79.2651 209.26 79.2651 M209.26 75.5615 Q215.07 75.5615 218.125 80.1679 Q221.204 84.7512 221.204 93.5012 Q221.204 102.228 218.125 106.834 Q215.07 111.418 209.26 111.418 Q203.449 111.418 200.371 106.834 Q197.315 102.228 197.315 93.5012 Q197.315 84.7512 200.371 80.1679 Q203.449 75.5615 209.26 75.5615 Z" fill="#ffffff" fill-rule="evenodd" fill-opacity="1" /><path clip-path="url(#clip360)" d="M46.0847 773.804 Q46.0847 780.902 47.7079 783.639 Q49.3312 786.376 53.2461 786.376 Q56.3653 786.376 58.2114 784.339 Q60.0256 782.27 60.0256 778.737 Q60.0256 773.868 56.5881 770.939 Q53.1188 767.979 47.3897 767.979 L46.0847 767.979 L46.0847 773.804 M43.6657 762.123 L64.0042 762.123 L64.0042 767.979 L58.5933 767.979 Q61.8398 769.985 63.3994 772.977 Q64.9272 775.968 64.9272 780.297 Q64.9272 785.772 61.8716 789.018 Q58.7843 792.233 53.6281 792.233 Q47.6125 792.233 44.5569 788.222 Q41.5014 784.18 41.5014 776.191 L41.5014 767.979 L40.9285 767.979 Q36.8862 767.979 34.6901 770.653 Q32.4621 773.295 32.4621 778.101 Q32.4621 781.156 33.1941 784.053 Q33.9262 786.949 35.3903 789.623 L29.9795 789.623 Q28.7381 786.408 28.1334 783.384 Q27.4968 780.361 27.4968 777.496 Q27.4968 769.762 31.5072 765.942 Q35.5176 762.123 43.6657 762.123 Z" fill="#ffffff" fill-rule="evenodd" fill-opacity="1" /><path clip-path="url(#clip360)" d="M45.7664 726.602 Q39.4007 726.602 35.8996 729.244 Q32.3984 731.854 32.3984 736.597 Q32.3984 741.307 35.8996 743.949 Q39.4007 746.559 45.7664 746.559 Q52.1003 746.559 55.6014 743.949 Q59.1026 741.307 59.1026 736.597 Q59.1026 731.854 55.6014 729.244 Q52.1003 726.602 45.7664 726.602 M59.58 720.746 Q68.683 720.746 73.1071 724.788 Q77.5631 728.83 77.5631 737.169 Q77.5631 740.257 77.0857 742.994 Q76.6401 745.731 75.6852 748.309 L69.9879 748.309 Q71.3884 745.731 72.0568 743.217 Q72.7252 740.702 72.7252 738.092 Q72.7252 732.331 69.7015 729.467 Q66.7096 726.602 60.6303 726.602 L57.7339 726.602 Q60.885 728.417 62.4446 731.249 Q64.0042 734.082 64.0042 738.029 Q64.0042 744.585 59.0071 748.596 Q54.01 752.606 45.7664 752.606 Q37.491 752.606 32.4939 748.596 Q27.4968 744.585 27.4968 738.029 Q27.4968 734.082 29.0564 731.249 Q30.616 728.417 33.7671 726.602 L28.3562 726.602 L28.3562 720.746 L59.58 720.746 Z" fill="#ffffff" fill-rule="evenodd" fill-opacity="1" /><path clip-path="url(#clip360)" d="M44.7161 678.191 L47.5806 678.191 L47.5806 705.118 Q53.6281 704.736 56.8109 701.49 Q59.9619 698.211 59.9619 692.387 Q59.9619 689.013 59.1344 685.862 Q58.3069 682.679 56.6518 679.56 L62.1899 679.56 Q63.5267 682.711 64.227 686.021 Q64.9272 689.331 64.9272 692.737 Q64.9272 701.267 59.9619 706.264 Q54.9967 711.229 46.5303 711.229 Q37.7774 711.229 32.6531 706.519 Q27.4968 701.776 27.4968 693.755 Q27.4968 686.562 32.1438 682.393 Q36.7589 678.191 44.7161 678.191 M42.9973 684.048 Q38.1912 684.111 35.3266 686.753 Q32.4621 689.363 32.4621 693.692 Q32.4621 698.593 35.2312 701.553 Q38.0002 704.482 43.0292 704.927 L42.9973 684.048 Z" fill="#ffffff" fill-rule="evenodd" fill-opacity="1" /><circle clip-path="url(#clip362)" cx="1080.71" cy="919.129" r="36" fill="#ff7300" fill-rule="evenodd" fill-opacity="1" stroke="#ffffff" stroke-opacity="1" stroke-width="3.2"/>
<circle clip-path="url(#clip362)" cx="1731.75" cy="1161.56" r="36" fill="#3cd7d9" fill-rule="evenodd" fill-opacity="1" stroke="#ffffff" stroke-opacity="1" stroke-width="3.2"/>
<polyline clip-path="url(#clip362)" style="stroke:#ffffff; stroke-linecap:round; stroke-linejoin:round; stroke-width:8; stroke-opacity:1; fill:none" points="
  1080.71,919.129 1731.75,1161.56 
  "/>
<polyline clip-path="url(#clip362)" style="stroke:#ffffff; stroke-linecap:round; stroke-linejoin:round; stroke-width:8; stroke-opacity:1; fill:none" points="
  1704.3,1132.13 1731.75,1161.56 1691.73,1165.87 
  "/>
<polyline clip-path="url(#clip362)" style="stroke:#ffffff; stroke-linecap:round; stroke-linejoin:round; stroke-width:8; stroke-opacity:1; fill:none" points="
  1731.75,1161.56 1080.71,919.129 
  "/>
<circle clip-path="url(#clip362)" cx="2293.45" cy="86.1857" r="36" fill="#3cd7d9" fill-rule="evenodd" fill-opacity="1" stroke="#ffffff" stroke-opacity="1" stroke-width="3.2"/>
<polyline clip-path="url(#clip362)" style="stroke:#ffffff; stroke-linecap:round; stroke-linejoin:round; stroke-width:8; stroke-opacity:1; fill:none" points="
  1080.71,919.129 2293.45,86.1857 
  "/>
<polyline clip-path="url(#clip362)" style="stroke:#ffffff; stroke-linecap:round; stroke-linejoin:round; stroke-width:8; stroke-opacity:1; fill:none" points="
  2253.58,91.7297 2293.45,86.1857 2273.96,121.405 
  "/>
<polyline clip-path="url(#clip362)" style="stroke:#ffffff; stroke-linecap:round; stroke-linejoin:round; stroke-width:8; stroke-opacity:1; fill:none" points="
  2293.45,86.1857 1080.71,919.129 
  "/>
<circle clip-path="url(#clip362)" cx="1375.64" cy="790.214" r="36" fill="#3cd7d9" fill-rule="evenodd" fill-opacity="1" stroke="#ffffff" stroke-opacity="1" stroke-width="3.2"/>
<polyline clip-path="url(#clip362)" style="stroke:#ffffff; stroke-linecap:round; stroke-linejoin:round; stroke-width:8; stroke-opacity:1; fill:none" points="
  1080.71,919.129 1375.64,790.214 
  "/>
<polyline clip-path="url(#clip362)" style="stroke:#ffffff; stroke-linecap:round; stroke-linejoin:round; stroke-width:8; stroke-opacity:1; fill:none" points="
  1335.45,788.139 1375.64,790.214 1349.86,821.126 
  "/>
<polyline clip-path="url(#clip362)" style="stroke:#ffffff; stroke-linecap:round; stroke-linejoin:round; stroke-width:8; stroke-opacity:1; fill:none" points="
  1375.64,790.214 1080.71,919.129 
  "/>
<circle clip-path="url(#clip362)" cx="1313.95" cy="1384.24" r="36" fill="#3cd7d9" fill-rule="evenodd" fill-opacity="1" stroke="#ffffff" stroke-opacity="1" stroke-width="3.2"/>
<polyline clip-path="url(#clip362)" style="stroke:#ffffff; stroke-linecap:round; stroke-linejoin:round; stroke-width:8; stroke-opacity:1; fill:none" points="
  1080.71,919.129 1313.95,1384.24 
  "/>
<polyline clip-path="url(#clip362)" style="stroke:#ffffff; stroke-linecap:round; stroke-linejoin:round; stroke-width:8; stroke-opacity:1; fill:none" points="
  1313.91,1343.99 1313.95,1384.24 1281.72,1360.13 
  "/>
<polyline clip-path="url(#clip362)" style="stroke:#ffffff; stroke-linecap:round; stroke-linejoin:round; stroke-width:8; stroke-opacity:1; fill:none" points="
  1313.95,1384.24 1080.71,919.129 
  "/>
<circle clip-path="url(#clip362)" cx="316.512" cy="861.146" r="36" fill="#3cd7d9" fill-rule="evenodd" fill-opacity="1" stroke="#ffffff" stroke-opacity="1" stroke-width="3.2"/>
<polyline clip-path="url(#clip362)" style="stroke:#ffffff; stroke-linecap:round; stroke-linejoin:round; stroke-width:8; stroke-opacity:1; fill:none" points="
  1080.71,919.129 316.512,861.146 
  "/>
<polyline clip-path="url(#clip362)" style="stroke:#ffffff; stroke-linecap:round; stroke-linejoin:round; stroke-width:8; stroke-opacity:1; fill:none" points="
  351.047,881.819 316.512,861.146 353.771,845.922 
  "/>
<polyline clip-path="url(#clip362)" style="stroke:#ffffff; stroke-linecap:round; stroke-linejoin:round; stroke-width:8; stroke-opacity:1; fill:none" points="
  316.512,861.146 1080.71,919.129 
  "/>
</svg>
