<?xml version="1.0" encoding="utf-8"?>
<svg xmlns="http://www.w3.org/2000/svg" xmlns:xlink="http://www.w3.org/1999/xlink" width="800" height="300" viewBox="0 0 3200 1200">
<defs>
  <clipPath id="clip250">
    <rect x="0" y="0" width="3200" height="1200"/>
  </clipPath>
</defs>
<path clip-path="url(#clip250)" d="
M0 1200 L3200 1200 L3200 0 L0 0  Z
  " fill="#12273f" fill-rule="evenodd" fill-opacity="1"/>
<defs>
  <clipPath id="clip251">
    <rect x="640" y="0" width="2241" height="1200"/>
  </clipPath>
</defs>
<path clip-path="url(#clip250)" d="
M164.112 1105.57 L1552.51 1105.57 L1552.51 97.0121 L164.112 97.0121  Z
  " fill="#12273f" fill-rule="evenodd" fill-opacity="1"/>
<defs>
  <clipPath id="clip252">
    <rect x="164" y="97" width="1389" height="1010"/>
  </clipPath>
</defs>
<polyline clip-path="url(#clip252)" style="stroke:#ffffff; stroke-linecap:round; stroke-linejoin:round; stroke-width:2; stroke-opacity:0.1; fill:none" points="
  253.445,1105.57 253.445,97.0121 
  "/>
<polyline clip-path="url(#clip252)" style="stroke:#ffffff; stroke-linecap:round; stroke-linejoin:round; stroke-width:2; stroke-opacity:0.1; fill:none" points="
  621.885,1105.57 621.885,97.0121 
  "/>
<polyline clip-path="url(#clip252)" style="stroke:#ffffff; stroke-linecap:round; stroke-linejoin:round; stroke-width:2; stroke-opacity:0.1; fill:none" points="
  990.325,1105.57 990.325,97.0121 
  "/>
<polyline clip-path="url(#clip252)" style="stroke:#ffffff; stroke-linecap:round; stroke-linejoin:round; stroke-width:2; stroke-opacity:0.1; fill:none" points="
  1358.76,1105.57 1358.76,97.0121 
  "/>
<polyline clip-path="url(#clip250)" style="stroke:#ffffff; stroke-linecap:round; stroke-linejoin:round; stroke-width:4; stroke-opacity:1; fill:none" points="
  164.112,1105.57 1552.51,1105.57 
  "/>
<polyline clip-path="url(#clip250)" style="stroke:#ffffff; stroke-linecap:round; stroke-linejoin:round; stroke-width:4; stroke-opacity:1; fill:none" points="
  253.445,1105.57 253.445,1086.67 
  "/>
<polyline clip-path="url(#clip250)" style="stroke:#ffffff; stroke-linecap:round; stroke-linejoin:round; stroke-width:4; stroke-opacity:1; fill:none" points="
  621.885,1105.57 621.885,1086.67 
  "/>
<polyline clip-path="url(#clip250)" style="stroke:#ffffff; stroke-linecap:round; stroke-linejoin:round; stroke-width:4; stroke-opacity:1; fill:none" points="
  990.325,1105.57 990.325,1086.67 
  "/>
<polyline clip-path="url(#clip250)" style="stroke:#ffffff; stroke-linecap:round; stroke-linejoin:round; stroke-width:4; stroke-opacity:1; fill:none" points="
  1358.76,1105.57 1358.76,1086.67 
  "/>
<path clip-path="url(#clip250)" d="M253.445 1142.89 Q249.834 1142.89 248.005 1146.45 Q246.2 1149.99 246.2 1157.12 Q246.2 1164.23 248.005 1167.79 Q249.834 1171.34 253.445 1171.34 Q257.079 1171.34 258.885 1167.79 Q260.713 1164.23 260.713 1157.12 Q260.713 1149.99 258.885 1146.45 Q257.079 1142.89 253.445 1142.89 M253.445 1139.18 Q259.255 1139.18 262.311 1143.79 Q265.389 1148.37 265.389 1157.12 Q265.389 1165.85 262.311 1170.46 Q259.255 1175.04 253.445 1175.04 Q247.635 1175.04 244.556 1170.46 Q241.501 1165.85 241.501 1157.12 Q241.501 1148.37 244.556 1143.79 Q247.635 1139.18 253.445 1139.18 Z" fill="#ffffff" fill-rule="evenodd" fill-opacity="1" /><path clip-path="url(#clip250)" d="M612.163 1139.81 L630.519 1139.81 L630.519 1143.74 L616.445 1143.74 L616.445 1152.22 Q617.464 1151.87 618.482 1151.71 Q619.501 1151.52 620.519 1151.52 Q626.306 1151.52 629.686 1154.69 Q633.065 1157.86 633.065 1163.28 Q633.065 1168.86 629.593 1171.96 Q626.121 1175.04 619.802 1175.04 Q617.626 1175.04 615.357 1174.67 Q613.112 1174.3 610.704 1173.56 L610.704 1168.86 Q612.788 1169.99 615.01 1170.55 Q617.232 1171.1 619.709 1171.1 Q623.714 1171.1 626.052 1169 Q628.389 1166.89 628.389 1163.28 Q628.389 1159.67 626.052 1157.56 Q623.714 1155.46 619.709 1155.46 Q617.834 1155.46 615.959 1155.87 Q614.107 1156.29 612.163 1157.17 L612.163 1139.81 Z" fill="#ffffff" fill-rule="evenodd" fill-opacity="1" /><path clip-path="url(#clip250)" d="M965.012 1170.43 L972.651 1170.43 L972.651 1144.07 L964.341 1145.73 L964.341 1141.47 L972.605 1139.81 L977.281 1139.81 L977.281 1170.43 L984.92 1170.43 L984.92 1174.37 L965.012 1174.37 L965.012 1170.43 Z" fill="#ffffff" fill-rule="evenodd" fill-opacity="1" /><path clip-path="url(#clip250)" d="M1004.36 1142.89 Q1000.75 1142.89 998.924 1146.45 Q997.119 1149.99 997.119 1157.12 Q997.119 1164.23 998.924 1167.79 Q1000.75 1171.34 1004.36 1171.34 Q1008 1171.34 1009.8 1167.79 Q1011.63 1164.23 1011.63 1157.12 Q1011.63 1149.99 1009.8 1146.45 Q1008 1142.89 1004.36 1142.89 M1004.36 1139.18 Q1010.17 1139.18 1013.23 1143.79 Q1016.31 1148.37 1016.31 1157.12 Q1016.31 1165.85 1013.23 1170.46 Q1010.17 1175.04 1004.36 1175.04 Q998.554 1175.04 995.475 1170.46 Q992.42 1165.85 992.42 1157.12 Q992.42 1148.37 995.475 1143.79 Q998.554 1139.18 1004.36 1139.18 Z" fill="#ffffff" fill-rule="evenodd" fill-opacity="1" /><path clip-path="url(#clip250)" d="M1333.95 1170.43 L1341.59 1170.43 L1341.59 1144.07 L1333.28 1145.73 L1333.28 1141.47 L1341.54 1139.81 L1346.22 1139.81 L1346.22 1170.43 L1353.86 1170.43 L1353.86 1174.37 L1333.95 1174.37 L1333.95 1170.43 Z" fill="#ffffff" fill-rule="evenodd" fill-opacity="1" /><path clip-path="url(#clip250)" d="M1363.35 1139.81 L1381.7 1139.81 L1381.7 1143.74 L1367.63 1143.74 L1367.63 1152.22 Q1368.65 1151.87 1369.67 1151.71 Q1370.69 1151.52 1371.7 1151.52 Q1377.49 1151.52 1380.87 1154.69 Q1384.25 1157.86 1384.25 1163.28 Q1384.25 1168.86 1380.78 1171.96 Q1377.31 1175.04 1370.99 1175.04 Q1368.81 1175.04 1366.54 1174.67 Q1364.3 1174.3 1361.89 1173.56 L1361.89 1168.86 Q1363.97 1169.99 1366.2 1170.55 Q1368.42 1171.1 1370.89 1171.1 Q1374.9 1171.1 1377.24 1169 Q1379.57 1166.89 1379.57 1163.28 Q1379.57 1159.67 1377.24 1157.56 Q1374.9 1155.46 1370.89 1155.46 Q1369.02 1155.46 1367.14 1155.87 Q1365.29 1156.29 1363.35 1157.17 L1363.35 1139.81 Z" fill="#ffffff" fill-rule="evenodd" fill-opacity="1" /><polyline clip-path="url(#clip252)" style="stroke:#ffffff; stroke-linecap:round; stroke-linejoin:round; stroke-width:2; stroke-opacity:0.1; fill:none" points="
  164.112,1077.02 1552.51,1077.02 
  "/>
<polyline clip-path="url(#clip252)" style="stroke:#ffffff; stroke-linecap:round; stroke-linejoin:round; stroke-width:2; stroke-opacity:0.1; fill:none" points="
  164.112,854.061 1552.51,854.061 
  "/>
<polyline clip-path="url(#clip252)" style="stroke:#ffffff; stroke-linecap:round; stroke-linejoin:round; stroke-width:2; stroke-opacity:0.1; fill:none" points="
  164.112,631.099 1552.51,631.099 
  "/>
<polyline clip-path="url(#clip252)" style="stroke:#ffffff; stroke-linecap:round; stroke-linejoin:round; stroke-width:2; stroke-opacity:0.1; fill:none" points="
  164.112,408.136 1552.51,408.136 
  "/>
<polyline clip-path="url(#clip252)" style="stroke:#ffffff; stroke-linecap:round; stroke-linejoin:round; stroke-width:2; stroke-opacity:0.1; fill:none" points="
  164.112,185.174 1552.51,185.174 
  "/>
<polyline clip-path="url(#clip250)" style="stroke:#ffffff; stroke-linecap:round; stroke-linejoin:round; stroke-width:4; stroke-opacity:1; fill:none" points="
  164.112,1105.57 164.112,97.0121 
  "/>
<polyline clip-path="url(#clip250)" style="stroke:#ffffff; stroke-linecap:round; stroke-linejoin:round; stroke-width:4; stroke-opacity:1; fill:none" points="
  164.112,1077.02 183.01,1077.02 
  "/>
<polyline clip-path="url(#clip250)" style="stroke:#ffffff; stroke-linecap:round; stroke-linejoin:round; stroke-width:4; stroke-opacity:1; fill:none" points="
  164.112,854.061 183.01,854.061 
  "/>
<polyline clip-path="url(#clip250)" style="stroke:#ffffff; stroke-linecap:round; stroke-linejoin:round; stroke-width:4; stroke-opacity:1; fill:none" points="
  164.112,631.099 183.01,631.099 
  "/>
<polyline clip-path="url(#clip250)" style="stroke:#ffffff; stroke-linecap:round; stroke-linejoin:round; stroke-width:4; stroke-opacity:1; fill:none" points="
  164.112,408.136 183.01,408.136 
  "/>
<polyline clip-path="url(#clip250)" style="stroke:#ffffff; stroke-linecap:round; stroke-linejoin:round; stroke-width:4; stroke-opacity:1; fill:none" points="
  164.112,185.174 183.01,185.174 
  "/>
<path clip-path="url(#clip250)" d="M58.9365 1062.82 Q55.3254 1062.82 53.4967 1066.39 Q51.6912 1069.93 51.6912 1077.06 Q51.6912 1084.17 53.4967 1087.73 Q55.3254 1091.27 58.9365 1091.27 Q62.5707 1091.27 64.3763 1087.73 Q66.205 1084.17 66.205 1077.06 Q66.205 1069.93 64.3763 1066.39 Q62.5707 1062.82 58.9365 1062.82 M58.9365 1059.12 Q64.7467 1059.12 67.8022 1063.73 Q70.8809 1068.31 70.8809 1077.06 Q70.8809 1085.79 67.8022 1090.39 Q64.7467 1094.98 58.9365 1094.98 Q53.1264 1094.98 50.0477 1090.39 Q46.9921 1085.79 46.9921 1077.06 Q46.9921 1068.31 50.0477 1063.73 Q53.1264 1059.12 58.9365 1059.12 Z" fill="#ffffff" fill-rule="evenodd" fill-opacity="1" /><path clip-path="url(#clip250)" d="M79.0984 1088.42 L83.9827 1088.42 L83.9827 1094.3 L79.0984 1094.3 L79.0984 1088.42 Z" fill="#ffffff" fill-rule="evenodd" fill-opacity="1" /><path clip-path="url(#clip250)" d="M104.168 1062.82 Q100.557 1062.82 98.728 1066.39 Q96.9224 1069.93 96.9224 1077.06 Q96.9224 1084.17 98.728 1087.73 Q100.557 1091.27 104.168 1091.27 Q107.802 1091.27 109.608 1087.73 Q111.436 1084.17 111.436 1077.06 Q111.436 1069.93 109.608 1066.39 Q107.802 1062.82 104.168 1062.82 M104.168 1059.12 Q109.978 1059.12 113.033 1063.73 Q116.112 1068.31 116.112 1077.06 Q116.112 1085.79 113.033 1090.39 Q109.978 1094.98 104.168 1094.98 Q98.3576 1094.98 95.2789 1090.39 Q92.2234 1085.79 92.2234 1077.06 Q92.2234 1068.31 95.2789 1063.73 Q98.3576 1059.12 104.168 1059.12 Z" fill="#ffffff" fill-rule="evenodd" fill-opacity="1" /><path clip-path="url(#clip250)" d="M59.9319 839.86 Q56.3208 839.86 54.4921 843.425 Q52.6865 846.967 52.6865 854.096 Q52.6865 861.203 54.4921 864.767 Q56.3208 868.309 59.9319 868.309 Q63.5661 868.309 65.3717 864.767 Q67.2004 861.203 67.2004 854.096 Q67.2004 846.967 65.3717 843.425 Q63.5661 839.86 59.9319 839.86 M59.9319 836.156 Q65.742 836.156 68.7976 840.763 Q71.8763 845.346 71.8763 854.096 Q71.8763 862.823 68.7976 867.429 Q65.742 872.013 59.9319 872.013 Q54.1217 872.013 51.043 867.429 Q47.9875 862.823 47.9875 854.096 Q47.9875 845.346 51.043 840.763 Q54.1217 836.156 59.9319 836.156 Z" fill="#ffffff" fill-rule="evenodd" fill-opacity="1" /><path clip-path="url(#clip250)" d="M80.0938 865.462 L84.978 865.462 L84.978 871.341 L80.0938 871.341 L80.0938 865.462 Z" fill="#ffffff" fill-rule="evenodd" fill-opacity="1" /><path clip-path="url(#clip250)" d="M95.2095 836.781 L113.566 836.781 L113.566 840.717 L99.4918 840.717 L99.4918 849.189 Q100.51 848.842 101.529 848.679 Q102.547 848.494 103.566 848.494 Q109.353 848.494 112.733 851.666 Q116.112 854.837 116.112 860.253 Q116.112 865.832 112.64 868.934 Q109.168 872.013 102.848 872.013 Q100.672 872.013 98.4039 871.642 Q96.1585 871.272 93.7511 870.531 L93.7511 865.832 Q95.8345 866.966 98.0567 867.522 Q100.279 868.078 102.756 868.078 Q106.76 868.078 109.098 865.971 Q111.436 863.865 111.436 860.253 Q111.436 856.642 109.098 854.536 Q106.76 852.429 102.756 852.429 Q100.881 852.429 99.0057 852.846 Q97.1539 853.263 95.2095 854.142 L95.2095 836.781 Z" fill="#ffffff" fill-rule="evenodd" fill-opacity="1" /><path clip-path="url(#clip250)" d="M49.7467 644.444 L57.3856 644.444 L57.3856 618.078 L49.0754 619.745 L49.0754 615.486 L57.3393 613.819 L62.0152 613.819 L62.0152 644.444 L69.654 644.444 L69.654 648.379 L49.7467 648.379 L49.7467 644.444 Z" fill="#ffffff" fill-rule="evenodd" fill-opacity="1" /><path clip-path="url(#clip250)" d="M79.0984 642.499 L83.9827 642.499 L83.9827 648.379 L79.0984 648.379 L79.0984 642.499 Z" fill="#ffffff" fill-rule="evenodd" fill-opacity="1" /><path clip-path="url(#clip250)" d="M104.168 616.898 Q100.557 616.898 98.728 620.462 Q96.9224 624.004 96.9224 631.134 Q96.9224 638.24 98.728 641.805 Q100.557 645.347 104.168 645.347 Q107.802 645.347 109.608 641.805 Q111.436 638.24 111.436 631.134 Q111.436 624.004 109.608 620.462 Q107.802 616.898 104.168 616.898 M104.168 613.194 Q109.978 613.194 113.033 617.8 Q116.112 622.384 116.112 631.134 Q116.112 639.86 113.033 644.467 Q109.978 649.05 104.168 649.05 Q98.3576 649.05 95.2789 644.467 Q92.2234 639.86 92.2234 631.134 Q92.2234 622.384 95.2789 617.8 Q98.3576 613.194 104.168 613.194 Z" fill="#ffffff" fill-rule="evenodd" fill-opacity="1" /><path clip-path="url(#clip250)" d="M50.7421 421.481 L58.381 421.481 L58.381 395.116 L50.0708 396.782 L50.0708 392.523 L58.3347 390.856 L63.0106 390.856 L63.0106 421.481 L70.6494 421.481 L70.6494 425.416 L50.7421 425.416 L50.7421 421.481 Z" fill="#ffffff" fill-rule="evenodd" fill-opacity="1" /><path clip-path="url(#clip250)" d="M80.0938 419.537 L84.978 419.537 L84.978 425.416 L80.0938 425.416 L80.0938 419.537 Z" fill="#ffffff" fill-rule="evenodd" fill-opacity="1" /><path clip-path="url(#clip250)" d="M95.2095 390.856 L113.566 390.856 L113.566 394.792 L99.4918 394.792 L99.4918 403.264 Q100.51 402.917 101.529 402.755 Q102.547 402.569 103.566 402.569 Q109.353 402.569 112.733 405.741 Q116.112 408.912 116.112 414.329 Q116.112 419.907 112.64 423.009 Q109.168 426.088 102.848 426.088 Q100.672 426.088 98.4039 425.717 Q96.1585 425.347 93.7511 424.606 L93.7511 419.907 Q95.8345 421.042 98.0567 421.597 Q100.279 422.153 102.756 422.153 Q106.76 422.153 109.098 420.046 Q111.436 417.94 111.436 414.329 Q111.436 410.718 109.098 408.611 Q106.76 406.505 102.756 406.505 Q100.881 406.505 99.0057 406.921 Q97.1539 407.338 95.2095 408.218 L95.2095 390.856 Z" fill="#ffffff" fill-rule="evenodd" fill-opacity="1" /><path clip-path="url(#clip250)" d="M52.9643 198.519 L69.2837 198.519 L69.2837 202.454 L47.3393 202.454 L47.3393 198.519 Q50.0014 195.764 54.5847 191.135 Q59.1911 186.482 60.3717 185.139 Q62.617 182.616 63.4967 180.88 Q64.3994 179.121 64.3994 177.431 Q64.3994 174.676 62.455 172.94 Q60.5337 171.204 57.4319 171.204 Q55.2328 171.204 52.7791 171.968 Q50.3486 172.732 47.5708 174.283 L47.5708 169.561 Q50.3949 168.426 52.8486 167.848 Q55.3023 167.269 57.3393 167.269 Q62.7096 167.269 65.9041 169.954 Q69.0985 172.639 69.0985 177.13 Q69.0985 179.26 68.2883 181.181 Q67.5013 183.079 65.3948 185.672 Q64.8161 186.343 61.7143 189.561 Q58.6124 192.755 52.9643 198.519 Z" fill="#ffffff" fill-rule="evenodd" fill-opacity="1" /><path clip-path="url(#clip250)" d="M79.0984 196.574 L83.9827 196.574 L83.9827 202.454 L79.0984 202.454 L79.0984 196.574 Z" fill="#ffffff" fill-rule="evenodd" fill-opacity="1" /><path clip-path="url(#clip250)" d="M104.168 170.973 Q100.557 170.973 98.728 174.538 Q96.9224 178.079 96.9224 185.209 Q96.9224 192.315 98.728 195.88 Q100.557 199.422 104.168 199.422 Q107.802 199.422 109.608 195.88 Q111.436 192.315 111.436 185.209 Q111.436 178.079 109.608 174.538 Q107.802 170.973 104.168 170.973 M104.168 167.269 Q109.978 167.269 113.033 171.876 Q116.112 176.459 116.112 185.209 Q116.112 193.936 113.033 198.542 Q109.978 203.125 104.168 203.125 Q98.3576 203.125 95.2789 198.542 Q92.2234 193.936 92.2234 185.209 Q92.2234 176.459 95.2789 171.876 Q98.3576 167.269 104.168 167.269 Z" fill="#ffffff" fill-rule="evenodd" fill-opacity="1" /><path clip-path="url(#clip250)" d="M712.5 27.2059 L719.954 27.2059 L719.954 72.576 L712.5 72.576 L712.5 27.2059 M712.5 9.54393 L719.954 9.54393 L719.954 18.9825 L712.5 18.9825 L712.5 9.54393 Z" fill="#ffffff" fill-rule="evenodd" fill-opacity="1" /><path clip-path="url(#clip250)" d="M773.264 45.1919 L773.264 72.576 L765.81 72.576 L765.81 45.4349 Q765.81 38.994 763.299 35.7938 Q760.787 32.5936 755.764 32.5936 Q749.728 32.5936 746.244 36.4419 Q742.76 40.2903 742.76 46.9338 L742.76 72.576 L735.266 72.576 L735.266 27.2059 L742.76 27.2059 L742.76 34.2544 Q745.434 30.163 749.039 28.1376 Q752.685 26.1121 757.425 26.1121 Q765.243 26.1121 769.253 30.9732 Q773.264 35.7938 773.264 45.1919 Z" fill="#ffffff" fill-rule="evenodd" fill-opacity="1" /><path clip-path="url(#clip250)" d="M820.781 28.9478 L820.781 35.9153 Q817.621 34.1734 814.421 33.3227 Q811.261 32.4315 808.021 32.4315 Q800.769 32.4315 796.759 37.0496 Q792.749 41.6271 792.749 49.9314 Q792.749 58.2358 796.759 62.8538 Q800.769 67.4314 808.021 67.4314 Q811.261 67.4314 814.421 66.5807 Q817.621 65.6895 820.781 63.9476 L820.781 70.8341 Q817.662 72.2924 814.299 73.0216 Q810.978 73.7508 807.21 73.7508 Q796.962 73.7508 790.926 67.3098 Q784.89 60.8689 784.89 49.9314 Q784.89 38.832 790.966 32.472 Q797.083 26.1121 807.696 26.1121 Q811.14 26.1121 814.421 26.8413 Q817.702 27.5299 820.781 28.9478 Z" fill="#ffffff" fill-rule="evenodd" fill-opacity="1" /><path clip-path="url(#clip250)" d="M851.325 32.4315 Q845.329 32.4315 841.846 37.1306 Q838.362 41.7891 838.362 49.9314 Q838.362 58.0738 841.805 62.7728 Q845.289 67.4314 851.325 67.4314 Q857.28 67.4314 860.763 62.7323 Q864.247 58.0333 864.247 49.9314 Q864.247 41.8701 860.763 37.1711 Q857.28 32.4315 851.325 32.4315 M851.325 26.1121 Q861.047 26.1121 866.597 32.4315 Q872.146 38.7509 872.146 49.9314 Q872.146 61.0714 866.597 67.4314 Q861.047 73.7508 851.325 73.7508 Q841.562 73.7508 836.012 67.4314 Q830.503 61.0714 830.503 49.9314 Q830.503 38.7509 836.012 32.4315 Q841.562 26.1121 851.325 26.1121 Z" fill="#ffffff" fill-rule="evenodd" fill-opacity="1" /><path clip-path="url(#clip250)" d="M919.825 35.9153 Q922.621 30.8922 926.509 28.5022 Q930.398 26.1121 935.665 26.1121 Q942.754 26.1121 946.602 31.0947 Q950.45 36.0368 950.45 45.1919 L950.45 72.576 L942.956 72.576 L942.956 45.4349 Q942.956 38.913 940.647 35.7533 Q938.338 32.5936 933.599 32.5936 Q927.806 32.5936 924.444 36.4419 Q921.081 40.2903 921.081 46.9338 L921.081 72.576 L913.587 72.576 L913.587 45.4349 Q913.587 38.8725 911.278 35.7533 Q908.969 32.5936 904.148 32.5936 Q898.437 32.5936 895.074 36.4824 Q891.712 40.3308 891.712 46.9338 L891.712 72.576 L884.218 72.576 L884.218 27.2059 L891.712 27.2059 L891.712 34.2544 Q894.264 30.082 897.829 28.0971 Q901.394 26.1121 906.295 26.1121 Q911.238 26.1121 914.681 28.6237 Q918.165 31.1352 919.825 35.9153 Z" fill="#ffffff" fill-rule="evenodd" fill-opacity="1" /><path clip-path="url(#clip250)" d="M1004.12 48.0275 L1004.12 51.6733 L969.854 51.6733 Q970.34 59.3701 974.472 63.421 Q978.645 67.4314 986.058 67.4314 Q990.352 67.4314 994.362 66.3781 Q998.413 65.3249 1002.38 63.2184 L1002.38 70.267 Q998.373 71.9684 994.16 72.8596 Q989.947 73.7508 985.612 73.7508 Q974.756 73.7508 968.396 67.4314 Q962.076 61.1119 962.076 50.3365 Q962.076 39.1965 968.072 32.6746 Q974.108 26.1121 984.316 26.1121 Q993.471 26.1121 998.778 32.0264 Q1004.12 37.9003 1004.12 48.0275 M996.671 45.84 Q996.59 39.7232 993.228 36.0774 Q989.906 32.4315 984.397 32.4315 Q978.158 32.4315 974.391 35.9558 Q970.664 39.4801 970.097 45.8805 L996.671 45.84 Z" fill="#ffffff" fill-rule="evenodd" fill-opacity="1" /><polyline clip-path="url(#clip252)" style="stroke:#3cd7d9; stroke-linecap:round; stroke-linejoin:round; stroke-width:4; stroke-opacity:1; fill:none" points="
  203.406,1076.99 209.615,1068.53 215.824,1015.53 222.033,864.981 228.242,630.791 234.451,419.873 240.66,315.81 246.869,375.765 253.077,471.535 259.286,586.937 
  265.495,734.202 271.704,820.274 277.913,894.814 284.122,934.622 290.331,965.5 296.54,992.363 302.749,1021.13 308.957,1042.34 315.166,1054.25 321.375,1057.78 
  327.584,1061.16 333.793,1069.82 340.002,1072.05 346.211,1070.76 352.42,1069.11 358.628,1072.77 364.837,1072.79 371.046,1069.89 377.255,1073.44 383.464,1076.53 
  389.673,1077 395.882,1076.4 402.091,1074.9 408.299,1074.95 414.508,1072.73 420.717,1070.33 426.926,1071.59 433.135,1073.68 439.344,1076.21 445.553,1077.02 
  451.762,1077 457.97,1077.02 464.179,1077.01 470.388,1077.02 476.597,1077.02 482.806,1077.02 489.015,1077.02 495.224,1077.02 501.433,1077.02 507.641,1077.02 
  513.85,1077.02 520.059,1077.02 526.268,1077.02 532.477,1077.02 538.686,1077.02 544.895,1077.02 551.104,1077.02 557.312,1077.02 563.521,1077.02 569.73,1077.02 
  575.939,1077.02 582.148,1077.02 588.357,1077.02 594.566,1077.02 600.775,1077.02 606.983,1077.02 613.192,1077.02 619.401,1077.02 625.61,1077.02 631.819,1077.02 
  638.028,1077.02 644.237,1077.02 650.446,1077.02 656.654,1077.02 662.863,1077.02 669.072,1077.02 675.281,1077.02 681.49,1077.02 687.699,1077.02 693.908,1077.02 
  700.117,1077.02 706.325,1077.02 712.534,1077.02 718.743,1077.02 724.952,1077.02 731.161,1077.02 737.37,1077.02 743.579,1077.02 749.788,1077.02 755.996,1077.02 
  762.205,1077.02 768.414,1077.02 774.623,1077.02 780.832,1077.02 787.041,1077.02 793.25,1077.02 799.459,1077.02 805.667,1077.02 811.876,1077.02 818.085,1077.02 
  824.294,1077.02 830.503,1077.02 836.712,1077.02 842.921,1077.02 849.13,1076.77 855.338,1075.64 861.547,1075.02 867.756,1076.44 873.965,1077.02 880.174,1077.01 
  886.383,1077.02 892.592,1077.02 898.801,1077.02 905.009,1077.02 911.218,1077.02 917.427,1077.02 923.636,1077.02 929.845,1077.02 936.054,1077.02 942.263,1077.02 
  948.472,1077.02 954.681,1077.02 960.889,1077.02 967.098,1077.02 973.307,1077.02 979.516,1077.02 985.725,1077.02 991.934,1077.02 998.143,1077.02 1004.35,1077.02 
  1010.56,1077.02 1016.77,1077.02 1022.98,1077.02 1029.19,1077.02 1035.4,1077.02 1041.6,1077.02 1047.81,1077.02 1054.02,1077.02 1060.23,1077.02 1066.44,1077.02 
  1072.65,1077.02 1078.86,1077.02 1085.07,1077.02 1091.28,1077.02 1097.48,1077.02 1103.69,1077.02 1109.9,1077.02 1116.11,1077.02 1122.32,1077.02 1128.53,1077.02 
  1134.74,1077.02 1140.95,1077.02 1147.16,1077.02 1153.36,1077.02 1159.57,1077.02 1165.78,1077.02 1171.99,1077.02 1178.2,1077.02 1184.41,1077.02 1190.62,1077.02 
  1196.83,1077.02 1203.04,1077.02 1209.24,1077.02 1215.45,1077.02 1221.66,1077.02 1227.87,1077.02 1234.08,1077.02 1240.29,1077.02 1246.5,1077.02 1252.71,1077.02 
  1258.92,1077.02 1265.12,1077.02 1271.33,1077.02 1277.54,1077.02 1283.75,1077.02 1289.96,1077.02 1296.17,1077.02 1302.38,1077.02 1308.59,1077.02 1314.8,1077.02 
  1321,1077.02 1327.21,1077.02 1333.42,1077.02 1339.63,1077.02 1345.84,1077.02 1352.05,1077.02 1358.26,1077.02 1364.47,1077.02 1370.68,1077.02 1376.88,1077.02 
  1383.09,1077.02 1389.3,1077.02 1395.51,1077.02 1401.72,1077.01 1407.93,1077.02 1414.14,1076.54 1420.35,1075.26 1426.56,1075.39 1432.76,1076.7 1438.97,1076.94 
  
  "/>
<polyline clip-path="url(#clip252)" style="stroke:#ff7300; stroke-linecap:round; stroke-linejoin:round; stroke-width:4; stroke-opacity:1; fill:none" points="
  206.001,1077.02 212.57,1065.35 219.139,954.831 225.708,607.52 232.277,174.892 238.846,125.556 245.415,299.779 251.983,526.513 258.552,722.31 265.121,835.203 
  271.69,897.952 278.259,956.698 284.828,999.43 291.397,1005.75 297.966,1026.17 304.535,1050.78 311.104,1063.91 317.673,1063.31 324.242,1064.27 330.811,1069.37 
  337.38,1073.15 343.949,1070.38 350.517,1071.13 357.086,1074.03 363.655,1075.54 370.224,1075.29 376.793,1075.15 383.362,1076.68 389.931,1077.02 396.5,1077.02 
  403.069,1077.01 409.638,1077.02 416.207,1076.5 422.776,1074.64 429.345,1075.64 435.914,1075.09 442.482,1075.43 449.051,1076.79 455.62,1077.02 462.189,1077.02 
  468.758,1077.02 475.327,1077.02 481.896,1077.02 488.465,1077.02 495.034,1077.02 501.603,1076.89 508.172,1075.73 514.741,1074.79 521.31,1075.54 527.879,1074.66 
  534.448,1076.5 541.016,1077.02 547.585,1077 554.154,1077.02 560.723,1077.02 567.292,1077.01 573.861,1077.02 580.43,1076.5 586.999,1074.58 593.568,1076.01 
  600.137,1076.97 606.706,1077.01 613.275,1077.02 619.844,1077.02 626.413,1077.02 632.982,1077.02 639.55,1077.02 646.119,1077.02 652.688,1077.02 659.257,1077.02 
  665.826,1077.02 672.395,1077.02 678.964,1077.02 685.533,1077.02 692.102,1077.02 698.671,1077.02 705.24,1077.02 711.809,1077.02 718.378,1077.02 724.947,1077.02 
  731.516,1077.02 738.084,1077.02 744.653,1077.02 751.222,1077.02 757.791,1077.02 764.36,1077.02 770.929,1077.02 777.498,1077.02 784.067,1077.02 790.636,1077.02 
  797.205,1077.02 803.774,1077.02 810.343,1077.02 816.912,1077.02 823.481,1077.02 830.05,1077.02 836.618,1077.02 843.187,1077.02 849.756,1077.02 856.325,1077.02 
  862.894,1077.02 869.463,1077.02 876.032,1077.02 882.601,1077.02 889.17,1077.02 895.739,1077.02 902.308,1077.02 908.877,1077.02 915.446,1077.02 922.015,1077.02 
  928.583,1077.02 935.152,1077.02 941.721,1077.02 948.29,1077.02 954.859,1077.02 961.428,1077.02 967.997,1077.02 974.566,1077.02 981.135,1077.02 987.704,1077.02 
  994.273,1077.02 1000.84,1077.02 1007.41,1077.02 1013.98,1077.02 1020.55,1077.02 1027.12,1077.02 1033.69,1077.02 1040.26,1077.02 1046.82,1077.02 1053.39,1077.02 
  1059.96,1077.02 1066.53,1077.02 1073.1,1077.02 1079.67,1077.02 1086.24,1077.02 1092.81,1077.02 1099.38,1077.02 1105.94,1077.02 1112.51,1077.02 1119.08,1077.02 
  1125.65,1077.02 1132.22,1077.02 1138.79,1077.02 1145.36,1077.02 1151.93,1077.02 1158.5,1077.02 1165.07,1077.02 1171.63,1077.02 1178.2,1077.02 1184.77,1077.02 
  1191.34,1077.02 1197.91,1077.02 1204.48,1077.02 1211.05,1077.02 1217.62,1077.02 1224.19,1077.02 1230.75,1077.02 1237.32,1077.02 1243.89,1077.02 1250.46,1077.02 
  1257.03,1077.02 1263.6,1077.02 1270.17,1077.02 1276.74,1077.02 1283.31,1077.02 1289.87,1077.02 1296.44,1077.02 1303.01,1077.02 1309.58,1077.02 1316.15,1077.02 
  1322.72,1077.02 1329.29,1077.02 1335.86,1077.02 1342.43,1077.02 1349,1077.02 1355.56,1077.02 1362.13,1077.02 1368.7,1077.01 1375.27,1077.02 1381.84,1077.01 
  1388.41,1077.02 1394.98,1077.01 1401.55,1077.02 1408.12,1077.01 1414.68,1077.02 1421.25,1077.01 1427.82,1077.02 1434.39,1077 1440.96,1077.02 1447.53,1077 
  1454.1,1077.02 1460.67,1076.99 1467.24,1077.02 1473.8,1076.98 1480.37,1077.02 1486.94,1076.99 1493.51,1076.45 1500.08,1074.11 1506.65,1076.61 1513.22,1076.75 
  
  "/>
<polyline clip-path="url(#clip252)" style="stroke:#9e71fe; stroke-linecap:round; stroke-linejoin:round; stroke-width:4; stroke-opacity:1; fill:none" points="
  257.952,2114.12 257.952,-911.544 
  "/>
<path clip-path="url(#clip250)" d="
M1194.84 337.991 L1506.23 337.991 L1506.23 130.631 L1194.84 130.631  Z
  " fill="#12273f" fill-rule="evenodd" fill-opacity="1"/>
<polyline clip-path="url(#clip250)" style="stroke:#ffffff; stroke-linecap:round; stroke-linejoin:round; stroke-width:4; stroke-opacity:1; fill:none" points="
  1194.84,337.991 1506.23,337.991 1506.23,130.631 1194.84,130.631 1194.84,337.991 
  "/>
<polyline clip-path="url(#clip250)" style="stroke:#3cd7d9; stroke-linecap:round; stroke-linejoin:round; stroke-width:4; stroke-opacity:1; fill:none" points="
  1210.26,182.471 1302.82,182.471 
  "/>
<path clip-path="url(#clip250)" d="M1330.2 168.269 Q1326.58 168.269 1324.76 171.834 Q1322.95 175.376 1322.95 182.505 Q1322.95 189.612 1324.76 193.177 Q1326.58 196.718 1330.2 196.718 Q1333.83 196.718 1335.63 193.177 Q1337.46 189.612 1337.46 182.505 Q1337.46 175.376 1335.63 171.834 Q1333.83 168.269 1330.2 168.269 M1330.2 164.566 Q1336.01 164.566 1339.06 169.172 Q1342.14 173.755 1342.14 182.505 Q1342.14 191.232 1339.06 195.839 Q1336.01 200.422 1330.2 200.422 Q1324.38 200.422 1321.31 195.839 Q1318.25 191.232 1318.25 182.505 Q1318.25 173.755 1321.31 169.172 Q1324.38 164.566 1330.2 164.566 Z" fill="#ffffff" fill-rule="evenodd" fill-opacity="1" /><polyline clip-path="url(#clip250)" style="stroke:#ff7300; stroke-linecap:round; stroke-linejoin:round; stroke-width:4; stroke-opacity:1; fill:none" points="
  1210.26,234.311 1302.82,234.311 
  "/>
<path clip-path="url(#clip250)" d="M1318.92 247.655 L1326.56 247.655 L1326.56 221.29 L1318.25 222.957 L1318.25 218.697 L1326.51 217.031 L1331.19 217.031 L1331.19 247.655 L1338.83 247.655 L1338.83 251.591 L1318.92 251.591 L1318.92 247.655 Z" fill="#ffffff" fill-rule="evenodd" fill-opacity="1" /><polyline clip-path="url(#clip250)" style="stroke:#9e71fe; stroke-linecap:round; stroke-linejoin:round; stroke-width:4; stroke-opacity:1; fill:none" points="
  1210.26,286.151 1302.82,286.151 
  "/>
<path clip-path="url(#clip250)" d="M1334.76 267.412 L1334.76 270.954 L1330.68 270.954 Q1328.39 270.954 1327.49 271.88 Q1326.61 272.806 1326.61 275.213 L1326.61 277.505 L1333.62 277.505 L1333.62 280.815 L1326.61 280.815 L1326.61 303.431 L1322.32 303.431 L1322.32 280.815 L1318.25 280.815 L1318.25 277.505 L1322.32 277.505 L1322.32 275.699 Q1322.32 271.371 1324.34 269.403 Q1326.35 267.412 1330.73 267.412 L1334.76 267.412 Z" fill="#ffffff" fill-rule="evenodd" fill-opacity="1" /><path clip-path="url(#clip250)" d="M1350.1 290.398 Q1344.94 290.398 1342.95 291.579 Q1340.96 292.759 1340.96 295.607 Q1340.96 297.875 1342.44 299.218 Q1343.94 300.537 1346.51 300.537 Q1350.06 300.537 1352.19 298.037 Q1354.34 295.514 1354.34 291.347 L1354.34 290.398 L1350.1 290.398 M1358.6 288.639 L1358.6 303.431 L1354.34 303.431 L1354.34 299.495 Q1352.88 301.857 1350.7 302.991 Q1348.53 304.102 1345.38 304.102 Q1341.4 304.102 1339.04 301.88 Q1336.7 299.634 1336.7 295.884 Q1336.7 291.509 1339.62 289.287 Q1342.56 287.065 1348.37 287.065 L1354.34 287.065 L1354.34 286.648 Q1354.34 283.709 1352.39 282.111 Q1350.47 280.491 1346.98 280.491 Q1344.76 280.491 1342.65 281.023 Q1340.54 281.556 1338.6 282.621 L1338.6 278.685 Q1340.94 277.783 1343.13 277.343 Q1345.33 276.88 1347.42 276.88 Q1353.04 276.88 1355.82 279.797 Q1358.6 282.713 1358.6 288.639 Z" fill="#ffffff" fill-rule="evenodd" fill-opacity="1" /><path clip-path="url(#clip250)" d="M1386.03 278.5 L1386.03 282.482 Q1384.22 281.486 1382.39 281 Q1380.59 280.491 1378.74 280.491 Q1374.59 280.491 1372.3 283.13 Q1370.01 285.746 1370.01 290.491 Q1370.01 295.236 1372.3 297.875 Q1374.59 300.491 1378.74 300.491 Q1380.59 300.491 1382.39 300.005 Q1384.22 299.495 1386.03 298.5 L1386.03 302.435 Q1384.25 303.269 1382.32 303.685 Q1380.43 304.102 1378.27 304.102 Q1372.42 304.102 1368.97 300.421 Q1365.52 296.741 1365.52 290.491 Q1365.52 284.148 1368.99 280.514 Q1372.49 276.88 1378.55 276.88 Q1380.52 276.88 1382.39 277.297 Q1384.27 277.69 1386.03 278.5 Z" fill="#ffffff" fill-rule="evenodd" fill-opacity="1" /><path clip-path="url(#clip250)" d="M1397.65 270.144 L1397.65 277.505 L1406.42 277.505 L1406.42 280.815 L1397.65 280.815 L1397.65 294.889 Q1397.65 298.06 1398.5 298.963 Q1399.38 299.866 1402.05 299.866 L1406.42 299.866 L1406.42 303.431 L1402.05 303.431 Q1397.12 303.431 1395.24 301.602 Q1393.37 299.75 1393.37 294.889 L1393.37 280.815 L1390.24 280.815 L1390.24 277.505 L1393.37 277.505 L1393.37 270.144 L1397.65 270.144 Z" fill="#ffffff" fill-rule="evenodd" fill-opacity="1" /><path clip-path="url(#clip250)" d="M1411.58 293.199 L1411.58 277.505 L1415.84 277.505 L1415.84 293.037 Q1415.84 296.718 1417.28 298.57 Q1418.71 300.398 1421.58 300.398 Q1425.03 300.398 1427.02 298.199 Q1429.04 296 1429.04 292.204 L1429.04 277.505 L1433.3 277.505 L1433.3 303.431 L1429.04 303.431 L1429.04 299.449 Q1427.49 301.81 1425.43 302.968 Q1423.39 304.102 1420.68 304.102 Q1416.21 304.102 1413.9 301.324 Q1411.58 298.546 1411.58 293.199 M1422.3 276.88 L1422.3 276.88 Z" fill="#ffffff" fill-rule="evenodd" fill-opacity="1" /><path clip-path="url(#clip250)" d="M1453.85 290.398 Q1448.69 290.398 1446.7 291.579 Q1444.71 292.759 1444.71 295.607 Q1444.71 297.875 1446.19 299.218 Q1447.69 300.537 1450.26 300.537 Q1453.81 300.537 1455.94 298.037 Q1458.09 295.514 1458.09 291.347 L1458.09 290.398 L1453.85 290.398 M1462.35 288.639 L1462.35 303.431 L1458.09 303.431 L1458.09 299.495 Q1456.63 301.857 1454.45 302.991 Q1452.28 304.102 1449.13 304.102 Q1445.15 304.102 1442.79 301.88 Q1440.45 299.634 1440.45 295.884 Q1440.45 291.509 1443.37 289.287 Q1446.31 287.065 1452.12 287.065 L1458.09 287.065 L1458.09 286.648 Q1458.09 283.709 1456.14 282.111 Q1454.22 280.491 1450.73 280.491 Q1448.5 280.491 1446.4 281.023 Q1444.29 281.556 1442.35 282.621 L1442.35 278.685 Q1444.69 277.783 1446.88 277.343 Q1449.08 276.88 1451.17 276.88 Q1456.79 276.88 1459.57 279.797 Q1462.35 282.713 1462.35 288.639 Z" fill="#ffffff" fill-rule="evenodd" fill-opacity="1" /><path clip-path="url(#clip250)" d="M1471.12 267.412 L1475.38 267.412 L1475.38 303.431 L1471.12 303.431 L1471.12 267.412 Z" fill="#ffffff" fill-rule="evenodd" fill-opacity="1" /><path clip-path="url(#clip250)" d="
M1764.36 1105.57 L3152.76 1105.57 L3152.76 97.0121 L1764.36 97.0121  Z
  " fill="#12273f" fill-rule="evenodd" fill-opacity="1"/>
<defs>
  <clipPath id="clip253">
    <rect x="1764" y="97" width="1389" height="1010"/>
  </clipPath>
</defs>
<polyline clip-path="url(#clip253)" style="stroke:#ffffff; stroke-linecap:round; stroke-linejoin:round; stroke-width:2; stroke-opacity:0.1; fill:none" points="
  1984.82,1105.57 1984.82,97.0121 
  "/>
<polyline clip-path="url(#clip253)" style="stroke:#ffffff; stroke-linecap:round; stroke-linejoin:round; stroke-width:2; stroke-opacity:0.1; fill:none" points="
  2349.29,1105.57 2349.29,97.0121 
  "/>
<polyline clip-path="url(#clip253)" style="stroke:#ffffff; stroke-linecap:round; stroke-linejoin:round; stroke-width:2; stroke-opacity:0.1; fill:none" points="
  2713.77,1105.57 2713.77,97.0121 
  "/>
<polyline clip-path="url(#clip253)" style="stroke:#ffffff; stroke-linecap:round; stroke-linejoin:round; stroke-width:2; stroke-opacity:0.1; fill:none" points="
  3078.24,1105.57 3078.24,97.0121 
  "/>
<polyline clip-path="url(#clip250)" style="stroke:#ffffff; stroke-linecap:round; stroke-linejoin:round; stroke-width:4; stroke-opacity:1; fill:none" points="
  1764.36,1105.57 3152.76,1105.57 
  "/>
<polyline clip-path="url(#clip250)" style="stroke:#ffffff; stroke-linecap:round; stroke-linejoin:round; stroke-width:4; stroke-opacity:1; fill:none" points="
  1984.82,1105.57 1984.82,1086.67 
  "/>
<polyline clip-path="url(#clip250)" style="stroke:#ffffff; stroke-linecap:round; stroke-linejoin:round; stroke-width:4; stroke-opacity:1; fill:none" points="
  2349.29,1105.57 2349.29,1086.67 
  "/>
<polyline clip-path="url(#clip250)" style="stroke:#ffffff; stroke-linecap:round; stroke-linejoin:round; stroke-width:4; stroke-opacity:1; fill:none" points="
  2713.77,1105.57 2713.77,1086.67 
  "/>
<polyline clip-path="url(#clip250)" style="stroke:#ffffff; stroke-linecap:round; stroke-linejoin:round; stroke-width:4; stroke-opacity:1; fill:none" points="
  3078.24,1105.57 3078.24,1086.67 
  "/>
<path clip-path="url(#clip250)" d="M1954.76 1157.54 L1984.44 1157.54 L1984.44 1161.47 L1954.76 1161.47 L1954.76 1157.54 Z" fill="#ffffff" fill-rule="evenodd" fill-opacity="1" /><path clip-path="url(#clip250)" d="M1998.56 1170.43 L2014.88 1170.43 L2014.88 1174.37 L1992.93 1174.37 L1992.93 1170.43 Q1995.59 1167.68 2000.18 1163.05 Q2004.78 1158.4 2005.96 1157.05 Q2008.21 1154.53 2009.09 1152.79 Q2009.99 1151.03 2009.99 1149.34 Q2009.99 1146.59 2008.05 1144.85 Q2006.13 1143.12 2003.02 1143.12 Q2000.83 1143.12 1998.37 1143.88 Q1995.94 1144.65 1993.16 1146.2 L1993.16 1141.47 Q1995.99 1140.34 1998.44 1139.76 Q2000.89 1139.18 2002.93 1139.18 Q2008.3 1139.18 2011.5 1141.87 Q2014.69 1144.55 2014.69 1149.04 Q2014.69 1151.17 2013.88 1153.09 Q2013.09 1154.99 2010.99 1157.59 Q2010.41 1158.26 2007.31 1161.47 Q2004.2 1164.67 1998.56 1170.43 Z" fill="#ffffff" fill-rule="evenodd" fill-opacity="1" /><path clip-path="url(#clip250)" d="M2349.29 1142.89 Q2345.68 1142.89 2343.85 1146.45 Q2342.05 1149.99 2342.05 1157.12 Q2342.05 1164.23 2343.85 1167.79 Q2345.68 1171.34 2349.29 1171.34 Q2352.93 1171.34 2354.73 1167.79 Q2356.56 1164.23 2356.56 1157.12 Q2356.56 1149.99 2354.73 1146.45 Q2352.93 1142.89 2349.29 1142.89 M2349.29 1139.18 Q2355.1 1139.18 2358.16 1143.79 Q2361.24 1148.37 2361.24 1157.12 Q2361.24 1165.85 2358.16 1170.46 Q2355.1 1175.04 2349.29 1175.04 Q2343.48 1175.04 2340.4 1170.46 Q2337.35 1165.85 2337.35 1157.12 Q2337.35 1148.37 2340.4 1143.79 Q2343.48 1139.18 2349.29 1139.18 Z" fill="#ffffff" fill-rule="evenodd" fill-opacity="1" /><path clip-path="url(#clip250)" d="M2708.42 1170.43 L2724.74 1170.43 L2724.74 1174.37 L2702.8 1174.37 L2702.8 1170.43 Q2705.46 1167.68 2710.04 1163.05 Q2714.65 1158.4 2715.83 1157.05 Q2718.07 1154.53 2718.95 1152.79 Q2719.86 1151.03 2719.86 1149.34 Q2719.86 1146.59 2717.91 1144.85 Q2715.99 1143.12 2712.89 1143.12 Q2710.69 1143.12 2708.24 1143.88 Q2705.81 1144.65 2703.03 1146.2 L2703.03 1141.47 Q2705.85 1140.34 2708.31 1139.76 Q2710.76 1139.18 2712.8 1139.18 Q2718.17 1139.18 2721.36 1141.87 Q2724.56 1144.55 2724.56 1149.04 Q2724.56 1151.17 2723.74 1153.09 Q2722.96 1154.99 2720.85 1157.59 Q2720.27 1158.26 2717.17 1161.47 Q2714.07 1164.67 2708.42 1170.43 Z" fill="#ffffff" fill-rule="evenodd" fill-opacity="1" /><path clip-path="url(#clip250)" d="M3081.25 1143.88 L3069.45 1162.33 L3081.25 1162.33 L3081.25 1143.88 M3080.03 1139.81 L3085.91 1139.81 L3085.91 1162.33 L3090.84 1162.33 L3090.84 1166.22 L3085.91 1166.22 L3085.91 1174.37 L3081.25 1174.37 L3081.25 1166.22 L3065.65 1166.22 L3065.65 1161.71 L3080.03 1139.81 Z" fill="#ffffff" fill-rule="evenodd" fill-opacity="1" /><polyline clip-path="url(#clip253)" style="stroke:#ffffff; stroke-linecap:round; stroke-linejoin:round; stroke-width:2; stroke-opacity:0.1; fill:none" points="
  1764.36,1077.03 3152.76,1077.03 
  "/>
<polyline clip-path="url(#clip253)" style="stroke:#ffffff; stroke-linecap:round; stroke-linejoin:round; stroke-width:2; stroke-opacity:0.1; fill:none" points="
  1764.36,853.257 3152.76,853.257 
  "/>
<polyline clip-path="url(#clip253)" style="stroke:#ffffff; stroke-linecap:round; stroke-linejoin:round; stroke-width:2; stroke-opacity:0.1; fill:none" points="
  1764.36,629.486 3152.76,629.486 
  "/>
<polyline clip-path="url(#clip253)" style="stroke:#ffffff; stroke-linecap:round; stroke-linejoin:round; stroke-width:2; stroke-opacity:0.1; fill:none" points="
  1764.36,405.715 3152.76,405.715 
  "/>
<polyline clip-path="url(#clip253)" style="stroke:#ffffff; stroke-linecap:round; stroke-linejoin:round; stroke-width:2; stroke-opacity:0.1; fill:none" points="
  1764.36,181.944 3152.76,181.944 
  "/>
<polyline clip-path="url(#clip250)" style="stroke:#ffffff; stroke-linecap:round; stroke-linejoin:round; stroke-width:4; stroke-opacity:1; fill:none" points="
  1764.36,1105.57 1764.36,97.0121 
  "/>
<polyline clip-path="url(#clip250)" style="stroke:#ffffff; stroke-linecap:round; stroke-linejoin:round; stroke-width:4; stroke-opacity:1; fill:none" points="
  1764.36,1077.03 1783.25,1077.03 
  "/>
<polyline clip-path="url(#clip250)" style="stroke:#ffffff; stroke-linecap:round; stroke-linejoin:round; stroke-width:4; stroke-opacity:1; fill:none" points="
  1764.36,853.257 1783.25,853.257 
  "/>
<polyline clip-path="url(#clip250)" style="stroke:#ffffff; stroke-linecap:round; stroke-linejoin:round; stroke-width:4; stroke-opacity:1; fill:none" points="
  1764.36,629.486 1783.25,629.486 
  "/>
<polyline clip-path="url(#clip250)" style="stroke:#ffffff; stroke-linecap:round; stroke-linejoin:round; stroke-width:4; stroke-opacity:1; fill:none" points="
  1764.36,405.715 1783.25,405.715 
  "/>
<polyline clip-path="url(#clip250)" style="stroke:#ffffff; stroke-linecap:round; stroke-linejoin:round; stroke-width:4; stroke-opacity:1; fill:none" points="
  1764.36,181.944 1783.25,181.944 
  "/>
<path clip-path="url(#clip250)" d="M1659.18 1062.83 Q1655.57 1062.83 1653.74 1066.39 Q1651.93 1069.93 1651.93 1077.06 Q1651.93 1084.17 1653.74 1087.73 Q1655.57 1091.28 1659.18 1091.28 Q1662.81 1091.28 1664.62 1087.73 Q1666.45 1084.17 1666.45 1077.06 Q1666.45 1069.93 1664.62 1066.39 Q1662.81 1062.83 1659.18 1062.83 M1659.18 1059.12 Q1664.99 1059.12 1668.05 1063.73 Q1671.12 1068.31 1671.12 1077.06 Q1671.12 1085.79 1668.05 1090.4 Q1664.99 1094.98 1659.18 1094.98 Q1653.37 1094.98 1650.29 1090.4 Q1647.24 1085.79 1647.24 1077.06 Q1647.24 1068.31 1650.29 1063.73 Q1653.37 1059.12 1659.18 1059.12 Z" fill="#ffffff" fill-rule="evenodd" fill-opacity="1" /><path clip-path="url(#clip250)" d="M1679.34 1088.43 L1684.23 1088.43 L1684.23 1094.31 L1679.34 1094.31 L1679.34 1088.43 Z" fill="#ffffff" fill-rule="evenodd" fill-opacity="1" /><path clip-path="url(#clip250)" d="M1704.41 1062.83 Q1700.8 1062.83 1698.97 1066.39 Q1697.17 1069.93 1697.17 1077.06 Q1697.17 1084.17 1698.97 1087.73 Q1700.8 1091.28 1704.41 1091.28 Q1708.05 1091.28 1709.85 1087.73 Q1711.68 1084.17 1711.68 1077.06 Q1711.68 1069.93 1709.85 1066.39 Q1708.05 1062.83 1704.41 1062.83 M1704.41 1059.12 Q1710.22 1059.12 1713.28 1063.73 Q1716.36 1068.31 1716.36 1077.06 Q1716.36 1085.79 1713.28 1090.4 Q1710.22 1094.98 1704.41 1094.98 Q1698.6 1094.98 1695.52 1090.4 Q1692.47 1085.79 1692.47 1077.06 Q1692.47 1068.31 1695.52 1063.73 Q1698.6 1059.12 1704.41 1059.12 Z" fill="#ffffff" fill-rule="evenodd" fill-opacity="1" /><path clip-path="url(#clip250)" d="M1660.41 839.056 Q1656.8 839.056 1654.97 842.62 Q1653.16 846.162 1653.16 853.292 Q1653.16 860.398 1654.97 863.963 Q1656.8 867.504 1660.41 867.504 Q1664.04 867.504 1665.85 863.963 Q1667.67 860.398 1667.67 853.292 Q1667.67 846.162 1665.85 842.62 Q1664.04 839.056 1660.41 839.056 M1660.41 835.352 Q1666.22 835.352 1669.27 839.958 Q1672.35 844.542 1672.35 853.292 Q1672.35 862.018 1669.27 866.625 Q1666.22 871.208 1660.41 871.208 Q1654.6 871.208 1651.52 866.625 Q1648.46 862.018 1648.46 853.292 Q1648.46 844.542 1651.52 839.958 Q1654.6 835.352 1660.41 835.352 Z" fill="#ffffff" fill-rule="evenodd" fill-opacity="1" /><path clip-path="url(#clip250)" d="M1680.57 864.657 L1685.45 864.657 L1685.45 870.537 L1680.57 870.537 L1680.57 864.657 Z" fill="#ffffff" fill-rule="evenodd" fill-opacity="1" /><path clip-path="url(#clip250)" d="M1696.45 866.602 L1704.09 866.602 L1704.09 840.236 L1695.78 841.903 L1695.78 837.644 L1704.04 835.977 L1708.72 835.977 L1708.72 866.602 L1716.36 866.602 L1716.36 870.537 L1696.45 870.537 L1696.45 866.602 Z" fill="#ffffff" fill-rule="evenodd" fill-opacity="1" /><path clip-path="url(#clip250)" d="M1660.78 615.284 Q1657.17 615.284 1655.34 618.849 Q1653.53 622.391 1653.53 629.521 Q1653.53 636.627 1655.34 640.192 Q1657.17 643.733 1660.78 643.733 Q1664.41 643.733 1666.22 640.192 Q1668.05 636.627 1668.05 629.521 Q1668.05 622.391 1666.22 618.849 Q1664.41 615.284 1660.78 615.284 M1660.78 611.581 Q1666.59 611.581 1669.64 616.187 Q1672.72 620.771 1672.72 629.521 Q1672.72 638.247 1669.64 642.854 Q1666.59 647.437 1660.78 647.437 Q1654.97 647.437 1651.89 642.854 Q1648.83 638.247 1648.83 629.521 Q1648.83 620.771 1651.89 616.187 Q1654.97 611.581 1660.78 611.581 Z" fill="#ffffff" fill-rule="evenodd" fill-opacity="1" /><path clip-path="url(#clip250)" d="M1680.94 640.886 L1685.82 640.886 L1685.82 646.766 L1680.94 646.766 L1680.94 640.886 Z" fill="#ffffff" fill-rule="evenodd" fill-opacity="1" /><path clip-path="url(#clip250)" d="M1700.04 642.831 L1716.36 642.831 L1716.36 646.766 L1694.41 646.766 L1694.41 642.831 Q1697.07 640.076 1701.66 635.446 Q1706.26 630.794 1707.44 629.451 Q1709.69 626.928 1710.57 625.192 Q1711.47 623.433 1711.47 621.743 Q1711.47 618.988 1709.53 617.252 Q1707.61 615.516 1704.5 615.516 Q1702.3 615.516 1699.85 616.28 Q1697.42 617.044 1694.64 618.595 L1694.64 613.872 Q1697.47 612.738 1699.92 612.16 Q1702.37 611.581 1704.41 611.581 Q1709.78 611.581 1712.98 614.266 Q1716.17 616.951 1716.17 621.442 Q1716.17 623.571 1715.36 625.493 Q1714.57 627.391 1712.47 629.983 Q1711.89 630.655 1708.79 633.872 Q1705.68 637.067 1700.04 642.831 Z" fill="#ffffff" fill-rule="evenodd" fill-opacity="1" /><path clip-path="url(#clip250)" d="M1659.83 391.513 Q1656.22 391.513 1654.39 395.078 Q1652.58 398.62 1652.58 405.749 Q1652.58 412.856 1654.39 416.421 Q1656.22 419.962 1659.83 419.962 Q1663.46 419.962 1665.27 416.421 Q1667.1 412.856 1667.1 405.749 Q1667.1 398.62 1665.27 395.078 Q1663.46 391.513 1659.83 391.513 M1659.83 387.81 Q1665.64 387.81 1668.69 392.416 Q1671.77 397 1671.77 405.749 Q1671.77 414.476 1668.69 419.083 Q1665.64 423.666 1659.83 423.666 Q1654.02 423.666 1650.94 419.083 Q1647.88 414.476 1647.88 405.749 Q1647.88 397 1650.94 392.416 Q1654.02 387.81 1659.83 387.81 Z" fill="#ffffff" fill-rule="evenodd" fill-opacity="1" /><path clip-path="url(#clip250)" d="M1679.99 417.115 L1684.87 417.115 L1684.87 422.995 L1679.99 422.995 L1679.99 417.115 Z" fill="#ffffff" fill-rule="evenodd" fill-opacity="1" /><path clip-path="url(#clip250)" d="M1709.23 404.361 Q1712.58 405.078 1714.46 407.347 Q1716.36 409.615 1716.36 412.949 Q1716.36 418.064 1712.84 420.865 Q1709.32 423.666 1702.84 423.666 Q1700.66 423.666 1698.35 423.226 Q1696.05 422.81 1693.6 421.953 L1693.6 417.439 Q1695.55 418.573 1697.86 419.152 Q1700.17 419.731 1702.7 419.731 Q1707.1 419.731 1709.39 417.995 Q1711.7 416.259 1711.7 412.949 Q1711.7 409.893 1709.55 408.18 Q1707.42 406.444 1703.6 406.444 L1699.57 406.444 L1699.57 402.601 L1703.79 402.601 Q1707.23 402.601 1709.06 401.236 Q1710.89 399.847 1710.89 397.254 Q1710.89 394.592 1708.99 393.18 Q1707.12 391.745 1703.6 391.745 Q1701.68 391.745 1699.48 392.162 Q1697.28 392.578 1694.64 393.458 L1694.64 389.291 Q1697.3 388.551 1699.62 388.18 Q1701.96 387.81 1704.02 387.81 Q1709.34 387.81 1712.44 390.24 Q1715.54 392.648 1715.54 396.768 Q1715.54 399.638 1713.9 401.629 Q1712.26 403.597 1709.23 404.361 Z" fill="#ffffff" fill-rule="evenodd" fill-opacity="1" /><path clip-path="url(#clip250)" d="M1658.69 167.742 Q1655.08 167.742 1653.25 171.307 Q1651.45 174.849 1651.45 181.978 Q1651.45 189.085 1653.25 192.65 Q1655.08 196.191 1658.69 196.191 Q1662.33 196.191 1664.13 192.65 Q1665.96 189.085 1665.96 181.978 Q1665.96 174.849 1664.13 171.307 Q1662.33 167.742 1658.69 167.742 M1658.69 164.039 Q1664.5 164.039 1667.56 168.645 Q1670.64 173.228 1670.64 181.978 Q1670.64 190.705 1667.56 195.312 Q1664.5 199.895 1658.69 199.895 Q1652.88 199.895 1649.8 195.312 Q1646.75 190.705 1646.75 181.978 Q1646.75 173.228 1649.8 168.645 Q1652.88 164.039 1658.69 164.039 Z" fill="#ffffff" fill-rule="evenodd" fill-opacity="1" /><path clip-path="url(#clip250)" d="M1678.86 193.344 L1683.74 193.344 L1683.74 199.224 L1678.86 199.224 L1678.86 193.344 Z" fill="#ffffff" fill-rule="evenodd" fill-opacity="1" /><path clip-path="url(#clip250)" d="M1706.77 168.738 L1694.97 187.187 L1706.77 187.187 L1706.77 168.738 M1705.55 164.664 L1711.42 164.664 L1711.42 187.187 L1716.36 187.187 L1716.36 191.076 L1711.42 191.076 L1711.42 199.224 L1706.77 199.224 L1706.77 191.076 L1691.17 191.076 L1691.17 186.562 L1705.55 164.664 Z" fill="#ffffff" fill-rule="evenodd" fill-opacity="1" /><path clip-path="url(#clip250)" d="M2409.44 49.7694 Q2400.4 49.7694 2396.92 51.8354 Q2393.44 53.9013 2393.44 58.8839 Q2393.44 62.8538 2396.03 65.2034 Q2398.66 67.5124 2403.16 67.5124 Q2409.36 67.5124 2413.08 63.1374 Q2416.85 58.7219 2416.85 51.4303 L2416.85 49.7694 L2409.44 49.7694 M2424.31 46.6907 L2424.31 72.576 L2416.85 72.576 L2416.85 65.6895 Q2414.3 69.8214 2410.49 71.8063 Q2406.68 73.7508 2401.17 73.7508 Q2394.21 73.7508 2390.08 69.8619 Q2385.98 65.9325 2385.98 59.3701 Q2385.98 51.7138 2391.09 47.825 Q2396.23 43.9361 2406.4 43.9361 L2416.85 43.9361 L2416.85 43.2069 Q2416.85 38.0623 2413.45 35.2672 Q2410.09 32.4315 2403.97 32.4315 Q2400.08 32.4315 2396.39 33.3632 Q2392.71 34.295 2389.31 36.1584 L2389.31 29.2718 Q2393.4 27.692 2397.25 26.9223 Q2401.09 26.1121 2404.74 26.1121 Q2414.58 26.1121 2419.44 31.2163 Q2424.31 36.3204 2424.31 46.6907 Z" fill="#ffffff" fill-rule="evenodd" fill-opacity="1" /><path clip-path="url(#clip250)" d="M2469.51 49.3643 Q2469.51 41.2625 2466.15 36.8065 Q2462.83 32.3505 2456.79 32.3505 Q2450.8 32.3505 2447.44 36.8065 Q2444.11 41.2625 2444.11 49.3643 Q2444.11 57.4256 2447.44 61.8816 Q2450.8 66.3376 2456.79 66.3376 Q2462.83 66.3376 2466.15 61.8816 Q2469.51 57.4256 2469.51 49.3643 M2476.97 66.9452 Q2476.97 78.5308 2471.82 84.1616 Q2466.68 89.8329 2456.06 89.8329 Q2452.13 89.8329 2448.65 89.2252 Q2445.17 88.6581 2441.89 87.4428 L2441.89 80.1917 Q2445.17 81.9741 2448.37 82.8248 Q2451.57 83.6755 2454.89 83.6755 Q2462.22 83.6755 2465.87 79.8271 Q2469.51 76.0193 2469.51 68.282 L2469.51 64.5957 Q2467.2 68.6061 2463.6 70.5911 Q2459.99 72.576 2454.97 72.576 Q2446.63 72.576 2441.52 66.2161 Q2436.42 59.8562 2436.42 49.3643 Q2436.42 38.832 2441.52 32.472 Q2446.63 26.1121 2454.97 26.1121 Q2459.99 26.1121 2463.6 28.0971 Q2467.2 30.082 2469.51 34.0924 L2469.51 27.2059 L2476.97 27.2059 L2476.97 66.9452 Z" fill="#ffffff" fill-rule="evenodd" fill-opacity="1" /><path clip-path="url(#clip250)" d="M2531.13 48.0275 L2531.13 51.6733 L2496.86 51.6733 Q2497.34 59.3701 2501.47 63.421 Q2505.65 67.4314 2513.06 67.4314 Q2517.35 67.4314 2521.36 66.3781 Q2525.42 65.3249 2529.39 63.2184 L2529.39 70.267 Q2525.38 71.9684 2521.16 72.8596 Q2516.95 73.7508 2512.61 73.7508 Q2501.76 73.7508 2495.4 67.4314 Q2489.08 61.1119 2489.08 50.3365 Q2489.08 39.1965 2495.07 32.6746 Q2501.11 26.1121 2511.32 26.1121 Q2520.47 26.1121 2525.78 32.0264 Q2531.13 37.9003 2531.13 48.0275 M2523.67 45.84 Q2523.59 39.7232 2520.23 36.0774 Q2516.91 32.4315 2511.4 32.4315 Q2505.16 32.4315 2501.39 35.9558 Q2497.67 39.4801 2497.1 45.8805 L2523.67 45.84 Z" fill="#ffffff" fill-rule="evenodd" fill-opacity="1" /><polyline clip-path="url(#clip253)" style="stroke:#3cd7d9; stroke-linecap:round; stroke-linejoin:round; stroke-width:4; stroke-opacity:1; fill:none" points="
  1803.65,1077.02 1809.92,1077.02 1816.19,1077.01 1822.47,1076.99 1828.74,1076.97 1835.01,1076.93 1841.28,1076.86 1847.56,1076.74 1853.83,1076.57 1860.1,1076.31 
  1866.37,1075.91 1872.64,1075.34 1878.92,1074.52 1885.19,1073.38 1891.46,1071.83 1897.73,1069.77 1904.01,1067.07 1910.28,1063.63 1916.55,1059.32 1922.82,1054.03 
  1929.09,1047.67 1935.37,1040.16 1941.64,1031.47 1947.91,1021.58 1954.18,1010.5 1960.46,998.285 1966.73,985.007 1973,970.756 1979.27,955.634 1985.55,939.743 
  1991.82,923.186 1998.09,906.056 2004.36,888.442 2010.63,870.431 2016.91,852.111 2023.18,833.581 2029.45,814.955 2035.72,796.365 2042,777.961 2048.27,759.909 
  2054.54,742.377 2060.81,725.528 2067.08,709.504 2073.36,694.414 2079.63,680.319 2085.9,667.231 2092.17,655.104 2098.45,643.842 2104.72,633.301 2110.99,623.308 
  2117.26,613.666 2123.54,604.176 2129.81,594.651 2136.08,584.931 2142.35,574.888 2148.62,564.441 2154.9,553.548 2161.17,542.206 2167.44,530.439 2173.71,518.282 
  2179.99,505.769 2186.26,492.917 2192.53,479.722 2198.8,466.154 2205.07,452.168 2211.35,437.719 2217.62,422.78 2223.89,407.374 2230.16,391.587 2236.44,375.589 
  2242.71,359.639 2248.98,344.075 2255.25,329.295 2261.53,315.73 2267.8,303.801 2274.07,293.885 2280.34,286.275 2286.61,281.156 2292.89,278.587 2299.16,278.496 
  2305.43,280.697 2311.7,284.901 2317.98,290.749 2324.25,297.841 2330.52,305.768 2336.79,314.132 2343.06,322.574 2349.34,330.783 2355.61,338.503 2361.88,345.539 
  2368.15,351.75 2374.43,357.046 2380.7,361.379 2386.97,364.733 2393.24,367.117 2399.52,368.559 2405.79,369.095 2412.06,368.775 2418.33,367.657 2424.6,365.818 
  2430.88,363.359 2437.15,360.427 2443.42,357.217 2449.69,353.989 2455.97,351.071 2462.24,348.851 2468.51,347.763 2474.78,348.26 2481.05,350.782 2487.33,355.716 
  2493.6,363.364 2499.87,373.909 2506.14,387.404 2512.42,403.756 2518.69,422.746 2524.96,444.038 2531.23,467.215 2537.51,491.806 2543.78,517.322 2550.05,543.282 
  2556.32,569.24 2562.59,594.801 2568.87,619.63 2575.14,643.46 2581.41,666.092 2587.68,687.389 2593.96,707.278 2600.23,725.74 2606.5,742.802 2612.77,758.532 
  2619.04,773.032 2625.32,786.424 2631.59,798.841 2637.86,810.422 2644.13,821.292 2650.41,831.565 2656.68,841.327 2662.95,850.642 2669.22,859.544 2675.5,868.045 
  2681.77,876.141 2688.04,883.816 2694.31,891.052 2700.58,897.834 2706.86,904.158 2713.13,910.033 2719.4,915.481 2725.67,920.543 2731.95,925.273 2738.22,929.737 
  2744.49,934.017 2750.76,938.201 2757.03,942.385 2763.31,946.667 2769.58,951.14 2775.85,955.889 2782.12,960.98 2788.4,966.454 2794.67,972.326 2800.94,978.575 
  2807.21,985.15 2813.48,991.974 2819.76,998.944 2826.03,1005.95 2832.3,1012.86 2838.57,1019.59 2844.85,1026.01 2851.12,1032.06 2857.39,1037.67 2863.66,1042.82 
  2869.94,1047.5 2876.21,1051.69 2882.48,1055.43 2888.75,1058.75 2895.02,1061.66 2901.3,1064.22 2907.57,1066.44 2913.84,1068.36 2920.11,1070.01 2926.39,1071.42 
  2932.66,1072.6 2938.93,1073.59 2945.2,1074.39 2951.47,1075.04 2957.75,1075.56 2964.02,1075.96 2970.29,1076.27 2976.56,1076.49 2982.84,1076.66 2989.11,1076.78 
  2995.38,1076.87 3001.65,1076.92 3007.93,1076.96 3014.2,1076.99 3020.47,1077 3026.74,1077.01 3033.01,1077.02 3039.29,1077.02 3045.56,1077.02 3051.83,1077.02 
  
  "/>
<polyline clip-path="url(#clip253)" style="stroke:#ff7300; stroke-linecap:round; stroke-linejoin:round; stroke-width:4; stroke-opacity:1; fill:none" points="
  1843.07,1077.02 1849.46,1077.01 1855.84,1076.99 1862.23,1076.94 1868.61,1076.87 1874.99,1076.73 1881.38,1076.49 1887.76,1076.08 1894.15,1075.42 1900.53,1074.37 
  1906.91,1072.77 1913.3,1070.42 1919.68,1067.04 1926.07,1062.35 1932.45,1056.02 1938.83,1047.73 1945.22,1037.16 1951.6,1024.02 1957.98,1008.08 1964.37,989.206 
  1970.75,967.32 1977.14,942.454 1983.52,914.738 1989.9,884.404 1996.29,851.786 2002.67,817.315 2009.06,781.512 2015.44,744.966 2021.82,708.304 2028.21,672.152 
  2034.59,637.089 2040.97,603.602 2047.36,572.056 2053.74,542.67 2060.13,515.527 2066.51,490.585 2072.89,467.717 2079.28,446.742 2085.66,427.463 2092.05,409.687 
  2098.43,393.242 2104.81,377.974 2111.2,363.747 2117.58,350.432 2123.96,337.897 2130.35,326.005 2136.73,314.613 2143.12,303.588 2149.5,292.815 2155.88,282.222 
  2162.27,271.792 2168.65,261.571 2175.04,251.661 2181.42,242.199 2187.8,233.319 2194.19,225.122 2200.57,217.639 2206.95,210.821 2213.34,204.543 2219.72,198.63 
  2226.11,192.89 2232.49,187.153 2238.87,181.294 2245.26,175.25 2251.64,169.02 2258.03,162.654 2264.41,156.243 2270.79,149.916 2277.18,143.835 2283.56,138.204 
  2289.94,133.27 2296.33,129.314 2302.71,126.643 2309.1,125.556 2315.48,126.321 2321.86,129.142 2328.25,134.14 2334.63,141.354 2341.02,150.753 2347.4,162.257 
  2353.78,175.771 2360.17,191.204 2366.55,208.487 2372.93,227.564 2379.32,248.376 2385.7,270.834 2392.09,294.787 2398.47,320.007 2404.85,346.187 2411.24,372.954 
  2417.62,399.908 2424.01,426.665 2430.39,452.898 2436.77,478.372 2443.16,502.962 2449.54,526.653 2455.92,549.519 2462.31,571.692 2468.69,593.335 2475.08,614.603 
  2481.46,635.625 2487.84,656.489 2494.23,677.243 2500.61,697.892 2507,718.41 2513.38,738.741 2519.76,758.8 2526.15,778.472 2532.53,797.613 2538.91,816.046 
  2545.3,833.583 2551.68,850.036 2558.07,865.25 2564.45,879.129 2570.83,891.661 2577.22,902.924 2583.6,913.083 2589.99,922.364 2596.37,931.013 2602.75,939.259 
  2609.14,947.272 2615.52,955.136 2621.9,962.846 2628.29,970.312 2634.67,977.395 2641.06,983.94 2647.44,989.825 2653.82,994.989 2660.21,999.453 2666.59,1003.32 
  2672.98,1006.77 2679.36,1010.01 2685.74,1013.22 2692.13,1016.59 2698.51,1020.22 2704.9,1024.13 2711.28,1028.31 2717.66,1032.67 2724.05,1037.11 2730.43,1041.51 
  2736.81,1045.76 2743.2,1049.75 2749.58,1053.4 2755.97,1056.65 2762.35,1059.46 2768.73,1061.79 2775.12,1063.66 2781.5,1065.09 2787.89,1066.15 2794.27,1066.89 
  2800.65,1067.41 2807.04,1067.78 2813.42,1068.07 2819.8,1068.33 2826.19,1068.6 2832.57,1068.9 2838.96,1069.22 2845.34,1069.58 2851.72,1069.95 2858.11,1070.35 
  2864.49,1070.76 2870.88,1071.19 2877.26,1071.65 2883.64,1072.12 2890.03,1072.61 2896.41,1073.08 2902.79,1073.52 2909.18,1073.9 2915.56,1074.19 2921.95,1074.37 
  2928.33,1074.43 2934.71,1074.37 2941.1,1074.21 2947.48,1073.98 2953.87,1073.72 2960.25,1073.48 2966.63,1073.29 2973.02,1073.18 2979.4,1073.19 2985.78,1073.32 
  2992.17,1073.56 2998.55,1073.89 3004.94,1074.28 3011.32,1074.71 3017.7,1075.14 3024.09,1075.54 3030.47,1075.9 3036.86,1076.2 3043.24,1076.44 3049.62,1076.62 
  3056.01,1076.76 3062.39,1076.86 3068.77,1076.92 3075.16,1076.96 3081.54,1076.99 3087.93,1077.01 3094.31,1077.02 3100.69,1077.02 3107.08,1077.02 3113.46,1077.02 
  
  "/>
<polyline clip-path="url(#clip253)" style="stroke:#9e71fe; stroke-linecap:round; stroke-linejoin:round; stroke-width:4; stroke-opacity:1; fill:none" points="
  2408.79,2114.12 2408.79,-911.544 
  "/>
<path clip-path="url(#clip250)" d="
M2795.08 337.991 L3106.48 337.991 L3106.48 130.631 L2795.08 130.631  Z
  " fill="#12273f" fill-rule="evenodd" fill-opacity="1"/>
<polyline clip-path="url(#clip250)" style="stroke:#ffffff; stroke-linecap:round; stroke-linejoin:round; stroke-width:4; stroke-opacity:1; fill:none" points="
  2795.08,337.991 3106.48,337.991 3106.48,130.631 2795.08,130.631 2795.08,337.991 
  "/>
<polyline clip-path="url(#clip250)" style="stroke:#3cd7d9; stroke-linecap:round; stroke-linejoin:round; stroke-width:4; stroke-opacity:1; fill:none" points="
  2810.51,182.471 2903.07,182.471 
  "/>
<path clip-path="url(#clip250)" d="M2930.44 168.269 Q2926.83 168.269 2925 171.834 Q2923.19 175.376 2923.19 182.505 Q2923.19 189.612 2925 193.177 Q2926.83 196.718 2930.44 196.718 Q2934.07 196.718 2935.88 193.177 Q2937.71 189.612 2937.71 182.505 Q2937.71 175.376 2935.88 171.834 Q2934.07 168.269 2930.44 168.269 M2930.44 164.566 Q2936.25 164.566 2939.3 169.172 Q2942.38 173.755 2942.38 182.505 Q2942.38 191.232 2939.3 195.839 Q2936.25 200.422 2930.44 200.422 Q2924.63 200.422 2921.55 195.839 Q2918.49 191.232 2918.49 182.505 Q2918.49 173.755 2921.55 169.172 Q2924.63 164.566 2930.44 164.566 Z" fill="#ffffff" fill-rule="evenodd" fill-opacity="1" /><polyline clip-path="url(#clip250)" style="stroke:#ff7300; stroke-linecap:round; stroke-linejoin:round; stroke-width:4; stroke-opacity:1; fill:none" points="
  2810.51,234.311 2903.07,234.311 
  "/>
<path clip-path="url(#clip250)" d="M2919.17 247.655 L2926.8 247.655 L2926.8 221.29 L2918.49 222.957 L2918.49 218.697 L2926.76 217.031 L2931.43 217.031 L2931.43 247.655 L2939.07 247.655 L2939.07 251.591 L2919.17 251.591 L2919.17 247.655 Z" fill="#ffffff" fill-rule="evenodd" fill-opacity="1" /><polyline clip-path="url(#clip250)" style="stroke:#9e71fe; stroke-linecap:round; stroke-linejoin:round; stroke-width:4; stroke-opacity:1; fill:none" points="
  2810.51,286.151 2903.07,286.151 
  "/>
<path clip-path="url(#clip250)" d="M2935 267.412 L2935 270.954 L2930.92 270.954 Q2928.63 270.954 2927.73 271.88 Q2926.85 272.806 2926.85 275.213 L2926.85 277.505 L2933.86 277.505 L2933.86 280.815 L2926.85 280.815 L2926.85 303.431 L2922.57 303.431 L2922.57 280.815 L2918.49 280.815 L2918.49 277.505 L2922.57 277.505 L2922.57 275.699 Q2922.57 271.371 2924.58 269.403 Q2926.6 267.412 2930.97 267.412 L2935 267.412 Z" fill="#ffffff" fill-rule="evenodd" fill-opacity="1" /><path clip-path="url(#clip250)" d="M2950.35 290.398 Q2945.18 290.398 2943.19 291.579 Q2941.2 292.759 2941.2 295.607 Q2941.2 297.875 2942.68 299.218 Q2944.19 300.537 2946.76 300.537 Q2950.3 300.537 2952.43 298.037 Q2954.58 295.514 2954.58 291.347 L2954.58 290.398 L2950.35 290.398 M2958.84 288.639 L2958.84 303.431 L2954.58 303.431 L2954.58 299.495 Q2953.12 301.857 2950.95 302.991 Q2948.77 304.102 2945.62 304.102 Q2941.64 304.102 2939.28 301.88 Q2936.94 299.634 2936.94 295.884 Q2936.94 291.509 2939.86 289.287 Q2942.8 287.065 2948.61 287.065 L2954.58 287.065 L2954.58 286.648 Q2954.58 283.709 2952.64 282.111 Q2950.72 280.491 2947.22 280.491 Q2945 280.491 2942.89 281.023 Q2940.79 281.556 2938.84 282.621 L2938.84 278.685 Q2941.18 277.783 2943.38 277.343 Q2945.58 276.88 2947.66 276.88 Q2953.29 276.88 2956.06 279.797 Q2958.84 282.713 2958.84 288.639 Z" fill="#ffffff" fill-rule="evenodd" fill-opacity="1" /><path clip-path="url(#clip250)" d="M2986.27 278.5 L2986.27 282.482 Q2984.47 281.486 2982.64 281 Q2980.83 280.491 2978.98 280.491 Q2974.84 280.491 2972.54 283.13 Q2970.25 285.746 2970.25 290.491 Q2970.25 295.236 2972.54 297.875 Q2974.84 300.491 2978.98 300.491 Q2980.83 300.491 2982.64 300.005 Q2984.47 299.495 2986.27 298.5 L2986.27 302.435 Q2984.49 303.269 2982.57 303.685 Q2980.67 304.102 2978.52 304.102 Q2972.66 304.102 2969.21 300.421 Q2965.76 296.741 2965.76 290.491 Q2965.76 284.148 2969.23 280.514 Q2972.73 276.88 2978.79 276.88 Q2980.76 276.88 2982.64 277.297 Q2984.51 277.69 2986.27 278.5 Z" fill="#ffffff" fill-rule="evenodd" fill-opacity="1" /><path clip-path="url(#clip250)" d="M2997.89 270.144 L2997.89 277.505 L3006.66 277.505 L3006.66 280.815 L2997.89 280.815 L2997.89 294.889 Q2997.89 298.06 2998.75 298.963 Q2999.63 299.866 3002.29 299.866 L3006.66 299.866 L3006.66 303.431 L3002.29 303.431 Q2997.36 303.431 2995.48 301.602 Q2993.61 299.75 2993.61 294.889 L2993.61 280.815 L2990.48 280.815 L2990.48 277.505 L2993.61 277.505 L2993.61 270.144 L2997.89 270.144 Z" fill="#ffffff" fill-rule="evenodd" fill-opacity="1" /><path clip-path="url(#clip250)" d="M3011.83 293.199 L3011.83 277.505 L3016.09 277.505 L3016.09 293.037 Q3016.09 296.718 3017.52 298.57 Q3018.96 300.398 3021.83 300.398 Q3025.28 300.398 3027.27 298.199 Q3029.28 296 3029.28 292.204 L3029.28 277.505 L3033.54 277.505 L3033.54 303.431 L3029.28 303.431 L3029.28 299.449 Q3027.73 301.81 3025.67 302.968 Q3023.63 304.102 3020.92 304.102 Q3016.46 304.102 3014.14 301.324 Q3011.83 298.546 3011.83 293.199 M3022.54 276.88 L3022.54 276.88 Z" fill="#ffffff" fill-rule="evenodd" fill-opacity="1" /><path clip-path="url(#clip250)" d="M3054.09 290.398 Q3048.93 290.398 3046.94 291.579 Q3044.95 292.759 3044.95 295.607 Q3044.95 297.875 3046.43 299.218 Q3047.94 300.537 3050.51 300.537 Q3054.05 300.537 3056.18 298.037 Q3058.33 295.514 3058.33 291.347 L3058.33 290.398 L3054.09 290.398 M3062.59 288.639 L3062.59 303.431 L3058.33 303.431 L3058.33 299.495 Q3056.87 301.857 3054.7 302.991 Q3052.52 304.102 3049.37 304.102 Q3045.39 304.102 3043.03 301.88 Q3040.69 299.634 3040.69 295.884 Q3040.69 291.509 3043.61 289.287 Q3046.55 287.065 3052.36 287.065 L3058.33 287.065 L3058.33 286.648 Q3058.33 283.709 3056.39 282.111 Q3054.47 280.491 3050.97 280.491 Q3048.75 280.491 3046.64 281.023 Q3044.53 281.556 3042.59 282.621 L3042.59 278.685 Q3044.93 277.783 3047.13 277.343 Q3049.33 276.88 3051.41 276.88 Q3057.03 276.88 3059.81 279.797 Q3062.59 282.713 3062.59 288.639 Z" fill="#ffffff" fill-rule="evenodd" fill-opacity="1" /><path clip-path="url(#clip250)" d="M3071.36 267.412 L3075.62 267.412 L3075.62 303.431 L3071.36 303.431 L3071.36 267.412 Z" fill="#ffffff" fill-rule="evenodd" fill-opacity="1" /></svg>
