<?xml version="1.0" encoding="utf-8"?>
<svg xmlns="http://www.w3.org/2000/svg" xmlns:xlink="http://www.w3.org/1999/xlink" width="800" height="300" viewBox="0 0 3200 1200">
<defs>
  <clipPath id="clip320">
    <rect x="0" y="0" width="3200" height="1200"/>
  </clipPath>
</defs>
<path clip-path="url(#clip320)" d="
M0 1200 L3200 1200 L3200 0 L0 0  Z
  " fill="#12273f" fill-rule="evenodd" fill-opacity="1"/>
<defs>
  <clipPath id="clip321">
    <rect x="640" y="0" width="2241" height="1200"/>
  </clipPath>
</defs>
<path clip-path="url(#clip320)" d="
M164.112 1105.57 L1552.51 1105.57 L1552.51 97.0121 L164.112 97.0121  Z
  " fill="#12273f" fill-rule="evenodd" fill-opacity="1"/>
<defs>
  <clipPath id="clip322">
    <rect x="164" y="97" width="1389" height="1010"/>
  </clipPath>
</defs>
<polyline clip-path="url(#clip322)" style="stroke:#ffffff; stroke-linecap:round; stroke-linejoin:round; stroke-width:2; stroke-opacity:0.1; fill:none" points="
  226.351,1105.57 226.351,97.0121 
  "/>
<polyline clip-path="url(#clip322)" style="stroke:#ffffff; stroke-linecap:round; stroke-linejoin:round; stroke-width:2; stroke-opacity:0.1; fill:none" points="
  557.443,1105.57 557.443,97.0121 
  "/>
<polyline clip-path="url(#clip322)" style="stroke:#ffffff; stroke-linecap:round; stroke-linejoin:round; stroke-width:2; stroke-opacity:0.1; fill:none" points="
  888.535,1105.57 888.535,97.0121 
  "/>
<polyline clip-path="url(#clip322)" style="stroke:#ffffff; stroke-linecap:round; stroke-linejoin:round; stroke-width:2; stroke-opacity:0.1; fill:none" points="
  1219.63,1105.57 1219.63,97.0121 
  "/>
<polyline clip-path="url(#clip322)" style="stroke:#ffffff; stroke-linecap:round; stroke-linejoin:round; stroke-width:2; stroke-opacity:0.1; fill:none" points="
  1550.72,1105.57 1550.72,97.0121 
  "/>
<polyline clip-path="url(#clip320)" style="stroke:#ffffff; stroke-linecap:round; stroke-linejoin:round; stroke-width:4; stroke-opacity:1; fill:none" points="
  164.112,1105.57 1552.51,1105.57 
  "/>
<polyline clip-path="url(#clip320)" style="stroke:#ffffff; stroke-linecap:round; stroke-linejoin:round; stroke-width:4; stroke-opacity:1; fill:none" points="
  226.351,1105.57 226.351,1086.67 
  "/>
<polyline clip-path="url(#clip320)" style="stroke:#ffffff; stroke-linecap:round; stroke-linejoin:round; stroke-width:4; stroke-opacity:1; fill:none" points="
  557.443,1105.57 557.443,1086.67 
  "/>
<polyline clip-path="url(#clip320)" style="stroke:#ffffff; stroke-linecap:round; stroke-linejoin:round; stroke-width:4; stroke-opacity:1; fill:none" points="
  888.535,1105.57 888.535,1086.67 
  "/>
<polyline clip-path="url(#clip320)" style="stroke:#ffffff; stroke-linecap:round; stroke-linejoin:round; stroke-width:4; stroke-opacity:1; fill:none" points="
  1219.63,1105.57 1219.63,1086.67 
  "/>
<polyline clip-path="url(#clip320)" style="stroke:#ffffff; stroke-linecap:round; stroke-linejoin:round; stroke-width:4; stroke-opacity:1; fill:none" points="
  1550.72,1105.57 1550.72,1086.67 
  "/>
<path clip-path="url(#clip320)" d="M226.351 1142.89 Q222.74 1142.89 220.911 1146.45 Q219.106 1149.99 219.106 1157.12 Q219.106 1164.23 220.911 1167.79 Q222.74 1171.34 226.351 1171.34 Q229.985 1171.34 231.791 1167.79 Q233.619 1164.23 233.619 1157.12 Q233.619 1149.99 231.791 1146.45 Q229.985 1142.89 226.351 1142.89 M226.351 1139.18 Q232.161 1139.18 235.217 1143.79 Q238.295 1148.37 238.295 1157.12 Q238.295 1165.85 235.217 1170.46 Q232.161 1175.04 226.351 1175.04 Q220.541 1175.04 217.462 1170.46 Q214.406 1165.85 214.406 1157.12 Q214.406 1148.37 217.462 1143.79 Q220.541 1139.18 226.351 1139.18 Z" fill="#ffffff" fill-rule="evenodd" fill-opacity="1" /><path clip-path="url(#clip320)" d="M532.131 1170.43 L539.77 1170.43 L539.77 1144.07 L531.459 1145.73 L531.459 1141.47 L539.723 1139.81 L544.399 1139.81 L544.399 1170.43 L552.038 1170.43 L552.038 1174.37 L532.131 1174.37 L532.131 1170.43 Z" fill="#ffffff" fill-rule="evenodd" fill-opacity="1" /><path clip-path="url(#clip320)" d="M571.482 1142.89 Q567.871 1142.89 566.043 1146.45 Q564.237 1149.99 564.237 1157.12 Q564.237 1164.23 566.043 1167.79 Q567.871 1171.34 571.482 1171.34 Q575.117 1171.34 576.922 1167.79 Q578.751 1164.23 578.751 1157.12 Q578.751 1149.99 576.922 1146.45 Q575.117 1142.89 571.482 1142.89 M571.482 1139.18 Q577.293 1139.18 580.348 1143.79 Q583.427 1148.37 583.427 1157.12 Q583.427 1165.85 580.348 1170.46 Q577.293 1175.04 571.482 1175.04 Q565.672 1175.04 562.594 1170.46 Q559.538 1165.85 559.538 1157.12 Q559.538 1148.37 562.594 1143.79 Q565.672 1139.18 571.482 1139.18 Z" fill="#ffffff" fill-rule="evenodd" fill-opacity="1" /><path clip-path="url(#clip320)" d="M867.309 1170.43 L883.628 1170.43 L883.628 1174.37 L861.684 1174.37 L861.684 1170.43 Q864.346 1167.68 868.929 1163.05 Q873.536 1158.4 874.716 1157.05 Q876.961 1154.53 877.841 1152.79 Q878.744 1151.03 878.744 1149.34 Q878.744 1146.59 876.799 1144.85 Q874.878 1143.12 871.776 1143.12 Q869.577 1143.12 867.124 1143.88 Q864.693 1144.65 861.915 1146.2 L861.915 1141.47 Q864.739 1140.34 867.193 1139.76 Q869.647 1139.18 871.684 1139.18 Q877.054 1139.18 880.248 1141.87 Q883.443 1144.55 883.443 1149.04 Q883.443 1151.17 882.633 1153.09 Q881.846 1154.99 879.739 1157.59 Q879.161 1158.26 876.059 1161.47 Q872.957 1164.67 867.309 1170.43 Z" fill="#ffffff" fill-rule="evenodd" fill-opacity="1" /><path clip-path="url(#clip320)" d="M903.443 1142.89 Q899.832 1142.89 898.003 1146.45 Q896.197 1149.99 896.197 1157.12 Q896.197 1164.23 898.003 1167.79 Q899.832 1171.34 903.443 1171.34 Q907.077 1171.34 908.883 1167.79 Q910.711 1164.23 910.711 1157.12 Q910.711 1149.99 908.883 1146.45 Q907.077 1142.89 903.443 1142.89 M903.443 1139.18 Q909.253 1139.18 912.308 1143.79 Q915.387 1148.37 915.387 1157.12 Q915.387 1165.85 912.308 1170.46 Q909.253 1175.04 903.443 1175.04 Q897.633 1175.04 894.554 1170.46 Q891.498 1165.85 891.498 1157.12 Q891.498 1148.37 894.554 1143.79 Q897.633 1139.18 903.443 1139.18 Z" fill="#ffffff" fill-rule="evenodd" fill-opacity="1" /><path clip-path="url(#clip320)" d="M1208.47 1155.73 Q1211.83 1156.45 1213.7 1158.72 Q1215.6 1160.99 1215.6 1164.32 Q1215.6 1169.44 1212.08 1172.24 Q1208.56 1175.04 1202.08 1175.04 Q1199.91 1175.04 1197.59 1174.6 Q1195.3 1174.18 1192.85 1173.33 L1192.85 1168.81 Q1194.79 1169.95 1197.1 1170.53 Q1199.42 1171.1 1201.94 1171.1 Q1206.34 1171.1 1208.63 1169.37 Q1210.95 1167.63 1210.95 1164.32 Q1210.95 1161.27 1208.79 1159.55 Q1206.66 1157.82 1202.85 1157.82 L1198.82 1157.82 L1198.82 1153.97 L1203.03 1153.97 Q1206.48 1153.97 1208.31 1152.61 Q1210.14 1151.22 1210.14 1148.63 Q1210.14 1145.97 1208.24 1144.55 Q1206.36 1143.12 1202.85 1143.12 Q1200.92 1143.12 1198.73 1143.53 Q1196.53 1143.95 1193.89 1144.83 L1193.89 1140.66 Q1196.55 1139.92 1198.86 1139.55 Q1201.2 1139.18 1203.26 1139.18 Q1208.59 1139.18 1211.69 1141.61 Q1214.79 1144.02 1214.79 1148.14 Q1214.79 1151.01 1213.15 1153 Q1211.5 1154.97 1208.47 1155.73 Z" fill="#ffffff" fill-rule="evenodd" fill-opacity="1" /><path clip-path="url(#clip320)" d="M1234.47 1142.89 Q1230.85 1142.89 1229.03 1146.45 Q1227.22 1149.99 1227.22 1157.12 Q1227.22 1164.23 1229.03 1167.79 Q1230.85 1171.34 1234.47 1171.34 Q1238.1 1171.34 1239.91 1167.79 Q1241.73 1164.23 1241.73 1157.12 Q1241.73 1149.99 1239.91 1146.45 Q1238.1 1142.89 1234.47 1142.89 M1234.47 1139.18 Q1240.28 1139.18 1243.33 1143.79 Q1246.41 1148.37 1246.41 1157.12 Q1246.41 1165.85 1243.33 1170.46 Q1240.28 1175.04 1234.47 1175.04 Q1228.66 1175.04 1225.58 1170.46 Q1222.52 1165.85 1222.52 1157.12 Q1222.52 1148.37 1225.58 1143.79 Q1228.66 1139.18 1234.47 1139.18 Z" fill="#ffffff" fill-rule="evenodd" fill-opacity="1" /><path clip-path="url(#clip320)" d="M1538.89 1143.88 L1527.09 1162.33 L1538.89 1162.33 L1538.89 1143.88 M1537.66 1139.81 L1543.54 1139.81 L1543.54 1162.33 L1548.47 1162.33 L1548.47 1166.22 L1543.54 1166.22 L1543.54 1174.37 L1538.89 1174.37 L1538.89 1166.22 L1523.29 1166.22 L1523.29 1161.71 L1537.66 1139.81 Z" fill="#ffffff" fill-rule="evenodd" fill-opacity="1" /><path clip-path="url(#clip320)" d="M1566.21 1142.89 Q1562.59 1142.89 1560.77 1146.45 Q1558.96 1149.99 1558.96 1157.12 Q1558.96 1164.23 1560.77 1167.79 Q1562.59 1171.34 1566.21 1171.34 Q1569.84 1171.34 1571.65 1167.79 Q1573.47 1164.23 1573.47 1157.12 Q1573.47 1149.99 1571.65 1146.45 Q1569.84 1142.89 1566.21 1142.89 M1566.21 1139.18 Q1572.02 1139.18 1575.07 1143.79 Q1578.15 1148.37 1578.15 1157.12 Q1578.15 1165.85 1575.07 1170.46 Q1572.02 1175.04 1566.21 1175.04 Q1560.4 1175.04 1557.32 1170.46 Q1554.26 1165.85 1554.26 1157.12 Q1554.26 1148.37 1557.32 1143.79 Q1560.4 1139.18 1566.21 1139.18 Z" fill="#ffffff" fill-rule="evenodd" fill-opacity="1" /><polyline clip-path="url(#clip322)" style="stroke:#ffffff; stroke-linecap:round; stroke-linejoin:round; stroke-width:2; stroke-opacity:0.1; fill:none" points="
  164.112,1077.02 1552.51,1077.02 
  "/>
<polyline clip-path="url(#clip322)" style="stroke:#ffffff; stroke-linecap:round; stroke-linejoin:round; stroke-width:2; stroke-opacity:0.1; fill:none" points="
  164.112,874.435 1552.51,874.435 
  "/>
<polyline clip-path="url(#clip322)" style="stroke:#ffffff; stroke-linecap:round; stroke-linejoin:round; stroke-width:2; stroke-opacity:0.1; fill:none" points="
  164.112,671.845 1552.51,671.845 
  "/>
<polyline clip-path="url(#clip322)" style="stroke:#ffffff; stroke-linecap:round; stroke-linejoin:round; stroke-width:2; stroke-opacity:0.1; fill:none" points="
  164.112,469.256 1552.51,469.256 
  "/>
<polyline clip-path="url(#clip322)" style="stroke:#ffffff; stroke-linecap:round; stroke-linejoin:round; stroke-width:2; stroke-opacity:0.1; fill:none" points="
  164.112,266.667 1552.51,266.667 
  "/>
<polyline clip-path="url(#clip320)" style="stroke:#ffffff; stroke-linecap:round; stroke-linejoin:round; stroke-width:4; stroke-opacity:1; fill:none" points="
  164.112,1105.57 164.112,97.0121 
  "/>
<polyline clip-path="url(#clip320)" style="stroke:#ffffff; stroke-linecap:round; stroke-linejoin:round; stroke-width:4; stroke-opacity:1; fill:none" points="
  164.112,1077.02 183.01,1077.02 
  "/>
<polyline clip-path="url(#clip320)" style="stroke:#ffffff; stroke-linecap:round; stroke-linejoin:round; stroke-width:4; stroke-opacity:1; fill:none" points="
  164.112,874.435 183.01,874.435 
  "/>
<polyline clip-path="url(#clip320)" style="stroke:#ffffff; stroke-linecap:round; stroke-linejoin:round; stroke-width:4; stroke-opacity:1; fill:none" points="
  164.112,671.845 183.01,671.845 
  "/>
<polyline clip-path="url(#clip320)" style="stroke:#ffffff; stroke-linecap:round; stroke-linejoin:round; stroke-width:4; stroke-opacity:1; fill:none" points="
  164.112,469.256 183.01,469.256 
  "/>
<polyline clip-path="url(#clip320)" style="stroke:#ffffff; stroke-linecap:round; stroke-linejoin:round; stroke-width:4; stroke-opacity:1; fill:none" points="
  164.112,266.667 183.01,266.667 
  "/>
<path clip-path="url(#clip320)" d="M58.9365 1062.82 Q55.3254 1062.82 53.4967 1066.39 Q51.6912 1069.93 51.6912 1077.06 Q51.6912 1084.17 53.4967 1087.73 Q55.3254 1091.27 58.9365 1091.27 Q62.5707 1091.27 64.3763 1087.73 Q66.205 1084.17 66.205 1077.06 Q66.205 1069.93 64.3763 1066.39 Q62.5707 1062.82 58.9365 1062.82 M58.9365 1059.12 Q64.7467 1059.12 67.8022 1063.73 Q70.8809 1068.31 70.8809 1077.06 Q70.8809 1085.79 67.8022 1090.39 Q64.7467 1094.98 58.9365 1094.98 Q53.1264 1094.98 50.0477 1090.39 Q46.9921 1085.79 46.9921 1077.06 Q46.9921 1068.31 50.0477 1063.73 Q53.1264 1059.12 58.9365 1059.12 Z" fill="#ffffff" fill-rule="evenodd" fill-opacity="1" /><path clip-path="url(#clip320)" d="M79.0984 1088.42 L83.9827 1088.42 L83.9827 1094.3 L79.0984 1094.3 L79.0984 1088.42 Z" fill="#ffffff" fill-rule="evenodd" fill-opacity="1" /><path clip-path="url(#clip320)" d="M104.168 1062.82 Q100.557 1062.82 98.728 1066.39 Q96.9224 1069.93 96.9224 1077.06 Q96.9224 1084.17 98.728 1087.73 Q100.557 1091.27 104.168 1091.27 Q107.802 1091.27 109.608 1087.73 Q111.436 1084.17 111.436 1077.06 Q111.436 1069.93 109.608 1066.39 Q107.802 1062.82 104.168 1062.82 M104.168 1059.12 Q109.978 1059.12 113.033 1063.73 Q116.112 1068.31 116.112 1077.06 Q116.112 1085.79 113.033 1090.39 Q109.978 1094.98 104.168 1094.98 Q98.3576 1094.98 95.2789 1090.39 Q92.2234 1085.79 92.2234 1077.06 Q92.2234 1068.31 95.2789 1063.73 Q98.3576 1059.12 104.168 1059.12 Z" fill="#ffffff" fill-rule="evenodd" fill-opacity="1" /><path clip-path="url(#clip320)" d="M59.9319 860.233 Q56.3208 860.233 54.4921 863.798 Q52.6865 867.34 52.6865 874.469 Q52.6865 881.576 54.4921 885.141 Q56.3208 888.682 59.9319 888.682 Q63.5661 888.682 65.3717 885.141 Q67.2004 881.576 67.2004 874.469 Q67.2004 867.34 65.3717 863.798 Q63.5661 860.233 59.9319 860.233 M59.9319 856.53 Q65.742 856.53 68.7976 861.136 Q71.8763 865.719 71.8763 874.469 Q71.8763 883.196 68.7976 887.803 Q65.742 892.386 59.9319 892.386 Q54.1217 892.386 51.043 887.803 Q47.9875 883.196 47.9875 874.469 Q47.9875 865.719 51.043 861.136 Q54.1217 856.53 59.9319 856.53 Z" fill="#ffffff" fill-rule="evenodd" fill-opacity="1" /><path clip-path="url(#clip320)" d="M80.0938 885.835 L84.978 885.835 L84.978 891.715 L80.0938 891.715 L80.0938 885.835 Z" fill="#ffffff" fill-rule="evenodd" fill-opacity="1" /><path clip-path="url(#clip320)" d="M95.2095 857.155 L113.566 857.155 L113.566 861.09 L99.4918 861.09 L99.4918 869.562 Q100.51 869.215 101.529 869.053 Q102.547 868.868 103.566 868.868 Q109.353 868.868 112.733 872.039 Q116.112 875.21 116.112 880.627 Q116.112 886.205 112.64 889.307 Q109.168 892.386 102.848 892.386 Q100.672 892.386 98.4039 892.016 Q96.1585 891.645 93.7511 890.904 L93.7511 886.205 Q95.8345 887.34 98.0567 887.895 Q100.279 888.451 102.756 888.451 Q106.76 888.451 109.098 886.344 Q111.436 884.238 111.436 880.627 Q111.436 877.016 109.098 874.909 Q106.76 872.803 102.756 872.803 Q100.881 872.803 99.0057 873.219 Q97.1539 873.636 95.2095 874.516 L95.2095 857.155 Z" fill="#ffffff" fill-rule="evenodd" fill-opacity="1" /><path clip-path="url(#clip320)" d="M49.7467 685.19 L57.3856 685.19 L57.3856 658.825 L49.0754 660.491 L49.0754 656.232 L57.3393 654.565 L62.0152 654.565 L62.0152 685.19 L69.654 685.19 L69.654 689.125 L49.7467 689.125 L49.7467 685.19 Z" fill="#ffffff" fill-rule="evenodd" fill-opacity="1" /><path clip-path="url(#clip320)" d="M79.0984 683.246 L83.9827 683.246 L83.9827 689.125 L79.0984 689.125 L79.0984 683.246 Z" fill="#ffffff" fill-rule="evenodd" fill-opacity="1" /><path clip-path="url(#clip320)" d="M104.168 657.644 Q100.557 657.644 98.728 661.209 Q96.9224 664.751 96.9224 671.88 Q96.9224 678.987 98.728 682.551 Q100.557 686.093 104.168 686.093 Q107.802 686.093 109.608 682.551 Q111.436 678.987 111.436 671.88 Q111.436 664.751 109.608 661.209 Q107.802 657.644 104.168 657.644 M104.168 653.94 Q109.978 653.94 113.033 658.547 Q116.112 663.13 116.112 671.88 Q116.112 680.607 113.033 685.213 Q109.978 689.797 104.168 689.797 Q98.3576 689.797 95.2789 685.213 Q92.2234 680.607 92.2234 671.88 Q92.2234 663.13 95.2789 658.547 Q98.3576 653.94 104.168 653.94 Z" fill="#ffffff" fill-rule="evenodd" fill-opacity="1" /><path clip-path="url(#clip320)" d="M50.7421 482.601 L58.381 482.601 L58.381 456.236 L50.0708 457.902 L50.0708 453.643 L58.3347 451.976 L63.0106 451.976 L63.0106 482.601 L70.6494 482.601 L70.6494 486.536 L50.7421 486.536 L50.7421 482.601 Z" fill="#ffffff" fill-rule="evenodd" fill-opacity="1" /><path clip-path="url(#clip320)" d="M80.0938 480.657 L84.978 480.657 L84.978 486.536 L80.0938 486.536 L80.0938 480.657 Z" fill="#ffffff" fill-rule="evenodd" fill-opacity="1" /><path clip-path="url(#clip320)" d="M95.2095 451.976 L113.566 451.976 L113.566 455.911 L99.4918 455.911 L99.4918 464.384 Q100.51 464.036 101.529 463.874 Q102.547 463.689 103.566 463.689 Q109.353 463.689 112.733 466.86 Q116.112 470.032 116.112 475.448 Q116.112 481.027 112.64 484.129 Q109.168 487.208 102.848 487.208 Q100.672 487.208 98.4039 486.837 Q96.1585 486.467 93.7511 485.726 L93.7511 481.027 Q95.8345 482.161 98.0567 482.717 Q100.279 483.272 102.756 483.272 Q106.76 483.272 109.098 481.166 Q111.436 479.059 111.436 475.448 Q111.436 471.837 109.098 469.731 Q106.76 467.624 102.756 467.624 Q100.881 467.624 99.0057 468.041 Q97.1539 468.458 95.2095 469.337 L95.2095 451.976 Z" fill="#ffffff" fill-rule="evenodd" fill-opacity="1" /><path clip-path="url(#clip320)" d="M52.9643 280.012 L69.2837 280.012 L69.2837 283.947 L47.3393 283.947 L47.3393 280.012 Q50.0014 277.257 54.5847 272.628 Q59.1911 267.975 60.3717 266.632 Q62.617 264.109 63.4967 262.373 Q64.3994 260.614 64.3994 258.924 Q64.3994 256.169 62.455 254.433 Q60.5337 252.697 57.4319 252.697 Q55.2328 252.697 52.7791 253.461 Q50.3486 254.225 47.5708 255.776 L47.5708 251.054 Q50.3949 249.92 52.8486 249.341 Q55.3023 248.762 57.3393 248.762 Q62.7096 248.762 65.9041 251.447 Q69.0985 254.132 69.0985 258.623 Q69.0985 260.753 68.2883 262.674 Q67.5013 264.572 65.3948 267.165 Q64.8161 267.836 61.7143 271.054 Q58.6124 274.248 52.9643 280.012 Z" fill="#ffffff" fill-rule="evenodd" fill-opacity="1" /><path clip-path="url(#clip320)" d="M79.0984 278.068 L83.9827 278.068 L83.9827 283.947 L79.0984 283.947 L79.0984 278.068 Z" fill="#ffffff" fill-rule="evenodd" fill-opacity="1" /><path clip-path="url(#clip320)" d="M104.168 252.466 Q100.557 252.466 98.728 256.031 Q96.9224 259.572 96.9224 266.702 Q96.9224 273.808 98.728 277.373 Q100.557 280.915 104.168 280.915 Q107.802 280.915 109.608 277.373 Q111.436 273.808 111.436 266.702 Q111.436 259.572 109.608 256.031 Q107.802 252.466 104.168 252.466 M104.168 248.762 Q109.978 248.762 113.033 253.369 Q116.112 257.952 116.112 266.702 Q116.112 275.429 113.033 280.035 Q109.978 284.618 104.168 284.618 Q98.3576 284.618 95.2789 280.035 Q92.2234 275.429 92.2234 266.702 Q92.2234 257.952 95.2789 253.369 Q98.3576 248.762 104.168 248.762 Z" fill="#ffffff" fill-rule="evenodd" fill-opacity="1" /><path clip-path="url(#clip320)" d="M712.5 27.2059 L719.954 27.2059 L719.954 72.576 L712.5 72.576 L712.5 27.2059 M712.5 9.54393 L719.954 9.54393 L719.954 18.9825 L712.5 18.9825 L712.5 9.54393 Z" fill="#ffffff" fill-rule="evenodd" fill-opacity="1" /><path clip-path="url(#clip320)" d="M773.264 45.1919 L773.264 72.576 L765.81 72.576 L765.81 45.4349 Q765.81 38.994 763.299 35.7938 Q760.787 32.5936 755.764 32.5936 Q749.728 32.5936 746.244 36.4419 Q742.76 40.2903 742.76 46.9338 L742.76 72.576 L735.266 72.576 L735.266 27.2059 L742.76 27.2059 L742.76 34.2544 Q745.434 30.163 749.039 28.1376 Q752.685 26.1121 757.425 26.1121 Q765.243 26.1121 769.253 30.9732 Q773.264 35.7938 773.264 45.1919 Z" fill="#ffffff" fill-rule="evenodd" fill-opacity="1" /><path clip-path="url(#clip320)" d="M820.781 28.9478 L820.781 35.9153 Q817.621 34.1734 814.421 33.3227 Q811.261 32.4315 808.021 32.4315 Q800.769 32.4315 796.759 37.0496 Q792.749 41.6271 792.749 49.9314 Q792.749 58.2358 796.759 62.8538 Q800.769 67.4314 808.021 67.4314 Q811.261 67.4314 814.421 66.5807 Q817.621 65.6895 820.781 63.9476 L820.781 70.8341 Q817.662 72.2924 814.299 73.0216 Q810.978 73.7508 807.21 73.7508 Q796.962 73.7508 790.926 67.3098 Q784.89 60.8689 784.89 49.9314 Q784.89 38.832 790.966 32.472 Q797.083 26.1121 807.696 26.1121 Q811.14 26.1121 814.421 26.8413 Q817.702 27.5299 820.781 28.9478 Z" fill="#ffffff" fill-rule="evenodd" fill-opacity="1" /><path clip-path="url(#clip320)" d="M851.325 32.4315 Q845.329 32.4315 841.846 37.1306 Q838.362 41.7891 838.362 49.9314 Q838.362 58.0738 841.805 62.7728 Q845.289 67.4314 851.325 67.4314 Q857.28 67.4314 860.763 62.7323 Q864.247 58.0333 864.247 49.9314 Q864.247 41.8701 860.763 37.1711 Q857.28 32.4315 851.325 32.4315 M851.325 26.1121 Q861.047 26.1121 866.597 32.4315 Q872.146 38.7509 872.146 49.9314 Q872.146 61.0714 866.597 67.4314 Q861.047 73.7508 851.325 73.7508 Q841.562 73.7508 836.012 67.4314 Q830.503 61.0714 830.503 49.9314 Q830.503 38.7509 836.012 32.4315 Q841.562 26.1121 851.325 26.1121 Z" fill="#ffffff" fill-rule="evenodd" fill-opacity="1" /><path clip-path="url(#clip320)" d="M919.825 35.9153 Q922.621 30.8922 926.509 28.5022 Q930.398 26.1121 935.665 26.1121 Q942.754 26.1121 946.602 31.0947 Q950.45 36.0368 950.45 45.1919 L950.45 72.576 L942.956 72.576 L942.956 45.4349 Q942.956 38.913 940.647 35.7533 Q938.338 32.5936 933.599 32.5936 Q927.806 32.5936 924.444 36.4419 Q921.081 40.2903 921.081 46.9338 L921.081 72.576 L913.587 72.576 L913.587 45.4349 Q913.587 38.8725 911.278 35.7533 Q908.969 32.5936 904.148 32.5936 Q898.437 32.5936 895.074 36.4824 Q891.712 40.3308 891.712 46.9338 L891.712 72.576 L884.218 72.576 L884.218 27.2059 L891.712 27.2059 L891.712 34.2544 Q894.264 30.082 897.829 28.0971 Q901.394 26.1121 906.295 26.1121 Q911.238 26.1121 914.681 28.6237 Q918.165 31.1352 919.825 35.9153 Z" fill="#ffffff" fill-rule="evenodd" fill-opacity="1" /><path clip-path="url(#clip320)" d="M1004.12 48.0275 L1004.12 51.6733 L969.854 51.6733 Q970.34 59.3701 974.472 63.421 Q978.645 67.4314 986.058 67.4314 Q990.352 67.4314 994.362 66.3781 Q998.413 65.3249 1002.38 63.2184 L1002.38 70.267 Q998.373 71.9684 994.16 72.8596 Q989.947 73.7508 985.612 73.7508 Q974.756 73.7508 968.396 67.4314 Q962.076 61.1119 962.076 50.3365 Q962.076 39.1965 968.072 32.6746 Q974.108 26.1121 984.316 26.1121 Q993.471 26.1121 998.778 32.0264 Q1004.12 37.9003 1004.12 48.0275 M996.671 45.84 Q996.59 39.7232 993.228 36.0774 Q989.906 32.4315 984.397 32.4315 Q978.158 32.4315 974.391 35.9558 Q970.664 39.4801 970.097 45.8805 L996.671 45.84 Z" fill="#ffffff" fill-rule="evenodd" fill-opacity="1" /><polyline clip-path="url(#clip322)" style="stroke:#3cd7d9; stroke-linecap:round; stroke-linejoin:round; stroke-width:4; stroke-opacity:1; fill:none" points="
  203.406,1074.1 209.988,954.588 216.57,577.515 223.152,470.214 229.734,662.616 236.316,848.85 242.898,1000.51 249.48,1040.97 256.062,1058.81 262.644,1067.19 
  269.226,1070.61 275.808,1072.85 282.39,1075.75 288.972,1075.6 295.554,1074.13 302.136,1075.17 308.718,1076.45 315.3,1075.74 321.882,1076.92 328.464,1077.02 
  335.046,1077.01 341.628,1077.02 348.21,1077.02 354.792,1077.02 361.374,1077.02 367.956,1077.02 374.538,1077.02 381.12,1077.02 387.702,1077.02 394.284,1077.02 
  400.866,1077.02 407.448,1077.02 414.03,1077.02 420.611,1077.02 427.193,1077.02 433.775,1077.02 440.357,1077.02 446.939,1077.02 453.521,1077.02 460.103,1077.02 
  466.685,1077.02 473.267,1077.02 479.849,1077.02 486.431,1077.02 493.013,1077.02 499.595,1077.02 506.177,1077.02 512.759,1077.02 519.341,1077.02 525.923,1077.02 
  532.505,1077.02 539.087,1077.02 545.669,1077.02 552.251,1077.02 558.833,1077.02 565.415,1077.02 571.997,1077.02 578.579,1077.02 585.161,1077.02 591.743,1077.02 
  598.325,1077.02 604.907,1077.02 611.489,1077.02 618.071,1077.02 624.653,1077.02 631.235,1077.02 637.816,1077.02 644.398,1077.02 650.98,1077.02 657.562,1077.02 
  664.144,1077.02 670.726,1077.02 677.308,1077.02 683.89,1077.02 690.472,1077.02 697.054,1077.02 703.636,1077.02 710.218,1077.02 716.8,1077.02 723.382,1077.02 
  729.964,1077.02 736.546,1077.02 743.128,1077.02 749.71,1077.02 756.292,1077.02 762.874,1077.02 769.456,1077.02 776.038,1077.02 782.62,1077.02 789.202,1077.02 
  795.784,1077.02 802.366,1077 808.948,1076.46 815.53,1076.04 822.112,1076.96 828.694,1077.02 835.276,1077.02 841.858,1077.02 848.44,1077.02 855.022,1077.02 
  861.603,1077.02 868.185,1077.02 874.767,1077.02 881.349,1077.02 887.931,1077.02 894.513,1077.02 901.095,1077.02 907.677,1077.02 914.259,1077.02 920.841,1077.02 
  927.423,1077.02 934.005,1077.02 940.587,1077.02 947.169,1077.02 953.751,1077.02 960.333,1077.02 966.915,1077.02 973.497,1077.02 980.079,1077.02 986.661,1077.02 
  993.243,1077.02 999.825,1077.02 1006.41,1077.02 1012.99,1077.02 1019.57,1077.02 1026.15,1077.02 1032.73,1077.02 1039.32,1077.02 1045.9,1077.02 1052.48,1077.02 
  1059.06,1077.02 1065.64,1077.02 1072.23,1077.02 1078.81,1077.02 1085.39,1077.02 1091.97,1077.02 1098.55,1077.02 1105.14,1077.02 1111.72,1077.02 1118.3,1077.02 
  1124.88,1077.02 1131.46,1077.02 1138.05,1077.02 1144.63,1077.02 1151.21,1077.02 1157.79,1077.02 1164.37,1077.02 1170.96,1077.02 1177.54,1077.02 1184.12,1077.02 
  1190.7,1077.02 1197.28,1077.02 1203.87,1077.02 1210.45,1077.02 1217.03,1077.02 1223.61,1077.02 1230.19,1077.02 1236.78,1077.02 1243.36,1077.02 1249.94,1077.02 
  1256.52,1077.02 1263.1,1077.02 1269.69,1077.02 1276.27,1077.02 1282.85,1077.02 1289.43,1077.02 1296.01,1077.02 1302.6,1077.02 1309.18,1077.02 1315.76,1077.02 
  1322.34,1077.02 1328.92,1077.02 1335.51,1077.02 1342.09,1077.02 1348.67,1077.02 1355.25,1077.02 1361.83,1077.02 1368.42,1077.02 1375,1077.02 1381.58,1077.02 
  1388.16,1077.02 1394.74,1077.02 1401.33,1077.02 1407.91,1077.02 1414.49,1077.02 1421.07,1077.02 1427.65,1077.02 1434.23,1077.01 1440.82,1077.02 1447.4,1077.01 
  1453.98,1077.02 1460.56,1077 1467.14,1077.02 1473.73,1076.99 1480.31,1077.02 1486.89,1076.96 1493.47,1077.02 1500.05,1076.58 1506.64,1075.97 1513.22,1076.78 
  
  "/>
<polyline clip-path="url(#clip322)" style="stroke:#ff7300; stroke-linecap:round; stroke-linejoin:round; stroke-width:4; stroke-opacity:1; fill:none" points="
  205.622,1077 206.37,1076.84 207.118,1075.99 207.866,1072.72 208.614,1063.6 209.362,1045.09 210.11,1017.03 210.858,982.274 211.606,939.925 212.354,882.67 
  213.102,805.214 213.85,711.425 214.598,609.055 215.346,502.215 216.094,394.046 216.842,293.29 217.59,212.406 218.338,159.074 219.086,132.007 219.834,125.556 
  220.582,137.648 221.33,171.305 222.078,227.028 222.826,296.187 223.574,366.13 224.322,431.825 225.07,497.21 225.818,563.572 226.566,624.085 227.314,673.067 
  228.062,713.14 228.81,749.763 229.558,784.304 230.306,814.471 231.054,838.299 231.802,857.034 232.55,875.035 233.298,896.562 234.046,922.392 234.794,949.226 
  235.542,972.491 236.29,989.938 237.038,1002.01 237.786,1009.65 238.534,1013.74 239.282,1016.24 240.03,1019.8 240.778,1025.67 241.526,1032.61 242.274,1037.61 
  243.022,1038.2 243.77,1034.82 244.518,1031.33 245.266,1031.83 246.014,1036.69 246.762,1042.84 247.51,1047.66 248.258,1050.61 249.006,1052.01 249.754,1052.43 
  250.503,1053.03 251.251,1054.83 251.999,1057.99 252.747,1062.08 253.495,1066.53 254.243,1070.46 254.991,1072.96 255.739,1073.68 256.487,1073.15 257.235,1072.24 
  257.983,1071.52 258.731,1071.11 259.479,1071.13 260.227,1071.77 260.975,1073.02 261.723,1074.52 262.471,1075.74 263.219,1076.35 263.967,1076.24 264.715,1075.42 
  265.463,1073.91 266.211,1071.79 266.959,1069.26 267.707,1066.89 268.455,1065.82 269.203,1066.64 269.951,1068.65 270.699,1070.56 271.447,1071.75 272.195,1072.39 
  272.943,1072.94 273.691,1073.78 274.439,1074.85 275.187,1075.66 275.935,1075.72 276.683,1074.96 277.431,1073.71 278.179,1072.61 278.927,1072.14 279.675,1072.41 
  280.423,1073.31 281.171,1074.54 281.919,1075.67 282.667,1076.33 283.415,1076.35 284.163,1075.71 284.911,1074.5 285.659,1073.1 286.407,1072.06 287.155,1071.86 
  287.903,1072.6 288.651,1073.96 289.399,1075.33 290.147,1076.24 290.895,1076.51 291.643,1076.14 292.391,1075.26 293.139,1074.28 293.887,1073.86 294.635,1074.33 
  295.383,1075.34 296.131,1076.25 296.879,1076.75 297.627,1076.91 298.375,1076.79 299.123,1076.35 299.871,1075.51 300.619,1074.52 301.367,1073.94 302.115,1074.2 
  302.863,1075.09 303.611,1076.01 304.359,1076.56 305.108,1076.6 305.856,1076.12 306.604,1075.21 307.352,1074.25 308.1,1073.88 308.848,1074.38 309.596,1075.33 
  310.344,1076.02 311.092,1075.93 311.84,1074.95 312.588,1073.34 313.336,1071.85 314.084,1071.34 314.832,1072.12 315.58,1073.7 316.328,1075.28 317.076,1076.31 
  317.824,1076.8 318.572,1076.97 319.32,1077.01 320.068,1077.02 320.816,1077.02 321.564,1077.01 322.312,1076.96 323.06,1076.76 323.808,1076.25 324.556,1075.31 
  325.304,1074.18 326.052,1073.35 326.8,1073.07 327.548,1073.09 328.296,1073.25 329.044,1073.7 329.792,1074.46 330.54,1075.06 331.288,1075 332.036,1074.4 
  332.784,1073.92 333.532,1074.16 334.28,1075.03 335.028,1075.98 335.776,1076.61 336.524,1076.9 337.272,1077 338.02,1077.02 338.768,1077.02 339.516,1077.02 
  340.264,1077.02 341.012,1077.02 341.76,1077.02 342.508,1077.02 343.256,1077.02 344.004,1077.02 344.752,1077 345.5,1076.92 346.248,1076.66 346.996,1076.06 
  347.744,1075.12 348.492,1074.21 349.24,1073.92 349.988,1074.49 350.736,1075.48 351.484,1076.33 352.232,1076.79 352.98,1076.97 353.728,1077.01 354.476,1077.02 
  
  "/>
<polyline clip-path="url(#clip322)" style="stroke:#9e71fe; stroke-linecap:round; stroke-linejoin:round; stroke-width:4; stroke-opacity:1; fill:none" points="
  221.363,2114.12 221.363,-911.544 
  "/>
<path clip-path="url(#clip320)" d="
M1194.84 337.991 L1506.23 337.991 L1506.23 130.631 L1194.84 130.631  Z
  " fill="#12273f" fill-rule="evenodd" fill-opacity="1"/>
<polyline clip-path="url(#clip320)" style="stroke:#ffffff; stroke-linecap:round; stroke-linejoin:round; stroke-width:4; stroke-opacity:1; fill:none" points="
  1194.84,337.991 1506.23,337.991 1506.23,130.631 1194.84,130.631 1194.84,337.991 
  "/>
<polyline clip-path="url(#clip320)" style="stroke:#3cd7d9; stroke-linecap:round; stroke-linejoin:round; stroke-width:4; stroke-opacity:1; fill:none" points="
  1210.26,182.471 1302.82,182.471 
  "/>
<path clip-path="url(#clip320)" d="M1330.2 168.269 Q1326.58 168.269 1324.76 171.834 Q1322.95 175.376 1322.95 182.505 Q1322.95 189.612 1324.76 193.177 Q1326.58 196.718 1330.2 196.718 Q1333.83 196.718 1335.63 193.177 Q1337.46 189.612 1337.46 182.505 Q1337.46 175.376 1335.63 171.834 Q1333.83 168.269 1330.2 168.269 M1330.2 164.566 Q1336.01 164.566 1339.06 169.172 Q1342.14 173.755 1342.14 182.505 Q1342.14 191.232 1339.06 195.839 Q1336.01 200.422 1330.2 200.422 Q1324.38 200.422 1321.31 195.839 Q1318.25 191.232 1318.25 182.505 Q1318.25 173.755 1321.31 169.172 Q1324.38 164.566 1330.2 164.566 Z" fill="#ffffff" fill-rule="evenodd" fill-opacity="1" /><polyline clip-path="url(#clip320)" style="stroke:#ff7300; stroke-linecap:round; stroke-linejoin:round; stroke-width:4; stroke-opacity:1; fill:none" points="
  1210.26,234.311 1302.82,234.311 
  "/>
<path clip-path="url(#clip320)" d="M1318.92 247.655 L1326.56 247.655 L1326.56 221.29 L1318.25 222.957 L1318.25 218.697 L1326.51 217.031 L1331.19 217.031 L1331.19 247.655 L1338.83 247.655 L1338.83 251.591 L1318.92 251.591 L1318.92 247.655 Z" fill="#ffffff" fill-rule="evenodd" fill-opacity="1" /><polyline clip-path="url(#clip320)" style="stroke:#9e71fe; stroke-linecap:round; stroke-linejoin:round; stroke-width:4; stroke-opacity:1; fill:none" points="
  1210.26,286.151 1302.82,286.151 
  "/>
<path clip-path="url(#clip320)" d="M1334.76 267.412 L1334.76 270.954 L1330.68 270.954 Q1328.39 270.954 1327.49 271.88 Q1326.61 272.806 1326.61 275.213 L1326.61 277.505 L1333.62 277.505 L1333.62 280.815 L1326.61 280.815 L1326.61 303.431 L1322.32 303.431 L1322.32 280.815 L1318.25 280.815 L1318.25 277.505 L1322.32 277.505 L1322.32 275.699 Q1322.32 271.371 1324.34 269.403 Q1326.35 267.412 1330.73 267.412 L1334.76 267.412 Z" fill="#ffffff" fill-rule="evenodd" fill-opacity="1" /><path clip-path="url(#clip320)" d="M1350.1 290.398 Q1344.94 290.398 1342.95 291.579 Q1340.96 292.759 1340.96 295.607 Q1340.96 297.875 1342.44 299.218 Q1343.94 300.537 1346.51 300.537 Q1350.06 300.537 1352.19 298.037 Q1354.34 295.514 1354.34 291.347 L1354.34 290.398 L1350.1 290.398 M1358.6 288.639 L1358.6 303.431 L1354.34 303.431 L1354.34 299.495 Q1352.88 301.857 1350.7 302.991 Q1348.53 304.102 1345.38 304.102 Q1341.4 304.102 1339.04 301.88 Q1336.7 299.634 1336.7 295.884 Q1336.7 291.509 1339.62 289.287 Q1342.56 287.065 1348.37 287.065 L1354.34 287.065 L1354.34 286.648 Q1354.34 283.709 1352.39 282.111 Q1350.47 280.491 1346.98 280.491 Q1344.76 280.491 1342.65 281.023 Q1340.54 281.556 1338.6 282.621 L1338.6 278.685 Q1340.94 277.783 1343.13 277.343 Q1345.33 276.88 1347.42 276.88 Q1353.04 276.88 1355.82 279.797 Q1358.6 282.713 1358.6 288.639 Z" fill="#ffffff" fill-rule="evenodd" fill-opacity="1" /><path clip-path="url(#clip320)" d="M1386.03 278.5 L1386.03 282.482 Q1384.22 281.486 1382.39 281 Q1380.59 280.491 1378.74 280.491 Q1374.59 280.491 1372.3 283.13 Q1370.01 285.746 1370.01 290.491 Q1370.01 295.236 1372.3 297.875 Q1374.59 300.491 1378.74 300.491 Q1380.59 300.491 1382.39 300.005 Q1384.22 299.495 1386.03 298.5 L1386.03 302.435 Q1384.25 303.269 1382.32 303.685 Q1380.43 304.102 1378.27 304.102 Q1372.42 304.102 1368.97 300.421 Q1365.52 296.741 1365.52 290.491 Q1365.52 284.148 1368.99 280.514 Q1372.49 276.88 1378.55 276.88 Q1380.52 276.88 1382.39 277.297 Q1384.27 277.69 1386.03 278.5 Z" fill="#ffffff" fill-rule="evenodd" fill-opacity="1" /><path clip-path="url(#clip320)" d="M1397.65 270.144 L1397.65 277.505 L1406.42 277.505 L1406.42 280.815 L1397.65 280.815 L1397.65 294.889 Q1397.65 298.06 1398.5 298.963 Q1399.38 299.866 1402.05 299.866 L1406.42 299.866 L1406.42 303.431 L1402.05 303.431 Q1397.12 303.431 1395.24 301.602 Q1393.37 299.75 1393.37 294.889 L1393.37 280.815 L1390.24 280.815 L1390.24 277.505 L1393.37 277.505 L1393.37 270.144 L1397.65 270.144 Z" fill="#ffffff" fill-rule="evenodd" fill-opacity="1" /><path clip-path="url(#clip320)" d="M1411.58 293.199 L1411.58 277.505 L1415.84 277.505 L1415.84 293.037 Q1415.84 296.718 1417.28 298.57 Q1418.71 300.398 1421.58 300.398 Q1425.03 300.398 1427.02 298.199 Q1429.04 296 1429.04 292.204 L1429.04 277.505 L1433.3 277.505 L1433.3 303.431 L1429.04 303.431 L1429.04 299.449 Q1427.49 301.81 1425.43 302.968 Q1423.39 304.102 1420.68 304.102 Q1416.21 304.102 1413.9 301.324 Q1411.58 298.546 1411.58 293.199 M1422.3 276.88 L1422.3 276.88 Z" fill="#ffffff" fill-rule="evenodd" fill-opacity="1" /><path clip-path="url(#clip320)" d="M1453.85 290.398 Q1448.69 290.398 1446.7 291.579 Q1444.71 292.759 1444.71 295.607 Q1444.71 297.875 1446.19 299.218 Q1447.69 300.537 1450.26 300.537 Q1453.81 300.537 1455.94 298.037 Q1458.09 295.514 1458.09 291.347 L1458.09 290.398 L1453.85 290.398 M1462.35 288.639 L1462.35 303.431 L1458.09 303.431 L1458.09 299.495 Q1456.63 301.857 1454.45 302.991 Q1452.28 304.102 1449.13 304.102 Q1445.15 304.102 1442.79 301.88 Q1440.45 299.634 1440.45 295.884 Q1440.45 291.509 1443.37 289.287 Q1446.31 287.065 1452.12 287.065 L1458.09 287.065 L1458.09 286.648 Q1458.09 283.709 1456.14 282.111 Q1454.22 280.491 1450.73 280.491 Q1448.5 280.491 1446.4 281.023 Q1444.29 281.556 1442.35 282.621 L1442.35 278.685 Q1444.69 277.783 1446.88 277.343 Q1449.08 276.88 1451.17 276.88 Q1456.79 276.88 1459.57 279.797 Q1462.35 282.713 1462.35 288.639 Z" fill="#ffffff" fill-rule="evenodd" fill-opacity="1" /><path clip-path="url(#clip320)" d="M1471.12 267.412 L1475.38 267.412 L1475.38 303.431 L1471.12 303.431 L1471.12 267.412 Z" fill="#ffffff" fill-rule="evenodd" fill-opacity="1" /><path clip-path="url(#clip320)" d="
M1764.36 1105.57 L3152.76 1105.57 L3152.76 97.0121 L1764.36 97.0121  Z
  " fill="#12273f" fill-rule="evenodd" fill-opacity="1"/>
<defs>
  <clipPath id="clip323">
    <rect x="1764" y="97" width="1389" height="1010"/>
  </clipPath>
</defs>
<polyline clip-path="url(#clip323)" style="stroke:#ffffff; stroke-linecap:round; stroke-linejoin:round; stroke-width:2; stroke-opacity:0.1; fill:none" points="
  1984.31,1105.57 1984.31,97.0121 
  "/>
<polyline clip-path="url(#clip323)" style="stroke:#ffffff; stroke-linecap:round; stroke-linejoin:round; stroke-width:2; stroke-opacity:0.1; fill:none" points="
  2353.5,1105.57 2353.5,97.0121 
  "/>
<polyline clip-path="url(#clip323)" style="stroke:#ffffff; stroke-linecap:round; stroke-linejoin:round; stroke-width:2; stroke-opacity:0.1; fill:none" points="
  2722.69,1105.57 2722.69,97.0121 
  "/>
<polyline clip-path="url(#clip323)" style="stroke:#ffffff; stroke-linecap:round; stroke-linejoin:round; stroke-width:2; stroke-opacity:0.1; fill:none" points="
  3091.89,1105.57 3091.89,97.0121 
  "/>
<polyline clip-path="url(#clip320)" style="stroke:#ffffff; stroke-linecap:round; stroke-linejoin:round; stroke-width:4; stroke-opacity:1; fill:none" points="
  1764.36,1105.57 3152.76,1105.57 
  "/>
<polyline clip-path="url(#clip320)" style="stroke:#ffffff; stroke-linecap:round; stroke-linejoin:round; stroke-width:4; stroke-opacity:1; fill:none" points="
  1984.31,1105.57 1984.31,1086.67 
  "/>
<polyline clip-path="url(#clip320)" style="stroke:#ffffff; stroke-linecap:round; stroke-linejoin:round; stroke-width:4; stroke-opacity:1; fill:none" points="
  2353.5,1105.57 2353.5,1086.67 
  "/>
<polyline clip-path="url(#clip320)" style="stroke:#ffffff; stroke-linecap:round; stroke-linejoin:round; stroke-width:4; stroke-opacity:1; fill:none" points="
  2722.69,1105.57 2722.69,1086.67 
  "/>
<polyline clip-path="url(#clip320)" style="stroke:#ffffff; stroke-linecap:round; stroke-linejoin:round; stroke-width:4; stroke-opacity:1; fill:none" points="
  3091.89,1105.57 3091.89,1086.67 
  "/>
<path clip-path="url(#clip320)" d="M1954.25 1157.54 L1983.93 1157.54 L1983.93 1161.47 L1954.25 1161.47 L1954.25 1157.54 Z" fill="#ffffff" fill-rule="evenodd" fill-opacity="1" /><path clip-path="url(#clip320)" d="M1998.05 1170.43 L2014.37 1170.43 L2014.37 1174.37 L1992.42 1174.37 L1992.42 1170.43 Q1995.08 1167.68 1999.67 1163.05 Q2004.27 1158.4 2005.46 1157.05 Q2007.7 1154.53 2008.58 1152.79 Q2009.48 1151.03 2009.48 1149.34 Q2009.48 1146.59 2007.54 1144.85 Q2005.62 1143.12 2002.52 1143.12 Q2000.32 1143.12 1997.86 1143.88 Q1995.43 1144.65 1992.65 1146.2 L1992.65 1141.47 Q1995.48 1140.34 1997.93 1139.76 Q2000.39 1139.18 2002.42 1139.18 Q2007.79 1139.18 2010.99 1141.87 Q2014.18 1144.55 2014.18 1149.04 Q2014.18 1151.17 2013.37 1153.09 Q2012.58 1154.99 2010.48 1157.59 Q2009.9 1158.26 2006.8 1161.47 Q2003.7 1164.67 1998.05 1170.43 Z" fill="#ffffff" fill-rule="evenodd" fill-opacity="1" /><path clip-path="url(#clip320)" d="M2353.5 1142.89 Q2349.89 1142.89 2348.06 1146.45 Q2346.26 1149.99 2346.26 1157.12 Q2346.26 1164.23 2348.06 1167.79 Q2349.89 1171.34 2353.5 1171.34 Q2357.14 1171.34 2358.94 1167.79 Q2360.77 1164.23 2360.77 1157.12 Q2360.77 1149.99 2358.94 1146.45 Q2357.14 1142.89 2353.5 1142.89 M2353.5 1139.18 Q2359.31 1139.18 2362.37 1143.79 Q2365.45 1148.37 2365.45 1157.12 Q2365.45 1165.85 2362.37 1170.46 Q2359.31 1175.04 2353.5 1175.04 Q2347.69 1175.04 2344.61 1170.46 Q2341.56 1165.85 2341.56 1157.12 Q2341.56 1148.37 2344.61 1143.79 Q2347.69 1139.18 2353.5 1139.18 Z" fill="#ffffff" fill-rule="evenodd" fill-opacity="1" /><path clip-path="url(#clip320)" d="M2717.35 1170.43 L2733.67 1170.43 L2733.67 1174.37 L2711.72 1174.37 L2711.72 1170.43 Q2714.38 1167.68 2718.97 1163.05 Q2723.57 1158.4 2724.75 1157.05 Q2727 1154.53 2727.88 1152.79 Q2728.78 1151.03 2728.78 1149.34 Q2728.78 1146.59 2726.84 1144.85 Q2724.92 1143.12 2721.81 1143.12 Q2719.62 1143.12 2717.16 1143.88 Q2714.73 1144.65 2711.95 1146.2 L2711.95 1141.47 Q2714.78 1140.34 2717.23 1139.76 Q2719.69 1139.18 2721.72 1139.18 Q2727.09 1139.18 2730.29 1141.87 Q2733.48 1144.55 2733.48 1149.04 Q2733.48 1151.17 2732.67 1153.09 Q2731.88 1154.99 2729.78 1157.59 Q2729.2 1158.26 2726.1 1161.47 Q2723 1164.67 2717.35 1170.43 Z" fill="#ffffff" fill-rule="evenodd" fill-opacity="1" /><path clip-path="url(#clip320)" d="M3094.9 1143.88 L3083.09 1162.33 L3094.9 1162.33 L3094.9 1143.88 M3093.67 1139.81 L3099.55 1139.81 L3099.55 1162.33 L3104.48 1162.33 L3104.48 1166.22 L3099.55 1166.22 L3099.55 1174.37 L3094.9 1174.37 L3094.9 1166.22 L3079.29 1166.22 L3079.29 1161.71 L3093.67 1139.81 Z" fill="#ffffff" fill-rule="evenodd" fill-opacity="1" /><polyline clip-path="url(#clip323)" style="stroke:#ffffff; stroke-linecap:round; stroke-linejoin:round; stroke-width:2; stroke-opacity:0.1; fill:none" points="
  1764.36,1077.03 3152.76,1077.03 
  "/>
<polyline clip-path="url(#clip323)" style="stroke:#ffffff; stroke-linecap:round; stroke-linejoin:round; stroke-width:2; stroke-opacity:0.1; fill:none" points="
  1764.36,849.846 3152.76,849.846 
  "/>
<polyline clip-path="url(#clip323)" style="stroke:#ffffff; stroke-linecap:round; stroke-linejoin:round; stroke-width:2; stroke-opacity:0.1; fill:none" points="
  1764.36,622.666 3152.76,622.666 
  "/>
<polyline clip-path="url(#clip323)" style="stroke:#ffffff; stroke-linecap:round; stroke-linejoin:round; stroke-width:2; stroke-opacity:0.1; fill:none" points="
  1764.36,395.485 3152.76,395.485 
  "/>
<polyline clip-path="url(#clip323)" style="stroke:#ffffff; stroke-linecap:round; stroke-linejoin:round; stroke-width:2; stroke-opacity:0.1; fill:none" points="
  1764.36,168.305 3152.76,168.305 
  "/>
<polyline clip-path="url(#clip320)" style="stroke:#ffffff; stroke-linecap:round; stroke-linejoin:round; stroke-width:4; stroke-opacity:1; fill:none" points="
  1764.36,1105.57 1764.36,97.0121 
  "/>
<polyline clip-path="url(#clip320)" style="stroke:#ffffff; stroke-linecap:round; stroke-linejoin:round; stroke-width:4; stroke-opacity:1; fill:none" points="
  1764.36,1077.03 1783.25,1077.03 
  "/>
<polyline clip-path="url(#clip320)" style="stroke:#ffffff; stroke-linecap:round; stroke-linejoin:round; stroke-width:4; stroke-opacity:1; fill:none" points="
  1764.36,849.846 1783.25,849.846 
  "/>
<polyline clip-path="url(#clip320)" style="stroke:#ffffff; stroke-linecap:round; stroke-linejoin:round; stroke-width:4; stroke-opacity:1; fill:none" points="
  1764.36,622.666 1783.25,622.666 
  "/>
<polyline clip-path="url(#clip320)" style="stroke:#ffffff; stroke-linecap:round; stroke-linejoin:round; stroke-width:4; stroke-opacity:1; fill:none" points="
  1764.36,395.485 1783.25,395.485 
  "/>
<polyline clip-path="url(#clip320)" style="stroke:#ffffff; stroke-linecap:round; stroke-linejoin:round; stroke-width:4; stroke-opacity:1; fill:none" points="
  1764.36,168.305 1783.25,168.305 
  "/>
<path clip-path="url(#clip320)" d="M1659.18 1062.83 Q1655.57 1062.83 1653.74 1066.39 Q1651.93 1069.93 1651.93 1077.06 Q1651.93 1084.17 1653.74 1087.73 Q1655.57 1091.27 1659.18 1091.27 Q1662.81 1091.27 1664.62 1087.73 Q1666.45 1084.17 1666.45 1077.06 Q1666.45 1069.93 1664.62 1066.39 Q1662.81 1062.83 1659.18 1062.83 M1659.18 1059.12 Q1664.99 1059.12 1668.05 1063.73 Q1671.12 1068.31 1671.12 1077.06 Q1671.12 1085.79 1668.05 1090.39 Q1664.99 1094.98 1659.18 1094.98 Q1653.37 1094.98 1650.29 1090.39 Q1647.24 1085.79 1647.24 1077.06 Q1647.24 1068.31 1650.29 1063.73 Q1653.37 1059.12 1659.18 1059.12 Z" fill="#ffffff" fill-rule="evenodd" fill-opacity="1" /><path clip-path="url(#clip320)" d="M1679.34 1088.43 L1684.23 1088.43 L1684.23 1094.31 L1679.34 1094.31 L1679.34 1088.43 Z" fill="#ffffff" fill-rule="evenodd" fill-opacity="1" /><path clip-path="url(#clip320)" d="M1704.41 1062.83 Q1700.8 1062.83 1698.97 1066.39 Q1697.17 1069.93 1697.17 1077.06 Q1697.17 1084.17 1698.97 1087.73 Q1700.8 1091.27 1704.41 1091.27 Q1708.05 1091.27 1709.85 1087.73 Q1711.68 1084.17 1711.68 1077.06 Q1711.68 1069.93 1709.85 1066.39 Q1708.05 1062.83 1704.41 1062.83 M1704.41 1059.12 Q1710.22 1059.12 1713.28 1063.73 Q1716.36 1068.31 1716.36 1077.06 Q1716.36 1085.79 1713.28 1090.39 Q1710.22 1094.98 1704.41 1094.98 Q1698.6 1094.98 1695.52 1090.39 Q1692.47 1085.79 1692.47 1077.06 Q1692.47 1068.31 1695.52 1063.73 Q1698.6 1059.12 1704.41 1059.12 Z" fill="#ffffff" fill-rule="evenodd" fill-opacity="1" /><path clip-path="url(#clip320)" d="M1660.41 835.645 Q1656.8 835.645 1654.97 839.21 Q1653.16 842.751 1653.16 849.881 Q1653.16 856.987 1654.97 860.552 Q1656.8 864.094 1660.41 864.094 Q1664.04 864.094 1665.85 860.552 Q1667.67 856.987 1667.67 849.881 Q1667.67 842.751 1665.85 839.21 Q1664.04 835.645 1660.41 835.645 M1660.41 831.941 Q1666.22 831.941 1669.27 836.548 Q1672.35 841.131 1672.35 849.881 Q1672.35 858.608 1669.27 863.214 Q1666.22 867.798 1660.41 867.798 Q1654.6 867.798 1651.52 863.214 Q1648.46 858.608 1648.46 849.881 Q1648.46 841.131 1651.52 836.548 Q1654.6 831.941 1660.41 831.941 Z" fill="#ffffff" fill-rule="evenodd" fill-opacity="1" /><path clip-path="url(#clip320)" d="M1680.57 861.247 L1685.45 861.247 L1685.45 867.126 L1680.57 867.126 L1680.57 861.247 Z" fill="#ffffff" fill-rule="evenodd" fill-opacity="1" /><path clip-path="url(#clip320)" d="M1696.45 863.191 L1704.09 863.191 L1704.09 836.826 L1695.78 838.492 L1695.78 834.233 L1704.04 832.566 L1708.72 832.566 L1708.72 863.191 L1716.36 863.191 L1716.36 867.126 L1696.45 867.126 L1696.45 863.191 Z" fill="#ffffff" fill-rule="evenodd" fill-opacity="1" /><path clip-path="url(#clip320)" d="M1660.78 608.465 Q1657.17 608.465 1655.34 612.029 Q1653.53 615.571 1653.53 622.701 Q1653.53 629.807 1655.34 633.372 Q1657.17 636.913 1660.78 636.913 Q1664.41 636.913 1666.22 633.372 Q1668.05 629.807 1668.05 622.701 Q1668.05 615.571 1666.22 612.029 Q1664.41 608.465 1660.78 608.465 M1660.78 604.761 Q1666.59 604.761 1669.64 609.367 Q1672.72 613.951 1672.72 622.701 Q1672.72 631.427 1669.64 636.034 Q1666.59 640.617 1660.78 640.617 Q1654.97 640.617 1651.89 636.034 Q1648.83 631.427 1648.83 622.701 Q1648.83 613.951 1651.89 609.367 Q1654.97 604.761 1660.78 604.761 Z" fill="#ffffff" fill-rule="evenodd" fill-opacity="1" /><path clip-path="url(#clip320)" d="M1680.94 634.066 L1685.82 634.066 L1685.82 639.946 L1680.94 639.946 L1680.94 634.066 Z" fill="#ffffff" fill-rule="evenodd" fill-opacity="1" /><path clip-path="url(#clip320)" d="M1700.04 636.011 L1716.36 636.011 L1716.36 639.946 L1694.41 639.946 L1694.41 636.011 Q1697.07 633.256 1701.66 628.626 Q1706.26 623.974 1707.44 622.631 Q1709.69 620.108 1710.57 618.372 Q1711.47 616.613 1711.47 614.923 Q1711.47 612.168 1709.53 610.432 Q1707.61 608.696 1704.5 608.696 Q1702.3 608.696 1699.85 609.46 Q1697.42 610.224 1694.64 611.775 L1694.64 607.053 Q1697.47 605.918 1699.92 605.34 Q1702.37 604.761 1704.41 604.761 Q1709.78 604.761 1712.98 607.446 Q1716.17 610.131 1716.17 614.622 Q1716.17 616.752 1715.36 618.673 Q1714.57 620.571 1712.47 623.164 Q1711.89 623.835 1708.79 627.052 Q1705.68 630.247 1700.04 636.011 Z" fill="#ffffff" fill-rule="evenodd" fill-opacity="1" /><path clip-path="url(#clip320)" d="M1659.83 381.284 Q1656.22 381.284 1654.39 384.849 Q1652.58 388.391 1652.58 395.52 Q1652.58 402.627 1654.39 406.191 Q1656.22 409.733 1659.83 409.733 Q1663.46 409.733 1665.27 406.191 Q1667.1 402.627 1667.1 395.52 Q1667.1 388.391 1665.27 384.849 Q1663.46 381.284 1659.83 381.284 M1659.83 377.58 Q1665.64 377.58 1668.69 382.187 Q1671.77 386.77 1671.77 395.52 Q1671.77 404.247 1668.69 408.853 Q1665.64 413.437 1659.83 413.437 Q1654.02 413.437 1650.94 408.853 Q1647.88 404.247 1647.88 395.52 Q1647.88 386.77 1650.94 382.187 Q1654.02 377.58 1659.83 377.58 Z" fill="#ffffff" fill-rule="evenodd" fill-opacity="1" /><path clip-path="url(#clip320)" d="M1679.99 406.886 L1684.87 406.886 L1684.87 412.765 L1679.99 412.765 L1679.99 406.886 Z" fill="#ffffff" fill-rule="evenodd" fill-opacity="1" /><path clip-path="url(#clip320)" d="M1709.23 394.131 Q1712.58 394.849 1714.46 397.117 Q1716.36 399.386 1716.36 402.719 Q1716.36 407.835 1712.84 410.636 Q1709.32 413.437 1702.84 413.437 Q1700.66 413.437 1698.35 412.997 Q1696.05 412.58 1693.6 411.724 L1693.6 407.21 Q1695.55 408.344 1697.86 408.923 Q1700.17 409.502 1702.7 409.502 Q1707.1 409.502 1709.39 407.765 Q1711.7 406.029 1711.7 402.719 Q1711.7 399.664 1709.55 397.951 Q1707.42 396.215 1703.6 396.215 L1699.57 396.215 L1699.57 392.372 L1703.79 392.372 Q1707.23 392.372 1709.06 391.006 Q1710.89 389.617 1710.89 387.025 Q1710.89 384.363 1708.99 382.951 Q1707.12 381.516 1703.6 381.516 Q1701.68 381.516 1699.48 381.932 Q1697.28 382.349 1694.64 383.229 L1694.64 379.062 Q1697.3 378.321 1699.62 377.951 Q1701.96 377.58 1704.02 377.58 Q1709.34 377.58 1712.44 380.011 Q1715.54 382.418 1715.54 386.539 Q1715.54 389.409 1713.9 391.4 Q1712.26 393.367 1709.23 394.131 Z" fill="#ffffff" fill-rule="evenodd" fill-opacity="1" /><path clip-path="url(#clip320)" d="M1658.69 154.104 Q1655.08 154.104 1653.25 157.668 Q1651.45 161.21 1651.45 168.34 Q1651.45 175.446 1653.25 179.011 Q1655.08 182.553 1658.69 182.553 Q1662.33 182.553 1664.13 179.011 Q1665.96 175.446 1665.96 168.34 Q1665.96 161.21 1664.13 157.668 Q1662.33 154.104 1658.69 154.104 M1658.69 150.4 Q1664.5 150.4 1667.56 155.006 Q1670.64 159.59 1670.64 168.34 Q1670.64 177.066 1667.56 181.673 Q1664.5 186.256 1658.69 186.256 Q1652.88 186.256 1649.8 181.673 Q1646.75 177.066 1646.75 168.34 Q1646.75 159.59 1649.8 155.006 Q1652.88 150.4 1658.69 150.4 Z" fill="#ffffff" fill-rule="evenodd" fill-opacity="1" /><path clip-path="url(#clip320)" d="M1678.86 179.705 L1683.74 179.705 L1683.74 185.585 L1678.86 185.585 L1678.86 179.705 Z" fill="#ffffff" fill-rule="evenodd" fill-opacity="1" /><path clip-path="url(#clip320)" d="M1706.77 155.099 L1694.97 173.548 L1706.77 173.548 L1706.77 155.099 M1705.55 151.025 L1711.42 151.025 L1711.42 173.548 L1716.36 173.548 L1716.36 177.437 L1711.42 177.437 L1711.42 185.585 L1706.77 185.585 L1706.77 177.437 L1691.17 177.437 L1691.17 172.923 L1705.55 151.025 Z" fill="#ffffff" fill-rule="evenodd" fill-opacity="1" /><path clip-path="url(#clip320)" d="M2409.44 49.7694 Q2400.4 49.7694 2396.92 51.8354 Q2393.44 53.9013 2393.44 58.8839 Q2393.44 62.8538 2396.03 65.2034 Q2398.66 67.5124 2403.16 67.5124 Q2409.36 67.5124 2413.08 63.1374 Q2416.85 58.7219 2416.85 51.4303 L2416.85 49.7694 L2409.44 49.7694 M2424.31 46.6907 L2424.31 72.576 L2416.85 72.576 L2416.85 65.6895 Q2414.3 69.8214 2410.49 71.8063 Q2406.68 73.7508 2401.17 73.7508 Q2394.21 73.7508 2390.08 69.8619 Q2385.98 65.9325 2385.98 59.3701 Q2385.98 51.7138 2391.09 47.825 Q2396.23 43.9361 2406.4 43.9361 L2416.85 43.9361 L2416.85 43.2069 Q2416.85 38.0623 2413.45 35.2672 Q2410.09 32.4315 2403.97 32.4315 Q2400.08 32.4315 2396.39 33.3632 Q2392.71 34.295 2389.31 36.1584 L2389.31 29.2718 Q2393.4 27.692 2397.25 26.9223 Q2401.09 26.1121 2404.74 26.1121 Q2414.58 26.1121 2419.44 31.2163 Q2424.31 36.3204 2424.31 46.6907 Z" fill="#ffffff" fill-rule="evenodd" fill-opacity="1" /><path clip-path="url(#clip320)" d="M2469.51 49.3643 Q2469.51 41.2625 2466.15 36.8065 Q2462.83 32.3505 2456.79 32.3505 Q2450.8 32.3505 2447.44 36.8065 Q2444.11 41.2625 2444.11 49.3643 Q2444.11 57.4256 2447.44 61.8816 Q2450.8 66.3376 2456.79 66.3376 Q2462.83 66.3376 2466.15 61.8816 Q2469.51 57.4256 2469.51 49.3643 M2476.97 66.9452 Q2476.97 78.5308 2471.82 84.1616 Q2466.68 89.8329 2456.06 89.8329 Q2452.13 89.8329 2448.65 89.2252 Q2445.17 88.6581 2441.89 87.4428 L2441.89 80.1917 Q2445.17 81.9741 2448.37 82.8248 Q2451.57 83.6755 2454.89 83.6755 Q2462.22 83.6755 2465.87 79.8271 Q2469.51 76.0193 2469.51 68.282 L2469.51 64.5957 Q2467.2 68.6061 2463.6 70.5911 Q2459.99 72.576 2454.97 72.576 Q2446.63 72.576 2441.52 66.2161 Q2436.42 59.8562 2436.42 49.3643 Q2436.42 38.832 2441.52 32.472 Q2446.63 26.1121 2454.97 26.1121 Q2459.99 26.1121 2463.6 28.0971 Q2467.2 30.082 2469.51 34.0924 L2469.51 27.2059 L2476.97 27.2059 L2476.97 66.9452 Z" fill="#ffffff" fill-rule="evenodd" fill-opacity="1" /><path clip-path="url(#clip320)" d="M2531.13 48.0275 L2531.13 51.6733 L2496.86 51.6733 Q2497.34 59.3701 2501.47 63.421 Q2505.65 67.4314 2513.06 67.4314 Q2517.35 67.4314 2521.36 66.3781 Q2525.42 65.3249 2529.39 63.2184 L2529.39 70.267 Q2525.38 71.9684 2521.16 72.8596 Q2516.95 73.7508 2512.61 73.7508 Q2501.76 73.7508 2495.4 67.4314 Q2489.08 61.1119 2489.08 50.3365 Q2489.08 39.1965 2495.07 32.6746 Q2501.11 26.1121 2511.32 26.1121 Q2520.47 26.1121 2525.78 32.0264 Q2531.13 37.9003 2531.13 48.0275 M2523.67 45.84 Q2523.59 39.7232 2520.23 36.0774 Q2516.91 32.4315 2511.4 32.4315 Q2505.16 32.4315 2501.39 35.9558 Q2497.67 39.4801 2497.1 45.8805 L2523.67 45.84 Z" fill="#ffffff" fill-rule="evenodd" fill-opacity="1" /><polyline clip-path="url(#clip323)" style="stroke:#3cd7d9; stroke-linecap:round; stroke-linejoin:round; stroke-width:4; stroke-opacity:1; fill:none" points="
  1803.65,1077.02 1810.23,1077.02 1816.81,1077.01 1823.4,1077 1829.98,1076.98 1836.56,1076.94 1843.14,1076.88 1849.72,1076.78 1856.31,1076.62 1862.89,1076.37 
  1869.47,1075.99 1876.05,1075.43 1882.63,1074.61 1889.22,1073.45 1895.8,1071.84 1902.38,1069.66 1908.96,1066.76 1915.54,1063.01 1922.12,1058.24 1928.71,1052.32 
  1935.29,1045.13 1941.87,1036.58 1948.45,1026.61 1955.03,1015.23 1961.62,1002.49 1968.2,988.497 1974.78,973.407 1981.36,957.407 1987.94,940.703 1994.53,923.5 
  2001.11,905.988 2007.69,888.324 2014.27,870.619 2020.85,852.944 2027.44,835.324 2034.02,817.751 2040.6,800.197 2047.18,782.628 2053.76,765.018 2060.35,747.355 
  2066.93,729.653 2073.51,711.947 2080.09,694.293 2086.67,676.761 2093.26,659.422 2099.84,642.344 2106.42,625.576 2113,609.147 2119.58,593.058 2126.17,577.28 
  2132.75,561.76 2139.33,546.427 2145.91,531.205 2152.49,516.024 2159.08,500.839 2165.66,485.643 2172.24,470.475 2178.82,455.429 2185.4,440.645 2191.99,426.3 
  2198.57,412.592 2205.15,399.71 2211.73,387.815 2218.31,377.006 2224.9,367.313 2231.48,358.677 2238.06,350.962 2244.64,343.964 2251.22,337.444 2257.81,331.161 
  2264.39,324.911 2270.97,318.561 2277.55,312.078 2284.13,305.54 2290.72,299.128 2297.3,293.105 2303.88,287.779 2310.46,283.456 2317.04,280.391 2323.63,278.746 
  2330.21,278.563 2336.79,279.755 2343.37,282.116 2349.95,285.356 2356.54,289.146 2363.12,293.172 2369.7,297.178 2376.28,301.007 2382.86,304.613 2389.44,308.053 
  2396.03,311.452 2402.61,314.964 2409.19,318.71 2415.77,322.74 2422.35,327 2428.94,331.33 2435.52,335.49 2442.1,339.209 2448.68,342.253 2455.26,344.492 
  2461.85,345.96 2468.43,346.884 2475.01,347.692 2481.59,348.972 2488.17,351.419 2494.76,355.748 2501.34,362.614 2507.92,372.529 2514.5,385.805 2521.08,402.522 
  2527.67,422.518 2534.25,445.415 2540.83,470.656 2547.41,497.563 2553.99,525.399 2560.58,553.431 2567.16,580.988 2573.74,607.512 2580.32,632.591 2586.9,655.984 
  2593.49,677.619 2600.07,697.583 2606.65,716.09 2613.23,733.435 2619.81,749.95 2626.4,765.947 2632.98,781.676 2639.56,797.291 2646.14,812.836 2652.72,828.242 
  2659.31,843.348 2665.89,857.931 2672.47,871.745 2679.05,884.561 2685.63,896.197 2692.22,906.548 2698.8,915.591 2705.38,923.383 2711.96,930.051 2718.54,935.763 
  2725.13,940.707 2731.71,945.069 2738.29,949.017 2744.87,952.688 2751.45,956.196 2758.04,959.628 2764.62,963.061 2771.2,966.561 2777.78,970.197 2784.36,974.033 
  2790.95,978.124 2797.53,982.51 2804.11,987.204 2810.69,992.188 2817.27,997.41 2823.85,1002.78 2830.44,1008.21 2837.02,1013.57 2843.6,1018.75 2850.18,1023.68 
  2856.76,1028.27 2863.35,1032.52 2869.93,1036.41 2876.51,1039.98 2883.09,1043.25 2889.67,1046.29 2896.26,1049.14 2902.84,1051.82 2909.42,1054.36 2916,1056.78 
  2922.58,1059.06 2929.17,1061.21 2935.75,1063.22 2942.33,1065.07 2948.91,1066.76 2955.49,1068.28 2962.08,1069.65 2968.66,1070.87 2975.24,1071.94 2981.82,1072.88 
  2988.4,1073.68 2994.99,1074.37 3001.57,1074.95 3008.15,1075.43 3014.73,1075.82 3021.31,1076.13 3027.9,1076.38 3034.48,1076.57 3041.06,1076.71 3047.64,1076.81 
  3054.22,1076.88 3060.81,1076.93 3067.39,1076.97 3073.97,1076.99 3080.55,1077 3087.13,1077.01 3093.72,1077.02 3100.3,1077.02 3106.88,1077.02 3113.46,1077.02 
  
  "/>
<polyline clip-path="url(#clip323)" style="stroke:#ff7300; stroke-linecap:round; stroke-linejoin:round; stroke-width:4; stroke-opacity:1; fill:none" points="
  1824.62,1077.02 1830.28,1077.02 1835.94,1077.02 1841.61,1077.01 1847.27,1077 1852.94,1076.97 1858.6,1076.93 1864.26,1076.87 1869.93,1076.76 1875.59,1076.59 
  1881.26,1076.33 1886.92,1075.94 1892.58,1075.36 1898.25,1074.53 1903.91,1073.35 1909.58,1071.71 1915.24,1069.47 1920.9,1066.48 1926.57,1062.53 1932.23,1057.42 
  1937.9,1050.91 1943.56,1042.74 1949.22,1032.64 1954.89,1020.34 1960.55,1005.56 1966.22,988.073 1971.88,967.677 1977.54,944.244 1983.21,917.733 1988.87,888.212 
  1994.54,855.876 2000.2,821.056 2005.86,784.218 2011.53,745.953 2017.19,706.955 2022.86,667.981 2028.52,629.814 2034.18,593.211 2039.85,558.859 2045.51,527.327 
  2051.18,499.038 2056.84,474.243 2062.5,453.02 2068.17,435.283 2073.83,420.803 2079.49,409.247 2085.16,400.215 2090.82,393.277 2096.49,388.013 2102.15,384.037 
  2107.81,381.006 2113.48,378.628 2119.14,376.652 2124.81,374.85 2130.47,373.009 2136.13,370.908 2141.8,368.322 2147.46,365.016 2153.13,360.759 2158.79,355.344 
  2164.45,348.605 2170.12,340.436 2175.78,330.81 2181.45,319.782 2187.11,307.485 2192.77,294.12 2198.44,279.936 2204.1,265.203 2209.77,250.199 2215.43,235.185 
  2221.09,220.4 2226.76,206.058 2232.42,192.358 2238.09,179.484 2243.75,167.619 2249.41,156.947 2255.08,147.645 2260.74,139.873 2266.41,133.752 2272.07,129.346 
  2277.73,126.646 2283.4,125.556 2289.06,125.901 2294.73,127.44 2300.39,129.897 2306.05,132.992 2311.72,136.474 2317.38,140.156 2323.04,143.93 2328.71,147.779 
  2334.37,151.767 2340.04,156.034 2345.7,160.773 2351.36,166.208 2357.03,172.581 2362.69,180.131 2368.36,189.084 2374.02,199.637 2379.68,211.953 2385.35,226.143 
  2391.01,242.256 2396.68,260.271 2402.34,280.079 2408,301.486 2413.67,324.214 2419.33,347.911 2425,372.18 2430.66,396.603 2436.32,420.783 2441.99,444.375 
  2447.65,467.127 2453.32,488.895 2458.98,509.663 2464.64,529.528 2470.31,548.691 2475.97,567.417 2481.64,586.001 2487.3,604.721 2492.96,623.806 2498.63,643.402 
  2504.29,663.554 2509.96,684.207 2515.62,705.212 2521.28,726.34 2526.95,747.313 2532.61,767.825 2538.28,787.569 2543.94,806.264 2549.6,823.671 2555.27,839.606 
  2560.93,853.958 2566.6,866.688 2572.26,877.833 2577.92,887.502 2583.59,895.864 2589.25,903.139 2594.91,909.574 2600.58,915.423 2606.24,920.927 2611.91,926.29 
  2617.57,931.667 2623.23,937.152 2628.9,942.774 2634.56,948.506 2640.23,954.275 2645.89,959.978 2651.55,965.503 2657.22,970.744 2662.88,975.62 2668.55,980.079 
  2674.21,984.11 2679.87,987.731 2685.54,990.99 2691.2,993.956 2696.87,996.704 2702.53,999.31 2708.19,1001.85 2713.86,1004.38 2719.52,1006.95 2725.19,1009.61 
  2730.85,1012.38 2736.51,1015.29 2742.18,1018.34 2747.84,1021.53 2753.51,1024.87 2759.17,1028.31 2764.83,1031.83 2770.5,1035.4 2776.16,1038.97 2781.83,1042.5 
  2787.49,1045.96 2793.15,1049.3 2798.82,1052.49 2804.48,1055.52 2810.15,1058.36 2815.81,1061.01 2821.47,1063.44 2827.14,1065.65 2832.8,1067.63 2838.46,1069.38 
  2844.13,1070.91 2849.79,1072.21 2855.46,1073.31 2861.12,1074.21 2866.78,1074.93 2872.45,1075.5 2878.11,1075.94 2883.78,1076.27 2889.44,1076.51 2895.1,1076.68 
  2900.77,1076.8 2906.43,1076.88 2912.1,1076.94 2917.76,1076.97 2923.42,1076.99 2929.09,1077.01 2934.75,1077.02 2940.42,1077.02 2946.08,1077.02 2951.74,1077.02 
  
  "/>
<polyline clip-path="url(#clip323)" style="stroke:#9e71fe; stroke-linecap:round; stroke-linejoin:round; stroke-width:4; stroke-opacity:1; fill:none" points="
  2170.66,2114.12 2170.66,-911.544 
  "/>
<path clip-path="url(#clip320)" d="
M2795.08 337.991 L3106.48 337.991 L3106.48 130.631 L2795.08 130.631  Z
  " fill="#12273f" fill-rule="evenodd" fill-opacity="1"/>
<polyline clip-path="url(#clip320)" style="stroke:#ffffff; stroke-linecap:round; stroke-linejoin:round; stroke-width:4; stroke-opacity:1; fill:none" points="
  2795.08,337.991 3106.48,337.991 3106.48,130.631 2795.08,130.631 2795.08,337.991 
  "/>
<polyline clip-path="url(#clip320)" style="stroke:#3cd7d9; stroke-linecap:round; stroke-linejoin:round; stroke-width:4; stroke-opacity:1; fill:none" points="
  2810.51,182.471 2903.07,182.471 
  "/>
<path clip-path="url(#clip320)" d="M2930.44 168.269 Q2926.83 168.269 2925 171.834 Q2923.19 175.376 2923.19 182.505 Q2923.19 189.612 2925 193.177 Q2926.83 196.718 2930.44 196.718 Q2934.07 196.718 2935.88 193.177 Q2937.71 189.612 2937.71 182.505 Q2937.71 175.376 2935.88 171.834 Q2934.07 168.269 2930.44 168.269 M2930.44 164.566 Q2936.25 164.566 2939.3 169.172 Q2942.38 173.755 2942.38 182.505 Q2942.38 191.232 2939.3 195.839 Q2936.25 200.422 2930.44 200.422 Q2924.63 200.422 2921.55 195.839 Q2918.49 191.232 2918.49 182.505 Q2918.49 173.755 2921.55 169.172 Q2924.63 164.566 2930.44 164.566 Z" fill="#ffffff" fill-rule="evenodd" fill-opacity="1" /><polyline clip-path="url(#clip320)" style="stroke:#ff7300; stroke-linecap:round; stroke-linejoin:round; stroke-width:4; stroke-opacity:1; fill:none" points="
  2810.51,234.311 2903.07,234.311 
  "/>
<path clip-path="url(#clip320)" d="M2919.17 247.655 L2926.8 247.655 L2926.8 221.29 L2918.49 222.957 L2918.49 218.697 L2926.76 217.031 L2931.43 217.031 L2931.43 247.655 L2939.07 247.655 L2939.07 251.591 L2919.17 251.591 L2919.17 247.655 Z" fill="#ffffff" fill-rule="evenodd" fill-opacity="1" /><polyline clip-path="url(#clip320)" style="stroke:#9e71fe; stroke-linecap:round; stroke-linejoin:round; stroke-width:4; stroke-opacity:1; fill:none" points="
  2810.51,286.151 2903.07,286.151 
  "/>
<path clip-path="url(#clip320)" d="M2935 267.412 L2935 270.954 L2930.92 270.954 Q2928.63 270.954 2927.73 271.88 Q2926.85 272.806 2926.85 275.213 L2926.85 277.505 L2933.86 277.505 L2933.86 280.815 L2926.85 280.815 L2926.85 303.431 L2922.57 303.431 L2922.57 280.815 L2918.49 280.815 L2918.49 277.505 L2922.57 277.505 L2922.57 275.699 Q2922.57 271.371 2924.58 269.403 Q2926.6 267.412 2930.97 267.412 L2935 267.412 Z" fill="#ffffff" fill-rule="evenodd" fill-opacity="1" /><path clip-path="url(#clip320)" d="M2950.35 290.398 Q2945.18 290.398 2943.19 291.579 Q2941.2 292.759 2941.2 295.607 Q2941.2 297.875 2942.68 299.218 Q2944.19 300.537 2946.76 300.537 Q2950.3 300.537 2952.43 298.037 Q2954.58 295.514 2954.58 291.347 L2954.58 290.398 L2950.35 290.398 M2958.84 288.639 L2958.84 303.431 L2954.58 303.431 L2954.58 299.495 Q2953.12 301.857 2950.95 302.991 Q2948.77 304.102 2945.62 304.102 Q2941.64 304.102 2939.28 301.88 Q2936.94 299.634 2936.94 295.884 Q2936.94 291.509 2939.86 289.287 Q2942.8 287.065 2948.61 287.065 L2954.58 287.065 L2954.58 286.648 Q2954.58 283.709 2952.64 282.111 Q2950.72 280.491 2947.22 280.491 Q2945 280.491 2942.89 281.023 Q2940.79 281.556 2938.84 282.621 L2938.84 278.685 Q2941.18 277.783 2943.38 277.343 Q2945.58 276.88 2947.66 276.88 Q2953.29 276.88 2956.06 279.797 Q2958.84 282.713 2958.84 288.639 Z" fill="#ffffff" fill-rule="evenodd" fill-opacity="1" /><path clip-path="url(#clip320)" d="M2986.27 278.5 L2986.27 282.482 Q2984.47 281.486 2982.64 281 Q2980.83 280.491 2978.98 280.491 Q2974.84 280.491 2972.54 283.13 Q2970.25 285.746 2970.25 290.491 Q2970.25 295.236 2972.54 297.875 Q2974.84 300.491 2978.98 300.491 Q2980.83 300.491 2982.64 300.005 Q2984.47 299.495 2986.27 298.5 L2986.27 302.435 Q2984.49 303.269 2982.57 303.685 Q2980.67 304.102 2978.52 304.102 Q2972.66 304.102 2969.21 300.421 Q2965.76 296.741 2965.76 290.491 Q2965.76 284.148 2969.23 280.514 Q2972.73 276.88 2978.79 276.88 Q2980.76 276.88 2982.64 277.297 Q2984.51 277.69 2986.27 278.5 Z" fill="#ffffff" fill-rule="evenodd" fill-opacity="1" /><path clip-path="url(#clip320)" d="M2997.89 270.144 L2997.89 277.505 L3006.66 277.505 L3006.66 280.815 L2997.89 280.815 L2997.89 294.889 Q2997.89 298.06 2998.75 298.963 Q2999.63 299.866 3002.29 299.866 L3006.66 299.866 L3006.66 303.431 L3002.29 303.431 Q2997.36 303.431 2995.48 301.602 Q2993.61 299.75 2993.61 294.889 L2993.61 280.815 L2990.48 280.815 L2990.48 277.505 L2993.61 277.505 L2993.61 270.144 L2997.89 270.144 Z" fill="#ffffff" fill-rule="evenodd" fill-opacity="1" /><path clip-path="url(#clip320)" d="M3011.83 293.199 L3011.83 277.505 L3016.09 277.505 L3016.09 293.037 Q3016.09 296.718 3017.52 298.57 Q3018.96 300.398 3021.83 300.398 Q3025.28 300.398 3027.27 298.199 Q3029.28 296 3029.28 292.204 L3029.28 277.505 L3033.54 277.505 L3033.54 303.431 L3029.28 303.431 L3029.28 299.449 Q3027.73 301.81 3025.67 302.968 Q3023.63 304.102 3020.92 304.102 Q3016.46 304.102 3014.14 301.324 Q3011.83 298.546 3011.83 293.199 M3022.54 276.88 L3022.54 276.88 Z" fill="#ffffff" fill-rule="evenodd" fill-opacity="1" /><path clip-path="url(#clip320)" d="M3054.09 290.398 Q3048.93 290.398 3046.94 291.579 Q3044.95 292.759 3044.95 295.607 Q3044.95 297.875 3046.43 299.218 Q3047.94 300.537 3050.51 300.537 Q3054.05 300.537 3056.18 298.037 Q3058.33 295.514 3058.33 291.347 L3058.33 290.398 L3054.09 290.398 M3062.59 288.639 L3062.59 303.431 L3058.33 303.431 L3058.33 299.495 Q3056.87 301.857 3054.7 302.991 Q3052.52 304.102 3049.37 304.102 Q3045.39 304.102 3043.03 301.88 Q3040.69 299.634 3040.69 295.884 Q3040.69 291.509 3043.61 289.287 Q3046.55 287.065 3052.36 287.065 L3058.33 287.065 L3058.33 286.648 Q3058.33 283.709 3056.39 282.111 Q3054.47 280.491 3050.97 280.491 Q3048.75 280.491 3046.64 281.023 Q3044.53 281.556 3042.59 282.621 L3042.59 278.685 Q3044.93 277.783 3047.13 277.343 Q3049.33 276.88 3051.41 276.88 Q3057.03 276.88 3059.81 279.797 Q3062.59 282.713 3062.59 288.639 Z" fill="#ffffff" fill-rule="evenodd" fill-opacity="1" /><path clip-path="url(#clip320)" d="M3071.36 267.412 L3075.62 267.412 L3075.62 303.431 L3071.36 303.431 L3071.36 267.412 Z" fill="#ffffff" fill-rule="evenodd" fill-opacity="1" /></svg>
