<?xml version="1.0" encoding="UTF-8"?>
<svg xmlns="http://www.w3.org/2000/svg" width="400" height="400" viewBox="0,0 34.016,34.016">
	<circle cx="17.008" cy="17.008" r="17.008" fill="#231f20"/>
	<circle cx="17.008" cy="17.008" r="16.192" fill="#fff"/>
	<circle cx="17.008" cy="17.008" r="15.56" fill="#231f20"/>
	<g transform="matrix(1,0,0,-1,-41.941,753.614)" fill="#fff">
		<path d="M62.427,726.921c-2.624-0.334-3.921,0.497-5.971,2.194,0.168-1.007,0.892-1.788,1.493-2.227,0.549-0.403,1.706-0.691,2.47-0.691s1.474,0.43,2.008,0.724"/>
		<path d="M56.949,725.163c0.133-0.019,0.217,0.215,0.105,0.289-0.199,0.134-0.375,0.357-0.198,0.893-0.227-0.014-0.789,0.277-1.018,1.259-0.13-0.951,0.447-2.344,1.111-2.441"/>
		<path d="M58.665,725.774c-0.187,0.559-1.269,0.637-1.379,0.919-0.092-0.321-0.238-0.336-0.265-0.866,0.477,0.389,0.946-0.24,1.14-0.517s0.681-0.066,0.504,0.464"/>
		<path d="M59.686,725.164c-0.106,0.176-0.336,0.172-0.597,0.822-0.287-0.349-0.123-0.716,0.053-0.875,0.177-0.159,0.498-0.056,0.544,0.053"/>
		<path d="M57.9,735.264c-2.798,0-3.228-4.111-3.228-5.717,0-0.293-0.01-0.834-0.017-1.062l-0.683,2.713c-0.168,0-0.273-0.388-0.232-0.552l1.898-7.59c0.07-0.261,0.113-0.448,0.292-0.411,0.205,0.043,0.072,0.461,0.022,0.683l-0.771,3.071c0.177,0.359,0.329,0.825,0.408,1.284-0.176,0-0.547,0.053-0.6,0.265,0.565,0.018,0.65,0.172,0.66,0.26,0.209,1.955-0.029,4.355,0.792,5.636,0.825,1.288,2.578,1.086,3.232,1.157-0.336,0.212-1.22,0.263-1.773,0.263"/>
		<path d="M51.745,724.687c0.928-0.239,2.424,0.289,2.864,0.987-0.06,0.279-0.113,0.465-0.191,0.799-0.087-0.397-0.269-0.761-0.605-1.07-0.663,0.438-0.848-0.53-2.068-0.716"/>
		<path d="M56.782,736.524c-1.661-0.265-2.143,0.14-2.677,0.068-0.782-0.106-1.171-0.628-1.025-1.131,0.026,0.198,0.442,0.627,0.813,0.574-0.186-0.194-0.304-0.359-0.239-0.557-0.007,0.022,0.147-0.113,0.371,0.08,0.421,0.364,1.048,0.437,1.538,0.437,0.589,0,1.169,0.095,1.405,0.297,0.086,0.072-0.109,0.244-0.186,0.232"/>
		<path d="M72.221,743.923c-0.979-0.865-1.3-0.441-2.052-0.68-0.037-0.012-0.016,0.093-0.056,0.077,0.979,1.297,1.724,0.457,2.108,0.603"/>
		<path d="M71.348,742.482c0.009,0.455-0.535,1.063-1.37,0.738,0.643-0.654,1.043-0.583,1.37-0.738"/>
		<path d="M64.466,727.835c0.041,0.104,0.179,0.178,0.041,0.281-0.486,0.362-0.088,0.522-0.247,0.654-0.478,0.354-1.061-0.186-1.777,0.822,0.345-0.146,0.784-0.467,1.224-0.328-0.428,1.372-1.224,3.456-1.386,4.314-0.055,0.28-0.122,0.695-0.804,0.695-0.429,0-0.669-0.08-0.886-0.187,0.056,0.147,0.563,0.436,0.898,0.477-1.644,0.314-4.444,0.488-4.896-1.612-0.102-0.472,0.488-1.146,2.057-0.593,0.228,0.082,0.496-0.093,0.148-0.428-0.349-0.335-1.514-1.139-2.532-0.429,0.227-0.348,0.937-0.588,1.501-0.588,0.562,0,1.495,0.098,1.932,1.304,0.12,0,0.809,0.027,1.286,0.742-0.149-1.008-0.495-1.354-0.848-1.617-0.24-0.519-0.791-1.663-2.397-1.663-0.405,0-0.628,0.013-0.997,0.258,0.799-1.028,4.401-3.845,7.362-2.307-0.035-0.159-0.388-0.512-0.773-0.663-0.751-0.295-1.279-1.157-3.593-1.282,0.051-0.742,1.242-0.574,1.511-0.482-0.451,0.067-0.686,0.153-0.716,0.27,0.848-0.047,1.768,0.053,2.828,0.531-0.106-0.239-0.167-0.407-0.406-0.513,1.405-0.114,1.874,1.045,2.206,1.163-0.071,0.285-0.653,1.103-0.736,1.181"/>
		<path d="M58.082,737.705c-0.13-0.333-0.769-0.716-0.636-1.246,0,0.159,0.753,0.828,0.928,1.166,0.363,0.705,0.159,0.928,0.026,1.565-0.014-0.548-0.1-0.926-0.318-1.485"/>
		<path d="M53.416,730.971c0.128-0.153,0.208-0.473,0.38-0.486-0.035,0.039,0.04,0.345-0.071,0.495-0.088,0.46-0.048,0.671,0.009,0.707,0.212,0.138,0.141-0.364,0.295-0.49,0.039-0.033,0.093-0.072,0.159-0.03-0.009,0.119-0.03,0.283-0.003,0.517-0.093,0.212-0.159,0.646-0.159,0.666-0.179,0.282-0.354,0.521-0.628,0.725-0.107,0.133-0.218,0.345-0.358,0.55-0.288,0.419-0.81,1.675-1.268,2.684-0.309,0.683-0.654,1.026-0.548,1.22,0.147,0.252,0.229,0.412,0.299,0.596-0.122,0.469-0.5,1.934-0.707,2.757-0.63-1.136-0.598-2.631-0.749-3.16-0.161-0.563,0.04-0.602,0.079-0.864,0.13-0.84,0.864-2.028,1.347-2.531,0.276-0.287,1.104-1.166,1.104-1.526,0.037-0.146,0.09-0.411,0.077-0.716,0.044-0.136,0.118-0.115,0.199-0.199,0.039-0.041,0.049-0.183,0.137-0.226,0.046-0.022,0.069-0.03,0.194-0.123,0.064-0.048,0.131-0.469,0.212-0.566"/>
		<path d="M59.713,736.115c-0.23-0.177-0.978,0.261-1.485,0.199-0.344-0.053-0.515-0.27-0.693-0.296-1.03,0.203-2.186-0.482-2.752-1.336-0.09-0.135-0.218-0.238-0.236-0.423-0.017-0.186,0.128-0.239,0.022-0.504-0.219-0.744-0.212-1.35-0.128-1.865,0.195,0.69,0.778,3.058,3.005,3.509-0.557,0.106-1.361-0.133-1.909-0.363,0.619,0.708,1.643,0.69,2.32,0.655,0.036,0.002-0.137,0.141-0.199,0.274,0.142,0,0.297-0.164,0.769-0.142,0.518,0.025,0.706,0.05,0.994,0.093-0.431-0.216-0.765-0.366-1.374-0.384,1.715-0.531,2.033,0.106,2.934,0.247-0.123,0.23-0.671,0.389-1.268,0.336"/>
		<path d="M52.377,731.417c-0.369,1.697-1.616,2.803-2.574,3.057-0.033,0.009-0.49-1.561-0.437-3.053,1.007,0.073,2.26,0.047,3.011-0.004"/>
		<path d="M49.571,729.495c0.309-1.582,0.734-2.55,1.059-3.144,0.784,0.391,1.747,1.315,1.904,3.235-1.098,0.051-2.172-0.033-2.963-0.091"/>
		<path d="M47.914,734.238c-0.805-0.461-1.622-1.527-1.711-3.298,0.345,0.089,0.836,0.208,1.3,0.278-0.018,0.654,0,1.722,0.411,3.02"/>
		<path d="M46.433,729.107c0.489-1.744,1.622-2.53,2.289-2.795-0.547,1.021-0.834,1.987-1.02,2.988-0.56-0.076-0.968-0.139-1.269-0.193"/>
		<path d="M54.9,735.46c-1.273-0.168-1.208-1.186-1.087-1.414,0.259,0.578,0.398,0.813,1.087,1.414"/>
		<path d="M52.463,739.175c0.268,0.187,0.268,0.644,0.227,0.857-0.2-0.308-0.293-0.603-0.227-0.857"/>
		<path d="M70.318,744.162c-0.862-0.04-1.246-0.309-1.383-1.217,1.405,0.53,1.047,1.076,1.383,1.217"/>
		<path d="M57.181,740.816c-0.084-0.508-0.513-0.513-0.689-0.742-0.067,0.092,0.026,0.375,0.079,0.495-0.49-0.332-0.795-0.851-0.795-1.273-0.133,0.221-0.363,0.972-1.017,1.202-0.198,0.07-0.094-0.13,0-0.336s0.272-0.707,0.266-1.185c-0.006-0.324-0.191-0.631-0.296-0.676,0.136,1.048-0.482,2.268-0.624,2.268-0.266,0-0.654-1.609-0.098-2.803-1.139,1.388-0.467,2.596-0.467,2.909,0,0.362-0.04,0.54-0.336,0.795,0.141-1.043-0.309-1.44-0.472-2.301-0.081-0.428-0.08-0.765,0.061-0.963,0.138-0.2,0.396-0.435,0.49-0.554,0.094-0.12,0.47-0.636,0.769-0.636,0.248,0,0.247,0.36,0.129,0.488,0.132,0.018,0.291-0.011,0.384-0.109,0.194-0.203,0.06-0.384,0.133-0.379,0.375,0.026,0.879,1.365,0.996,1.781,0.4-1.066-0.368-1.969-0.253-1.966,0.335,0.008,0.954,0.777,1.151,1.078,0.009-0.056,0.011-0.111-0.007-0.178-0.062-0.23-0.114-0.53-0.014-0.53,0.321,0,0.491,1.013,0.522,1.405s0.565,0.601,0.527,1.245c-0.014,0.231-0.227,0.731-0.148,0.954,0.233-0.132,0.414-0.226,0.569-0.311,0.203-0.11,0.714-0.281,0.905-0.332,0.572-0.15,1.37-0.364,1.577-0.421,0.237-0.065,0.331-0.131,0.502-0.131,0.885,0,2.191,0.704,2.32,0.804,0.14,0.108,0.505,0.298,0.746,0.445,0.231,0.165,0.651,0.417,0.902,0.496,0.13,0.047,0.229,0.022,0.316-0.022,0.286-0.142,0.443-0.214,0.769-0.249-0.25-0.328-0.656-0.796-0.883-1.264,0.038-0.048,0.149-0.098,0.19-0.126,0.359,0.609,0.736,1.127,1.109,1.531,0.025,0.027-0.152,0.059-0.126,0.179,0.019,0.019,0.365-0.179,0.597-0.106,0.015,0.014,0.112,0,0.099,0.126,0.113,0.039,0.144,0.137,0.133,0.159-0.279,0.046-0.493,0.088-0.586,0.082-0.028-0.006-0.121-0.052-0.104-0.119-0.053-0.004-0.131-0.026-0.136-0.079-0.517-0.212-1.056,0.383-1.483,0.255,0.144,0.278,0.841-0.02,1.163-0.025,0.443-0.008,0.516,0.171,1.113-0.015,0.364-0.079,0.442,0.083,0.172,0.192-0.209,0.085-0.566,0.152-0.714,0.229,0.263,0.003,0.522,0.043,0.866-0.096,0.07,0.002,0.053,0.034,0.067,0.053,0.071,0.097,1.16,0.822,2.615,1.183l0.023,0.143c-0.676-0.12-1.319-0.332-2.748-1.142-0.037,0.018-0.153,0.057-0.533,0.128-0.61-0.071-1.835-0.069-2.148-0.199-1.564-0.65-2.757-0.743-3.447-1.14-0.393-0.227-0.896,0.217-1.06,0.331-0.402,0.278-0.535,0.317-0.867,0.477-0.128,0.054-0.735,0.405-0.858,0.429-0.635-0.082-1.232-0.95-1.351-1.454"/>
		<path d="M53.562,741.506c0.347-0.401,1.007-0.804,1.723-0.565-1.034,0.225-1.834,2.35-3,2.421-0.248,0.018-0.619-0.07-0.99-0.565,1.325,0.512,1.942-0.916,2.267-1.291"/>
		<path d="M68.971,744.122c-0.195-0.009-1.114-0.265-0.866-1.556,0.963,0.637,0.742,1.362,0.866,1.556"/>
		<path d="M67.773,743.485c-0.822-0.437-0.599-0.885-0.614-1.193l0.203-0.08c0.61,0.61,0.332,1.123,0.411,1.273"/>
		<path d="M66.301,724.112c-0.488,0.114-0.811-0.023-1.255,0.283-0.232,0.16-0.992,0.57-1.485,0.689-0.948-0.351-1.324-0.23-1.768-0.217-0.547-0.296-1.17-0.198-1.712,0-0.511-0.376-0.947-0.205-1.169-0.03-0.866-0.513-0.74,0.225-1.325,0.238-0.858-0.548-1.57-0.184-1.911,0.029,0.079-0.334,0.187-0.715,0.278-1.104l10.45-0.006s0.162,0.056-0.103,0.118"/>
		<path d="M66.04,723.573h-9.978l0.171-0.698c0.081-0.401-0.073-0.624-0.378-0.614-0.281,0.008-0.412,0.136-0.51,0.51l-0.199,0.802-3.224-0.001c0.348-0.207,3.1-1.765,7.035-1.784,3.592-0.018,6.323,1.353,7.083,1.785"/>
		<path d="M50.05,741.436c-2.203-3.057-1.178-4.904-0.983-5.295-0.106,0.459-0.3,1.352,0,2.13,0-0.135,0.053-0.566,0.372-0.866-0.071,0.777-0.407,1.44,0.91,4.158,0.093,0.201-0.116,0.127-0.299-0.127"/>
		<path d="M53.861,728.769c-0.074,0.326-0.321,1.324-0.445,1.797-0.176,0.274-0.375,0.452-0.564,0.557,0.022-0.097,0.042-0.196,0.06-0.298,0.081-0.478,0.105-1.006,0.053-1.541-0.165-1.698-1.04-3.445-2.895-3.723-2.01-0.3-4.18,2.07-4.131,5.012,0.048,2.942,1.803,4.296,3.142,4.309,0.616,0.006,1.223-0.137,1.896-0.615-0.425,0.734-0.571,1.13-0.693,1.543-0.342,0.129-0.842,0.196-1.183,0.179-3.092-0.157-4.453-4.011-3.719-7.042,0.279-1.153,0.835-2.354,1.737-3.24,0.454-0.423,1.18-1.051,2.068-1.193,2.367-0.541,4.349,1.576,4.674,4.255"/>
		<path d="M49.995,745.651c0.044-0.124,2.709-10.852,2.771-11.101,0.047-0.189,0.146-0.366,0.249-0.347,0.073,0.015,0.183,0.137,0.113,0.391,0,0-1.114,4.375-1.153,4.561,0.331,0.53,0.406,1.308,0.715,1.708,0.187-0.256,0.21,0.013,0.215,0.214,0.033,1.339-0.7,1.551-0.855,1.56-0.65,0.04-0.763-0.704-0.763-0.704l-0.941,3.793c0.179,0.027,0.312-0.053,0.436-0.172-0.037,0.394-0.449,1.743-1.198,2.141-0.391-1.246-0.057-2.097,0.049-2.451,0.037,0.157,0.132,0.354,0.362,0.407"/>
		<path d="M54.768,725.081c-0.813-0.565-2.187-0.885-2.956-0.911-0.398-0.01-0.409-0.126-0.389-0.177,0.313-0.005,3.623,0.005,3.623,0.005s-0.207,0.818-0.278,1.083"/>
		<path d="M69.085,742.955c1.24,0.033,1.399-0.59,1.379-0.875-0.113,0.106-1.061,0.026-1.379,0.875"/>
		<path d="M68.219,742.531c0.504-0.734,1.106-0.665,1.423-0.778-0.371,0.937-1.212,0.826-1.423,0.778"/>
		<path d="M68.228,742.018c-0.187,0.092-0.587,0.197-0.795,0.079,0,0,0.088-0.83,1.378-0.671,0.019-0.045-0.39,0.495-0.583,0.592"/>
		<path d="M66.107,724.501c0.197-0.001,0.566-0.053,0.919,0.23,0.252-0.08,0.378,0.128,0.424,0.247-0.229,0.106-0.935,0.503-1.294,0.822-0.307,0.273-0.462,0.475-0.738,0.574-0.371-0.178-0.94-0.991-1.22-1.042,0.654-0.266,1.119-0.829,1.909-0.831"/>
		<path d="M66.381,731.188c-0.044-0.18-0.321-0.268-0.619-0.195-0.297,0.073-0.502,0.278-0.458,0.458,0.185-0.019,0.35,0.052,0.618,0.195,0.086-0.191,0.298-0.32,0.459-0.458"/>
		<path d="M66.586,730.003c0.225-0.08,0.465-0.062,0.611,0.018,0.041-0.139-0.033-0.397-0.26-0.579-0.259-0.209-0.605-0.249-0.707-0.122,0.251,0.118,0.376,0.405,0.356,0.683"/>
		<path d="M65.666,729.013c0.26-0.123,0.418-0.339,0.372-0.54-0.057-0.252-0.413-0.385-0.795-0.298s-0.645,0.361-0.588,0.613c0.028,0.125,0.13,0.22,0.271,0.275,0.089-0.069,0.459-0.132,0.74-0.05"/>
		<path d="M65.41,729.955c-0.012,0-0.024-0.001-0.037-0.002-0.353,0.132-0.436,0.315-0.418,0.546-0.184,0-0.569-0.031-0.535-0.325,0.022-0.184,0.234-0.349,0.48-0.396-0.065-0.062-0.102-0.135-0.101-0.215,0.003-0.212,0.281-0.379,0.621-0.375,0.341,0.005,0.615,0.181,0.612,0.392-0.003,0.212-0.281,0.38-0.622,0.375"/>
		<path d="M67.624,727.959c-0.144-0.234-0.527-0.261-0.854-0.059-0.328,0.201-0.476,0.554-0.332,0.788,0.144,0.235,0.526,0.262,0.854,0.06,0.328-0.201,0.476-0.555,0.332-0.789"/>
		<path d="M69.642,725.953c0-0.501-0.46-0.908-1.027-0.908-0.568,0-1.028,0.407-1.028,0.908s0.46,0.908,1.028,0.908c0.567,0,1.027-0.407,1.027-0.908"/>
		<path d="M70.133,729.611c0.16-0.069,0.275-0.188,0.304-0.338,0.056-0.292-0.228-0.592-0.635-0.67-0.407-0.079-0.782,0.093-0.838,0.384-0.028,0.145,0.027,0.29,0.138,0.41,0.129-0.09,0.785-0.13,1.031,0.214"/>
		<path d="M70.543,727.641c-0.426,0.014-0.761,0.328-0.75,0.702,0.238-0.033,0.751,0.215,0.792,0.654,0.425-0.013,0.761-0.327,0.749-0.702-0.011-0.374-0.365-0.667-0.791-0.654"/>
		<path d="M67.938,727.598c0.988-0.087,1.241,0.342,1.329,0.742,0.052-0.023,0.1-0.05,0.145-0.08,0.228-0.151,0.365-0.38,0.342-0.623-0.037-0.393-0.477-0.672-0.985-0.624-0.414,0.039-0.743,0.283-0.831,0.585"/>
		<path d="M65.969,726.829c0.065,0.152,0.202,0.258,0.376,0.31,0.009-0.194,0.245-0.872,1.262-0.701-0.033-0.075-0.039-0.254,0.062-0.334-0.144-0.335-0.639-0.446-1.109-0.246s-0.734,0.635-0.591,0.971"/>
		<path d="M66.391,727.375c-0.072-0.229-0.428-0.321-0.795-0.206-0.368,0.115-0.609,0.394-0.537,0.622,0.116-0.055,0.434-0.122,0.795,0.206,0.368-0.115,0.609-0.393,0.537-0.622"/>
		<path d="M68,726.79c-0.131-0.039-0.278-0.062-0.434-0.062-0.542,0-0.981,0.267-0.981,0.597,0.101,0.026,0.548-0.101,1.06,0.376-0.044-0.336,0.089-0.721,0.355-0.911"/>
		<path d="M68.706,731.468c-0.469-0.294-0.822-0.347-0.961-0.24,0.433,0.114,0.737,0.385,0.679,0.605-0.049,0.185-0.34,0.275-0.69,0.23-0.03-0.209-0.107-0.482-0.866-0.488-0.022-0.054-0.028-0.106-0.015-0.157,0.042-0.158,0.26-0.246,0.54-0.241-0.137-0.33-0.508-0.463-0.904-0.411-0.012-0.26,0.317-0.486,0.735-0.506,0.418-0.019,0.766,0.176,0.778,0.437,0.001,0.009,0,0.018,0,0.028,0.079-0.021,0.164-0.036,0.254-0.041,0.424-0.023,0.778,0.152,0.792,0.393,0.008,0.157-0.129,0.302-0.342,0.391"/>
		<path d="M65.082,731.089c0,0.214-0.356,0.388-0.794,0.388-0.017,0-0.044,0.002-0.071,0.004-0.067,0.935-0.135,1.956-0.125,2.548,0.006,0.318-0.053,0.654-0.479,0.812-0.388,0.144-1.79,0.681-2.232,0.782-0.55-0.005-1.032-0.319-1.46-0.622,0.126,0.004,0.16,0.022,0.271,0.019,0.598-0.017,0.78,0.008,1.337-0.151,0.362-0.104,0.701-0.291,0.792-0.451,0.12-0.214,0.542-0.563,0.713-0.563s0.417,0.162,0.736,0.39c-0.08-0.49-0.321-0.702-0.491-0.923-0.171-0.221-0.265-0.707-0.141-1.291,0.106,0.266,0.113,0.829,0.565,1.079-0.205-0.375-0.212-1.435-0.212-1.856s0.318-1.043,0.831-2.033c0.049,0.213-0.001,0.658-0.052,1.481,0.006,0,0.012-0.001,0.018-0.001,0.438,0,0.794,0.174,0.794,0.388"/>
		<path d="M68.655,728.982c-0.157-0.211-0.303-0.593-0.86-0.699,0.144-0.232,0.529-0.296,0.898-0.139,0.083,0.036,0.158,0.08,0.225,0.13-0.213,0.292-0.253,0.465-0.263,0.708"/>
		<path d="M69.786,730.667c-0.389,0.166-0.774,0.135-0.861-0.068-0.037-0.088,0.021-0.291,0.147-0.398-0.172,0.007-0.278,0.034-0.444,0.266-0.171-0.081-0.347-0.038-0.441-0.028-0.038-0.115-0.017-0.24,0.05-0.355-0.197,0.075-0.456,0.041-0.68-0.109-0.329-0.219-0.457-0.603-0.287-0.858,0.17-0.254,0.574-0.283,0.902-0.063,0.292,0.194,0.425,0.518,0.333,0.766,0.06-0.036,0.127-0.068,0.199-0.092,0.339-0.113,0.679-0.028,0.806,0.189,0.376-0.148,0.74-0.114,0.824,0.082,0.086,0.203-0.159,0.502-0.548,0.668"/>
		<path d="M53.585,745.594c-0.99-0.725-0.284-1.596-1.097-2.029,0.946,0.03,0.691,1.393,1.097,2.029zm3.301,1.014c0.026,0.009-0.027,0.197-0.345,0.179,0.405,0.219,0.698-0.007,0.69-0.046-0.02-0.1-0.13-0.146-0.142-0.223-0.004-0.032,0.071-0.053,0.089-0.084-0.038,0.001-0.104-0.03-0.137-0.031-0.014-0.031-0.049-0.143-0.082-0.146-0.199,0.006-0.316,0.219-0.444,0.258,0.029-0.012,0.155,0.07,0.371,0.093zm-0.421,0.987c0.398,0.132,0.371,0.358,0.221,0.645,0.694-0.34,0.601-0.725-0.221-0.645zm1.458-4.844c-0.523,0.381-0.534,0.772-0.786,0.646,0.318-0.69,0.256-1.185-0.753-1.692-0.069,0.185,0.187,0.291,0.39,0.49,0.229,0.223,0.308,0.554,0.177,1.078-0.027,0.107-0.247,0.654-0.742,0.645,0.282-0.406,0.573-0.843,0.31-1.534-0.001,0.584-0.125,0.77-0.523,1.242-0.115-0.143-0.393-0.318-0.419-0.645-0.336,0.177,0.459,1.064,0.293,1.459-0.225,0.119-0.331,0.388-0.362,0.654,0.225-0.233,0.59-0.437,1.032-0.504,0.203-0.031,0.411-0.009,0.451,0.132,0.04,0.142-0.031,0.17-0.022,0.231,0.005,0.034-0.007,0.114,0.125,0.11,0.044,0.122-0.006,0.159-0.072,0.207,0.134,0,0.178,0.085,0.187,0.115-0.026,0.047-0.057,0.079-0.028,0.148,0.053,0.131,0.33,0.051,0.351,0.192,0.012,0.08-0.042,0.148-0.079,0.233-0.06,0.136-0.062,0.134-0.173,0.404-0.055,0.136,0.017,0.265,0.04,0.471,0.026,0.238-0.086,0.55-0.086,0.55,0.354,0.231,0.316,0.579,0.165,0.632-0.371,0.106-0.934,0.813-1.663,0.866-0.557,0.04-1.286,0.04-1.618-0.385-0.243-0.311-0.766-0.789-0.861-1.299-0.105-0.557,0.027-1.144,0.399-1.409-0.124,0.46-0.131,0.719-0.121,0.985,0.011,0.284,0.146,1.392,1.187,1.875,0.576,0.153,1.319,0.14,1.557-0.258-0.437,0.133-0.914,0.08-1.299-0.079-0.384-0.159-0.822-0.557-0.698-1.22-0.301-0.009-0.351,0.306-0.354,0.309-0.086-0.222-0.207-0.929,0.334-1.295,0.125-0.085,0.294,0.001,0.238,0.092-0.222,0.361-0.049,0.655,0.029,0.684,0.195,0.074,0.382,0.267,0.411,0.515,0.16-0.305,0.08-0.517-0.106-0.703,0.57,0.133,0.279,0.38,1.021,0.486-0.459-0.265-0.302-0.614-0.789-0.771,0.842-0.305,0.703,1.034,1.611,0.93-0.789-0.081-0.703-2.129-2.483-2.492-0.248-1.109-0.681-1.184-1.317-1.458,1.294-0.38,1.829-2.06,3.208-1.812-0.141-0.248-0.336-0.247-0.513-0.247-0.017-0.354,0.031-0.641,0.296-0.628,1.207,0.265,1.498,1.578,2.63,1.777-0.044,0.141-0.38,0.114-0.575,0.273"/>
		<path d="M48.306,734.422c0.407,0.147,0.873,0.172,1.159,0.115-1.1-3.805,0.044-6.929,0.842-8.295-0.537-0.168-1.093-0.088-1.202-0.038-1.054,2.097-1.787,5.211-0.799,8.218"/>
		<path d="M46.204,730.591c0.018-0.389,0.089-0.911,0.141-1.149,1.397,0.256,3.16,0.442,6.21,0.502,0.03,0.311-0.057,1.005-0.107,1.177-1.869,0.168-5.124-0.104-6.244-0.53"/>
		<path d="M71.876,727.36c-0.258-0.354-0.745-0.926-1.08-1.26-0.433,0.107-0.736,0.36-0.736,0.655,0,0.391,0.536,0.708,1.198,0.707,0.226,0,0.438-0.037,0.618-0.102"/>
		<path d="M67.525,732.144c-0.007-0.165-0.339-0.284-0.742-0.266-0.402,0.018-0.722,0.166-0.715,0.33,0.007,0.165,0.339,0.284,0.742,0.266,0.402-0.017,0.722-0.165,0.715-0.33"/>
		<path d="M66.342,732.572c-0.05,0.122-0.448,0.073-0.888-0.108-0.439-0.182-0.755-0.428-0.705-0.549,0.05-0.122,0.448-0.074,0.888,0.108,0.439,0.181,0.755,0.427,0.705,0.549"/>
		<path d="M66.133,730.75c-0.097-0.15-0.106-0.318,0.066-0.522-0.118-0.06-0.277-0.097-0.451-0.097-0.368,0-0.667,0.165-0.667,0.367,0,0.203,0.299,0.367,0.667,0.367,0.067-0.053,0.155-0.124,0.385-0.115"/>
	</g>
</svg>