<?xml version="1.0" encoding="UTF-8" standalone="no"?>
<!-- Generator: Adobe Illustrator 19.1.0, SVG Export Plug-In . SVG Version: 6.00 Build 0)  -->
<!DOCTYPE svg  PUBLIC '-//W3C//DTD SVG 1.1//EN'  'http://www.w3.org/Graphics/SVG/1.1/DTD/svg11.dtd'>
<svg id="Layer_1" style="enable-background:new 0 0 780 144" xmlns="http://www.w3.org/2000/svg" xml:space="preserve" height="144px" viewBox="0 0 780 144" width="780px" version="1.1" y="0px" x="0px" xmlns:xlink="http://www.w3.org/1999/xlink">
<style type="text/css">
	.st0{clip-path:url(#SVGID_2_);fill:url(#SVGID_3_);}
	.st1{fill:#706F6F;}
</style>
		<defs>
			<path id="SVGID_1_" d="m18.1 22.3l4.3-8.4h-9.3l4.9 8.4h0.1zm7.5 13.1l12.7-21.4h-14.4l-4 11.7 5.7 9.7zm7.8 13.5l20.3-34.9h-13.9l-12 25.4 5.6 9.5zm7.7 13.4l28.3-48.3h-14.4l-18.4 40.4 4.5 7.9zm7.9 13.5l35.6-61.8h-13.9l-25.5 55.3 3.8 6.5zm7.8 13.4l43.9-75.2h-14.4l-32.5 70.1 3 5.1zm7.8 13.5l51.8-88.7h-14.4l-39.3 85.4 1.9 3.3zm7.8 13.5l60.1-102.2h-14.4l-46.8 100.3 1.1 1.9zm75.3-102.2h-13.2l-54.8 114.7 0.7 1.3 67.3-116z"/>
		</defs>
		<clipPath id="SVGID_2_">
			<use xlink:href="#SVGID_1_"/>
		</clipPath>
			<linearGradient id="SVGID_3_" y2="493.43" gradientUnits="userSpaceOnUse" x2="-203.09" gradientTransform="matrix(134.61 0 0 -134.61 27485 66492)" y1="493.43" x1="-204.09">
			<stop stop-color="#008B3D" offset="0"/>
			<stop stop-color="#008B3D" offset=".1"/>
			<stop stop-color="#56AF31" offset="1"/>
		</linearGradient>
		<rect y="14" x="13.1" height="116" class="st0" width="134.6"/>
	<path class="st1" d="m178.6 71.9h-5.2l-8.6-32.7h4.9l4.7 22c0.7 3.4 1.6 8.6 1.6 8.6s0.9-5.3 1.6-8.6l4.7-22h4.9l-8.6 32.7z"/>
	<polygon points="193.7 71.9 193.7 39.1 209.6 39.1 209.6 43.1 197.9 43.1 197.9 52.2 208.7 52.2 208.7 55.9 197.9 55.9 197.9 67.9 209.6 67.9 209.6 71.9" class="st1"/>
	<path class="st1" d="m223.7 42.9h-1.9v12c7.6-0.2 10.3-1.7 10.3-6.5 0-5.2-3.1-5.5-8.4-5.5m8 29l-2.4-7.4c-0.8-2.6-1.9-5.1-3.4-6.5-1.4 0.2-2.7 0.2-4.1 0.3v13.6h-4.2v-32.8h6.9c6.4 0 11.8 1.2 11.8 9.2 0 5.1-2.7 7.6-6.4 8.8 1.4 1.2 2.3 2.9 3.3 5.3l3.6 9.4h-5.1z"/>
	<path class="st1" d="m250.7 56.7h-1.7v11.8h2.1c5.8 0 8.7-0.7 8.7-5.9-0.1-5-3.5-5.9-9.1-5.9m-0.1-14.2h-1.6v10.9h1.7c5.8 0 8.1-0.9 8.1-5.6 0-4.6-2.6-5.3-8.2-5.3m-0.4 29.4h-5.5v-32.8h5.9c8 0 12.3 1.3 12.3 8.5 0 4.2-2.8 6.5-5.6 7.2 3.5 0.5 6.5 2.4 6.5 7.7 0.1 8.7-5 9.4-13.6 9.4"/>
	<path class="st1" d="m281.9 42c-3.3 0-6.3 2.3-6.3 13.5 0 11.5 3.5 13.5 6.3 13.5 2.9 0 6.3-2.2 6.3-13.5 0-10.9-3-13.5-6.3-13.5m0 30.3c-4.1 0-10.5-1-10.5-16.8s6.7-16.8 10.5-16.8 10.5 1.1 10.5 16.8c0 16-6.4 16.8-10.5 16.8"/>
	<path class="st1" d="m317.3 71.9l-8.7-17.8c-2.1-4.4-3.7-8.8-3.7-8.8s0.7 6.3 0.7 9.8v16.8h-4.2v-32.8h4.2l8.2 17.1c2.6 5.4 3.7 9.2 3.7 9.2s-0.7-6.6-0.7-10.2v-16.1h4.2v32.7h-3.7z"/>
	<path class="st1" d="m337.9 42.8h-1.9v25.4h1.5c6 0 9.7-1.4 9.7-12.7 0-11.6-3.7-12.7-9.3-12.7m-1.2 29.1h-5v-32.8h5.5c8.3 0 14.2 1.8 14.2 16.4 0 14.4-6.2 16.4-14.7 16.4"/>
	<path class="st1" d="m385.3 71.9h-5.2l-8.6-32.7h4.9l4.7 22c0.7 3.4 1.6 8.6 1.6 8.6s0.9-5.3 1.6-8.6l4.7-22h4.9l-8.6 32.7z"/>
	<path class="st1" d="m410.1 49c-0.8-3.1-1.7-7.2-1.7-7.2s-0.9 4.1-1.7 7.2l-2.9 11.9h9.2l-2.9-11.9zm5.5 22.9l-1.7-7.3h-10.8l-1.7 7.3h-4.6l9-32.7h5.3l9 32.7h-4.5z"/>
	<path class="st1" d="m443.1 71.9l-8.7-17.8c-2.1-4.4-3.7-8.8-3.7-8.8s0.7 6.3 0.7 9.8v16.8h-4.2v-32.8h4.2l8.2 17.1c2.6 5.4 3.7 9.2 3.7 9.2s-0.7-6.6-0.7-10.2v-16.1h4.2v32.7h-3.7z"/>
	<path class="st1" d="m482.2 71.9h-5.2l-8.6-32.7h4.9l4.7 22c0.7 3.4 1.6 8.6 1.6 8.6s0.9-5.3 1.6-8.6l4.7-22h4.9l-8.6 32.7z"/>
	<polygon points="497.4 71.9 497.4 39.1 513.3 39.1 513.3 43.1 501.6 43.1 501.6 52.2 512.3 52.2 512.3 55.9 501.6 55.9 501.6 67.9 513.3 67.9 513.3 71.9" class="st1"/>
	<path class="st1" d="m527.3 42.9h-1.9v12c7.6-0.2 10.3-1.7 10.3-6.5 0-5.2-3-5.5-8.4-5.5m8 29l-2.4-7.4c-0.8-2.6-1.9-5.1-3.4-6.5-1.4 0.2-2.7 0.2-4.1 0.3v13.6h-4.2v-32.8h6.9c6.4 0 11.8 1.2 11.8 9.2 0 5.1-2.7 7.6-6.4 8.8 1.4 1.2 2.3 2.9 3.3 5.3l3.6 9.4h-5.1z"/>
	<polygon points="546 71.9 546 68.6 557.8 43.1 546 43.1 546 39.1 562.4 39.1 562.4 42.5 550.6 67.9 562.4 67.9 562.4 71.9" class="st1"/>
	<polygon points="570.6 71.9 570.6 39.1 586.5 39.1 586.5 43.1 574.8 43.1 574.8 52.2 585.5 52.2 585.5 55.9 574.8 55.9 574.8 67.9 586.5 67.9 586.5 71.9" class="st1"/>
	<path class="st1" d="m609.6 72.3l-9.6-18.2 8.9-15h5.1l-9.7 14.8 10.1 18-4.8 0.4zm-15.2-33.2h4.2v32.7h-4.2v-32.7z"/>
	<polygon points="621.3 71.9 621.3 39.1 637.2 39.1 637.2 43.1 625.5 43.1 625.5 52.2 636.3 52.2 636.3 55.9 625.5 55.9 625.5 67.9 637.2 67.9 637.2 71.9" class="st1"/>
	<path class="st1" d="m651.3 42.9h-1.9v12c7.6-0.2 10.3-1.7 10.3-6.5 0-5.2-3-5.5-8.4-5.5m8 29l-2.4-7.4c-0.8-2.6-1.9-5.1-3.4-6.5-1.4 0.2-2.7 0.2-4.1 0.3v13.6h-4.2v-32.8h6.9c6.4 0 11.8 1.2 11.8 9.2 0 5.1-2.7 7.6-6.4 8.8 1.4 1.2 2.3 2.9 3.3 5.3l3.6 9.4h-5.1z"/>
	<path class="st1" d="m682 49c-0.8-3.1-1.7-7.2-1.7-7.2s-0.9 4.1-1.7 7.2l-2.9 11.9h9.2l-2.9-11.9zm5.4 22.9l-1.7-7.3h-10.8l-1.7 7.3h-4.6l9-32.7h5.3l9 32.7h-4.5z"/>
	<path class="st1" d="m708.6 49c-0.7-3.1-1.7-7.2-1.7-7.2s-0.9 4.1-1.7 7.2l-2.9 11.9h9.2l-2.9-11.9zm5.5 22.9l-1.7-7.3h-10.8l-1.7 7.3h-4.6l9-32.7h5.3l9 32.7h-4.5z"/>
	<path class="st1" d="m757 71.8c-3.1 0-6.2-1-6.2-1v-3.8s3.6 1.1 6.1 1.1c3.1 0 5.8-1 5.8-5.2 0-2.9-1.6-4.3-3.8-5.8l-3.4-2.3c-2.7-1.8-5-4.3-5-8.1 0-6.6 5.2-8.6 9.5-8.6 3.3 0 5.6 1.1 5.6 1.1v3.7s-2.9-1.2-5.6-1.2c-3.2 0-5.4 1.2-5.4 4.6 0 2.4 1.7 3.8 3.7 5.2l2.6 1.8c2.9 2.1 5.9 4.4 5.9 9.2 0.1 7.9-4.7 9.3-9.8 9.3"/>
	<path class="st1" d="m731.8 42.4h-1.9v12c7.6-0.2 10.3-1.7 10.3-6.5 0-5.3-3-5.5-8.4-5.5m8 28.9l-2.4-7.4c-0.8-2.6-1.9-5.1-3.4-6.5-1.4 0.2-2.7 0.2-4.1 0.3v13.6h-4.2v-32.7h6.9c6.4 0 11.8 1.2 11.8 9.2 0 5.1-2.7 7.6-6.4 8.8 1.4 1.2 2.3 2.9 3.3 5.3l3.6 9.4h-5.1z"/>
</svg>
