<svg viewBox="0 0 238.11 74.28" id="logo" xmlns="http://www.w3.org/2000/svg"><path d="M238.11 0v57.42H0V0zm-89.46 70.43H152v-1h-3.38v-2.69h3.63v-1h-4.76v8.37h5v-1h-3.9zm11.3.43c0 1.61-.75 2.42-2.24 2.42a1.94 1.94 0 01-2.22-2.15v-5.35h-1.17v5.43c0 2.67 2.13 3.07 3.39 3.07a3.08 3.08 0 003.34-3.38v-5.12H160zm7.71-.3l2.5 3.59h-1.34l-2.29-3.31a4.11 4.11 0 01-.72.06h-1v3.25h-1.15v-8.37h2.77c1.74 0 2.74.91 2.74 2.49a2.35 2.35 0 01-1.51 2.29zm.3-2.22c0-1.13-.52-1.6-1.81-1.6h-1.36v3.17h1.09c1.42 0 2.12-.5 2.12-1.57zM179.58 70a4 4 0 01-4.29 4.31c-2.48 0-4.09-1.7-4.09-4.33a4.07 4.07 0 014.32-4.28c2.48-.03 4.06 1.62 4.06 4.3zm-1.14 0c0-2-1.19-3.32-3-3.32a3 3 0 00-3.08 3.3c0 2.49 1.62 3.37 3 3.37 1.92-.04 3.08-1.29 3.08-3.35zm5.5-.65c-.92-.44-1.7-.82-1.7-1.6s.91-1.06 1.45-1.06a4.38 4.38 0 011.66.31h.09l.33-.88h-.08a4.75 4.75 0 00-2-.4c-1.52 0-2.51.81-2.51 2.07 0 1.48 1.2 2 2.26 2.53s1.75.82 1.75 1.71c0 1.19-1.44 1.28-1.88 1.28a4.35 4.35 0 01-1.89-.42h-.09l-.39.93h.07a4.65 4.65 0 002.32.5c1.84 0 3-.9 3-2.35s-1.33-2.13-2.39-2.66zm6.63.6l-2.07-4.13h-1.27L190 71v3.18h1.13V71l2.92-5.2h-1.25zm7.24-.6c-.91-.44-1.7-.82-1.7-1.6s.91-1.06 1.45-1.06a4.4 4.4 0 011.67.31h.09l.32-.88h-.08a4.67 4.67 0 00-2-.4c-1.53 0-2.51.81-2.51 2.07 0 1.48 1.2 2 2.25 2.53s1.7.78 1.7 1.68c0 1.19-1.43 1.28-1.87 1.28a4.37 4.37 0 01-1.9-.42h-.08l-.4.93h.08a4.62 4.62 0 002.32.5c1.83 0 3-.9 3-2.35s-1.24-2.1-2.34-2.63zm3.38-2.53H204v7.37h1.14v-7.41h2.79v-1h-6.72zm9.48 3.65h3.38v-1h-3.38v-2.73h3.63v-1h-4.76v8.37h5v-1h-3.9zm6.9 0H221v-1h-3.38v-2.73h3.63v-1h-4.76v8.37h5v-1h-3.9zm10 2.8l-2.62-7.38v-.07h-1.55v8.37h1.13v-6.62l2.31 6.58h1.49l2.62-6.69v6.74H232v-8.42h-1.5z" fill="#1226aa"/><path d="M11 31.83h4.25c4.75 0 8.12 2.36 8.12 7.17 0 5-3.08 7.27-8 7.27H11zm4.59 12.66c3.62 0 5.6-1.8 5.6-5.27 0-3.82-2.27-5.62-6-5.62h-2v10.89zM25.69 40.88c0-4.52 2.25-6.05 5.21-6.05s4.27 2 4.27 5.61v.76h-7.34c.05 3 1.68 3.53 3.85 3.53a15.6 15.6 0 002.88-.45L34.9 46a12.52 12.52 0 01-3.72.53c-3.35 0-5.49-1.31-5.49-5.63m7.25-1.17c0-2-.71-3.33-2.29-3.33s-2.65 1.12-2.77 3.31z" fill="#9aa5d1"/><g fill="#ebeaf5"><path d="M38.2 31.83h2.88l6.86 12.11-.08-1.76V31.83h2.23v14.44h-3.07L40.3 34.36l.08 1.61v10.3H38.2zM53.22 40.88c0-4.52 2.24-6.05 5.21-6.05s4.26 2 4.26 5.61v.76h-7.33c0 3 1.68 3.53 3.84 3.53a15.34 15.34 0 002.88-.45l.35 1.7a12.52 12.52 0 01-3.72.53c-3.35 0-5.49-1.31-5.49-5.63m7.25-1.17c0-2-.72-3.33-2.29-3.33s-2.61 1.14-2.78 3.33zM64.8 40.67c0-3.88 2.49-5.84 5.51-5.84a6.51 6.51 0 012 .24v-4.21h2.12v15.41h-2.11v-1a4 4 0 01-2.74 1.18c-2.08 0-4.78-.88-4.78-5.78m7.52 3v-6.82a6.11 6.11 0 00-2-.31c-2.46 0-3.4 2-3.4 4.19 0 2.84 1.25 3.94 2.93 3.94a5.07 5.07 0 002.45-1M77.26 40.88c0-4.52 2.24-6.05 5.2-6.05s4.27 2 4.27 5.61v.76H79.4c0 3 1.67 3.53 3.84 3.53a15.34 15.34 0 002.88-.45l.35 1.7a12.52 12.52 0 01-3.72.53c-3.35 0-5.49-1.31-5.49-5.63m7.25-1.17c0-2-.72-3.33-2.29-3.33s-2.62 1.14-2.78 3.33zM89.46 35.11h2.12v1.5a3.82 3.82 0 013.11-1.74 4.77 4.77 0 011.37.18l-.33 1.8a5.24 5.24 0 00-1.37-.14 3.55 3.55 0 00-2.78 1.55v8h-2.12zM98.04 30.86h2.13v15.4h-2.13zM102.69 43.22c0-2.76 2.49-3.35 4.43-3.37h2.45v-1.28c0-1.56-.81-1.88-2.61-1.88a12.43 12.43 0 00-2.94.51l-.43-1.62a10.39 10.39 0 013.84-.73c2.76 0 4.23.86 4.23 3.14v5.84c0 .7.49.84 1 .88l-.1 1.66a3.31 3.31 0 01-.45 0c-1 0-2.21-.37-2.39-1.35a5.92 5.92 0 01-3.68 1.39c-2.13 0-3.37-1.1-3.37-3.21m6.88.54v-2.56l-2.39.1c-1.53 0-2.41.74-2.41 1.76 0 1.27.74 1.69 1.8 1.69a8.05 8.05 0 003-1M115.33 35.11h2.12v1.23a6.8 6.8 0 013.82-1.51c3.35 0 3.56 2.2 3.56 4.31v7.13h-2.11v-6.83c0-1.81-.28-2.75-2.08-2.75a6.69 6.69 0 00-3.19 1.16v8.42h-2.12zM127.53 40.67c0-3.88 2.49-5.84 5.51-5.84a6.51 6.51 0 012 .24v-4.21h2.12v15.41h-2.12v-1a4 4 0 01-2.74 1.18c-2.08 0-4.78-.88-4.78-5.78m7.52 3v-6.82a6.13 6.13 0 00-2-.31c-2.45 0-3.39 2-3.39 4.19 0 2.84 1.25 3.94 2.92 3.94a5.11 5.11 0 002.46-1M139.73 46l.31-1.67a19.14 19.14 0 003 .41c1.73 0 2.53-.62 2.53-1.45 0-2.17-5.62-1.39-5.62-5.28 0-2.12 1.82-3.2 4.07-3.2a9.88 9.88 0 013 .51l-.35 1.68a10.54 10.54 0 00-2.71-.41c-1.35 0-1.9.66-1.9 1.35 0 2.19 5.57 1.58 5.57 5.25 0 2.66-2.55 3.33-4.41 3.33a11.84 11.84 0 01-3.49-.47M149.67 40.65c0-3.58 2.13-5.82 5.5-5.82a6.6 6.6 0 013.18.67l-.61 1.64a5.78 5.78 0 00-2.57-.53c-1.9 0-3.31 1.3-3.31 4s.84 4.07 3.9 4.07a13 13 0 002.2-.29l.33 1.67a9.94 9.94 0 01-2.69.39c-4.19 0-5.93-1.72-5.93-5.82M160.7 30.87h2.12v5.47a6.78 6.78 0 013.82-1.51c3.35 0 3.53 2.2 3.53 4.29v7.15h-2.08v-6.85c0-1.81-.28-2.73-2.08-2.73a7.62 7.62 0 00-3.19 1.16v8.42h-2.12zM172.92 40.88c0-4.52 2.25-6.05 5.21-6.05s4.27 2 4.27 5.61v.76h-7.34c0 3 1.68 3.53 3.84 3.53a15.58 15.58 0 002.89-.45l.34 1.7a12.52 12.52 0 01-3.72.53c-3.35 0-5.49-1.31-5.49-5.63m7.25-1.17c0-2-.71-3.33-2.29-3.33s-2.61 1.14-2.78 3.33z"/></g><g fill="#9aa5d1"><path d="M185.43 31.83h4.27c3.35 0 4.88 1.4 4.88 3.67a3.24 3.24 0 01-1.82 3 3.63 3.63 0 012.86 3.51c0 2.45-1.45 4.21-5.31 4.21h-4.88zm4.1 6.23c2 0 2.84-.64 2.84-2.23s-1.1-2.29-3.12-2.29h-1.62v4.52zm.41 6.43c2 0 3.46-.45 3.46-2.37s-1.48-2.43-4-2.43h-1.78v4.8zM197.76 43.22c0-2.76 2.49-3.35 4.43-3.37h2.46v-1.28c0-1.56-.82-1.88-2.62-1.88a12.43 12.43 0 00-2.94.51l-.43-1.62a10.48 10.48 0 013.84-.73c2.76 0 4.23.86 4.23 3.14v5.84c0 .7.49.84 1 .88l-.1 1.66a3.24 3.24 0 01-.45 0c-1 0-2.21-.37-2.39-1.35a5.89 5.89 0 01-3.68 1.39c-2.12 0-3.37-1.1-3.37-3.21m6.89.54v-2.56l-2.39.1c-1.54 0-2.41.74-2.41 1.76 0 1.27.73 1.69 1.79 1.69a8.12 8.12 0 003-1M210.4 35.11h2.12v1.23a6.8 6.8 0 013.83-1.51c3.35 0 3.55 2.2 3.55 4.31v7.13h-2.1v-6.83c.31-2-.1-2.89-2.09-2.75a7.7 7.7 0 00-3.19 1.16v8.42h-2.12zM223.21 30.87h2.12v15.4h-2.12zm5.25 13.48l-3.06-3.92 4.49-5.32h2.39l-4.56 5.19 2.09 2.54a5.87 5.87 0 002.75 2l-.34 1.59a4.57 4.57 0 01-3.76-2.1"/></g></svg>