<svg id="Bank_of_England_logo" xmlns="http://www.w3.org/2000/svg" viewBox="0 0 1000 1000" width="200px" height="200px"><defs><style>.cls-1{fill:#12273f;}.cls-2{fill:#fff;}</style></defs><circle class="cls-1" cx="500.02" cy="500.07" r="499.98"/><path class="cls-2" d="M378,307.65c0-.38-.29-.42-.45-.19-5.21,7.34-20.64,13.83-25,29.19a2,2,0,0,1-2.52,1.4c-4.24-1.17-11.07-1.61-16.76,1.77a1.64,1.64,0,0,1-1,.24c-9.56-.8-26.52,1.53-36,12.9a.73.73,0,0,0,.88,1.11c25.49-12.1,42.61-1,47.47,2.62,24.29,18.07,52.27,65.22,91.84,76.15a1.44,1.44,0,0,1,.63.4,1.69,1.69,0,0,1,.3.75c1.2,6.85,6.71,11.61,12.3,10.63,4.81-.84,8.1-5.65,8.18-11.33a.61.61,0,0,1,.43-.59c.17-.05.34-.09.5-.15,23.72-7.72,36.69-58.12,55.8-63.85a.9.9,0,0,0,.64-1.12c-2-5.87-10.1-12-20.33-12.3a1.61,1.61,0,0,1-1.08-.48c-4.24-4.19-17.08-8.57-22.23-6.32a.54.54,0,0,0-.25.7c12.13,28.07,3.7,58.08-15.9,69.66a.69.69,0,0,1-.78,0,.9.9,0,0,1,.08-1c15.37-18.63,15.1-51.37,7.53-67.41-.1-.2-.22-.18-.31-.15s-.14.08-.14.27c-.16,6-5.09,11.91-8.23,18.47a1.3,1.3,0,0,1-2.42-.17c-2.2-7.75.58-13.17,1.49-20.79a194.61,194.61,0,0,0,1.94-25.4c5.65-.51,8.76-1.83,11.13-7.7,1.8-4.46,4.8-10,8-18A68.52,68.52,0,0,0,478.54,279c.56-4.91-.09-8.25-.35-13-.27-5.06,1.72-8.13,1.44-13.17a.83.83,0,0,0-.33-.61,7.46,7.46,0,0,0-3.72-1.53c-2.77-.34-4.88,3.17-2.26,4.59,3.48,1.9,3.21,5.79,2.84,7.43a.69.69,0,0,1-.72.51c-1.42-.09-1.5-.81-2.71-1.14a12.17,12.17,0,0,0-4.46-.52c-.41,0-.49.15-.52.62-.1,1.54.77,5.47-2.68,7.56a.59.59,0,0,1-.83-.23c-1.43-2.76-2.7-8.41-3.67-11.64-1.77-5.9,2-9.86,3.82-10.67,3.1-1.43,8.15-1.56,11.19-1.23a4.67,4.67,0,0,1,2.78,1.33c.17.16.3,0,.27-.17-2.27-11.11-1.22-19.7-7-25.77-3.43-3.58-17.23-8.78-34.7-6.94-11,1.15-16.7,5.77-29,3.35a.74.74,0,0,1,0-1.44c18.6-4.77,22.7-19.36,51.7-17.21C471,200,471,207.88,470.78,211a1.08,1.08,0,0,0,.59,1.05c5.34,2.88,10.19,10.4,11.1,16.5a.69.69,0,0,0,1.32.17c1.48-3.55,2.44-7.72,1-12-1.29-4-5.23-4.64-6.6-9.26-5.52-23.81-41.09-13.63-55.46-18.9-7.76-2.84-27.74.37-48.65,16.83-9.15,7.19-14.88,20.51-14,41.14-.11,5.88-2.24,25.13,8.33,42.24,3,4.79,7.25,8.27,12.22,13.43A.19.19,0,0,0,381,302c-1.84-12.13-13.66-23.91-13.12-44.9,1.14-10.78,6.81-20.66,12.37-22.91a.68.68,0,0,1,.88.86c-1.46,4.35-2.37,11.22-1.1,15.56a.69.69,0,0,0,1.06.34c5.09-3.29,6.2-12.74,13.4-20,4.88-4.89,14.56-3.82,26.39-8.47a.75.75,0,0,1,1,.81c-2.31,12.78-14.72,16.6-18.44,35.06-2.48,12.34-18.83,16.52-19.75,20.29a.64.64,0,0,0,.13.53c5.57,7.59,13.93,4.94,15.21,7.5-2.44,2-6.55,1.76-6.15,5.18,4.34,22,1.58,35.32-2.64,43.47-3.16,6.09-12.8,8.33-21.67,9.26a1.31,1.31,0,0,1-1.42-1.62c.86-3.48,3.62-8.65,7.43-13.67,1.69-2.23-1.47-1.75-5-1.28a1.11,1.11,0,0,1-1-1.83C372.24,322.13,377.76,316,378,307.65Zm88.61-11.32c.84.46,1.09,1,.48,1.57-.2.19-1.55.58-1.76.82-2.19,2.45-5,3.82-9.87,2.95-6.2-1.13-9.63-5.35-15.9-4.95-.9,0-.46-2.38,2.09-2.4,3.05,0,5.61-2.89,12.06-3.34,2.27-.16,3.33,1.77,6,.85S464.62,295.23,466.58,296.33Zm-6.26-20.8a5.49,5.49,0,0,1,4.21,3.76c.63,1.67-3.46,5.36-5.73,5.12s-5.16-2.21-8.39-2.57c-1.58-.17-1.22-1.79.11-3.14a8.06,8.06,0,0,1,3.39-1.75C456.6,276.21,457.33,275.05,460.32,275.53Zm-35.38-18.87c2.18-1.76,3.19-2.93,6.47-4.4,2.78-1.24,2.35-4.33-4.92-3.36-2,.27-1.68-1.07,1.38-3.11,5.25-3.49,6.06-3.78,16.57-1.81a40.54,40.54,0,0,1,8.21,2.29c.69.27,1.74,2.69.6,5-2.6,5.29-3.68,9.23-8.21,8.13-5-1.2-7.59.78-13.2-.94-3.39-1.05-4.4.25-5.6.6C423.65,259.82,422.88,258.34,424.94,256.66Zm-10.22,52c8.54,5.79,21,13.07,36.18,14,2.07.34-3.27,10.18-10.52,11.21-12,1.72-23.74-15-27.1-24.07A1,1,0,0,1,414.72,308.62ZM376.5,350.88c39.12,14.39,45.76,49.71,60.1,66.55a1,1,0,0,1,.09,1.24,1,1,0,0,1-1.22.17c-25-10.52-32.53-43.39-59.81-66.57A.82.82,0,0,1,376.5,350.88Z"/><path class="cls-2" d="M783.54,762.33a1.69,1.69,0,0,0,3-1.6C716.55,610,584,618.5,520.56,506.15c-.66-1.16-2.53-.19-2,1.05C574.21,646.94,708.84,644.41,783.54,762.33Z"/><path class="cls-2" d="M145.89,610.14a.69.69,0,0,0,1.37.14C160.79,554.52,195,535.37,224.8,474c18.16-37.43,20.51-67.72,48.95-101.24a.72.72,0,0,0-.94-1.08c-38,24.76-44.37,66.33-62.84,97.49C183.49,513.78,142.91,520.77,145.89,610.14Z"/><path class="cls-2" d="M391.09,648.45c14.71-9.81,36.09-17,56.8-16.61,38.3.69,58.26-8.46,69.87-8.46a46,46,0,0,1,24.85,6.86c1.42.9,3,0,2.57-2.15-1.11-5.27-3.49-11.82-9-16-6.77-5.12-25.73-12.09-39.41-22.27-14.55-10.82-33.51-4.33-56.61-3.5-24.37.87-29.5-2.07-42.44-1.56-16.9.68-26.21,2.87-31.73,8C359,599.26,362,607.45,364,611a2.06,2.06,0,0,0,2.92.66c6.05-4.06,26.34-13.61,61.7-4.71a1.36,1.36,0,0,1-.22,2.68c-34.53,1.79-47.14,8.45-53.46,16a2.18,2.18,0,0,0-.2,2.57c3.61,5.66,5.92,13.81,9.8,19.13A4.78,4.78,0,0,0,391.09,648.45Z"/><path class="cls-2" d="M537.81,656.58a59.79,59.79,0,0,0-15,7.72,1.47,1.47,0,0,0,0,2.33c13.55,10.63,37.67,27.51,44.61,43.71C585.32,752,615.31,802.65,651.89,848a1.83,1.83,0,0,0,3.22-1.52c-10.06-47.42-13-113.14-25.73-138.58-7.3-14.59-44.31-44.54-72.76-61.29-26.55-12.38-52.75-2.84-72.81-.18a1.2,1.2,0,0,0-.19,2.34c20.06,6.67,39.5,1.86,54,4.88A1.51,1.51,0,0,1,537.81,656.58Z"/><path class="cls-2" d="M380,523.69c7.84,22.28,15.64,32.58,28.06,43.45s55.16,7.74,61.6,4.14c4.47-2.51,5.76-8.09,6.64-11.28,3.37-12.16,5.62-43.91,9.06-48.91C496.2,495.3,502,482.77,502.41,468.9c.37-11.78-4.48-23.32-8.37-48.13a1.45,1.45,0,0,0-2.66-.58c-5,7.77-13.94,18.55-26.92,23.74a1.33,1.33,0,0,0-.47.31c-8.48,8.7-11.18,25.48-14.74,34.16a2.48,2.48,0,0,1-4.71-.37c-2.39-9.92-7.16-22.54-14.81-32.9a1.39,1.39,0,0,0-.8-.52c-30.66-7.08-47.78-26.51-62.33-45a2,2,0,0,0-3.52,1.15c-1.4,33.55-6.43,60.61-17.26,77.33a5.69,5.69,0,0,0-.93,3.15c.19,14.48,3.28,41.27,10.35,57.43,7.24,16.56,16.5,26.14,21.22,26.91,9.45,2.58-1-19.77-1.36-41.06A2.51,2.51,0,0,1,380,523.69Z"/><path class="cls-2" d="M842.43,320.52a.73.73,0,0,1-.54.47,194.67,194.67,0,0,0-29.81,8.65.74.74,0,0,1-.84-1.15c10-11.85,5.34-26.32,11.41-34.37a.75.75,0,0,0-.84-1.16c-29.36,9.61-29.29,32.18-25.54,42.81a.72.72,0,0,1-.36.89,191.17,191.17,0,0,0-21.1,12.06.73.73,0,0,1-1.07-.92c6.11-14-2.15-26.46,1.48-35.76a.75.75,0,0,0-1.12-.9c-24.8,16.63-19.87,37.46-13.65,47.17a.73.73,0,0,1-.16,1,208.69,208.69,0,0,0-19.7,17.95c-.71-.32-1.41-.62-2.14-1a29.49,29.49,0,0,0-9.31-2.37c-5.17.08-9,.17-16.7.4-3.62-1-5-2.21-9.26-.61-6.92,2.6-9.85,3.44-12,5.12-6.56,5.21-10.8,9.17-13.2,12.52-3.2,4.48-4.92,9.12-6.6,12.87-3.9,5.75-13,16.93-29,29.72-4.29,3.44-21,14.47-31.39,22.49-8.22-2.62-18.47-11.44-27.36-18.32s-15.41-13.27-21.28-21.71c-6.64-9.56-9-15.61-19.65-27.09-4.64-5-11.88-9.79-19.51-13.59a1.62,1.62,0,0,0-.71-.21c-4.36-.18-14.84,6.29-17.74,14.64-2.82,8.15-4.94,35.51,2.82,50.26a2.75,2.75,0,0,0,3.47,1.25c2.73-1.08,5.69-1.22,7.64.25,7.22,5.46,9.4,8.1,23.26,22.62,18.12,19,33.22,26.81,51.57,33.64,4.36,1.62,17.79,7.57,22.22,7.27s12.11-5.68,26.48-18c14.9-12.8,22.21-24,28.6-33.72,3.16-4.83,23-30.48,24.57-31.37,1.44-.8,5.62-1.1,10-1.32a1.16,1.16,0,0,1,1.06,1.75c-9.11,15.85-14.73,29.89-17.45,38.93-2.81,9.35,7,6.65,8.38,1.27,3-11.46,8.84-26,17.7-41.38a2.51,2.51,0,0,1,2-1.24c6.42-.48,8.7-.95,10-1.31a6.36,6.36,0,0,0,4.44-5.59c.06-1.26.47-1.55,3.11-2.53,1.63-.61,3.38-3.29,3.49-5.34a2.45,2.45,0,0,0-.89-2.11,1,1,0,0,1,.13-1.5c1.08-.77,3-1.28,3.9-2.58a12.93,12.93,0,0,0,2.14-4.86.81.81,0,0,1,.67-.64c2.69-.42,5.41,0,7.15-1.14,3.17-2.14,2.94-2.32,3.3-6.58.14-1.73-1.57-3-2.48-3.52-.72-.41-1.19-.69-1.85-1a.63.63,0,0,0-.73.13l-.57.7a3,3,0,0,1-2,1.22c-.87.05-1.79,0-2.54,0a.71.71,0,0,1-.58-1.17,206.64,206.64,0,0,1,32.29-28.41.76.76,0,0,1,1.13.33c12,27.86,44.92,18.1,57,12.93a.73.73,0,0,0-.36-1.39c-20.3,1.9-27.51-16.55-49.52-15.78a.75.75,0,0,1-.45-1.37,196.93,196.93,0,0,1,25.17-13.61.77.77,0,0,1,1,.37c13.53,28.38,46.45,16.16,58.34,10.1a.73.73,0,0,0-.45-1.36c-18.95,3.07-27.54-12.6-46.74-12.58a.74.74,0,0,1-.27-1.43,204.64,204.64,0,0,1,21.67-6.74,1.87,1.87,0,0,1,1.21.11C865.69,333,881,317,903.64,317.12a.74.74,0,0,0,.46-1.34C886.59,302.65,851,298,842.43,320.52ZM724.69,392.41c-2.52-.16-9.67-1.68-13.93-1.91a5,5,0,0,0,.86,6.15.57.57,0,0,1-.56,1c-4.48-1.21-6.73-1.68-8.54-.08a3.39,3.39,0,0,0-.48,3.73,1.26,1.26,0,0,1-.74,1.68,4.19,4.19,0,0,0-1.11.6,2.71,2.71,0,0,0-.74,3.19,17.7,17.7,0,0,0,2.6,4.24,11.81,11.81,0,0,0,2.36,1.85.81.81,0,0,1-.42,1.48c-7.07.15-14-3.31-16.07-10.5a1.42,1.42,0,0,1,.7-1.6c8.55-4.85,13.52-13.65,15.79-15.52s8.12-.57,12.27.34c3.92.85,11.12,3,17.19-1.46a.63.63,0,0,1,1,.42C735.42,391,728.39,392.65,724.69,392.41Z"/><path class="cls-2" d="M365.23,676.52a1.42,1.42,0,0,1,2.76,0c1.35,5.54,2.85,13.51,3.75,15.44a5.63,5.63,0,0,0,4.14,3.17,2.07,2.07,0,0,0,2.25-2.29c-.35-3.82-1.13-10.87-1-15.36.08-3.57-.62-18.17-1.65-22-3-11.47-5.3-21.75-12.08-30.85-2.66-3.57-44.05-48.28-48.32-52.94S296.62,547.83,286.37,534a1,1,0,0,1-.23-.45,2.43,2.43,0,0,1,0-.64c1.09-7.26,8.47-21.54,16.17-38a1.81,1.81,0,0,0,.13-1.17C294,457.39,287,427,282.18,406.23a.65.65,0,0,0-1.26,0c-4.36,14.91-8.94,35.25-11.17,42.26-3.6,11.31-19.6,48.09-23.55,65a123,123,0,0,0-2.76,18.8c-.51,6.49-3.45,16.39.86,22.09,1.46,1.92,2.9,3.78,4.35,5.61a223.71,223.71,0,0,0,21.75,24.21c16.86,16.16,45.68,35.47,49.81,39.6,6.91,6.9,7.25,7.42,8.63,20,.56,5.13.54,26.29,1.38,28.3,1.36,3.21,3.59,4.08,7.87,9a2.22,2.22,0,0,1,.37.63c3,8.2,3.86,10.6,4.88,14.66.76,3,2.26,4.22,4.41,4.21a1.79,1.79,0,0,1,1.76,1.64c.14,1.83.4,3,.68,5,1.15,8.6,2.86,17.64,2.89,18.83.06,1.55,6.09,4.08,7.48-6.32,1.07-8.07.32-13.59.43-19.54C361.08,694.44,363.11,684.35,365.23,676.52Z"/><path class="cls-2" d="M286.93,319.21l5.87,1.24a1.5,1.5,0,0,0,1.79-1.77c-2-10-11.49-51.34-39.38-89.45a1.11,1.11,0,0,0-2,.46c-7.78,44.65,2.33,87.65,5,97.72a1.52,1.52,0,0,0,2.41.8l5-4a3.54,3.54,0,0,1,5.65,1.95c5.88,24.68,31.09,130.43,58.37,244.83,2.89,12.44,7.32,18,14.54,21.09a1.55,1.55,0,0,0,2.13-1.78L316.17,463.79a1.71,1.71,0,0,1,.07-1c6.19-15.48,11.51-30.92,14.51-43.91a1.07,1.07,0,0,1,2.08,0c1.23,5,2.46,15.12-1.74,29.84-2.23,7.81,0,12.74,2,16.62a.94.94,0,0,0,1.63.09c10.67-16.84,23.47-51.21,12.06-88.14-4-13-28.43-29.17-43.08-17v.1a35.27,35.27,0,0,0-7.73,10,1.19,1.19,0,0,1-2.19-.29c-5-21.17-8.89-37.32-11.09-46.57A3.56,3.56,0,0,1,286.93,319.21Z"/><path class="cls-2" d="M907.85,363.22s-1-3.14-3.84-2.09c-2.68,1-1.72,3.92-1.72,3.92A416.87,416.87,0,0,1,923.58,504.6c-3.19,178.14-117.52,328.21-275.69,385.3a6.22,6.22,0,0,1-7-2C592.26,825.3,573,760.18,548.82,717.24c-12.24-21.75-49-39-79.51-65.35-1.6-1.38-3.61-2.34-8-2.5-12.19-.47-48.47-6.86-73.3,34-6.38,10.52,19.16,49.36,29.85,55,22.64,12,55.21-8.24,72.6-20.52a3,3,0,0,1,4.24,3.93c-11.55,19.19-58.41,97.32-82.13,69.89a1.58,1.58,0,0,0-2.77,1.21c3.48,25.57,20.2,56.13,41.7,45,25.57-13.18,35.08-37,51.3-79.41a2.47,2.47,0,0,1,4.77,1.12c-5.38,52.6-21.29,117-59,148.53a6.94,6.94,0,0,1-5.49,1.58q-10.35-1.58-20.54-3.66a1.43,1.43,0,0,1-1.11-1.07c-2.56-10.71-23.62-99-48.72-204.14a1.28,1.28,0,0,0-2.38-.32c-2,3.83-4.22,11.09-5,19.69l0,.5c21.51,90.22,39.17,164.25,42.9,179.93a1.5,1.5,0,0,1-1.81,1.8,411.93,411.93,0,0,1-40.58-12.15,1.48,1.48,0,0,1-.93-1.82c6.47-22.39,10.52-47.31,12.38-73.27l0-.36c-5-21.33-10.21-43.63-15.53-66.41h0c-.35-1.75-1.34-3-2.7-2.77s-2.09,1.4-2,3.51h0c.33,5.7.56,11.31.68,16.8a1.19,1.19,0,0,1-1.31,1.22c-23.2-2.23-47.8-5.6-71.65-9.55a1.25,1.25,0,0,1-.8-2c15.55-20.77,31.34-41.23,47-61.19a1.23,1.23,0,0,0,.24-1,25.18,25.18,0,0,0-2.93-8.22l-.39-.37c-4.51-3.08-8.45-5-10.44-7.59a1.23,1.23,0,0,0-1.93,0c-13.19,16.64-27.34,34.67-42,53.63a1.23,1.23,0,0,1-2.21-.85c.62-6.72,1.27-13.55,2-20.45a1.23,1.23,0,0,1,.26-.65c14-18.19,27.94-35.87,41.62-53a1.33,1.33,0,0,0,.29-.88c-.18-3.48-.38-7.06-.61-10.53a1.19,1.19,0,0,0-2.13-.67c-11.07,14.05-22.82,29-34.89,44.51a1.26,1.26,0,0,1-2.25-.89c2.11-19.51,4.47-39.09,7.07-57.6a1.24,1.24,0,0,1,1.36-1.06c8.58.83,17.13,1.61,25.45,2.31a1,1,0,0,0,.74-1.82c-1-.82-2.14-1.51-3.14-2.24-7.6-5.56-16.91-12.47-27.89-21.35a1.48,1.48,0,0,0-.8-.32c-39.65-3.15-79.19-6.89-97.68-8.83-6.9-.72-13.34.88-16.64,9.76-12.22,32.83-18.46,62.76-22.38,88.64a1.51,1.51,0,0,1-2.81.5,415.49,415.49,0,0,1-50.1-206C92.94,258.52,285.91,73.86,517,79.81c141.63,3.64,265.17,77.56,337.85,187.71,0,0,2,2.86,4.51,1.3s.43-4.47.43-4.47c-74.7-113.78-202-190.24-348-194.2A429.18,429.18,0,0,0,70,492c-4.5,239.76,188.05,437.3,428.62,438.16,232.64.83,428.5-192.06,431.45-424.68A429.56,429.56,0,0,0,907.85,363.22ZM263.22,835.75c.25-4,.57-9.06,1-15a1.28,1.28,0,0,1,1.57-1.17l1.51.35a1.25,1.25,0,0,1,.82.65c4.17,8.36,8.53,16.79,13.27,25.78a1.15,1.15,0,0,1-1.64,1.5q-8.07-5.24-15.88-10.83A1.47,1.47,0,0,1,263.22,835.75ZM297.09,858c-5.68-9.89-11.82-21.09-18.23-33.28a1.25,1.25,0,0,1,1.37-1.81,653,653,0,0,0,72.41,11.8,1.26,1.26,0,0,1,1.12,1.43,345.82,345.82,0,0,1-9.18,44.15,1.5,1.5,0,0,1-2,1,414.83,414.83,0,0,1-44.16-22,4.62,4.62,0,0,1-.8-.6A3.22,3.22,0,0,1,297.09,858Zm-64-234.41c11.71,1.34,24.3,2.72,37.09,4a1.23,1.23,0,0,1,1.1,1.41c-6,40.42-10.87,87-14.65,135a1.25,1.25,0,0,0,1,1.32c29.92,6.1,63.8,11.72,99.14,15.3a1.26,1.26,0,0,1,1.13,1.26c-.18,14.38-1,28-2.4,40.72a1.22,1.22,0,0,1-1.34,1.08c-32.84-3.28-67.53-9.74-99.13-17.25a1.19,1.19,0,0,0-1.48,1.09c-.37,5.81-.76,12.07-1.11,18.07a1.51,1.51,0,0,1-2.43,1.1,419.89,419.89,0,0,1-78.24-79.78,1.51,1.51,0,0,1,1.64-2.34C184.75,748,199.17,751.9,215.9,756a1.26,1.26,0,0,0,1.56-1.12c3.84-46.51,8.52-89.74,14.25-130.25A1.2,1.2,0,0,1,233.05,623.59Zm-40.55-5c7.67,1,17,2.17,27.31,3.4a1.27,1.27,0,0,1,1.1,1.42c-2.57,18-4.89,36.21-6.92,54.07a1.24,1.24,0,0,1-2.39.3c-7.79-19.92-14.77-39.42-20.43-57.61A1.22,1.22,0,0,1,192.5,618.64Zm-26.86,19.12c.66-2.14,1.32-4.26,2-6.31a42.39,42.39,0,0,1,2.74-6.61,1,1,0,0,1,1.85.17c9.15,27.11,24,66.9,36.74,98.09a3.68,3.68,0,0,1,.21.82,4.81,4.81,0,0,1,0,1c-.38,4.33-1,11.84-1.37,16.32a1.11,1.11,0,0,1-1.37,1l-1-.25a1.16,1.16,0,0,1-.66-.69c-11.92-28.13-28.46-70.67-39.1-102.74A1.18,1.18,0,0,1,165.64,637.76Zm-3.68,13a1.09,1.09,0,0,1,2.13-.13c7.58,23.4,18.95,54.41,31.76,86.83a1.26,1.26,0,0,1-1.48,1.68c-14.88-3.8-27-7.44-35-10.58a2.64,2.64,0,0,1-1.25-1q-3.66-5.52-7.17-11.15a3.06,3.06,0,0,1-.44-2A479.28,479.28,0,0,1,162,650.8Z"/></svg>