<?xml version="1.0" encoding="utf-8"?>
<svg xmlns="http://www.w3.org/2000/svg" xmlns:xlink="http://www.w3.org/1999/xlink" width="600" height="400" viewBox="0 0 2400 1600">
<defs>
  <clipPath id="clip330">
    <rect x="0" y="0" width="2400" height="1600"/>
  </clipPath>
</defs>
<path clip-path="url(#clip330)" d="
M0 1600 L2400 1600 L2400 0 L0 0  Z
  " fill="#12273f" fill-rule="evenodd" fill-opacity="1"/>
<defs>
  <clipPath id="clip331">
    <rect x="480" y="0" width="1681" height="1600"/>
  </clipPath>
</defs>
<path clip-path="url(#clip330)" d="
M287.366 1423.18 L2352.76 1423.18 L2352.76 47.2441 L287.366 47.2441  Z
  " fill="#12273f" fill-rule="evenodd" fill-opacity="1"/>
<defs>
  <clipPath id="clip332">
    <rect x="287" y="47" width="2066" height="1377"/>
  </clipPath>
</defs>
<polyline clip-path="url(#clip332)" style="stroke:#ffffff; stroke-linecap:round; stroke-linejoin:round; stroke-width:2; stroke-opacity:0.1; fill:none" points="
  665.716,1423.18 665.716,47.2441 
  "/>
<polyline clip-path="url(#clip332)" style="stroke:#ffffff; stroke-linecap:round; stroke-linejoin:round; stroke-width:2; stroke-opacity:0.1; fill:none" points="
  1076.34,1423.18 1076.34,47.2441 
  "/>
<polyline clip-path="url(#clip332)" style="stroke:#ffffff; stroke-linecap:round; stroke-linejoin:round; stroke-width:2; stroke-opacity:0.1; fill:none" points="
  1486.96,1423.18 1486.96,47.2441 
  "/>
<polyline clip-path="url(#clip332)" style="stroke:#ffffff; stroke-linecap:round; stroke-linejoin:round; stroke-width:2; stroke-opacity:0.1; fill:none" points="
  1897.58,1423.18 1897.58,47.2441 
  "/>
<polyline clip-path="url(#clip332)" style="stroke:#ffffff; stroke-linecap:round; stroke-linejoin:round; stroke-width:2; stroke-opacity:0.1; fill:none" points="
  2308.2,1423.18 2308.2,47.2441 
  "/>
<polyline clip-path="url(#clip330)" style="stroke:#ffffff; stroke-linecap:round; stroke-linejoin:round; stroke-width:4; stroke-opacity:1; fill:none" points="
  287.366,1423.18 2352.76,1423.18 
  "/>
<polyline clip-path="url(#clip330)" style="stroke:#ffffff; stroke-linecap:round; stroke-linejoin:round; stroke-width:4; stroke-opacity:1; fill:none" points="
  665.716,1423.18 665.716,1404.28 
  "/>
<polyline clip-path="url(#clip330)" style="stroke:#ffffff; stroke-linecap:round; stroke-linejoin:round; stroke-width:4; stroke-opacity:1; fill:none" points="
  1076.34,1423.18 1076.34,1404.28 
  "/>
<polyline clip-path="url(#clip330)" style="stroke:#ffffff; stroke-linecap:round; stroke-linejoin:round; stroke-width:4; stroke-opacity:1; fill:none" points="
  1486.96,1423.18 1486.96,1404.28 
  "/>
<polyline clip-path="url(#clip330)" style="stroke:#ffffff; stroke-linecap:round; stroke-linejoin:round; stroke-width:4; stroke-opacity:1; fill:none" points="
  1897.58,1423.18 1897.58,1404.28 
  "/>
<polyline clip-path="url(#clip330)" style="stroke:#ffffff; stroke-linecap:round; stroke-linejoin:round; stroke-width:4; stroke-opacity:1; fill:none" points="
  2308.2,1423.18 2308.2,1404.28 
  "/>
<path clip-path="url(#clip330)" d="M613.043 1468.75 L642.719 1468.75 L642.719 1472.69 L613.043 1472.69 L613.043 1468.75 Z" fill="#ffffff" fill-rule="evenodd" fill-opacity="1" /><path clip-path="url(#clip330)" d="M662.811 1454.1 Q659.2 1454.1 657.371 1457.66 Q655.566 1461.2 655.566 1468.33 Q655.566 1475.44 657.371 1479.01 Q659.2 1482.55 662.811 1482.55 Q666.445 1482.55 668.251 1479.01 Q670.08 1475.44 670.08 1468.33 Q670.08 1461.2 668.251 1457.66 Q666.445 1454.1 662.811 1454.1 M662.811 1450.39 Q668.621 1450.39 671.677 1455 Q674.756 1459.58 674.756 1468.33 Q674.756 1477.06 671.677 1481.67 Q668.621 1486.25 662.811 1486.25 Q657.001 1486.25 653.922 1481.67 Q650.867 1477.06 650.867 1468.33 Q650.867 1459.58 653.922 1455 Q657.001 1450.39 662.811 1450.39 Z" fill="#ffffff" fill-rule="evenodd" fill-opacity="1" /><path clip-path="url(#clip330)" d="M682.973 1479.7 L687.857 1479.7 L687.857 1485.58 L682.973 1485.58 L682.973 1479.7 Z" fill="#ffffff" fill-rule="evenodd" fill-opacity="1" /><path clip-path="url(#clip330)" d="M702.07 1481.64 L718.39 1481.64 L718.39 1485.58 L696.445 1485.58 L696.445 1481.64 Q699.107 1478.89 703.691 1474.26 Q708.297 1469.61 709.478 1468.27 Q711.723 1465.74 712.603 1464.01 Q713.505 1462.25 713.505 1460.56 Q713.505 1457.8 711.561 1456.07 Q709.64 1454.33 706.538 1454.33 Q704.339 1454.33 701.885 1455.09 Q699.454 1455.86 696.677 1457.41 L696.677 1452.69 Q699.501 1451.55 701.954 1450.97 Q704.408 1450.39 706.445 1450.39 Q711.815 1450.39 715.01 1453.08 Q718.204 1455.77 718.204 1460.26 Q718.204 1462.39 717.394 1464.31 Q716.607 1466.2 714.501 1468.8 Q713.922 1469.47 710.82 1472.69 Q707.718 1475.88 702.07 1481.64 Z" fill="#ffffff" fill-rule="evenodd" fill-opacity="1" /><path clip-path="url(#clip330)" d="M1053.72 1454.1 Q1050.11 1454.1 1048.28 1457.66 Q1046.48 1461.2 1046.48 1468.33 Q1046.48 1475.44 1048.28 1479.01 Q1050.11 1482.55 1053.72 1482.55 Q1057.36 1482.55 1059.16 1479.01 Q1060.99 1475.44 1060.99 1468.33 Q1060.99 1461.2 1059.16 1457.66 Q1057.36 1454.1 1053.72 1454.1 M1053.72 1450.39 Q1059.53 1450.39 1062.59 1455 Q1065.67 1459.58 1065.67 1468.33 Q1065.67 1477.06 1062.59 1481.67 Q1059.53 1486.25 1053.72 1486.25 Q1047.91 1486.25 1044.83 1481.67 Q1041.78 1477.06 1041.78 1468.33 Q1041.78 1459.58 1044.83 1455 Q1047.91 1450.39 1053.72 1450.39 Z" fill="#ffffff" fill-rule="evenodd" fill-opacity="1" /><path clip-path="url(#clip330)" d="M1073.88 1479.7 L1078.77 1479.7 L1078.77 1485.58 L1073.88 1485.58 L1073.88 1479.7 Z" fill="#ffffff" fill-rule="evenodd" fill-opacity="1" /><path clip-path="url(#clip330)" d="M1098.95 1454.1 Q1095.34 1454.1 1093.51 1457.66 Q1091.71 1461.2 1091.71 1468.33 Q1091.71 1475.44 1093.51 1479.01 Q1095.34 1482.55 1098.95 1482.55 Q1102.59 1482.55 1104.39 1479.01 Q1106.22 1475.44 1106.22 1468.33 Q1106.22 1461.2 1104.39 1457.66 Q1102.59 1454.1 1098.95 1454.1 M1098.95 1450.39 Q1104.76 1450.39 1107.82 1455 Q1110.9 1459.58 1110.9 1468.33 Q1110.9 1477.06 1107.82 1481.67 Q1104.76 1486.25 1098.95 1486.25 Q1093.14 1486.25 1090.06 1481.67 Q1087.01 1477.06 1087.01 1468.33 Q1087.01 1459.58 1090.06 1455 Q1093.14 1450.39 1098.95 1450.39 Z" fill="#ffffff" fill-rule="evenodd" fill-opacity="1" /><path clip-path="url(#clip330)" d="M1465.14 1454.1 Q1461.53 1454.1 1459.7 1457.66 Q1457.9 1461.2 1457.9 1468.33 Q1457.9 1475.44 1459.7 1479.01 Q1461.53 1482.55 1465.14 1482.55 Q1468.78 1482.55 1470.58 1479.01 Q1472.41 1475.44 1472.41 1468.33 Q1472.41 1461.2 1470.58 1457.66 Q1468.78 1454.1 1465.14 1454.1 M1465.14 1450.39 Q1470.95 1450.39 1474.01 1455 Q1477.09 1459.58 1477.09 1468.33 Q1477.09 1477.06 1474.01 1481.67 Q1470.95 1486.25 1465.14 1486.25 Q1459.33 1486.25 1456.25 1481.67 Q1453.2 1477.06 1453.2 1468.33 Q1453.2 1459.58 1456.25 1455 Q1459.33 1450.39 1465.14 1450.39 Z" fill="#ffffff" fill-rule="evenodd" fill-opacity="1" /><path clip-path="url(#clip330)" d="M1485.3 1479.7 L1490.19 1479.7 L1490.19 1485.58 L1485.3 1485.58 L1485.3 1479.7 Z" fill="#ffffff" fill-rule="evenodd" fill-opacity="1" /><path clip-path="url(#clip330)" d="M1504.4 1481.64 L1520.72 1481.64 L1520.72 1485.58 L1498.78 1485.58 L1498.78 1481.64 Q1501.44 1478.89 1506.02 1474.26 Q1510.63 1469.61 1511.81 1468.27 Q1514.05 1465.74 1514.93 1464.01 Q1515.84 1462.25 1515.84 1460.56 Q1515.84 1457.8 1513.89 1456.07 Q1511.97 1454.33 1508.87 1454.33 Q1506.67 1454.33 1504.22 1455.09 Q1501.78 1455.86 1499.01 1457.41 L1499.01 1452.69 Q1501.83 1451.55 1504.28 1450.97 Q1506.74 1450.39 1508.78 1450.39 Q1514.15 1450.39 1517.34 1453.08 Q1520.53 1455.77 1520.53 1460.26 Q1520.53 1462.39 1519.72 1464.31 Q1518.94 1466.2 1516.83 1468.8 Q1516.25 1469.47 1513.15 1472.69 Q1510.05 1475.88 1504.4 1481.64 Z" fill="#ffffff" fill-rule="evenodd" fill-opacity="1" /><path clip-path="url(#clip330)" d="M1874.72 1454.1 Q1871.11 1454.1 1869.28 1457.66 Q1867.48 1461.2 1867.48 1468.33 Q1867.48 1475.44 1869.28 1479.01 Q1871.11 1482.55 1874.72 1482.55 Q1878.36 1482.55 1880.16 1479.01 Q1881.99 1475.44 1881.99 1468.33 Q1881.99 1461.2 1880.16 1457.66 Q1878.36 1454.1 1874.72 1454.1 M1874.72 1450.39 Q1880.53 1450.39 1883.59 1455 Q1886.67 1459.58 1886.67 1468.33 Q1886.67 1477.06 1883.59 1481.67 Q1880.53 1486.25 1874.72 1486.25 Q1868.91 1486.25 1865.83 1481.67 Q1862.78 1477.06 1862.78 1468.33 Q1862.78 1459.58 1865.83 1455 Q1868.91 1450.39 1874.72 1450.39 Z" fill="#ffffff" fill-rule="evenodd" fill-opacity="1" /><path clip-path="url(#clip330)" d="M1894.88 1479.7 L1899.77 1479.7 L1899.77 1485.58 L1894.88 1485.58 L1894.88 1479.7 Z" fill="#ffffff" fill-rule="evenodd" fill-opacity="1" /><path clip-path="url(#clip330)" d="M1922.8 1455.09 L1910.99 1473.54 L1922.8 1473.54 L1922.8 1455.09 M1921.57 1451.02 L1927.45 1451.02 L1927.45 1473.54 L1932.38 1473.54 L1932.38 1477.43 L1927.45 1477.43 L1927.45 1485.58 L1922.8 1485.58 L1922.8 1477.43 L1907.2 1477.43 L1907.2 1472.92 L1921.57 1451.02 Z" fill="#ffffff" fill-rule="evenodd" fill-opacity="1" /><path clip-path="url(#clip330)" d="M2285.5 1454.1 Q2281.89 1454.1 2280.06 1457.66 Q2278.26 1461.2 2278.26 1468.33 Q2278.26 1475.44 2280.06 1479.01 Q2281.89 1482.55 2285.5 1482.55 Q2289.14 1482.55 2290.94 1479.01 Q2292.77 1475.44 2292.77 1468.33 Q2292.77 1461.2 2290.94 1457.66 Q2289.14 1454.1 2285.5 1454.1 M2285.5 1450.39 Q2291.31 1450.39 2294.37 1455 Q2297.45 1459.58 2297.45 1468.33 Q2297.45 1477.06 2294.37 1481.67 Q2291.31 1486.25 2285.5 1486.25 Q2279.69 1486.25 2276.62 1481.67 Q2273.56 1477.06 2273.56 1468.33 Q2273.56 1459.58 2276.62 1455 Q2279.69 1450.39 2285.5 1450.39 Z" fill="#ffffff" fill-rule="evenodd" fill-opacity="1" /><path clip-path="url(#clip330)" d="M2305.67 1479.7 L2310.55 1479.7 L2310.55 1485.58 L2305.67 1485.58 L2305.67 1479.7 Z" fill="#ffffff" fill-rule="evenodd" fill-opacity="1" /><path clip-path="url(#clip330)" d="M2331.31 1466.44 Q2328.17 1466.44 2326.31 1468.59 Q2324.49 1470.74 2324.49 1474.49 Q2324.49 1478.22 2326.31 1480.39 Q2328.17 1482.55 2331.31 1482.55 Q2334.46 1482.55 2336.29 1480.39 Q2338.14 1478.22 2338.14 1474.49 Q2338.14 1470.74 2336.29 1468.59 Q2334.46 1466.44 2331.31 1466.44 M2340.6 1451.78 L2340.6 1456.04 Q2338.84 1455.21 2337.03 1454.77 Q2335.25 1454.33 2333.49 1454.33 Q2328.86 1454.33 2326.41 1457.45 Q2323.98 1460.58 2323.63 1466.9 Q2324.99 1464.89 2327.05 1463.82 Q2329.12 1462.73 2331.59 1462.73 Q2336.8 1462.73 2339.81 1465.9 Q2342.84 1469.05 2342.84 1474.49 Q2342.84 1479.82 2339.69 1483.03 Q2336.55 1486.25 2331.31 1486.25 Q2325.32 1486.25 2322.15 1481.67 Q2318.98 1477.06 2318.98 1468.33 Q2318.98 1460.14 2322.87 1455.28 Q2326.75 1450.39 2333.3 1450.39 Q2335.06 1450.39 2336.85 1450.74 Q2338.65 1451.09 2340.6 1451.78 Z" fill="#ffffff" fill-rule="evenodd" fill-opacity="1" /><path clip-path="url(#clip330)" d="M1205.49 1532.4 L1211.35 1532.4 L1211.35 1568.04 L1205.49 1568.04 L1205.49 1532.4 M1205.49 1518.52 L1211.35 1518.52 L1211.35 1525.93 L1205.49 1525.93 L1205.49 1518.52 Z" fill="#ffffff" fill-rule="evenodd" fill-opacity="1" /><path clip-path="url(#clip330)" d="M1253.24 1546.53 L1253.24 1568.04 L1247.38 1568.04 L1247.38 1546.72 Q1247.38 1541.66 1245.41 1539.14 Q1243.43 1536.63 1239.49 1536.63 Q1234.74 1536.63 1232.01 1539.65 Q1229.27 1542.68 1229.27 1547.9 L1229.27 1568.04 L1223.38 1568.04 L1223.38 1532.4 L1229.27 1532.4 L1229.27 1537.93 Q1231.37 1534.72 1234.2 1533.13 Q1237.07 1531.54 1240.79 1531.54 Q1246.93 1531.54 1250.09 1535.36 Q1253.24 1539.14 1253.24 1546.53 Z" fill="#ffffff" fill-rule="evenodd" fill-opacity="1" /><path clip-path="url(#clip330)" d="M1290.57 1533.76 L1290.57 1539.24 Q1288.09 1537.87 1285.57 1537.2 Q1283.09 1536.5 1280.55 1536.5 Q1274.85 1536.5 1271.7 1540.13 Q1268.55 1543.73 1268.55 1550.25 Q1268.55 1556.78 1271.7 1560.4 Q1274.85 1564 1280.55 1564 Q1283.09 1564 1285.57 1563.33 Q1288.09 1562.63 1290.57 1561.26 L1290.57 1566.68 Q1288.12 1567.82 1285.48 1568.39 Q1282.87 1568.97 1279.91 1568.97 Q1271.86 1568.97 1267.11 1563.91 Q1262.37 1558.85 1262.37 1550.25 Q1262.37 1541.53 1267.15 1536.53 Q1271.95 1531.54 1280.29 1531.54 Q1283 1531.54 1285.57 1532.11 Q1288.15 1532.65 1290.57 1533.76 Z" fill="#ffffff" fill-rule="evenodd" fill-opacity="1" /><path clip-path="url(#clip330)" d="M1314.57 1536.5 Q1309.86 1536.5 1307.12 1540.19 Q1304.39 1543.85 1304.39 1550.25 Q1304.39 1556.65 1307.09 1560.34 Q1309.83 1564 1314.57 1564 Q1319.25 1564 1321.99 1560.31 Q1324.72 1556.62 1324.72 1550.25 Q1324.72 1543.92 1321.99 1540.23 Q1319.25 1536.5 1314.57 1536.5 M1314.57 1531.54 Q1322.21 1531.54 1326.57 1536.5 Q1330.93 1541.47 1330.93 1550.25 Q1330.93 1559 1326.57 1564 Q1322.21 1568.97 1314.57 1568.97 Q1306.9 1568.97 1302.54 1564 Q1298.21 1559 1298.21 1550.25 Q1298.21 1541.47 1302.54 1536.5 Q1306.9 1531.54 1314.57 1531.54 Z" fill="#ffffff" fill-rule="evenodd" fill-opacity="1" /><path clip-path="url(#clip330)" d="M1368.39 1539.24 Q1370.59 1535.29 1373.64 1533.41 Q1376.7 1531.54 1380.84 1531.54 Q1386.41 1531.54 1389.43 1535.45 Q1392.45 1539.33 1392.45 1546.53 L1392.45 1568.04 L1386.57 1568.04 L1386.57 1546.72 Q1386.57 1541.59 1384.75 1539.11 Q1382.94 1536.63 1379.21 1536.63 Q1374.66 1536.63 1372.02 1539.65 Q1369.38 1542.68 1369.38 1547.9 L1369.38 1568.04 L1363.49 1568.04 L1363.49 1546.72 Q1363.49 1541.56 1361.68 1539.11 Q1359.86 1536.63 1356.07 1536.63 Q1351.59 1536.63 1348.95 1539.68 Q1346.3 1542.71 1346.3 1547.9 L1346.3 1568.04 L1340.42 1568.04 L1340.42 1532.4 L1346.3 1532.4 L1346.3 1537.93 Q1348.31 1534.66 1351.11 1533.1 Q1353.91 1531.54 1357.76 1531.54 Q1361.64 1531.54 1364.35 1533.51 Q1367.09 1535.48 1368.39 1539.24 Z" fill="#ffffff" fill-rule="evenodd" fill-opacity="1" /><path clip-path="url(#clip330)" d="M1434.63 1548.76 L1434.63 1551.62 L1407.7 1551.62 Q1408.08 1557.67 1411.33 1560.85 Q1414.61 1564 1420.43 1564 Q1423.81 1564 1426.96 1563.17 Q1430.14 1562.35 1433.26 1560.69 L1433.26 1566.23 Q1430.11 1567.57 1426.8 1568.27 Q1423.49 1568.97 1420.08 1568.97 Q1411.55 1568.97 1406.55 1564 Q1401.59 1559.04 1401.59 1550.57 Q1401.59 1541.82 1406.3 1536.69 Q1411.04 1531.54 1419.06 1531.54 Q1426.26 1531.54 1430.43 1536.18 Q1434.63 1540.8 1434.63 1548.76 M1428.77 1547.04 Q1428.71 1542.23 1426.07 1539.37 Q1423.46 1536.5 1419.13 1536.5 Q1414.23 1536.5 1411.27 1539.27 Q1408.34 1542.04 1407.89 1547.07 L1428.77 1547.04 Z" fill="#ffffff" fill-rule="evenodd" fill-opacity="1" /><polyline clip-path="url(#clip332)" style="stroke:#ffffff; stroke-linecap:round; stroke-linejoin:round; stroke-width:2; stroke-opacity:0.1; fill:none" points="
  287.366,1310.3 2352.76,1310.3 
  "/>
<polyline clip-path="url(#clip332)" style="stroke:#ffffff; stroke-linecap:round; stroke-linejoin:round; stroke-width:2; stroke-opacity:0.1; fill:none" points="
  287.366,1128.87 2352.76,1128.87 
  "/>
<polyline clip-path="url(#clip332)" style="stroke:#ffffff; stroke-linecap:round; stroke-linejoin:round; stroke-width:2; stroke-opacity:0.1; fill:none" points="
  287.366,947.432 2352.76,947.432 
  "/>
<polyline clip-path="url(#clip332)" style="stroke:#ffffff; stroke-linecap:round; stroke-linejoin:round; stroke-width:2; stroke-opacity:0.1; fill:none" points="
  287.366,765.997 2352.76,765.997 
  "/>
<polyline clip-path="url(#clip332)" style="stroke:#ffffff; stroke-linecap:round; stroke-linejoin:round; stroke-width:2; stroke-opacity:0.1; fill:none" points="
  287.366,584.563 2352.76,584.563 
  "/>
<polyline clip-path="url(#clip332)" style="stroke:#ffffff; stroke-linecap:round; stroke-linejoin:round; stroke-width:2; stroke-opacity:0.1; fill:none" points="
  287.366,403.129 2352.76,403.129 
  "/>
<polyline clip-path="url(#clip332)" style="stroke:#ffffff; stroke-linecap:round; stroke-linejoin:round; stroke-width:2; stroke-opacity:0.1; fill:none" points="
  287.366,221.694 2352.76,221.694 
  "/>
<polyline clip-path="url(#clip330)" style="stroke:#ffffff; stroke-linecap:round; stroke-linejoin:round; stroke-width:4; stroke-opacity:1; fill:none" points="
  287.366,1423.18 287.366,47.2441 
  "/>
<polyline clip-path="url(#clip330)" style="stroke:#ffffff; stroke-linecap:round; stroke-linejoin:round; stroke-width:4; stroke-opacity:1; fill:none" points="
  287.366,1310.3 306.264,1310.3 
  "/>
<polyline clip-path="url(#clip330)" style="stroke:#ffffff; stroke-linecap:round; stroke-linejoin:round; stroke-width:4; stroke-opacity:1; fill:none" points="
  287.366,1128.87 306.264,1128.87 
  "/>
<polyline clip-path="url(#clip330)" style="stroke:#ffffff; stroke-linecap:round; stroke-linejoin:round; stroke-width:4; stroke-opacity:1; fill:none" points="
  287.366,947.432 306.264,947.432 
  "/>
<polyline clip-path="url(#clip330)" style="stroke:#ffffff; stroke-linecap:round; stroke-linejoin:round; stroke-width:4; stroke-opacity:1; fill:none" points="
  287.366,765.997 306.264,765.997 
  "/>
<polyline clip-path="url(#clip330)" style="stroke:#ffffff; stroke-linecap:round; stroke-linejoin:round; stroke-width:4; stroke-opacity:1; fill:none" points="
  287.366,584.563 306.264,584.563 
  "/>
<polyline clip-path="url(#clip330)" style="stroke:#ffffff; stroke-linecap:round; stroke-linejoin:round; stroke-width:4; stroke-opacity:1; fill:none" points="
  287.366,403.129 306.264,403.129 
  "/>
<polyline clip-path="url(#clip330)" style="stroke:#ffffff; stroke-linecap:round; stroke-linejoin:round; stroke-width:4; stroke-opacity:1; fill:none" points="
  287.366,221.694 306.264,221.694 
  "/>
<path clip-path="url(#clip330)" d="M115.256 1310.75 L144.931 1310.75 L144.931 1314.69 L115.256 1314.69 L115.256 1310.75 Z" fill="#ffffff" fill-rule="evenodd" fill-opacity="1" /><path clip-path="url(#clip330)" d="M165.024 1296.1 Q161.413 1296.1 159.584 1299.66 Q157.778 1303.21 157.778 1310.34 Q157.778 1317.44 159.584 1321.01 Q161.413 1324.55 165.024 1324.55 Q168.658 1324.55 170.464 1321.01 Q172.292 1317.44 172.292 1310.34 Q172.292 1303.21 170.464 1299.66 Q168.658 1296.1 165.024 1296.1 M165.024 1292.4 Q170.834 1292.4 173.889 1297 Q176.968 1301.59 176.968 1310.34 Q176.968 1319.06 173.889 1323.67 Q170.834 1328.25 165.024 1328.25 Q159.214 1328.25 156.135 1323.67 Q153.079 1319.06 153.079 1310.34 Q153.079 1301.59 156.135 1297 Q159.214 1292.4 165.024 1292.4 Z" fill="#ffffff" fill-rule="evenodd" fill-opacity="1" /><path clip-path="url(#clip330)" d="M185.186 1321.7 L190.07 1321.7 L190.07 1327.58 L185.186 1327.58 L185.186 1321.7 Z" fill="#ffffff" fill-rule="evenodd" fill-opacity="1" /><path clip-path="url(#clip330)" d="M199.075 1293.02 L221.297 1293.02 L221.297 1295.01 L208.75 1327.58 L203.866 1327.58 L215.672 1296.96 L199.075 1296.96 L199.075 1293.02 Z" fill="#ffffff" fill-rule="evenodd" fill-opacity="1" /><path clip-path="url(#clip330)" d="M230.463 1293.02 L248.82 1293.02 L248.82 1296.96 L234.746 1296.96 L234.746 1305.43 Q235.764 1305.08 236.783 1304.92 Q237.801 1304.73 238.82 1304.73 Q244.607 1304.73 247.986 1307.9 Q251.366 1311.08 251.366 1316.49 Q251.366 1322.07 247.894 1325.17 Q244.421 1328.25 238.102 1328.25 Q235.926 1328.25 233.658 1327.88 Q231.412 1327.51 229.005 1326.77 L229.005 1322.07 Q231.088 1323.21 233.31 1323.76 Q235.533 1324.32 238.009 1324.32 Q242.014 1324.32 244.352 1322.21 Q246.69 1320.1 246.69 1316.49 Q246.69 1312.88 244.352 1310.78 Q242.014 1308.67 238.009 1308.67 Q236.135 1308.67 234.26 1309.09 Q232.408 1309.5 230.463 1310.38 L230.463 1293.02 Z" fill="#ffffff" fill-rule="evenodd" fill-opacity="1" /><path clip-path="url(#clip330)" d="M114.26 1129.32 L143.936 1129.32 L143.936 1133.25 L114.26 1133.25 L114.26 1129.32 Z" fill="#ffffff" fill-rule="evenodd" fill-opacity="1" /><path clip-path="url(#clip330)" d="M164.028 1114.66 Q160.417 1114.66 158.589 1118.23 Q156.783 1121.77 156.783 1128.9 Q156.783 1136.01 158.589 1139.57 Q160.417 1143.11 164.028 1143.11 Q167.663 1143.11 169.468 1139.57 Q171.297 1136.01 171.297 1128.9 Q171.297 1121.77 169.468 1118.23 Q167.663 1114.66 164.028 1114.66 M164.028 1110.96 Q169.839 1110.96 172.894 1115.57 Q175.973 1120.15 175.973 1128.9 Q175.973 1137.63 172.894 1142.23 Q169.839 1146.82 164.028 1146.82 Q158.218 1146.82 155.14 1142.23 Q152.084 1137.63 152.084 1128.9 Q152.084 1120.15 155.14 1115.57 Q158.218 1110.96 164.028 1110.96 Z" fill="#ffffff" fill-rule="evenodd" fill-opacity="1" /><path clip-path="url(#clip330)" d="M184.19 1140.27 L189.075 1140.27 L189.075 1146.15 L184.19 1146.15 L184.19 1140.27 Z" fill="#ffffff" fill-rule="evenodd" fill-opacity="1" /><path clip-path="url(#clip330)" d="M199.306 1111.59 L217.662 1111.59 L217.662 1115.52 L203.588 1115.52 L203.588 1123.99 Q204.607 1123.65 205.625 1123.48 Q206.644 1123.3 207.662 1123.3 Q213.449 1123.3 216.829 1126.47 Q220.209 1129.64 220.209 1135.06 Q220.209 1140.64 216.736 1143.74 Q213.264 1146.82 206.945 1146.82 Q204.769 1146.82 202.5 1146.45 Q200.255 1146.08 197.848 1145.34 L197.848 1140.64 Q199.931 1141.77 202.153 1142.33 Q204.375 1142.88 206.852 1142.88 Q210.857 1142.88 213.195 1140.78 Q215.533 1138.67 215.533 1135.06 Q215.533 1131.45 213.195 1129.34 Q210.857 1127.23 206.852 1127.23 Q204.977 1127.23 203.102 1127.65 Q201.25 1128.07 199.306 1128.95 L199.306 1111.59 Z" fill="#ffffff" fill-rule="evenodd" fill-opacity="1" /><path clip-path="url(#clip330)" d="M239.422 1114.66 Q235.81 1114.66 233.982 1118.23 Q232.176 1121.77 232.176 1128.9 Q232.176 1136.01 233.982 1139.57 Q235.81 1143.11 239.422 1143.11 Q243.056 1143.11 244.861 1139.57 Q246.69 1136.01 246.69 1128.9 Q246.69 1121.77 244.861 1118.23 Q243.056 1114.66 239.422 1114.66 M239.422 1110.96 Q245.232 1110.96 248.287 1115.57 Q251.366 1120.15 251.366 1128.9 Q251.366 1137.63 248.287 1142.23 Q245.232 1146.82 239.422 1146.82 Q233.611 1146.82 230.533 1142.23 Q227.477 1137.63 227.477 1128.9 Q227.477 1120.15 230.533 1115.57 Q233.611 1110.96 239.422 1110.96 Z" fill="#ffffff" fill-rule="evenodd" fill-opacity="1" /><path clip-path="url(#clip330)" d="M115.256 947.883 L144.931 947.883 L144.931 951.818 L115.256 951.818 L115.256 947.883 Z" fill="#ffffff" fill-rule="evenodd" fill-opacity="1" /><path clip-path="url(#clip330)" d="M165.024 933.231 Q161.413 933.231 159.584 936.795 Q157.778 940.337 157.778 947.467 Q157.778 954.573 159.584 958.138 Q161.413 961.68 165.024 961.68 Q168.658 961.68 170.464 958.138 Q172.292 954.573 172.292 947.467 Q172.292 940.337 170.464 936.795 Q168.658 933.231 165.024 933.231 M165.024 929.527 Q170.834 929.527 173.889 934.133 Q176.968 938.717 176.968 947.467 Q176.968 956.193 173.889 960.8 Q170.834 965.383 165.024 965.383 Q159.214 965.383 156.135 960.8 Q153.079 956.193 153.079 947.467 Q153.079 938.717 156.135 934.133 Q159.214 929.527 165.024 929.527 Z" fill="#ffffff" fill-rule="evenodd" fill-opacity="1" /><path clip-path="url(#clip330)" d="M185.186 958.832 L190.07 958.832 L190.07 964.712 L185.186 964.712 L185.186 958.832 Z" fill="#ffffff" fill-rule="evenodd" fill-opacity="1" /><path clip-path="url(#clip330)" d="M204.283 960.777 L220.602 960.777 L220.602 964.712 L198.658 964.712 L198.658 960.777 Q201.32 958.022 205.903 953.393 Q210.51 948.74 211.69 947.397 Q213.936 944.874 214.815 943.138 Q215.718 941.379 215.718 939.689 Q215.718 936.934 213.774 935.198 Q211.852 933.462 208.75 933.462 Q206.551 933.462 204.098 934.226 Q201.667 934.99 198.889 936.541 L198.889 931.819 Q201.713 930.684 204.167 930.106 Q206.621 929.527 208.658 929.527 Q214.028 929.527 217.223 932.212 Q220.417 934.897 220.417 939.388 Q220.417 941.518 219.607 943.439 Q218.82 945.337 216.713 947.93 Q216.135 948.601 213.033 951.818 Q209.931 955.013 204.283 960.777 Z" fill="#ffffff" fill-rule="evenodd" fill-opacity="1" /><path clip-path="url(#clip330)" d="M230.463 930.152 L248.82 930.152 L248.82 934.087 L234.746 934.087 L234.746 942.559 Q235.764 942.212 236.783 942.05 Q237.801 941.865 238.82 941.865 Q244.607 941.865 247.986 945.036 Q251.366 948.207 251.366 953.624 Q251.366 959.203 247.894 962.304 Q244.421 965.383 238.102 965.383 Q235.926 965.383 233.658 965.013 Q231.412 964.642 229.005 963.902 L229.005 959.203 Q231.088 960.337 233.31 960.892 Q235.533 961.448 238.009 961.448 Q242.014 961.448 244.352 959.342 Q246.69 957.235 246.69 953.624 Q246.69 950.013 244.352 947.906 Q242.014 945.8 238.009 945.8 Q236.135 945.8 234.26 946.217 Q232.408 946.633 230.463 947.513 L230.463 930.152 Z" fill="#ffffff" fill-rule="evenodd" fill-opacity="1" /><path clip-path="url(#clip330)" d="M164.028 751.796 Q160.417 751.796 158.589 755.361 Q156.783 758.903 156.783 766.032 Q156.783 773.139 158.589 776.703 Q160.417 780.245 164.028 780.245 Q167.663 780.245 169.468 776.703 Q171.297 773.139 171.297 766.032 Q171.297 758.903 169.468 755.361 Q167.663 751.796 164.028 751.796 M164.028 748.093 Q169.839 748.093 172.894 752.699 Q175.973 757.282 175.973 766.032 Q175.973 774.759 172.894 779.365 Q169.839 783.949 164.028 783.949 Q158.218 783.949 155.14 779.365 Q152.084 774.759 152.084 766.032 Q152.084 757.282 155.14 752.699 Q158.218 748.093 164.028 748.093 Z" fill="#ffffff" fill-rule="evenodd" fill-opacity="1" /><path clip-path="url(#clip330)" d="M184.19 777.398 L189.075 777.398 L189.075 783.277 L184.19 783.277 L184.19 777.398 Z" fill="#ffffff" fill-rule="evenodd" fill-opacity="1" /><path clip-path="url(#clip330)" d="M209.26 751.796 Q205.649 751.796 203.82 755.361 Q202.014 758.903 202.014 766.032 Q202.014 773.139 203.82 776.703 Q205.649 780.245 209.26 780.245 Q212.894 780.245 214.699 776.703 Q216.528 773.139 216.528 766.032 Q216.528 758.903 214.699 755.361 Q212.894 751.796 209.26 751.796 M209.26 748.093 Q215.07 748.093 218.125 752.699 Q221.204 757.282 221.204 766.032 Q221.204 774.759 218.125 779.365 Q215.07 783.949 209.26 783.949 Q203.449 783.949 200.371 779.365 Q197.315 774.759 197.315 766.032 Q197.315 757.282 200.371 752.699 Q203.449 748.093 209.26 748.093 Z" fill="#ffffff" fill-rule="evenodd" fill-opacity="1" /><path clip-path="url(#clip330)" d="M239.422 751.796 Q235.81 751.796 233.982 755.361 Q232.176 758.903 232.176 766.032 Q232.176 773.139 233.982 776.703 Q235.81 780.245 239.422 780.245 Q243.056 780.245 244.861 776.703 Q246.69 773.139 246.69 766.032 Q246.69 758.903 244.861 755.361 Q243.056 751.796 239.422 751.796 M239.422 748.093 Q245.232 748.093 248.287 752.699 Q251.366 757.282 251.366 766.032 Q251.366 774.759 248.287 779.365 Q245.232 783.949 239.422 783.949 Q233.611 783.949 230.533 779.365 Q227.477 774.759 227.477 766.032 Q227.477 757.282 230.533 752.699 Q233.611 748.093 239.422 748.093 Z" fill="#ffffff" fill-rule="evenodd" fill-opacity="1" /><path clip-path="url(#clip330)" d="M165.024 570.362 Q161.413 570.362 159.584 573.927 Q157.778 577.468 157.778 584.598 Q157.778 591.704 159.584 595.269 Q161.413 598.811 165.024 598.811 Q168.658 598.811 170.464 595.269 Q172.292 591.704 172.292 584.598 Q172.292 577.468 170.464 573.927 Q168.658 570.362 165.024 570.362 M165.024 566.658 Q170.834 566.658 173.889 571.265 Q176.968 575.848 176.968 584.598 Q176.968 593.325 173.889 597.931 Q170.834 602.514 165.024 602.514 Q159.214 602.514 156.135 597.931 Q153.079 593.325 153.079 584.598 Q153.079 575.848 156.135 571.265 Q159.214 566.658 165.024 566.658 Z" fill="#ffffff" fill-rule="evenodd" fill-opacity="1" /><path clip-path="url(#clip330)" d="M185.186 595.964 L190.07 595.964 L190.07 601.843 L185.186 601.843 L185.186 595.964 Z" fill="#ffffff" fill-rule="evenodd" fill-opacity="1" /><path clip-path="url(#clip330)" d="M204.283 597.908 L220.602 597.908 L220.602 601.843 L198.658 601.843 L198.658 597.908 Q201.32 595.153 205.903 590.524 Q210.51 585.871 211.69 584.528 Q213.936 582.005 214.815 580.269 Q215.718 578.51 215.718 576.82 Q215.718 574.065 213.774 572.329 Q211.852 570.593 208.75 570.593 Q206.551 570.593 204.098 571.357 Q201.667 572.121 198.889 573.672 L198.889 568.95 Q201.713 567.816 204.167 567.237 Q206.621 566.658 208.658 566.658 Q214.028 566.658 217.223 569.343 Q220.417 572.028 220.417 576.519 Q220.417 578.649 219.607 580.57 Q218.82 582.468 216.713 585.061 Q216.135 585.732 213.033 588.95 Q209.931 592.144 204.283 597.908 Z" fill="#ffffff" fill-rule="evenodd" fill-opacity="1" /><path clip-path="url(#clip330)" d="M230.463 567.283 L248.82 567.283 L248.82 571.218 L234.746 571.218 L234.746 579.69 Q235.764 579.343 236.783 579.181 Q237.801 578.996 238.82 578.996 Q244.607 578.996 247.986 582.167 Q251.366 585.339 251.366 590.755 Q251.366 596.334 247.894 599.436 Q244.421 602.514 238.102 602.514 Q235.926 602.514 233.658 602.144 Q231.412 601.774 229.005 601.033 L229.005 596.334 Q231.088 597.468 233.31 598.024 Q235.533 598.579 238.009 598.579 Q242.014 598.579 244.352 596.473 Q246.69 594.366 246.69 590.755 Q246.69 587.144 244.352 585.038 Q242.014 582.931 238.009 582.931 Q236.135 582.931 234.26 583.348 Q232.408 583.764 230.463 584.644 L230.463 567.283 Z" fill="#ffffff" fill-rule="evenodd" fill-opacity="1" /><path clip-path="url(#clip330)" d="M164.028 388.927 Q160.417 388.927 158.589 392.492 Q156.783 396.034 156.783 403.163 Q156.783 410.27 158.589 413.835 Q160.417 417.376 164.028 417.376 Q167.663 417.376 169.468 413.835 Q171.297 410.27 171.297 403.163 Q171.297 396.034 169.468 392.492 Q167.663 388.927 164.028 388.927 M164.028 385.224 Q169.839 385.224 172.894 389.83 Q175.973 394.413 175.973 403.163 Q175.973 411.89 172.894 416.497 Q169.839 421.08 164.028 421.08 Q158.218 421.08 155.14 416.497 Q152.084 411.89 152.084 403.163 Q152.084 394.413 155.14 389.83 Q158.218 385.224 164.028 385.224 Z" fill="#ffffff" fill-rule="evenodd" fill-opacity="1" /><path clip-path="url(#clip330)" d="M184.19 414.529 L189.075 414.529 L189.075 420.409 L184.19 420.409 L184.19 414.529 Z" fill="#ffffff" fill-rule="evenodd" fill-opacity="1" /><path clip-path="url(#clip330)" d="M199.306 385.849 L217.662 385.849 L217.662 389.784 L203.588 389.784 L203.588 398.256 Q204.607 397.909 205.625 397.747 Q206.644 397.562 207.662 397.562 Q213.449 397.562 216.829 400.733 Q220.209 403.904 220.209 409.321 Q220.209 414.899 216.736 418.001 Q213.264 421.08 206.945 421.08 Q204.769 421.08 202.5 420.71 Q200.255 420.339 197.848 419.599 L197.848 414.899 Q199.931 416.034 202.153 416.589 Q204.375 417.145 206.852 417.145 Q210.857 417.145 213.195 415.038 Q215.533 412.932 215.533 409.321 Q215.533 405.71 213.195 403.603 Q210.857 401.497 206.852 401.497 Q204.977 401.497 203.102 401.913 Q201.25 402.33 199.306 403.21 L199.306 385.849 Z" fill="#ffffff" fill-rule="evenodd" fill-opacity="1" /><path clip-path="url(#clip330)" d="M239.422 388.927 Q235.81 388.927 233.982 392.492 Q232.176 396.034 232.176 403.163 Q232.176 410.27 233.982 413.835 Q235.81 417.376 239.422 417.376 Q243.056 417.376 244.861 413.835 Q246.69 410.27 246.69 403.163 Q246.69 396.034 244.861 392.492 Q243.056 388.927 239.422 388.927 M239.422 385.224 Q245.232 385.224 248.287 389.83 Q251.366 394.413 251.366 403.163 Q251.366 411.89 248.287 416.497 Q245.232 421.08 239.422 421.08 Q233.611 421.08 230.533 416.497 Q227.477 411.89 227.477 403.163 Q227.477 394.413 230.533 389.83 Q233.611 385.224 239.422 385.224 Z" fill="#ffffff" fill-rule="evenodd" fill-opacity="1" /><path clip-path="url(#clip330)" d="M165.024 207.493 Q161.413 207.493 159.584 211.058 Q157.778 214.599 157.778 221.729 Q157.778 228.835 159.584 232.4 Q161.413 235.942 165.024 235.942 Q168.658 235.942 170.464 232.4 Q172.292 228.835 172.292 221.729 Q172.292 214.599 170.464 211.058 Q168.658 207.493 165.024 207.493 M165.024 203.789 Q170.834 203.789 173.889 208.396 Q176.968 212.979 176.968 221.729 Q176.968 230.456 173.889 235.062 Q170.834 239.646 165.024 239.646 Q159.214 239.646 156.135 235.062 Q153.079 230.456 153.079 221.729 Q153.079 212.979 156.135 208.396 Q159.214 203.789 165.024 203.789 Z" fill="#ffffff" fill-rule="evenodd" fill-opacity="1" /><path clip-path="url(#clip330)" d="M185.186 233.095 L190.07 233.095 L190.07 238.974 L185.186 238.974 L185.186 233.095 Z" fill="#ffffff" fill-rule="evenodd" fill-opacity="1" /><path clip-path="url(#clip330)" d="M199.075 204.414 L221.297 204.414 L221.297 206.405 L208.75 238.974 L203.866 238.974 L215.672 208.349 L199.075 208.349 L199.075 204.414 Z" fill="#ffffff" fill-rule="evenodd" fill-opacity="1" /><path clip-path="url(#clip330)" d="M230.463 204.414 L248.82 204.414 L248.82 208.349 L234.746 208.349 L234.746 216.822 Q235.764 216.474 236.783 216.312 Q237.801 216.127 238.82 216.127 Q244.607 216.127 247.986 219.298 Q251.366 222.47 251.366 227.886 Q251.366 233.465 247.894 236.567 Q244.421 239.646 238.102 239.646 Q235.926 239.646 233.658 239.275 Q231.412 238.905 229.005 238.164 L229.005 233.465 Q231.088 234.599 233.31 235.155 Q235.533 235.71 238.009 235.71 Q242.014 235.71 244.352 233.604 Q246.69 231.497 246.69 227.886 Q246.69 224.275 244.352 222.169 Q242.014 220.062 238.009 220.062 Q236.135 220.062 234.26 220.479 Q232.408 220.896 230.463 221.775 L230.463 204.414 Z" fill="#ffffff" fill-rule="evenodd" fill-opacity="1" /><path clip-path="url(#clip330)" d="M46.0847 773.804 Q46.0847 780.902 47.7079 783.639 Q49.3312 786.376 53.2461 786.376 Q56.3653 786.376 58.2114 784.339 Q60.0256 782.27 60.0256 778.737 Q60.0256 773.868 56.5881 770.939 Q53.1188 767.979 47.3897 767.979 L46.0847 767.979 L46.0847 773.804 M43.6657 762.123 L64.0042 762.123 L64.0042 767.979 L58.5933 767.979 Q61.8398 769.985 63.3994 772.977 Q64.9272 775.968 64.9272 780.297 Q64.9272 785.772 61.8716 789.018 Q58.7843 792.233 53.6281 792.233 Q47.6125 792.233 44.5569 788.222 Q41.5014 784.18 41.5014 776.191 L41.5014 767.979 L40.9285 767.979 Q36.8862 767.979 34.6901 770.653 Q32.4621 773.295 32.4621 778.101 Q32.4621 781.156 33.1941 784.053 Q33.9262 786.949 35.3903 789.623 L29.9795 789.623 Q28.7381 786.408 28.1334 783.384 Q27.4968 780.361 27.4968 777.496 Q27.4968 769.762 31.5072 765.942 Q35.5176 762.123 43.6657 762.123 Z" fill="#ffffff" fill-rule="evenodd" fill-opacity="1" /><path clip-path="url(#clip330)" d="M45.7664 726.602 Q39.4007 726.602 35.8996 729.244 Q32.3984 731.854 32.3984 736.597 Q32.3984 741.307 35.8996 743.949 Q39.4007 746.559 45.7664 746.559 Q52.1003 746.559 55.6014 743.949 Q59.1026 741.307 59.1026 736.597 Q59.1026 731.854 55.6014 729.244 Q52.1003 726.602 45.7664 726.602 M59.58 720.746 Q68.683 720.746 73.1071 724.788 Q77.5631 728.83 77.5631 737.169 Q77.5631 740.257 77.0857 742.994 Q76.6401 745.731 75.6852 748.309 L69.9879 748.309 Q71.3884 745.731 72.0568 743.217 Q72.7252 740.702 72.7252 738.092 Q72.7252 732.331 69.7015 729.467 Q66.7096 726.602 60.6303 726.602 L57.7339 726.602 Q60.885 728.417 62.4446 731.249 Q64.0042 734.082 64.0042 738.029 Q64.0042 744.585 59.0071 748.596 Q54.01 752.606 45.7664 752.606 Q37.491 752.606 32.4939 748.596 Q27.4968 744.585 27.4968 738.029 Q27.4968 734.082 29.0564 731.249 Q30.616 728.417 33.7671 726.602 L28.3562 726.602 L28.3562 720.746 L59.58 720.746 Z" fill="#ffffff" fill-rule="evenodd" fill-opacity="1" /><path clip-path="url(#clip330)" d="M44.7161 678.191 L47.5806 678.191 L47.5806 705.118 Q53.6281 704.736 56.8109 701.49 Q59.9619 698.211 59.9619 692.387 Q59.9619 689.013 59.1344 685.862 Q58.3069 682.679 56.6518 679.56 L62.1899 679.56 Q63.5267 682.711 64.227 686.021 Q64.9272 689.331 64.9272 692.737 Q64.9272 701.267 59.9619 706.264 Q54.9967 711.229 46.5303 711.229 Q37.7774 711.229 32.6531 706.519 Q27.4968 701.776 27.4968 693.755 Q27.4968 686.562 32.1438 682.393 Q36.7589 678.191 44.7161 678.191 M42.9973 684.048 Q38.1912 684.111 35.3266 686.753 Q32.4621 689.363 32.4621 693.692 Q32.4621 698.593 35.2312 701.553 Q38.0002 704.482 43.0292 704.927 L42.9973 684.048 Z" fill="#ffffff" fill-rule="evenodd" fill-opacity="1" /><circle clip-path="url(#clip332)" cx="1201.91" cy="529.049" r="36" fill="#ff7300" fill-rule="evenodd" fill-opacity="1" stroke="#ffffff" stroke-opacity="1" stroke-width="3.2"/>
<circle clip-path="url(#clip332)" cx="1497.6" cy="469.004" r="36" fill="#3cd7d9" fill-rule="evenodd" fill-opacity="1" stroke="#ffffff" stroke-opacity="1" stroke-width="3.2"/>
<polyline clip-path="url(#clip332)" style="stroke:#ffffff; stroke-linecap:round; stroke-linejoin:round; stroke-width:8; stroke-opacity:1; fill:none" points="
  1201.91,529.049 1497.6,469.004 
  "/>
<polyline clip-path="url(#clip332)" style="stroke:#ffffff; stroke-linecap:round; stroke-linejoin:round; stroke-width:8; stroke-opacity:1; fill:none" points="
  1458.74,458.528 1497.6,469.004 1465.91,493.808 
  "/>
<polyline clip-path="url(#clip332)" style="stroke:#ffffff; stroke-linecap:round; stroke-linejoin:round; stroke-width:8; stroke-opacity:1; fill:none" points="
  1497.6,469.004 1201.91,529.049 
  "/>
<circle clip-path="url(#clip332)" cx="345.82" cy="1384.24" r="36" fill="#ff7300" fill-rule="evenodd" fill-opacity="1" stroke="#ffffff" stroke-opacity="1" stroke-width="3.2"/>
<circle clip-path="url(#clip332)" cx="512.272" cy="1384.24" r="36" fill="#3cd7d9" fill-rule="evenodd" fill-opacity="1" stroke="#ffffff" stroke-opacity="1" stroke-width="3.2"/>
<polyline clip-path="url(#clip332)" style="stroke:#ffffff; stroke-linecap:round; stroke-linejoin:round; stroke-width:8; stroke-opacity:1; fill:none" points="
  345.82,1384.24 512.272,1384.24 
  "/>
<polyline clip-path="url(#clip332)" style="stroke:#ffffff; stroke-linecap:round; stroke-linejoin:round; stroke-width:8; stroke-opacity:1; fill:none" points="
  476.272,1366.24 512.272,1384.24 476.272,1402.24 
  "/>
<polyline clip-path="url(#clip332)" style="stroke:#ffffff; stroke-linecap:round; stroke-linejoin:round; stroke-width:8; stroke-opacity:1; fill:none" points="
  512.272,1384.24 345.82,1384.24 
  "/>
<circle clip-path="url(#clip332)" cx="680.947" cy="378.134" r="36" fill="#ff7300" fill-rule="evenodd" fill-opacity="1" stroke="#ffffff" stroke-opacity="1" stroke-width="3.2"/>
<circle clip-path="url(#clip332)" cx="808.602" cy="336.924" r="36" fill="#3cd7d9" fill-rule="evenodd" fill-opacity="1" stroke="#ffffff" stroke-opacity="1" stroke-width="3.2"/>
<polyline clip-path="url(#clip332)" style="stroke:#ffffff; stroke-linecap:round; stroke-linejoin:round; stroke-width:8; stroke-opacity:1; fill:none" points="
  680.947,378.134 808.602,336.924 
  "/>
<polyline clip-path="url(#clip332)" style="stroke:#ffffff; stroke-linecap:round; stroke-linejoin:round; stroke-width:8; stroke-opacity:1; fill:none" points="
  768.813,330.854 808.602,336.924 779.873,365.113 
  "/>
<polyline clip-path="url(#clip332)" style="stroke:#ffffff; stroke-linecap:round; stroke-linejoin:round; stroke-width:8; stroke-opacity:1; fill:none" points="
  808.602,336.924 680.947,378.134 
  "/>
<circle clip-path="url(#clip332)" cx="1965.51" cy="1233.32" r="36" fill="#ff7300" fill-rule="evenodd" fill-opacity="1" stroke="#ffffff" stroke-opacity="1" stroke-width="3.2"/>
<circle clip-path="url(#clip332)" cx="2086.72" cy="1201.7" r="36" fill="#3cd7d9" fill-rule="evenodd" fill-opacity="1" stroke="#ffffff" stroke-opacity="1" stroke-width="3.2"/>
<polyline clip-path="url(#clip332)" style="stroke:#ffffff; stroke-linecap:round; stroke-linejoin:round; stroke-width:8; stroke-opacity:1; fill:none" points="
  1965.51,1233.32 2086.72,1201.7 
  "/>
<polyline clip-path="url(#clip332)" style="stroke:#ffffff; stroke-linecap:round; stroke-linejoin:round; stroke-width:8; stroke-opacity:1; fill:none" points="
  2047.34,1193.37 2086.72,1201.7 2056.43,1228.2 
  "/>
<polyline clip-path="url(#clip332)" style="stroke:#ffffff; stroke-linecap:round; stroke-linejoin:round; stroke-width:8; stroke-opacity:1; fill:none" points="
  2086.72,1201.7 1965.51,1233.32 
  "/>
<circle clip-path="url(#clip332)" cx="1584.13" cy="378.134" r="36" fill="#ff7300" fill-rule="evenodd" fill-opacity="1" stroke="#ffffff" stroke-opacity="1" stroke-width="3.2"/>
<circle clip-path="url(#clip332)" cx="2266.42" cy="86.1857" r="36" fill="#3cd7d9" fill-rule="evenodd" fill-opacity="1" stroke="#ffffff" stroke-opacity="1" stroke-width="3.2"/>
<polyline clip-path="url(#clip332)" style="stroke:#ffffff; stroke-linecap:round; stroke-linejoin:round; stroke-width:8; stroke-opacity:1; fill:none" points="
  1584.13,378.134 2266.42,86.1857 
  "/>
<polyline clip-path="url(#clip332)" style="stroke:#ffffff; stroke-linecap:round; stroke-linejoin:round; stroke-width:8; stroke-opacity:1; fill:none" points="
  2226.24,83.7993 2266.42,86.1857 2240.4,116.897 
  "/>
<polyline clip-path="url(#clip332)" style="stroke:#ffffff; stroke-linecap:round; stroke-linejoin:round; stroke-width:8; stroke-opacity:1; fill:none" points="
  2266.42,86.1857 1584.13,378.134 
  "/>
<circle clip-path="url(#clip332)" cx="2205.58" cy="1333.93" r="36" fill="#ff7300" fill-rule="evenodd" fill-opacity="1" stroke="#ffffff" stroke-opacity="1" stroke-width="3.2"/>
<circle clip-path="url(#clip332)" cx="2294.3" cy="1316.18" r="36" fill="#3cd7d9" fill-rule="evenodd" fill-opacity="1" stroke="#ffffff" stroke-opacity="1" stroke-width="3.2"/>
<polyline clip-path="url(#clip332)" style="stroke:#ffffff; stroke-linecap:round; stroke-linejoin:round; stroke-width:8; stroke-opacity:1; fill:none" points="
  2205.58,1333.93 2294.3,1316.18 
  "/>
<polyline clip-path="url(#clip332)" style="stroke:#ffffff; stroke-linecap:round; stroke-linejoin:round; stroke-width:8; stroke-opacity:1; fill:none" points="
  2255.47,1305.59 2294.3,1316.18 2262.53,1340.89 
  "/>
<polyline clip-path="url(#clip332)" style="stroke:#ffffff; stroke-linecap:round; stroke-linejoin:round; stroke-width:8; stroke-opacity:1; fill:none" points="
  2294.3,1316.18 2205.58,1333.93 
  "/>
<circle clip-path="url(#clip332)" cx="1417.43" cy="1183.02" r="36" fill="#ff7300" fill-rule="evenodd" fill-opacity="1" stroke="#ffffff" stroke-opacity="1" stroke-width="3.2"/>
<circle clip-path="url(#clip332)" cx="1577.29" cy="1162.46" r="36" fill="#3cd7d9" fill-rule="evenodd" fill-opacity="1" stroke="#ffffff" stroke-opacity="1" stroke-width="3.2"/>
<polyline clip-path="url(#clip332)" style="stroke:#ffffff; stroke-linecap:round; stroke-linejoin:round; stroke-width:8; stroke-opacity:1; fill:none" points="
  1417.43,1183.02 1577.29,1162.46 
  "/>
<polyline clip-path="url(#clip332)" style="stroke:#ffffff; stroke-linecap:round; stroke-linejoin:round; stroke-width:8; stroke-opacity:1; fill:none" points="
  1539.29,1149.2 1577.29,1162.46 1543.88,1184.9 
  "/>
<polyline clip-path="url(#clip332)" style="stroke:#ffffff; stroke-linecap:round; stroke-linejoin:round; stroke-width:8; stroke-opacity:1; fill:none" points="
  1577.29,1162.46 1417.43,1183.02 
  "/>
<circle clip-path="url(#clip332)" cx="1432.7" cy="1082.41" r="36" fill="#ff7300" fill-rule="evenodd" fill-opacity="1" stroke="#ffffff" stroke-opacity="1" stroke-width="3.2"/>
<circle clip-path="url(#clip332)" cx="1571.03" cy="1046.53" r="36" fill="#3cd7d9" fill-rule="evenodd" fill-opacity="1" stroke="#ffffff" stroke-opacity="1" stroke-width="3.2"/>
<polyline clip-path="url(#clip332)" style="stroke:#ffffff; stroke-linecap:round; stroke-linejoin:round; stroke-width:8; stroke-opacity:1; fill:none" points="
  1432.7,1082.41 1571.03,1046.53 
  "/>
<polyline clip-path="url(#clip332)" style="stroke:#ffffff; stroke-linecap:round; stroke-linejoin:round; stroke-width:8; stroke-opacity:1; fill:none" points="
  1531.66,1038.15 1571.03,1046.53 1540.7,1072.99 
  "/>
<polyline clip-path="url(#clip332)" style="stroke:#ffffff; stroke-linecap:round; stroke-linejoin:round; stroke-width:8; stroke-opacity:1; fill:none" points="
  1571.03,1046.53 1432.7,1082.41 
  "/>
<circle clip-path="url(#clip332)" cx="552.491" cy="1283.63" r="36" fill="#ff7300" fill-rule="evenodd" fill-opacity="1" stroke="#ffffff" stroke-opacity="1" stroke-width="3.2"/>
<circle clip-path="url(#clip332)" cx="729.3" cy="1277.43" r="36" fill="#3cd7d9" fill-rule="evenodd" fill-opacity="1" stroke="#ffffff" stroke-opacity="1" stroke-width="3.2"/>
<polyline clip-path="url(#clip332)" style="stroke:#ffffff; stroke-linecap:round; stroke-linejoin:round; stroke-width:8; stroke-opacity:1; fill:none" points="
  552.491,1283.63 729.3,1277.43 
  "/>
<polyline clip-path="url(#clip332)" style="stroke:#ffffff; stroke-linecap:round; stroke-linejoin:round; stroke-width:8; stroke-opacity:1; fill:none" points="
  692.692,1260.71 729.3,1277.43 693.952,1296.68 
  "/>
<polyline clip-path="url(#clip332)" style="stroke:#ffffff; stroke-linecap:round; stroke-linejoin:round; stroke-width:8; stroke-opacity:1; fill:none" points="
  729.3,1277.43 552.491,1283.63 
  "/>
<circle clip-path="url(#clip332)" cx="768.868" cy="931.491" r="36" fill="#ff7300" fill-rule="evenodd" fill-opacity="1" stroke="#ffffff" stroke-opacity="1" stroke-width="3.2"/>
<circle clip-path="url(#clip332)" cx="971.766" cy="891.664" r="36" fill="#3cd7d9" fill-rule="evenodd" fill-opacity="1" stroke="#ffffff" stroke-opacity="1" stroke-width="3.2"/>
<polyline clip-path="url(#clip332)" style="stroke:#ffffff; stroke-linecap:round; stroke-linejoin:round; stroke-width:8; stroke-opacity:1; fill:none" points="
  768.868,931.491 971.766,891.664 
  "/>
<polyline clip-path="url(#clip332)" style="stroke:#ffffff; stroke-linecap:round; stroke-linejoin:round; stroke-width:8; stroke-opacity:1; fill:none" points="
  932.973,880.935 971.766,891.664 939.907,916.261 
  "/>
<polyline clip-path="url(#clip332)" style="stroke:#ffffff; stroke-linecap:round; stroke-linejoin:round; stroke-width:8; stroke-opacity:1; fill:none" points="
  971.766,891.664 768.868,931.491 
  "/>
</svg>
