<?xml version="1.0" encoding="utf-8"?>
<svg xmlns="http://www.w3.org/2000/svg" xmlns:xlink="http://www.w3.org/1999/xlink" width="600" height="400" viewBox="0 0 2400 1600">
<defs>
  <clipPath id="clip890">
    <rect x="0" y="0" width="2400" height="1600"/>
  </clipPath>
</defs>
<path clip-path="url(#clip890)" d="
M0 1600 L2400 1600 L2400 0 L0 0  Z
  " fill="#12273f" fill-rule="evenodd" fill-opacity="1"/>
<defs>
  <clipPath id="clip891">
    <rect x="480" y="0" width="1681" height="1600"/>
  </clipPath>
</defs>
<path clip-path="url(#clip890)" d="
M149.191 1486.45 L2352.76 1486.45 L2352.76 47.2441 L149.191 47.2441  Z
  " fill="#12273f" fill-rule="evenodd" fill-opacity="1"/>
<defs>
  <clipPath id="clip892">
    <rect x="149" y="47" width="2205" height="1440"/>
  </clipPath>
</defs>
<polyline clip-path="url(#clip892)" style="stroke:#ffffff; stroke-linecap:round; stroke-linejoin:round; stroke-width:2; stroke-opacity:0.1; fill:none" points="
  404.04,1486.45 404.04,47.2441 
  "/>
<polyline clip-path="url(#clip892)" style="stroke:#ffffff; stroke-linecap:round; stroke-linejoin:round; stroke-width:2; stroke-opacity:0.1; fill:none" points="
  826.761,1486.45 826.761,47.2441 
  "/>
<polyline clip-path="url(#clip892)" style="stroke:#ffffff; stroke-linecap:round; stroke-linejoin:round; stroke-width:2; stroke-opacity:0.1; fill:none" points="
  1249.48,1486.45 1249.48,47.2441 
  "/>
<polyline clip-path="url(#clip892)" style="stroke:#ffffff; stroke-linecap:round; stroke-linejoin:round; stroke-width:2; stroke-opacity:0.1; fill:none" points="
  1672.2,1486.45 1672.2,47.2441 
  "/>
<polyline clip-path="url(#clip892)" style="stroke:#ffffff; stroke-linecap:round; stroke-linejoin:round; stroke-width:2; stroke-opacity:0.1; fill:none" points="
  2094.92,1486.45 2094.92,47.2441 
  "/>
<polyline clip-path="url(#clip890)" style="stroke:#ffffff; stroke-linecap:round; stroke-linejoin:round; stroke-width:4; stroke-opacity:1; fill:none" points="
  149.191,1486.45 2352.76,1486.45 
  "/>
<polyline clip-path="url(#clip890)" style="stroke:#ffffff; stroke-linecap:round; stroke-linejoin:round; stroke-width:4; stroke-opacity:1; fill:none" points="
  404.04,1486.45 404.04,1467.55 
  "/>
<polyline clip-path="url(#clip890)" style="stroke:#ffffff; stroke-linecap:round; stroke-linejoin:round; stroke-width:4; stroke-opacity:1; fill:none" points="
  826.761,1486.45 826.761,1467.55 
  "/>
<polyline clip-path="url(#clip890)" style="stroke:#ffffff; stroke-linecap:round; stroke-linejoin:round; stroke-width:4; stroke-opacity:1; fill:none" points="
  1249.48,1486.45 1249.48,1467.55 
  "/>
<polyline clip-path="url(#clip890)" style="stroke:#ffffff; stroke-linecap:round; stroke-linejoin:round; stroke-width:4; stroke-opacity:1; fill:none" points="
  1672.2,1486.45 1672.2,1467.55 
  "/>
<polyline clip-path="url(#clip890)" style="stroke:#ffffff; stroke-linecap:round; stroke-linejoin:round; stroke-width:4; stroke-opacity:1; fill:none" points="
  2094.92,1486.45 2094.92,1467.55 
  "/>
<path clip-path="url(#clip890)" d="M372.94 1532.02 L402.616 1532.02 L402.616 1535.95 L372.94 1535.95 L372.94 1532.02 Z" fill="#ffffff" fill-rule="evenodd" fill-opacity="1" /><path clip-path="url(#clip890)" d="M425.556 1518.36 L413.75 1536.81 L425.556 1536.81 L425.556 1518.36 M424.329 1514.29 L430.209 1514.29 L430.209 1536.81 L435.139 1536.81 L435.139 1540.7 L430.209 1540.7 L430.209 1548.85 L425.556 1548.85 L425.556 1540.7 L409.954 1540.7 L409.954 1536.19 L424.329 1514.29 Z" fill="#ffffff" fill-rule="evenodd" fill-opacity="1" /><path clip-path="url(#clip890)" d="M796.703 1532.02 L826.379 1532.02 L826.379 1535.95 L796.703 1535.95 L796.703 1532.02 Z" fill="#ffffff" fill-rule="evenodd" fill-opacity="1" /><path clip-path="url(#clip890)" d="M840.499 1544.91 L856.819 1544.91 L856.819 1548.85 L834.874 1548.85 L834.874 1544.91 Q837.536 1542.16 842.12 1537.53 Q846.726 1532.88 847.907 1531.53 Q850.152 1529.01 851.032 1527.27 Q851.935 1525.51 851.935 1523.82 Q851.935 1521.07 849.99 1519.33 Q848.069 1517.6 844.967 1517.6 Q842.768 1517.6 840.314 1518.36 Q837.884 1519.13 835.106 1520.68 L835.106 1515.95 Q837.93 1514.82 840.384 1514.24 Q842.837 1513.66 844.874 1513.66 Q850.245 1513.66 853.439 1516.35 Q856.634 1519.03 856.634 1523.52 Q856.634 1525.65 855.823 1527.57 Q855.036 1529.47 852.93 1532.07 Q852.351 1532.74 849.249 1535.95 Q846.148 1539.15 840.499 1544.91 Z" fill="#ffffff" fill-rule="evenodd" fill-opacity="1" /><path clip-path="url(#clip890)" d="M1249.48 1517.37 Q1245.87 1517.37 1244.04 1520.93 Q1242.24 1524.47 1242.24 1531.6 Q1242.24 1538.71 1244.04 1542.27 Q1245.87 1545.82 1249.48 1545.82 Q1253.12 1545.82 1254.92 1542.27 Q1256.75 1538.71 1256.75 1531.6 Q1256.75 1524.47 1254.92 1520.93 Q1253.12 1517.37 1249.48 1517.37 M1249.48 1513.66 Q1255.29 1513.66 1258.35 1518.27 Q1261.43 1522.85 1261.43 1531.6 Q1261.43 1540.33 1258.35 1544.94 Q1255.29 1549.52 1249.48 1549.52 Q1243.67 1549.52 1240.59 1544.94 Q1237.54 1540.33 1237.54 1531.6 Q1237.54 1522.85 1240.59 1518.27 Q1243.67 1513.66 1249.48 1513.66 Z" fill="#ffffff" fill-rule="evenodd" fill-opacity="1" /><path clip-path="url(#clip890)" d="M1666.86 1544.91 L1683.18 1544.91 L1683.18 1548.85 L1661.23 1548.85 L1661.23 1544.91 Q1663.89 1542.16 1668.48 1537.53 Q1673.08 1532.88 1674.26 1531.53 Q1676.51 1529.01 1677.39 1527.27 Q1678.29 1525.51 1678.29 1523.82 Q1678.29 1521.07 1676.35 1519.33 Q1674.43 1517.6 1671.32 1517.6 Q1669.12 1517.6 1666.67 1518.36 Q1664.24 1519.13 1661.46 1520.68 L1661.46 1515.95 Q1664.29 1514.82 1666.74 1514.24 Q1669.19 1513.66 1671.23 1513.66 Q1676.6 1513.66 1679.8 1516.35 Q1682.99 1519.03 1682.99 1523.52 Q1682.99 1525.65 1682.18 1527.57 Q1681.39 1529.47 1679.29 1532.07 Q1678.71 1532.74 1675.61 1535.95 Q1672.5 1539.15 1666.86 1544.91 Z" fill="#ffffff" fill-rule="evenodd" fill-opacity="1" /><path clip-path="url(#clip890)" d="M2097.93 1518.36 L2086.13 1536.81 L2097.93 1536.81 L2097.93 1518.36 M2096.71 1514.29 L2102.59 1514.29 L2102.59 1536.81 L2107.52 1536.81 L2107.52 1540.7 L2102.59 1540.7 L2102.59 1548.85 L2097.93 1548.85 L2097.93 1540.7 L2082.33 1540.7 L2082.33 1536.19 L2096.71 1514.29 Z" fill="#ffffff" fill-rule="evenodd" fill-opacity="1" /><polyline clip-path="url(#clip892)" style="stroke:#ffffff; stroke-linecap:round; stroke-linejoin:round; stroke-width:2; stroke-opacity:0.1; fill:none" points="
  149.191,1320.7 2352.76,1320.7 
  "/>
<polyline clip-path="url(#clip892)" style="stroke:#ffffff; stroke-linecap:round; stroke-linejoin:round; stroke-width:2; stroke-opacity:0.1; fill:none" points="
  149.191,1046.57 2352.76,1046.57 
  "/>
<polyline clip-path="url(#clip892)" style="stroke:#ffffff; stroke-linecap:round; stroke-linejoin:round; stroke-width:2; stroke-opacity:0.1; fill:none" points="
  149.191,772.426 2352.76,772.426 
  "/>
<polyline clip-path="url(#clip892)" style="stroke:#ffffff; stroke-linecap:round; stroke-linejoin:round; stroke-width:2; stroke-opacity:0.1; fill:none" points="
  149.191,498.288 2352.76,498.288 
  "/>
<polyline clip-path="url(#clip892)" style="stroke:#ffffff; stroke-linecap:round; stroke-linejoin:round; stroke-width:2; stroke-opacity:0.1; fill:none" points="
  149.191,224.149 2352.76,224.149 
  "/>
<polyline clip-path="url(#clip890)" style="stroke:#ffffff; stroke-linecap:round; stroke-linejoin:round; stroke-width:4; stroke-opacity:1; fill:none" points="
  149.191,1486.45 149.191,47.2441 
  "/>
<polyline clip-path="url(#clip890)" style="stroke:#ffffff; stroke-linecap:round; stroke-linejoin:round; stroke-width:4; stroke-opacity:1; fill:none" points="
  149.191,1320.7 168.089,1320.7 
  "/>
<polyline clip-path="url(#clip890)" style="stroke:#ffffff; stroke-linecap:round; stroke-linejoin:round; stroke-width:4; stroke-opacity:1; fill:none" points="
  149.191,1046.57 168.089,1046.57 
  "/>
<polyline clip-path="url(#clip890)" style="stroke:#ffffff; stroke-linecap:round; stroke-linejoin:round; stroke-width:4; stroke-opacity:1; fill:none" points="
  149.191,772.426 168.089,772.426 
  "/>
<polyline clip-path="url(#clip890)" style="stroke:#ffffff; stroke-linecap:round; stroke-linejoin:round; stroke-width:4; stroke-opacity:1; fill:none" points="
  149.191,498.288 168.089,498.288 
  "/>
<polyline clip-path="url(#clip890)" style="stroke:#ffffff; stroke-linecap:round; stroke-linejoin:round; stroke-width:4; stroke-opacity:1; fill:none" points="
  149.191,224.149 168.089,224.149 
  "/>
<path clip-path="url(#clip890)" d="M50.9921 1321.16 L80.6679 1321.16 L80.6679 1325.09 L50.9921 1325.09 L50.9921 1321.16 Z" fill="#ffffff" fill-rule="evenodd" fill-opacity="1" /><path clip-path="url(#clip890)" d="M103.608 1307.5 L91.8021 1325.95 L103.608 1325.95 L103.608 1307.5 M102.381 1303.42 L108.26 1303.42 L108.26 1325.95 L113.191 1325.95 L113.191 1329.84 L108.26 1329.84 L108.26 1337.98 L103.608 1337.98 L103.608 1329.84 L88.0058 1329.84 L88.0058 1325.32 L102.381 1303.42 Z" fill="#ffffff" fill-rule="evenodd" fill-opacity="1" /><path clip-path="url(#clip890)" d="M53.0754 1047.02 L82.7512 1047.02 L82.7512 1050.95 L53.0754 1050.95 L53.0754 1047.02 Z" fill="#ffffff" fill-rule="evenodd" fill-opacity="1" /><path clip-path="url(#clip890)" d="M96.8715 1059.91 L113.191 1059.91 L113.191 1063.85 L91.2465 1063.85 L91.2465 1059.91 Q93.9086 1057.16 98.4919 1052.53 Q103.098 1047.87 104.279 1046.53 Q106.524 1044.01 107.404 1042.27 Q108.307 1040.51 108.307 1038.82 Q108.307 1036.07 106.362 1034.33 Q104.441 1032.6 101.339 1032.6 Q99.14 1032.6 96.6863 1033.36 Q94.2558 1034.12 91.478 1035.67 L91.478 1030.95 Q94.3021 1029.82 96.7558 1029.24 Q99.2095 1028.66 101.246 1028.66 Q106.617 1028.66 109.811 1031.35 Q113.006 1034.03 113.006 1038.52 Q113.006 1040.65 112.196 1042.57 Q111.408 1044.47 109.302 1047.06 Q108.723 1047.73 105.621 1050.95 Q102.52 1054.15 96.8715 1059.91 Z" fill="#ffffff" fill-rule="evenodd" fill-opacity="1" /><path clip-path="url(#clip890)" d="M101.246 758.225 Q97.6354 758.225 95.8067 761.79 Q94.0012 765.332 94.0012 772.461 Q94.0012 779.568 95.8067 783.132 Q97.6354 786.674 101.246 786.674 Q104.881 786.674 106.686 783.132 Q108.515 779.568 108.515 772.461 Q108.515 765.332 106.686 761.79 Q104.881 758.225 101.246 758.225 M101.246 754.521 Q107.057 754.521 110.112 759.128 Q113.191 763.711 113.191 772.461 Q113.191 781.188 110.112 785.794 Q107.057 790.378 101.246 790.378 Q95.4363 790.378 92.3576 785.794 Q89.3021 781.188 89.3021 772.461 Q89.3021 763.711 92.3576 759.128 Q95.4363 754.521 101.246 754.521 Z" fill="#ffffff" fill-rule="evenodd" fill-opacity="1" /><path clip-path="url(#clip890)" d="M96.8715 511.632 L113.191 511.632 L113.191 515.568 L91.2465 515.568 L91.2465 511.632 Q93.9086 508.878 98.4919 504.248 Q103.098 499.595 104.279 498.253 Q106.524 495.73 107.404 493.994 Q108.307 492.234 108.307 490.545 Q108.307 487.79 106.362 486.054 Q104.441 484.318 101.339 484.318 Q99.14 484.318 96.6863 485.082 Q94.2558 485.845 91.478 487.396 L91.478 482.674 Q94.3021 481.54 96.7558 480.961 Q99.2095 480.383 101.246 480.383 Q106.617 480.383 109.811 483.068 Q113.006 485.753 113.006 490.244 Q113.006 492.373 112.196 494.295 Q111.408 496.193 109.302 498.785 Q108.723 499.457 105.621 502.674 Q102.52 505.869 96.8715 511.632 Z" fill="#ffffff" fill-rule="evenodd" fill-opacity="1" /><path clip-path="url(#clip890)" d="M103.608 210.943 L91.8021 229.392 L103.608 229.392 L103.608 210.943 M102.381 206.869 L108.26 206.869 L108.26 229.392 L113.191 229.392 L113.191 233.281 L108.26 233.281 L108.26 241.429 L103.608 241.429 L103.608 233.281 L88.0058 233.281 L88.0058 228.767 L102.381 206.869 Z" fill="#ffffff" fill-rule="evenodd" fill-opacity="1" /><circle clip-path="url(#clip892)" cx="909.738" cy="1061.44" r="14.4" fill="#3cd7d9" fill-rule="evenodd" fill-opacity="0.7" stroke="#ffffff" stroke-opacity="0.7" stroke-width="3.2"/>
<circle clip-path="url(#clip892)" cx="508.444" cy="1086.73" r="14.4" fill="#3cd7d9" fill-rule="evenodd" fill-opacity="0.7" stroke="#ffffff" stroke-opacity="0.7" stroke-width="3.2"/>
<circle clip-path="url(#clip892)" cx="211.556" cy="1436.83" r="14.4" fill="#3cd7d9" fill-rule="evenodd" fill-opacity="0.7" stroke="#ffffff" stroke-opacity="0.7" stroke-width="3.2"/>
<circle clip-path="url(#clip892)" cx="762.01" cy="898.578" r="14.4" fill="#3cd7d9" fill-rule="evenodd" fill-opacity="0.7" stroke="#ffffff" stroke-opacity="0.7" stroke-width="3.2"/>
<circle clip-path="url(#clip892)" cx="1064.6" cy="1197.56" r="14.4" fill="#3cd7d9" fill-rule="evenodd" fill-opacity="0.7" stroke="#ffffff" stroke-opacity="0.7" stroke-width="3.2"/>
<circle clip-path="url(#clip892)" cx="1005.89" cy="1060.84" r="14.4" fill="#3cd7d9" fill-rule="evenodd" fill-opacity="0.7" stroke="#ffffff" stroke-opacity="0.7" stroke-width="3.2"/>
<circle clip-path="url(#clip892)" cx="248.4" cy="865.884" r="14.4" fill="#3cd7d9" fill-rule="evenodd" fill-opacity="0.7" stroke="#ffffff" stroke-opacity="0.7" stroke-width="3.2"/>
<circle clip-path="url(#clip892)" cx="762.732" cy="1424.02" r="14.4" fill="#3cd7d9" fill-rule="evenodd" fill-opacity="0.7" stroke="#ffffff" stroke-opacity="0.7" stroke-width="3.2"/>
<circle clip-path="url(#clip892)" cx="381.434" cy="1428.2" r="14.4" fill="#3cd7d9" fill-rule="evenodd" fill-opacity="0.7" stroke="#ffffff" stroke-opacity="0.7" stroke-width="3.2"/>
<circle clip-path="url(#clip892)" cx="368.909" cy="1157.46" r="14.4" fill="#3cd7d9" fill-rule="evenodd" fill-opacity="0.7" stroke="#ffffff" stroke-opacity="0.7" stroke-width="3.2"/>
<circle clip-path="url(#clip892)" cx="654.249" cy="961.685" r="14.4" fill="#3cd7d9" fill-rule="evenodd" fill-opacity="0.7" stroke="#ffffff" stroke-opacity="0.7" stroke-width="3.2"/>
<circle clip-path="url(#clip892)" cx="324.299" cy="1027.71" r="14.4" fill="#3cd7d9" fill-rule="evenodd" fill-opacity="0.7" stroke="#ffffff" stroke-opacity="0.7" stroke-width="3.2"/>
<circle clip-path="url(#clip892)" cx="837.081" cy="923.422" r="14.4" fill="#3cd7d9" fill-rule="evenodd" fill-opacity="0.7" stroke="#ffffff" stroke-opacity="0.7" stroke-width="3.2"/>
<circle clip-path="url(#clip892)" cx="290.524" cy="1402.75" r="14.4" fill="#3cd7d9" fill-rule="evenodd" fill-opacity="0.7" stroke="#ffffff" stroke-opacity="0.7" stroke-width="3.2"/>
<circle clip-path="url(#clip892)" cx="1122.01" cy="1035.93" r="14.4" fill="#3cd7d9" fill-rule="evenodd" fill-opacity="0.7" stroke="#ffffff" stroke-opacity="0.7" stroke-width="3.2"/>
<circle clip-path="url(#clip892)" cx="296.067" cy="856.008" r="14.4" fill="#3cd7d9" fill-rule="evenodd" fill-opacity="0.7" stroke="#ffffff" stroke-opacity="0.7" stroke-width="3.2"/>
<circle clip-path="url(#clip892)" cx="746.264" cy="1131.38" r="14.4" fill="#3cd7d9" fill-rule="evenodd" fill-opacity="0.7" stroke="#ffffff" stroke-opacity="0.7" stroke-width="3.2"/>
<circle clip-path="url(#clip892)" cx="787.067" cy="1112.13" r="14.4" fill="#3cd7d9" fill-rule="evenodd" fill-opacity="0.7" stroke="#ffffff" stroke-opacity="0.7" stroke-width="3.2"/>
<circle clip-path="url(#clip892)" cx="713.17" cy="1025.64" r="14.4" fill="#3cd7d9" fill-rule="evenodd" fill-opacity="0.7" stroke="#ffffff" stroke-opacity="0.7" stroke-width="3.2"/>
<circle clip-path="url(#clip892)" cx="999.782" cy="1116.71" r="14.4" fill="#3cd7d9" fill-rule="evenodd" fill-opacity="0.7" stroke="#ffffff" stroke-opacity="0.7" stroke-width="3.2"/>
<circle clip-path="url(#clip892)" cx="1127.91" cy="981.461" r="14.4" fill="#3cd7d9" fill-rule="evenodd" fill-opacity="0.7" stroke="#ffffff" stroke-opacity="0.7" stroke-width="3.2"/>
<circle clip-path="url(#clip892)" cx="677.775" cy="994.465" r="14.4" fill="#3cd7d9" fill-rule="evenodd" fill-opacity="0.7" stroke="#ffffff" stroke-opacity="0.7" stroke-width="3.2"/>
<circle clip-path="url(#clip892)" cx="687.475" cy="940.78" r="14.4" fill="#3cd7d9" fill-rule="evenodd" fill-opacity="0.7" stroke="#ffffff" stroke-opacity="0.7" stroke-width="3.2"/>
<circle clip-path="url(#clip892)" cx="319.43" cy="841.858" r="14.4" fill="#3cd7d9" fill-rule="evenodd" fill-opacity="0.7" stroke="#ffffff" stroke-opacity="0.7" stroke-width="3.2"/>
<circle clip-path="url(#clip892)" cx="441.92" cy="1117.46" r="14.4" fill="#3cd7d9" fill-rule="evenodd" fill-opacity="0.7" stroke="#ffffff" stroke-opacity="0.7" stroke-width="3.2"/>
<circle clip-path="url(#clip892)" cx="1029.67" cy="1160.96" r="14.4" fill="#3cd7d9" fill-rule="evenodd" fill-opacity="0.7" stroke="#ffffff" stroke-opacity="0.7" stroke-width="3.2"/>
<circle clip-path="url(#clip892)" cx="680.976" cy="1415.78" r="14.4" fill="#3cd7d9" fill-rule="evenodd" fill-opacity="0.7" stroke="#ffffff" stroke-opacity="0.7" stroke-width="3.2"/>
<circle clip-path="url(#clip892)" cx="777.534" cy="1208.79" r="14.4" fill="#3cd7d9" fill-rule="evenodd" fill-opacity="0.7" stroke="#ffffff" stroke-opacity="0.7" stroke-width="3.2"/>
<circle clip-path="url(#clip892)" cx="239.372" cy="1034.09" r="14.4" fill="#3cd7d9" fill-rule="evenodd" fill-opacity="0.7" stroke="#ffffff" stroke-opacity="0.7" stroke-width="3.2"/>
<circle clip-path="url(#clip892)" cx="1038.71" cy="992.828" r="14.4" fill="#3cd7d9" fill-rule="evenodd" fill-opacity="0.7" stroke="#ffffff" stroke-opacity="0.7" stroke-width="3.2"/>
<circle clip-path="url(#clip892)" cx="429.473" cy="1146.43" r="14.4" fill="#3cd7d9" fill-rule="evenodd" fill-opacity="0.7" stroke="#ffffff" stroke-opacity="0.7" stroke-width="3.2"/>
<circle clip-path="url(#clip892)" cx="238.077" cy="1258.85" r="14.4" fill="#3cd7d9" fill-rule="evenodd" fill-opacity="0.7" stroke="#ffffff" stroke-opacity="0.7" stroke-width="3.2"/>
<circle clip-path="url(#clip892)" cx="850.178" cy="1376.86" r="14.4" fill="#3cd7d9" fill-rule="evenodd" fill-opacity="0.7" stroke="#ffffff" stroke-opacity="0.7" stroke-width="3.2"/>
<circle clip-path="url(#clip892)" cx="878.065" cy="1171.5" r="14.4" fill="#3cd7d9" fill-rule="evenodd" fill-opacity="0.7" stroke="#ffffff" stroke-opacity="0.7" stroke-width="3.2"/>
<circle clip-path="url(#clip892)" cx="889.511" cy="1319.39" r="14.4" fill="#3cd7d9" fill-rule="evenodd" fill-opacity="0.7" stroke="#ffffff" stroke-opacity="0.7" stroke-width="3.2"/>
<circle clip-path="url(#clip892)" cx="954.183" cy="1107.85" r="14.4" fill="#3cd7d9" fill-rule="evenodd" fill-opacity="0.7" stroke="#ffffff" stroke-opacity="0.7" stroke-width="3.2"/>
<circle clip-path="url(#clip892)" cx="1022.97" cy="1342.47" r="14.4" fill="#3cd7d9" fill-rule="evenodd" fill-opacity="0.7" stroke="#ffffff" stroke-opacity="0.7" stroke-width="3.2"/>
<circle clip-path="url(#clip892)" cx="644.617" cy="1006.3" r="14.4" fill="#3cd7d9" fill-rule="evenodd" fill-opacity="0.7" stroke="#ffffff" stroke-opacity="0.7" stroke-width="3.2"/>
<circle clip-path="url(#clip892)" cx="628.159" cy="1163.88" r="14.4" fill="#3cd7d9" fill-rule="evenodd" fill-opacity="0.7" stroke="#ffffff" stroke-opacity="0.7" stroke-width="3.2"/>
<circle clip-path="url(#clip892)" cx="266.824" cy="1373.86" r="14.4" fill="#3cd7d9" fill-rule="evenodd" fill-opacity="0.7" stroke="#ffffff" stroke-opacity="0.7" stroke-width="3.2"/>
<circle clip-path="url(#clip892)" cx="1056.1" cy="1433.84" r="14.4" fill="#3cd7d9" fill-rule="evenodd" fill-opacity="0.7" stroke="#ffffff" stroke-opacity="0.7" stroke-width="3.2"/>
<circle clip-path="url(#clip892)" cx="891.557" cy="1445.72" r="14.4" fill="#3cd7d9" fill-rule="evenodd" fill-opacity="0.7" stroke="#ffffff" stroke-opacity="0.7" stroke-width="3.2"/>
<circle clip-path="url(#clip892)" cx="1120.19" cy="1416.19" r="14.4" fill="#3cd7d9" fill-rule="evenodd" fill-opacity="0.7" stroke="#ffffff" stroke-opacity="0.7" stroke-width="3.2"/>
<circle clip-path="url(#clip892)" cx="932.806" cy="964.946" r="14.4" fill="#3cd7d9" fill-rule="evenodd" fill-opacity="0.7" stroke="#ffffff" stroke-opacity="0.7" stroke-width="3.2"/>
<circle clip-path="url(#clip892)" cx="424.549" cy="1249.96" r="14.4" fill="#3cd7d9" fill-rule="evenodd" fill-opacity="0.7" stroke="#ffffff" stroke-opacity="0.7" stroke-width="3.2"/>
<circle clip-path="url(#clip892)" cx="386.27" cy="993.26" r="14.4" fill="#3cd7d9" fill-rule="evenodd" fill-opacity="0.7" stroke="#ffffff" stroke-opacity="0.7" stroke-width="3.2"/>
<circle clip-path="url(#clip892)" cx="501.641" cy="1371.11" r="14.4" fill="#3cd7d9" fill-rule="evenodd" fill-opacity="0.7" stroke="#ffffff" stroke-opacity="0.7" stroke-width="3.2"/>
<circle clip-path="url(#clip892)" cx="563.849" cy="1430.66" r="14.4" fill="#3cd7d9" fill-rule="evenodd" fill-opacity="0.7" stroke="#ffffff" stroke-opacity="0.7" stroke-width="3.2"/>
<circle clip-path="url(#clip892)" cx="926.565" cy="1223.2" r="14.4" fill="#3cd7d9" fill-rule="evenodd" fill-opacity="0.7" stroke="#ffffff" stroke-opacity="0.7" stroke-width="3.2"/>
<circle clip-path="url(#clip892)" cx="600.841" cy="1435.32" r="14.4" fill="#3cd7d9" fill-rule="evenodd" fill-opacity="0.7" stroke="#ffffff" stroke-opacity="0.7" stroke-width="3.2"/>
<circle clip-path="url(#clip892)" cx="2072.22" cy="307.558" r="14.4" fill="#ff7300" fill-rule="evenodd" fill-opacity="0.7" stroke="#ffffff" stroke-opacity="0.7" stroke-width="3.2"/>
<circle clip-path="url(#clip892)" cx="1670.93" cy="332.844" r="14.4" fill="#ff7300" fill-rule="evenodd" fill-opacity="0.7" stroke="#ffffff" stroke-opacity="0.7" stroke-width="3.2"/>
<circle clip-path="url(#clip892)" cx="1374.04" cy="682.944" r="14.4" fill="#ff7300" fill-rule="evenodd" fill-opacity="0.7" stroke="#ffffff" stroke-opacity="0.7" stroke-width="3.2"/>
<circle clip-path="url(#clip892)" cx="1924.49" cy="144.696" r="14.4" fill="#ff7300" fill-rule="evenodd" fill-opacity="0.7" stroke="#ffffff" stroke-opacity="0.7" stroke-width="3.2"/>
<circle clip-path="url(#clip892)" cx="2227.09" cy="443.68" r="14.4" fill="#ff7300" fill-rule="evenodd" fill-opacity="0.7" stroke="#ffffff" stroke-opacity="0.7" stroke-width="3.2"/>
<circle clip-path="url(#clip892)" cx="2168.37" cy="306.954" r="14.4" fill="#ff7300" fill-rule="evenodd" fill-opacity="0.7" stroke="#ffffff" stroke-opacity="0.7" stroke-width="3.2"/>
<circle clip-path="url(#clip892)" cx="1410.88" cy="112.002" r="14.4" fill="#ff7300" fill-rule="evenodd" fill-opacity="0.7" stroke="#ffffff" stroke-opacity="0.7" stroke-width="3.2"/>
<circle clip-path="url(#clip892)" cx="1925.22" cy="670.133" r="14.4" fill="#ff7300" fill-rule="evenodd" fill-opacity="0.7" stroke="#ffffff" stroke-opacity="0.7" stroke-width="3.2"/>
<circle clip-path="url(#clip892)" cx="1543.92" cy="674.318" r="14.4" fill="#ff7300" fill-rule="evenodd" fill-opacity="0.7" stroke="#ffffff" stroke-opacity="0.7" stroke-width="3.2"/>
<circle clip-path="url(#clip892)" cx="1531.39" cy="403.574" r="14.4" fill="#ff7300" fill-rule="evenodd" fill-opacity="0.7" stroke="#ffffff" stroke-opacity="0.7" stroke-width="3.2"/>
<circle clip-path="url(#clip892)" cx="1816.73" cy="207.803" r="14.4" fill="#ff7300" fill-rule="evenodd" fill-opacity="0.7" stroke="#ffffff" stroke-opacity="0.7" stroke-width="3.2"/>
<circle clip-path="url(#clip892)" cx="1486.78" cy="273.826" r="14.4" fill="#ff7300" fill-rule="evenodd" fill-opacity="0.7" stroke="#ffffff" stroke-opacity="0.7" stroke-width="3.2"/>
<circle clip-path="url(#clip892)" cx="1999.56" cy="169.54" r="14.4" fill="#ff7300" fill-rule="evenodd" fill-opacity="0.7" stroke="#ffffff" stroke-opacity="0.7" stroke-width="3.2"/>
<circle clip-path="url(#clip892)" cx="1453.01" cy="648.864" r="14.4" fill="#ff7300" fill-rule="evenodd" fill-opacity="0.7" stroke="#ffffff" stroke-opacity="0.7" stroke-width="3.2"/>
<circle clip-path="url(#clip892)" cx="2284.49" cy="282.051" r="14.4" fill="#ff7300" fill-rule="evenodd" fill-opacity="0.7" stroke="#ffffff" stroke-opacity="0.7" stroke-width="3.2"/>
<circle clip-path="url(#clip892)" cx="1458.55" cy="102.126" r="14.4" fill="#ff7300" fill-rule="evenodd" fill-opacity="0.7" stroke="#ffffff" stroke-opacity="0.7" stroke-width="3.2"/>
<circle clip-path="url(#clip892)" cx="1908.75" cy="377.496" r="14.4" fill="#ff7300" fill-rule="evenodd" fill-opacity="0.7" stroke="#ffffff" stroke-opacity="0.7" stroke-width="3.2"/>
<circle clip-path="url(#clip892)" cx="1949.55" cy="358.247" r="14.4" fill="#ff7300" fill-rule="evenodd" fill-opacity="0.7" stroke="#ffffff" stroke-opacity="0.7" stroke-width="3.2"/>
<circle clip-path="url(#clip892)" cx="1875.65" cy="271.759" r="14.4" fill="#ff7300" fill-rule="evenodd" fill-opacity="0.7" stroke="#ffffff" stroke-opacity="0.7" stroke-width="3.2"/>
<circle clip-path="url(#clip892)" cx="2162.27" cy="362.832" r="14.4" fill="#ff7300" fill-rule="evenodd" fill-opacity="0.7" stroke="#ffffff" stroke-opacity="0.7" stroke-width="3.2"/>
<circle clip-path="url(#clip892)" cx="2290.39" cy="227.579" r="14.4" fill="#ff7300" fill-rule="evenodd" fill-opacity="0.7" stroke="#ffffff" stroke-opacity="0.7" stroke-width="3.2"/>
<circle clip-path="url(#clip892)" cx="1840.26" cy="240.583" r="14.4" fill="#ff7300" fill-rule="evenodd" fill-opacity="0.7" stroke="#ffffff" stroke-opacity="0.7" stroke-width="3.2"/>
<circle clip-path="url(#clip892)" cx="1849.96" cy="186.898" r="14.4" fill="#ff7300" fill-rule="evenodd" fill-opacity="0.7" stroke="#ffffff" stroke-opacity="0.7" stroke-width="3.2"/>
<circle clip-path="url(#clip892)" cx="1481.91" cy="87.9763" r="14.4" fill="#ff7300" fill-rule="evenodd" fill-opacity="0.7" stroke="#ffffff" stroke-opacity="0.7" stroke-width="3.2"/>
<circle clip-path="url(#clip892)" cx="1604.4" cy="363.578" r="14.4" fill="#ff7300" fill-rule="evenodd" fill-opacity="0.7" stroke="#ffffff" stroke-opacity="0.7" stroke-width="3.2"/>
<circle clip-path="url(#clip892)" cx="2192.15" cy="407.08" r="14.4" fill="#ff7300" fill-rule="evenodd" fill-opacity="0.7" stroke="#ffffff" stroke-opacity="0.7" stroke-width="3.2"/>
<circle clip-path="url(#clip892)" cx="1843.46" cy="661.897" r="14.4" fill="#ff7300" fill-rule="evenodd" fill-opacity="0.7" stroke="#ffffff" stroke-opacity="0.7" stroke-width="3.2"/>
<circle clip-path="url(#clip892)" cx="1940.02" cy="454.908" r="14.4" fill="#ff7300" fill-rule="evenodd" fill-opacity="0.7" stroke="#ffffff" stroke-opacity="0.7" stroke-width="3.2"/>
<circle clip-path="url(#clip892)" cx="1401.86" cy="280.211" r="14.4" fill="#ff7300" fill-rule="evenodd" fill-opacity="0.7" stroke="#ffffff" stroke-opacity="0.7" stroke-width="3.2"/>
<circle clip-path="url(#clip892)" cx="2201.2" cy="238.946" r="14.4" fill="#ff7300" fill-rule="evenodd" fill-opacity="0.7" stroke="#ffffff" stroke-opacity="0.7" stroke-width="3.2"/>
<circle clip-path="url(#clip892)" cx="1591.96" cy="392.543" r="14.4" fill="#ff7300" fill-rule="evenodd" fill-opacity="0.7" stroke="#ffffff" stroke-opacity="0.7" stroke-width="3.2"/>
<circle clip-path="url(#clip892)" cx="1400.56" cy="504.967" r="14.4" fill="#ff7300" fill-rule="evenodd" fill-opacity="0.7" stroke="#ffffff" stroke-opacity="0.7" stroke-width="3.2"/>
<circle clip-path="url(#clip892)" cx="2012.66" cy="622.975" r="14.4" fill="#ff7300" fill-rule="evenodd" fill-opacity="0.7" stroke="#ffffff" stroke-opacity="0.7" stroke-width="3.2"/>
<circle clip-path="url(#clip892)" cx="2040.55" cy="417.617" r="14.4" fill="#ff7300" fill-rule="evenodd" fill-opacity="0.7" stroke="#ffffff" stroke-opacity="0.7" stroke-width="3.2"/>
<circle clip-path="url(#clip892)" cx="2051.99" cy="565.504" r="14.4" fill="#ff7300" fill-rule="evenodd" fill-opacity="0.7" stroke="#ffffff" stroke-opacity="0.7" stroke-width="3.2"/>
<circle clip-path="url(#clip892)" cx="2116.67" cy="353.97" r="14.4" fill="#ff7300" fill-rule="evenodd" fill-opacity="0.7" stroke="#ffffff" stroke-opacity="0.7" stroke-width="3.2"/>
<circle clip-path="url(#clip892)" cx="2185.45" cy="588.585" r="14.4" fill="#ff7300" fill-rule="evenodd" fill-opacity="0.7" stroke="#ffffff" stroke-opacity="0.7" stroke-width="3.2"/>
<circle clip-path="url(#clip892)" cx="1807.1" cy="252.423" r="14.4" fill="#ff7300" fill-rule="evenodd" fill-opacity="0.7" stroke="#ffffff" stroke-opacity="0.7" stroke-width="3.2"/>
<circle clip-path="url(#clip892)" cx="1790.64" cy="410.003" r="14.4" fill="#ff7300" fill-rule="evenodd" fill-opacity="0.7" stroke="#ffffff" stroke-opacity="0.7" stroke-width="3.2"/>
<circle clip-path="url(#clip892)" cx="1429.31" cy="619.981" r="14.4" fill="#ff7300" fill-rule="evenodd" fill-opacity="0.7" stroke="#ffffff" stroke-opacity="0.7" stroke-width="3.2"/>
<circle clip-path="url(#clip892)" cx="2218.58" cy="679.956" r="14.4" fill="#ff7300" fill-rule="evenodd" fill-opacity="0.7" stroke="#ffffff" stroke-opacity="0.7" stroke-width="3.2"/>
<circle clip-path="url(#clip892)" cx="2054.04" cy="691.834" r="14.4" fill="#ff7300" fill-rule="evenodd" fill-opacity="0.7" stroke="#ffffff" stroke-opacity="0.7" stroke-width="3.2"/>
<circle clip-path="url(#clip892)" cx="2282.67" cy="662.309" r="14.4" fill="#ff7300" fill-rule="evenodd" fill-opacity="0.7" stroke="#ffffff" stroke-opacity="0.7" stroke-width="3.2"/>
<circle clip-path="url(#clip892)" cx="2095.29" cy="211.064" r="14.4" fill="#ff7300" fill-rule="evenodd" fill-opacity="0.7" stroke="#ffffff" stroke-opacity="0.7" stroke-width="3.2"/>
<circle clip-path="url(#clip892)" cx="1587.03" cy="496.079" r="14.4" fill="#ff7300" fill-rule="evenodd" fill-opacity="0.7" stroke="#ffffff" stroke-opacity="0.7" stroke-width="3.2"/>
<circle clip-path="url(#clip892)" cx="1548.75" cy="239.378" r="14.4" fill="#ff7300" fill-rule="evenodd" fill-opacity="0.7" stroke="#ffffff" stroke-opacity="0.7" stroke-width="3.2"/>
<circle clip-path="url(#clip892)" cx="1664.12" cy="617.226" r="14.4" fill="#ff7300" fill-rule="evenodd" fill-opacity="0.7" stroke="#ffffff" stroke-opacity="0.7" stroke-width="3.2"/>
<circle clip-path="url(#clip892)" cx="1726.33" cy="676.779" r="14.4" fill="#ff7300" fill-rule="evenodd" fill-opacity="0.7" stroke="#ffffff" stroke-opacity="0.7" stroke-width="3.2"/>
<circle clip-path="url(#clip892)" cx="2089.05" cy="469.321" r="14.4" fill="#ff7300" fill-rule="evenodd" fill-opacity="0.7" stroke="#ffffff" stroke-opacity="0.7" stroke-width="3.2"/>
<circle clip-path="url(#clip892)" cx="1763.32" cy="681.439" r="14.4" fill="#ff7300" fill-rule="evenodd" fill-opacity="0.7" stroke="#ffffff" stroke-opacity="0.7" stroke-width="3.2"/>
<line clip-path="url(#clip892)" x1="324.299" y1="1027.71" x2="324.299" y2="987.708" style="stroke:#8b0000; stroke-width:16; stroke-opacity:1"/>
<line clip-path="url(#clip892)" x1="324.299" y1="1027.71" x2="284.299" y2="1027.71" style="stroke:#8b0000; stroke-width:16; stroke-opacity:1"/>
<line clip-path="url(#clip892)" x1="324.299" y1="1027.71" x2="324.299" y2="1067.71" style="stroke:#8b0000; stroke-width:16; stroke-opacity:1"/>
<line clip-path="url(#clip892)" x1="324.299" y1="1027.71" x2="364.299" y2="1027.71" style="stroke:#8b0000; stroke-width:16; stroke-opacity:1"/>
<path clip-path="url(#clip890)" d="
M1676.15 1438.47 L2279.3 1438.47 L2279.3 1231.11 L1676.15 1231.11  Z
  " fill="#12273f" fill-rule="evenodd" fill-opacity="1"/>
<polyline clip-path="url(#clip890)" style="stroke:#ffffff; stroke-linecap:round; stroke-linejoin:round; stroke-width:4; stroke-opacity:1; fill:none" points="
  1676.15,1438.47 2279.3,1438.47 2279.3,1231.11 1676.15,1231.11 1676.15,1438.47 
  "/>
<circle clip-path="url(#clip890)" cx="1774.09" cy="1282.95" r="23.04" fill="#3cd7d9" fill-rule="evenodd" fill-opacity="0.7" stroke="#ffffff" stroke-opacity="0.7" stroke-width="5.12"/>
<path clip-path="url(#clip890)" d="M1883.97 1268.75 Q1880.36 1268.75 1878.53 1272.32 Q1876.73 1275.86 1876.73 1282.99 Q1876.73 1290.1 1878.53 1293.66 Q1880.36 1297.2 1883.97 1297.2 Q1887.61 1297.2 1889.41 1293.66 Q1891.24 1290.1 1891.24 1282.99 Q1891.24 1275.86 1889.41 1272.32 Q1887.61 1268.75 1883.97 1268.75 M1883.97 1265.05 Q1889.78 1265.05 1892.84 1269.66 Q1895.92 1274.24 1895.92 1282.99 Q1895.92 1291.72 1892.84 1296.32 Q1889.78 1300.91 1883.97 1300.91 Q1878.16 1300.91 1875.08 1296.32 Q1872.03 1291.72 1872.03 1282.99 Q1872.03 1274.24 1875.08 1269.66 Q1878.16 1265.05 1883.97 1265.05 Z" fill="#ffffff" fill-rule="evenodd" fill-opacity="1" /><path clip-path="url(#clip890)" d="M1904.13 1294.35 L1909.02 1294.35 L1909.02 1300.23 L1904.13 1300.23 L1904.13 1294.35 Z" fill="#ffffff" fill-rule="evenodd" fill-opacity="1" /><path clip-path="url(#clip890)" d="M1929.2 1268.75 Q1925.59 1268.75 1923.76 1272.32 Q1921.96 1275.86 1921.96 1282.99 Q1921.96 1290.1 1923.76 1293.66 Q1925.59 1297.2 1929.2 1297.2 Q1932.84 1297.2 1934.64 1293.66 Q1936.47 1290.1 1936.47 1282.99 Q1936.47 1275.86 1934.64 1272.32 Q1932.84 1268.75 1929.2 1268.75 M1929.2 1265.05 Q1935.01 1265.05 1938.07 1269.66 Q1941.15 1274.24 1941.15 1282.99 Q1941.15 1291.72 1938.07 1296.32 Q1935.01 1300.91 1929.2 1300.91 Q1923.39 1300.91 1920.31 1296.32 Q1917.26 1291.72 1917.26 1282.99 Q1917.26 1274.24 1920.31 1269.66 Q1923.39 1265.05 1929.2 1265.05 Z" fill="#ffffff" fill-rule="evenodd" fill-opacity="1" /><circle clip-path="url(#clip890)" cx="1774.09" cy="1334.79" r="23.04" fill="#ff7300" fill-rule="evenodd" fill-opacity="0.7" stroke="#ffffff" stroke-opacity="0.7" stroke-width="5.12"/>
<path clip-path="url(#clip890)" d="M1872.7 1348.14 L1880.34 1348.14 L1880.34 1321.77 L1872.03 1323.44 L1872.03 1319.18 L1880.29 1317.51 L1884.97 1317.51 L1884.97 1348.14 L1892.61 1348.14 L1892.61 1352.07 L1872.7 1352.07 L1872.7 1348.14 Z" fill="#ffffff" fill-rule="evenodd" fill-opacity="1" /><path clip-path="url(#clip890)" d="M1902.05 1346.19 L1906.93 1346.19 L1906.93 1352.07 L1902.05 1352.07 L1902.05 1346.19 Z" fill="#ffffff" fill-rule="evenodd" fill-opacity="1" /><path clip-path="url(#clip890)" d="M1927.12 1320.59 Q1923.51 1320.59 1921.68 1324.16 Q1919.87 1327.7 1919.87 1334.83 Q1919.87 1341.94 1921.68 1345.5 Q1923.51 1349.04 1927.12 1349.04 Q1930.75 1349.04 1932.56 1345.5 Q1934.39 1341.94 1934.39 1334.83 Q1934.39 1327.7 1932.56 1324.16 Q1930.75 1320.59 1927.12 1320.59 M1927.12 1316.89 Q1932.93 1316.89 1935.99 1321.5 Q1939.06 1326.08 1939.06 1334.83 Q1939.06 1343.56 1935.99 1348.16 Q1932.93 1352.75 1927.12 1352.75 Q1921.31 1352.75 1918.23 1348.16 Q1915.18 1343.56 1915.18 1334.83 Q1915.18 1326.08 1918.23 1321.5 Q1921.31 1316.89 1927.12 1316.89 Z" fill="#ffffff" fill-rule="evenodd" fill-opacity="1" /><line clip-path="url(#clip890)" x1="1774.09" y1="1386.63" x2="1774.09" y2="1361.03" style="stroke:#8b0000; stroke-width:10.24; stroke-opacity:1"/>
<line clip-path="url(#clip890)" x1="1774.09" y1="1386.63" x2="1748.49" y2="1386.63" style="stroke:#8b0000; stroke-width:10.24; stroke-opacity:1"/>
<line clip-path="url(#clip890)" x1="1774.09" y1="1386.63" x2="1774.09" y2="1412.23" style="stroke:#8b0000; stroke-width:10.24; stroke-opacity:1"/>
<line clip-path="url(#clip890)" x1="1774.09" y1="1386.63" x2="1799.69" y2="1386.63" style="stroke:#8b0000; stroke-width:10.24; stroke-opacity:1"/>
<path clip-path="url(#clip890)" d="M1899.9 1372.02 L1899.9 1376.95 Q1897.54 1374.75 1894.85 1373.66 Q1892.19 1372.57 1889.18 1372.57 Q1883.25 1372.57 1880.11 1376.21 Q1876.96 1379.82 1876.96 1386.67 Q1876.96 1393.5 1880.11 1397.13 Q1883.25 1400.74 1889.18 1400.74 Q1892.19 1400.74 1894.85 1399.66 Q1897.54 1398.57 1899.9 1396.37 L1899.9 1401.25 Q1897.44 1402.92 1894.69 1403.75 Q1891.96 1404.59 1888.9 1404.59 Q1881.06 1404.59 1876.54 1399.79 Q1872.03 1394.98 1872.03 1386.67 Q1872.03 1378.34 1876.54 1373.54 Q1881.06 1368.73 1888.9 1368.73 Q1892 1368.73 1894.74 1369.56 Q1897.49 1370.37 1899.9 1372.02 Z" fill="#ffffff" fill-rule="evenodd" fill-opacity="1" /><path clip-path="url(#clip890)" d="M1928.49 1388.27 L1928.49 1403.91 L1924.23 1403.91 L1924.23 1388.41 Q1924.23 1384.72 1922.79 1382.9 Q1921.36 1381.07 1918.49 1381.07 Q1915.04 1381.07 1913.05 1383.27 Q1911.05 1385.47 1911.05 1389.26 L1911.05 1403.91 L1906.77 1403.91 L1906.77 1367.9 L1911.05 1367.9 L1911.05 1382.02 Q1912.58 1379.68 1914.64 1378.52 Q1916.73 1377.36 1919.43 1377.36 Q1923.9 1377.36 1926.19 1380.14 Q1928.49 1382.9 1928.49 1388.27 Z" fill="#ffffff" fill-rule="evenodd" fill-opacity="1" /><path clip-path="url(#clip890)" d="M1947.03 1380.97 Q1943.6 1380.97 1941.61 1383.66 Q1939.62 1386.32 1939.62 1390.97 Q1939.62 1395.63 1941.59 1398.31 Q1943.58 1400.97 1947.03 1400.97 Q1950.43 1400.97 1952.42 1398.29 Q1954.41 1395.6 1954.41 1390.97 Q1954.41 1386.37 1952.42 1383.68 Q1950.43 1380.97 1947.03 1380.97 M1947.03 1377.36 Q1952.58 1377.36 1955.75 1380.97 Q1958.93 1384.59 1958.93 1390.97 Q1958.93 1397.34 1955.75 1400.97 Q1952.58 1404.59 1947.03 1404.59 Q1941.45 1404.59 1938.28 1400.97 Q1935.13 1397.34 1935.13 1390.97 Q1935.13 1384.59 1938.28 1380.97 Q1941.45 1377.36 1947.03 1377.36 Z" fill="#ffffff" fill-rule="evenodd" fill-opacity="1" /><path clip-path="url(#clip890)" d="M1982.51 1378.75 L1982.51 1382.78 Q1980.71 1381.85 1978.76 1381.39 Q1976.82 1380.93 1974.74 1380.93 Q1971.56 1380.93 1969.97 1381.9 Q1968.39 1382.87 1968.39 1384.82 Q1968.39 1386.3 1969.53 1387.16 Q1970.66 1387.99 1974.09 1388.75 L1975.55 1389.08 Q1980.08 1390.05 1981.98 1391.83 Q1983.9 1393.59 1983.9 1396.76 Q1983.9 1400.37 1981.03 1402.48 Q1978.18 1404.59 1973.18 1404.59 Q1971.1 1404.59 1968.83 1404.17 Q1966.59 1403.78 1964.09 1402.97 L1964.09 1398.57 Q1966.45 1399.79 1968.74 1400.42 Q1971.03 1401.02 1973.28 1401.02 Q1976.29 1401.02 1977.91 1400 Q1979.53 1398.96 1979.53 1397.09 Q1979.53 1395.35 1978.35 1394.42 Q1977.19 1393.5 1973.23 1392.64 L1971.75 1392.29 Q1967.79 1391.46 1966.03 1389.75 Q1964.27 1388.01 1964.27 1385 Q1964.27 1381.35 1966.86 1379.35 Q1969.46 1377.36 1974.23 1377.36 Q1976.59 1377.36 1978.67 1377.71 Q1980.75 1378.06 1982.51 1378.75 Z" fill="#ffffff" fill-rule="evenodd" fill-opacity="1" /><path clip-path="url(#clip890)" d="M2012.86 1389.89 L2012.86 1391.97 L1993.28 1391.97 Q1993.55 1396.37 1995.92 1398.68 Q1998.3 1400.97 2002.54 1400.97 Q2004.99 1400.97 2007.28 1400.37 Q2009.6 1399.77 2011.86 1398.57 L2011.86 1402.59 Q2009.57 1403.57 2007.17 1404.08 Q2004.76 1404.59 2002.28 1404.59 Q1996.08 1404.59 1992.44 1400.97 Q1988.83 1397.36 1988.83 1391.21 Q1988.83 1384.84 1992.26 1381.11 Q1995.71 1377.36 2001.54 1377.36 Q2006.77 1377.36 2009.8 1380.74 Q2012.86 1384.1 2012.86 1389.89 M2008.6 1388.64 Q2008.55 1385.14 2006.63 1383.06 Q2004.73 1380.97 2001.59 1380.97 Q1998.02 1380.97 1995.87 1382.99 Q1993.74 1385 1993.42 1388.66 L2008.6 1388.64 Z" fill="#ffffff" fill-rule="evenodd" fill-opacity="1" /><path clip-path="url(#clip890)" d="M2041.4 1388.27 L2041.4 1403.91 L2037.14 1403.91 L2037.14 1388.41 Q2037.14 1384.72 2035.71 1382.9 Q2034.27 1381.07 2031.4 1381.07 Q2027.95 1381.07 2025.96 1383.27 Q2023.97 1385.47 2023.97 1389.26 L2023.97 1403.91 L2019.69 1403.91 L2019.69 1377.99 L2023.97 1377.99 L2023.97 1382.02 Q2025.5 1379.68 2027.56 1378.52 Q2029.64 1377.36 2032.35 1377.36 Q2036.82 1377.36 2039.11 1380.14 Q2041.4 1382.9 2041.4 1388.27 Z" fill="#ffffff" fill-rule="evenodd" fill-opacity="1" /><path clip-path="url(#clip890)" d="M2081.49 1378.75 L2081.49 1382.78 Q2079.69 1381.85 2077.74 1381.39 Q2075.8 1380.93 2073.72 1380.93 Q2070.54 1380.93 2068.95 1381.9 Q2067.37 1382.87 2067.37 1384.82 Q2067.37 1386.3 2068.51 1387.16 Q2069.64 1387.99 2073.07 1388.75 L2074.53 1389.08 Q2079.06 1390.05 2080.96 1391.83 Q2082.88 1393.59 2082.88 1396.76 Q2082.88 1400.37 2080.01 1402.48 Q2077.17 1404.59 2072.17 1404.59 Q2070.08 1404.59 2067.81 1404.17 Q2065.57 1403.78 2063.07 1402.97 L2063.07 1398.57 Q2065.43 1399.79 2067.72 1400.42 Q2070.01 1401.02 2072.26 1401.02 Q2075.27 1401.02 2076.89 1400 Q2078.51 1398.96 2078.51 1397.09 Q2078.51 1395.35 2077.33 1394.42 Q2076.17 1393.5 2072.21 1392.64 L2070.73 1392.29 Q2066.77 1391.46 2065.01 1389.75 Q2063.25 1388.01 2063.25 1385 Q2063.25 1381.35 2065.85 1379.35 Q2068.44 1377.36 2073.21 1377.36 Q2075.57 1377.36 2077.65 1377.71 Q2079.73 1378.06 2081.49 1378.75 Z" fill="#ffffff" fill-rule="evenodd" fill-opacity="1" /><path clip-path="url(#clip890)" d="M2101.45 1390.88 Q2096.29 1390.88 2094.29 1392.06 Q2092.3 1393.24 2092.3 1396.09 Q2092.3 1398.36 2093.79 1399.7 Q2095.29 1401.02 2097.86 1401.02 Q2101.4 1401.02 2103.53 1398.52 Q2105.68 1396 2105.68 1391.83 L2105.68 1390.88 L2101.45 1390.88 M2109.94 1389.12 L2109.94 1403.91 L2105.68 1403.91 L2105.68 1399.98 Q2104.23 1402.34 2102.05 1403.47 Q2099.87 1404.59 2096.73 1404.59 Q2092.74 1404.59 2090.38 1402.36 Q2088.04 1400.12 2088.04 1396.37 Q2088.04 1391.99 2090.96 1389.77 Q2093.9 1387.55 2099.71 1387.55 L2105.68 1387.55 L2105.68 1387.13 Q2105.68 1384.19 2103.74 1382.6 Q2101.82 1380.97 2098.32 1380.97 Q2096.1 1380.97 2093.99 1381.51 Q2091.89 1382.04 2089.94 1383.1 L2089.94 1379.17 Q2092.28 1378.27 2094.48 1377.83 Q2096.68 1377.36 2098.76 1377.36 Q2104.39 1377.36 2107.16 1380.28 Q2109.94 1383.2 2109.94 1389.12 Z" fill="#ffffff" fill-rule="evenodd" fill-opacity="1" /><path clip-path="url(#clip890)" d="M2138.9 1382.97 Q2140.5 1380.1 2142.72 1378.73 Q2144.94 1377.36 2147.95 1377.36 Q2152 1377.36 2154.2 1380.21 Q2156.4 1383.03 2156.4 1388.27 L2156.4 1403.91 L2152.12 1403.91 L2152.12 1388.41 Q2152.12 1384.68 2150.8 1382.87 Q2149.48 1381.07 2146.77 1381.07 Q2143.46 1381.07 2141.54 1383.27 Q2139.62 1385.47 2139.62 1389.26 L2139.62 1403.91 L2135.34 1403.91 L2135.34 1388.41 Q2135.34 1384.66 2134.02 1382.87 Q2132.7 1381.07 2129.94 1381.07 Q2126.68 1381.07 2124.76 1383.29 Q2122.84 1385.49 2122.84 1389.26 L2122.84 1403.91 L2118.55 1403.91 L2118.55 1377.99 L2122.84 1377.99 L2122.84 1382.02 Q2124.29 1379.63 2126.33 1378.5 Q2128.37 1377.36 2131.17 1377.36 Q2133.99 1377.36 2135.96 1378.8 Q2137.95 1380.23 2138.9 1382.97 Z" fill="#ffffff" fill-rule="evenodd" fill-opacity="1" /><path clip-path="url(#clip890)" d="M2169.02 1400.03 L2169.02 1413.78 L2164.73 1413.78 L2164.73 1377.99 L2169.02 1377.99 L2169.02 1381.92 Q2170.36 1379.61 2172.4 1378.5 Q2174.46 1377.36 2177.3 1377.36 Q2182.03 1377.36 2184.97 1381.11 Q2187.93 1384.86 2187.93 1390.97 Q2187.93 1397.09 2184.97 1400.84 Q2182.03 1404.59 2177.3 1404.59 Q2174.46 1404.59 2172.4 1403.47 Q2170.36 1402.34 2169.02 1400.03 M2183.51 1390.97 Q2183.51 1386.28 2181.56 1383.61 Q2179.64 1380.93 2176.26 1380.93 Q2172.88 1380.93 2170.94 1383.61 Q2169.02 1386.28 2169.02 1390.97 Q2169.02 1395.67 2170.94 1398.36 Q2172.88 1401.02 2176.26 1401.02 Q2179.64 1401.02 2181.56 1398.36 Q2183.51 1395.67 2183.51 1390.97 Z" fill="#ffffff" fill-rule="evenodd" fill-opacity="1" /><path clip-path="url(#clip890)" d="M2194.99 1367.9 L2199.25 1367.9 L2199.25 1403.91 L2194.99 1403.91 L2194.99 1367.9 Z" fill="#ffffff" fill-rule="evenodd" fill-opacity="1" /><path clip-path="url(#clip890)" d="M2230.34 1389.89 L2230.34 1391.97 L2210.75 1391.97 Q2211.03 1396.37 2213.39 1398.68 Q2215.78 1400.97 2220.01 1400.97 Q2222.47 1400.97 2224.76 1400.37 Q2227.07 1399.77 2229.34 1398.57 L2229.34 1402.59 Q2227.05 1403.57 2224.64 1404.08 Q2222.23 1404.59 2219.76 1404.59 Q2213.55 1404.59 2209.92 1400.97 Q2206.31 1397.36 2206.31 1391.21 Q2206.31 1384.84 2209.73 1381.11 Q2213.18 1377.36 2219.02 1377.36 Q2224.25 1377.36 2227.28 1380.74 Q2230.34 1384.1 2230.34 1389.89 M2226.08 1388.64 Q2226.03 1385.14 2224.11 1383.06 Q2222.21 1380.97 2219.06 1380.97 Q2215.5 1380.97 2213.34 1382.99 Q2211.22 1385 2210.89 1388.66 L2226.08 1388.64 Z" fill="#ffffff" fill-rule="evenodd" fill-opacity="1" /></svg>
