<?xml version="1.0" encoding="utf-8"?>
<svg xmlns="http://www.w3.org/2000/svg" xmlns:xlink="http://www.w3.org/1999/xlink" width="600" height="400" viewBox="0 0 2400 1600">
<defs>
  <clipPath id="clip290">
    <rect x="0" y="0" width="2400" height="1600"/>
  </clipPath>
</defs>
<path clip-path="url(#clip290)" d="
M0 1600 L2400 1600 L2400 0 L0 0  Z
  " fill="#12273f" fill-rule="evenodd" fill-opacity="1"/>
<defs>
  <clipPath id="clip291">
    <rect x="480" y="0" width="1681" height="1600"/>
  </clipPath>
</defs>
<path clip-path="url(#clip290)" d="
M210.746 1423.18 L2352.76 1423.18 L2352.76 47.2441 L210.746 47.2441  Z
  " fill="#12273f" fill-rule="evenodd" fill-opacity="1"/>
<defs>
  <clipPath id="clip292">
    <rect x="210" y="47" width="2143" height="1377"/>
  </clipPath>
</defs>
<polyline clip-path="url(#clip292)" style="stroke:#ffffff; stroke-linecap:round; stroke-linejoin:round; stroke-width:2; stroke-opacity:0.1; fill:none" points="
  526.422,1423.18 526.422,47.2441 
  "/>
<polyline clip-path="url(#clip292)" style="stroke:#ffffff; stroke-linecap:round; stroke-linejoin:round; stroke-width:2; stroke-opacity:0.1; fill:none" points="
  844.528,1423.18 844.528,47.2441 
  "/>
<polyline clip-path="url(#clip292)" style="stroke:#ffffff; stroke-linecap:round; stroke-linejoin:round; stroke-width:2; stroke-opacity:0.1; fill:none" points="
  1162.63,1423.18 1162.63,47.2441 
  "/>
<polyline clip-path="url(#clip292)" style="stroke:#ffffff; stroke-linecap:round; stroke-linejoin:round; stroke-width:2; stroke-opacity:0.1; fill:none" points="
  1480.74,1423.18 1480.74,47.2441 
  "/>
<polyline clip-path="url(#clip292)" style="stroke:#ffffff; stroke-linecap:round; stroke-linejoin:round; stroke-width:2; stroke-opacity:0.1; fill:none" points="
  1798.84,1423.18 1798.84,47.2441 
  "/>
<polyline clip-path="url(#clip292)" style="stroke:#ffffff; stroke-linecap:round; stroke-linejoin:round; stroke-width:2; stroke-opacity:0.1; fill:none" points="
  2116.95,1423.18 2116.95,47.2441 
  "/>
<polyline clip-path="url(#clip290)" style="stroke:#ffffff; stroke-linecap:round; stroke-linejoin:round; stroke-width:4; stroke-opacity:1; fill:none" points="
  210.746,1423.18 2352.76,1423.18 
  "/>
<polyline clip-path="url(#clip290)" style="stroke:#ffffff; stroke-linecap:round; stroke-linejoin:round; stroke-width:4; stroke-opacity:1; fill:none" points="
  526.422,1423.18 526.422,1404.28 
  "/>
<polyline clip-path="url(#clip290)" style="stroke:#ffffff; stroke-linecap:round; stroke-linejoin:round; stroke-width:4; stroke-opacity:1; fill:none" points="
  844.528,1423.18 844.528,1404.28 
  "/>
<polyline clip-path="url(#clip290)" style="stroke:#ffffff; stroke-linecap:round; stroke-linejoin:round; stroke-width:4; stroke-opacity:1; fill:none" points="
  1162.63,1423.18 1162.63,1404.28 
  "/>
<polyline clip-path="url(#clip290)" style="stroke:#ffffff; stroke-linecap:round; stroke-linejoin:round; stroke-width:4; stroke-opacity:1; fill:none" points="
  1480.74,1423.18 1480.74,1404.28 
  "/>
<polyline clip-path="url(#clip290)" style="stroke:#ffffff; stroke-linecap:round; stroke-linejoin:round; stroke-width:4; stroke-opacity:1; fill:none" points="
  1798.84,1423.18 1798.84,1404.28 
  "/>
<polyline clip-path="url(#clip290)" style="stroke:#ffffff; stroke-linecap:round; stroke-linejoin:round; stroke-width:4; stroke-opacity:1; fill:none" points="
  2116.95,1423.18 2116.95,1404.28 
  "/>
<path clip-path="url(#clip290)" d="M473.448 1468.75 L503.124 1468.75 L503.124 1472.69 L473.448 1472.69 L473.448 1468.75 Z" fill="#ffffff" fill-rule="evenodd" fill-opacity="1" /><path clip-path="url(#clip290)" d="M514.026 1481.64 L521.665 1481.64 L521.665 1455.28 L513.355 1456.95 L513.355 1452.69 L521.619 1451.02 L526.295 1451.02 L526.295 1481.64 L533.934 1481.64 L533.934 1485.58 L514.026 1485.58 L514.026 1481.64 Z" fill="#ffffff" fill-rule="evenodd" fill-opacity="1" /><path clip-path="url(#clip290)" d="M543.378 1479.7 L548.262 1479.7 L548.262 1485.58 L543.378 1485.58 L543.378 1479.7 Z" fill="#ffffff" fill-rule="evenodd" fill-opacity="1" /><path clip-path="url(#clip290)" d="M558.494 1451.02 L576.85 1451.02 L576.85 1454.96 L562.776 1454.96 L562.776 1463.43 Q563.795 1463.08 564.813 1462.92 Q565.832 1462.73 566.85 1462.73 Q572.637 1462.73 576.017 1465.9 Q579.396 1469.08 579.396 1474.49 Q579.396 1480.07 575.924 1483.17 Q572.452 1486.25 566.133 1486.25 Q563.957 1486.25 561.688 1485.88 Q559.443 1485.51 557.035 1484.77 L557.035 1480.07 Q559.119 1481.2 561.341 1481.76 Q563.563 1482.32 566.04 1482.32 Q570.045 1482.32 572.383 1480.21 Q574.721 1478.1 574.721 1474.49 Q574.721 1470.88 572.383 1468.77 Q570.045 1466.67 566.04 1466.67 Q564.165 1466.67 562.29 1467.08 Q560.438 1467.5 558.494 1468.38 L558.494 1451.02 Z" fill="#ffffff" fill-rule="evenodd" fill-opacity="1" /><path clip-path="url(#clip290)" d="M791.056 1468.75 L820.731 1468.75 L820.731 1472.69 L791.056 1472.69 L791.056 1468.75 Z" fill="#ffffff" fill-rule="evenodd" fill-opacity="1" /><path clip-path="url(#clip290)" d="M831.634 1481.64 L839.273 1481.64 L839.273 1455.28 L830.963 1456.95 L830.963 1452.69 L839.227 1451.02 L843.903 1451.02 L843.903 1481.64 L851.541 1481.64 L851.541 1485.58 L831.634 1485.58 L831.634 1481.64 Z" fill="#ffffff" fill-rule="evenodd" fill-opacity="1" /><path clip-path="url(#clip290)" d="M860.986 1479.7 L865.87 1479.7 L865.87 1485.58 L860.986 1485.58 L860.986 1479.7 Z" fill="#ffffff" fill-rule="evenodd" fill-opacity="1" /><path clip-path="url(#clip290)" d="M886.055 1454.1 Q882.444 1454.1 880.615 1457.66 Q878.81 1461.2 878.81 1468.33 Q878.81 1475.44 880.615 1479.01 Q882.444 1482.55 886.055 1482.55 Q889.689 1482.55 891.495 1479.01 Q893.324 1475.44 893.324 1468.33 Q893.324 1461.2 891.495 1457.66 Q889.689 1454.1 886.055 1454.1 M886.055 1450.39 Q891.865 1450.39 894.921 1455 Q897.999 1459.58 897.999 1468.33 Q897.999 1477.06 894.921 1481.67 Q891.865 1486.25 886.055 1486.25 Q880.245 1486.25 877.166 1481.67 Q874.111 1477.06 874.111 1468.33 Q874.111 1459.58 877.166 1455 Q880.245 1450.39 886.055 1450.39 Z" fill="#ffffff" fill-rule="evenodd" fill-opacity="1" /><path clip-path="url(#clip290)" d="M1109.66 1468.75 L1139.33 1468.75 L1139.33 1472.69 L1109.66 1472.69 L1109.66 1468.75 Z" fill="#ffffff" fill-rule="evenodd" fill-opacity="1" /><path clip-path="url(#clip290)" d="M1159.43 1454.1 Q1155.82 1454.1 1153.99 1457.66 Q1152.18 1461.2 1152.18 1468.33 Q1152.18 1475.44 1153.99 1479.01 Q1155.82 1482.55 1159.43 1482.55 Q1163.06 1482.55 1164.87 1479.01 Q1166.7 1475.44 1166.7 1468.33 Q1166.7 1461.2 1164.87 1457.66 Q1163.06 1454.1 1159.43 1454.1 M1159.43 1450.39 Q1165.24 1450.39 1168.29 1455 Q1171.37 1459.58 1171.37 1468.33 Q1171.37 1477.06 1168.29 1481.67 Q1165.24 1486.25 1159.43 1486.25 Q1153.62 1486.25 1150.54 1481.67 Q1147.48 1477.06 1147.48 1468.33 Q1147.48 1459.58 1150.54 1455 Q1153.62 1450.39 1159.43 1450.39 Z" fill="#ffffff" fill-rule="evenodd" fill-opacity="1" /><path clip-path="url(#clip290)" d="M1179.59 1479.7 L1184.47 1479.7 L1184.47 1485.58 L1179.59 1485.58 L1179.59 1479.7 Z" fill="#ffffff" fill-rule="evenodd" fill-opacity="1" /><path clip-path="url(#clip290)" d="M1194.7 1451.02 L1213.06 1451.02 L1213.06 1454.96 L1198.99 1454.96 L1198.99 1463.43 Q1200.01 1463.08 1201.02 1462.92 Q1202.04 1462.73 1203.06 1462.73 Q1208.85 1462.73 1212.23 1465.9 Q1215.61 1469.08 1215.61 1474.49 Q1215.61 1480.07 1212.13 1483.17 Q1208.66 1486.25 1202.34 1486.25 Q1200.17 1486.25 1197.9 1485.88 Q1195.65 1485.51 1193.25 1484.77 L1193.25 1480.07 Q1195.33 1481.2 1197.55 1481.76 Q1199.77 1482.32 1202.25 1482.32 Q1206.26 1482.32 1208.59 1480.21 Q1210.93 1478.1 1210.93 1474.49 Q1210.93 1470.88 1208.59 1468.77 Q1206.26 1466.67 1202.25 1466.67 Q1200.38 1466.67 1198.5 1467.08 Q1196.65 1467.5 1194.7 1468.38 L1194.7 1451.02 Z" fill="#ffffff" fill-rule="evenodd" fill-opacity="1" /><path clip-path="url(#clip290)" d="M1458.12 1454.1 Q1454.51 1454.1 1452.68 1457.66 Q1450.88 1461.2 1450.88 1468.33 Q1450.88 1475.44 1452.68 1479.01 Q1454.51 1482.55 1458.12 1482.55 Q1461.76 1482.55 1463.56 1479.01 Q1465.39 1475.44 1465.39 1468.33 Q1465.39 1461.2 1463.56 1457.66 Q1461.76 1454.1 1458.12 1454.1 M1458.12 1450.39 Q1463.93 1450.39 1466.99 1455 Q1470.07 1459.58 1470.07 1468.33 Q1470.07 1477.06 1466.99 1481.67 Q1463.93 1486.25 1458.12 1486.25 Q1452.31 1486.25 1449.23 1481.67 Q1446.18 1477.06 1446.18 1468.33 Q1446.18 1459.58 1449.23 1455 Q1452.31 1450.39 1458.12 1450.39 Z" fill="#ffffff" fill-rule="evenodd" fill-opacity="1" /><path clip-path="url(#clip290)" d="M1478.28 1479.7 L1483.17 1479.7 L1483.17 1485.58 L1478.28 1485.58 L1478.28 1479.7 Z" fill="#ffffff" fill-rule="evenodd" fill-opacity="1" /><path clip-path="url(#clip290)" d="M1503.35 1454.1 Q1499.74 1454.1 1497.91 1457.66 Q1496.11 1461.2 1496.11 1468.33 Q1496.11 1475.44 1497.91 1479.01 Q1499.74 1482.55 1503.35 1482.55 Q1506.99 1482.55 1508.79 1479.01 Q1510.62 1475.44 1510.62 1468.33 Q1510.62 1461.2 1508.79 1457.66 Q1506.99 1454.1 1503.35 1454.1 M1503.35 1450.39 Q1509.16 1450.39 1512.22 1455 Q1515.3 1459.58 1515.3 1468.33 Q1515.3 1477.06 1512.22 1481.67 Q1509.16 1486.25 1503.35 1486.25 Q1497.54 1486.25 1494.46 1481.67 Q1491.41 1477.06 1491.41 1468.33 Q1491.41 1459.58 1494.46 1455 Q1497.54 1450.39 1503.35 1450.39 Z" fill="#ffffff" fill-rule="evenodd" fill-opacity="1" /><path clip-path="url(#clip290)" d="M1776.73 1454.1 Q1773.11 1454.1 1771.29 1457.66 Q1769.48 1461.2 1769.48 1468.33 Q1769.48 1475.44 1771.29 1479.01 Q1773.11 1482.55 1776.73 1482.55 Q1780.36 1482.55 1782.17 1479.01 Q1783.99 1475.44 1783.99 1468.33 Q1783.99 1461.2 1782.17 1457.66 Q1780.36 1454.1 1776.73 1454.1 M1776.73 1450.39 Q1782.54 1450.39 1785.59 1455 Q1788.67 1459.58 1788.67 1468.33 Q1788.67 1477.06 1785.59 1481.67 Q1782.54 1486.25 1776.73 1486.25 Q1770.92 1486.25 1767.84 1481.67 Q1764.78 1477.06 1764.78 1468.33 Q1764.78 1459.58 1767.84 1455 Q1770.92 1450.39 1776.73 1450.39 Z" fill="#ffffff" fill-rule="evenodd" fill-opacity="1" /><path clip-path="url(#clip290)" d="M1796.89 1479.7 L1801.77 1479.7 L1801.77 1485.58 L1796.89 1485.58 L1796.89 1479.7 Z" fill="#ffffff" fill-rule="evenodd" fill-opacity="1" /><path clip-path="url(#clip290)" d="M1812 1451.02 L1830.36 1451.02 L1830.36 1454.96 L1816.29 1454.96 L1816.29 1463.43 Q1817.3 1463.08 1818.32 1462.92 Q1819.34 1462.73 1820.36 1462.73 Q1826.15 1462.73 1829.53 1465.9 Q1832.91 1469.08 1832.91 1474.49 Q1832.91 1480.07 1829.43 1483.17 Q1825.96 1486.25 1819.64 1486.25 Q1817.47 1486.25 1815.2 1485.88 Q1812.95 1485.51 1810.54 1484.77 L1810.54 1480.07 Q1812.63 1481.2 1814.85 1481.76 Q1817.07 1482.32 1819.55 1482.32 Q1823.55 1482.32 1825.89 1480.21 Q1828.23 1478.1 1828.23 1474.49 Q1828.23 1470.88 1825.89 1468.77 Q1823.55 1466.67 1819.55 1466.67 Q1817.67 1466.67 1815.8 1467.08 Q1813.95 1467.5 1812 1468.38 L1812 1451.02 Z" fill="#ffffff" fill-rule="evenodd" fill-opacity="1" /><path clip-path="url(#clip290)" d="M2084.1 1481.64 L2091.74 1481.64 L2091.74 1455.28 L2083.43 1456.95 L2083.43 1452.69 L2091.69 1451.02 L2096.37 1451.02 L2096.37 1481.64 L2104.01 1481.64 L2104.01 1485.58 L2084.1 1485.58 L2084.1 1481.64 Z" fill="#ffffff" fill-rule="evenodd" fill-opacity="1" /><path clip-path="url(#clip290)" d="M2113.45 1479.7 L2118.34 1479.7 L2118.34 1485.58 L2113.45 1485.58 L2113.45 1479.7 Z" fill="#ffffff" fill-rule="evenodd" fill-opacity="1" /><path clip-path="url(#clip290)" d="M2138.52 1454.1 Q2134.91 1454.1 2133.08 1457.66 Q2131.28 1461.2 2131.28 1468.33 Q2131.28 1475.44 2133.08 1479.01 Q2134.91 1482.55 2138.52 1482.55 Q2142.16 1482.55 2143.96 1479.01 Q2145.79 1475.44 2145.79 1468.33 Q2145.79 1461.2 2143.96 1457.66 Q2142.16 1454.1 2138.52 1454.1 M2138.52 1450.39 Q2144.33 1450.39 2147.39 1455 Q2150.47 1459.58 2150.47 1468.33 Q2150.47 1477.06 2147.39 1481.67 Q2144.33 1486.25 2138.52 1486.25 Q2132.71 1486.25 2129.63 1481.67 Q2126.58 1477.06 2126.58 1468.33 Q2126.58 1459.58 2129.63 1455 Q2132.71 1450.39 2138.52 1450.39 Z" fill="#ffffff" fill-rule="evenodd" fill-opacity="1" /><path clip-path="url(#clip290)" d="M1167.18 1532.4 L1173.04 1532.4 L1173.04 1568.04 L1167.18 1568.04 L1167.18 1532.4 M1167.18 1518.52 L1173.04 1518.52 L1173.04 1525.93 L1167.18 1525.93 L1167.18 1518.52 Z" fill="#ffffff" fill-rule="evenodd" fill-opacity="1" /><path clip-path="url(#clip290)" d="M1214.93 1546.53 L1214.93 1568.04 L1209.07 1568.04 L1209.07 1546.72 Q1209.07 1541.66 1207.1 1539.14 Q1205.12 1536.63 1201.18 1536.63 Q1196.43 1536.63 1193.7 1539.65 Q1190.96 1542.68 1190.96 1547.9 L1190.96 1568.04 L1185.07 1568.04 L1185.07 1532.4 L1190.96 1532.4 L1190.96 1537.93 Q1193.06 1534.72 1195.89 1533.13 Q1198.76 1531.54 1202.48 1531.54 Q1208.62 1531.54 1211.78 1535.36 Q1214.93 1539.14 1214.93 1546.53 Z" fill="#ffffff" fill-rule="evenodd" fill-opacity="1" /><path clip-path="url(#clip290)" d="M1252.26 1533.76 L1252.26 1539.24 Q1249.78 1537.87 1247.26 1537.2 Q1244.78 1536.5 1242.24 1536.5 Q1236.54 1536.5 1233.39 1540.13 Q1230.24 1543.73 1230.24 1550.25 Q1230.24 1556.78 1233.39 1560.4 Q1236.54 1564 1242.24 1564 Q1244.78 1564 1247.26 1563.33 Q1249.78 1562.63 1252.26 1561.26 L1252.26 1566.68 Q1249.81 1567.82 1247.17 1568.39 Q1244.56 1568.97 1241.6 1568.97 Q1233.55 1568.97 1228.8 1563.91 Q1224.06 1558.85 1224.06 1550.25 Q1224.06 1541.53 1228.84 1536.53 Q1233.64 1531.54 1241.98 1531.54 Q1244.69 1531.54 1247.26 1532.11 Q1249.84 1532.65 1252.26 1533.76 Z" fill="#ffffff" fill-rule="evenodd" fill-opacity="1" /><path clip-path="url(#clip290)" d="M1276.26 1536.5 Q1271.55 1536.5 1268.81 1540.19 Q1266.08 1543.85 1266.08 1550.25 Q1266.08 1556.65 1268.78 1560.34 Q1271.52 1564 1276.26 1564 Q1280.94 1564 1283.68 1560.31 Q1286.41 1556.62 1286.41 1550.25 Q1286.41 1543.92 1283.68 1540.23 Q1280.94 1536.5 1276.26 1536.5 M1276.26 1531.54 Q1283.9 1531.54 1288.26 1536.5 Q1292.62 1541.47 1292.62 1550.25 Q1292.62 1559 1288.26 1564 Q1283.9 1568.97 1276.26 1568.97 Q1268.59 1568.97 1264.23 1564 Q1259.9 1559 1259.9 1550.25 Q1259.9 1541.47 1264.23 1536.5 Q1268.59 1531.54 1276.26 1531.54 Z" fill="#ffffff" fill-rule="evenodd" fill-opacity="1" /><path clip-path="url(#clip290)" d="M1330.08 1539.24 Q1332.28 1535.29 1335.33 1533.41 Q1338.39 1531.54 1342.53 1531.54 Q1348.1 1531.54 1351.12 1535.45 Q1354.14 1539.33 1354.14 1546.53 L1354.14 1568.04 L1348.26 1568.04 L1348.26 1546.72 Q1348.26 1541.59 1346.44 1539.11 Q1344.63 1536.63 1340.9 1536.63 Q1336.35 1536.63 1333.71 1539.65 Q1331.07 1542.68 1331.07 1547.9 L1331.07 1568.04 L1325.18 1568.04 L1325.18 1546.72 Q1325.18 1541.56 1323.37 1539.11 Q1321.55 1536.63 1317.76 1536.63 Q1313.28 1536.63 1310.64 1539.68 Q1307.99 1542.71 1307.99 1547.9 L1307.99 1568.04 L1302.11 1568.04 L1302.11 1532.4 L1307.99 1532.4 L1307.99 1537.93 Q1310 1534.66 1312.8 1533.1 Q1315.6 1531.54 1319.45 1531.54 Q1323.33 1531.54 1326.04 1533.51 Q1328.78 1535.48 1330.08 1539.24 Z" fill="#ffffff" fill-rule="evenodd" fill-opacity="1" /><path clip-path="url(#clip290)" d="M1396.32 1548.76 L1396.32 1551.62 L1369.39 1551.62 Q1369.77 1557.67 1373.02 1560.85 Q1376.3 1564 1382.12 1564 Q1385.5 1564 1388.65 1563.17 Q1391.83 1562.35 1394.95 1560.69 L1394.95 1566.23 Q1391.8 1567.57 1388.49 1568.27 Q1385.18 1568.97 1381.77 1568.97 Q1373.24 1568.97 1368.24 1564 Q1363.28 1559.04 1363.28 1550.57 Q1363.28 1541.82 1367.99 1536.69 Q1372.73 1531.54 1380.75 1531.54 Q1387.95 1531.54 1392.12 1536.18 Q1396.32 1540.8 1396.32 1548.76 M1390.46 1547.04 Q1390.4 1542.23 1387.76 1539.37 Q1385.15 1536.5 1380.82 1536.5 Q1375.92 1536.5 1372.96 1539.27 Q1370.03 1542.04 1369.58 1547.07 L1390.46 1547.04 Z" fill="#ffffff" fill-rule="evenodd" fill-opacity="1" /><polyline clip-path="url(#clip292)" style="stroke:#ffffff; stroke-linecap:round; stroke-linejoin:round; stroke-width:2; stroke-opacity:0.1; fill:none" points="
  210.746,1298.67 2352.76,1298.67 
  "/>
<polyline clip-path="url(#clip292)" style="stroke:#ffffff; stroke-linecap:round; stroke-linejoin:round; stroke-width:2; stroke-opacity:0.1; fill:none" points="
  210.746,996.918 2352.76,996.918 
  "/>
<polyline clip-path="url(#clip292)" style="stroke:#ffffff; stroke-linecap:round; stroke-linejoin:round; stroke-width:2; stroke-opacity:0.1; fill:none" points="
  210.746,695.165 2352.76,695.165 
  "/>
<polyline clip-path="url(#clip292)" style="stroke:#ffffff; stroke-linecap:round; stroke-linejoin:round; stroke-width:2; stroke-opacity:0.1; fill:none" points="
  210.746,393.411 2352.76,393.411 
  "/>
<polyline clip-path="url(#clip292)" style="stroke:#ffffff; stroke-linecap:round; stroke-linejoin:round; stroke-width:2; stroke-opacity:0.1; fill:none" points="
  210.746,91.6583 2352.76,91.6583 
  "/>
<polyline clip-path="url(#clip290)" style="stroke:#ffffff; stroke-linecap:round; stroke-linejoin:round; stroke-width:4; stroke-opacity:1; fill:none" points="
  210.746,1423.18 210.746,47.2441 
  "/>
<polyline clip-path="url(#clip290)" style="stroke:#ffffff; stroke-linecap:round; stroke-linejoin:round; stroke-width:4; stroke-opacity:1; fill:none" points="
  210.746,1298.67 229.644,1298.67 
  "/>
<polyline clip-path="url(#clip290)" style="stroke:#ffffff; stroke-linecap:round; stroke-linejoin:round; stroke-width:4; stroke-opacity:1; fill:none" points="
  210.746,996.918 229.644,996.918 
  "/>
<polyline clip-path="url(#clip290)" style="stroke:#ffffff; stroke-linecap:round; stroke-linejoin:round; stroke-width:4; stroke-opacity:1; fill:none" points="
  210.746,695.165 229.644,695.165 
  "/>
<polyline clip-path="url(#clip290)" style="stroke:#ffffff; stroke-linecap:round; stroke-linejoin:round; stroke-width:4; stroke-opacity:1; fill:none" points="
  210.746,393.411 229.644,393.411 
  "/>
<polyline clip-path="url(#clip290)" style="stroke:#ffffff; stroke-linecap:round; stroke-linejoin:round; stroke-width:4; stroke-opacity:1; fill:none" points="
  210.746,91.6583 229.644,91.6583 
  "/>
<path clip-path="url(#clip290)" d="M114.26 1299.12 L143.936 1299.12 L143.936 1303.06 L114.26 1303.06 L114.26 1299.12 Z" fill="#ffffff" fill-rule="evenodd" fill-opacity="1" /><path clip-path="url(#clip290)" d="M154.839 1312.02 L162.477 1312.02 L162.477 1285.65 L154.167 1287.32 L154.167 1283.06 L162.431 1281.39 L167.107 1281.39 L167.107 1312.02 L174.746 1312.02 L174.746 1315.95 L154.839 1315.95 L154.839 1312.02 Z" fill="#ffffff" fill-rule="evenodd" fill-opacity="1" /><path clip-path="url(#clip290)" d="M162.802 982.716 Q159.19 982.716 157.362 986.281 Q155.556 989.823 155.556 996.952 Q155.556 1004.06 157.362 1007.62 Q159.19 1011.17 162.802 1011.17 Q166.436 1011.17 168.241 1007.62 Q170.07 1004.06 170.07 996.952 Q170.07 989.823 168.241 986.281 Q166.436 982.716 162.802 982.716 M162.802 979.013 Q168.612 979.013 171.667 983.619 Q174.746 988.203 174.746 996.952 Q174.746 1005.68 171.667 1010.29 Q168.612 1014.87 162.802 1014.87 Q156.991 1014.87 153.913 1010.29 Q150.857 1005.68 150.857 996.952 Q150.857 988.203 153.913 983.619 Q156.991 979.013 162.802 979.013 Z" fill="#ffffff" fill-rule="evenodd" fill-opacity="1" /><path clip-path="url(#clip290)" d="M154.839 708.509 L162.477 708.509 L162.477 682.144 L154.167 683.811 L154.167 679.551 L162.431 677.885 L167.107 677.885 L167.107 708.509 L174.746 708.509 L174.746 712.445 L154.839 712.445 L154.839 708.509 Z" fill="#ffffff" fill-rule="evenodd" fill-opacity="1" /><path clip-path="url(#clip290)" d="M158.427 406.756 L174.746 406.756 L174.746 410.691 L152.802 410.691 L152.802 406.756 Q155.464 404.002 160.047 399.372 Q164.653 394.719 165.834 393.377 Q168.079 390.854 168.959 389.118 Q169.862 387.358 169.862 385.668 Q169.862 382.914 167.917 381.178 Q165.996 379.442 162.894 379.442 Q160.695 379.442 158.241 380.206 Q155.811 380.969 153.033 382.52 L153.033 377.798 Q155.857 376.664 158.311 376.085 Q160.765 375.506 162.802 375.506 Q168.172 375.506 171.366 378.192 Q174.561 380.877 174.561 385.368 Q174.561 387.497 173.751 389.418 Q172.964 391.317 170.857 393.909 Q170.278 394.58 167.177 397.798 Q164.075 400.992 158.427 406.756 Z" fill="#ffffff" fill-rule="evenodd" fill-opacity="1" /><path clip-path="url(#clip290)" d="M167.616 90.3042 Q170.973 91.0218 172.848 93.2903 Q174.746 95.5588 174.746 98.8921 Q174.746 104.008 171.227 106.809 Q167.709 109.61 161.227 109.61 Q159.052 109.61 156.737 109.17 Q154.445 108.753 151.991 107.897 L151.991 103.383 Q153.936 104.517 156.251 105.096 Q158.565 105.674 161.089 105.674 Q165.487 105.674 167.778 103.938 Q170.093 102.202 170.093 98.8921 Q170.093 95.8365 167.94 94.1236 Q165.811 92.3875 161.991 92.3875 L157.964 92.3875 L157.964 88.5449 L162.177 88.5449 Q165.626 88.5449 167.454 87.1792 Q169.283 85.7903 169.283 83.1977 Q169.283 80.5357 167.385 79.1237 Q165.51 77.6885 161.991 77.6885 Q160.07 77.6885 157.871 78.1052 Q155.672 78.5218 153.033 79.4014 L153.033 75.2348 Q155.695 74.4941 158.01 74.1237 Q160.348 73.7533 162.408 73.7533 Q167.732 73.7533 170.834 76.1839 Q173.936 78.5913 173.936 82.7116 Q173.936 85.582 172.292 87.5727 Q170.649 89.5403 167.616 90.3042 Z" fill="#ffffff" fill-rule="evenodd" fill-opacity="1" /><path clip-path="url(#clip290)" d="M46.0847 773.804 Q46.0847 780.902 47.7079 783.639 Q49.3312 786.376 53.2461 786.376 Q56.3653 786.376 58.2114 784.339 Q60.0256 782.27 60.0256 778.737 Q60.0256 773.868 56.5881 770.939 Q53.1188 767.979 47.3897 767.979 L46.0847 767.979 L46.0847 773.804 M43.6657 762.123 L64.0042 762.123 L64.0042 767.979 L58.5933 767.979 Q61.8398 769.985 63.3994 772.977 Q64.9272 775.968 64.9272 780.297 Q64.9272 785.772 61.8716 789.018 Q58.7843 792.233 53.6281 792.233 Q47.6125 792.233 44.5569 788.222 Q41.5014 784.18 41.5014 776.191 L41.5014 767.979 L40.9285 767.979 Q36.8862 767.979 34.6901 770.653 Q32.4621 773.295 32.4621 778.101 Q32.4621 781.156 33.1941 784.053 Q33.9262 786.949 35.3903 789.623 L29.9795 789.623 Q28.7381 786.408 28.1334 783.384 Q27.4968 780.361 27.4968 777.496 Q27.4968 769.762 31.5072 765.942 Q35.5176 762.123 43.6657 762.123 Z" fill="#ffffff" fill-rule="evenodd" fill-opacity="1" /><path clip-path="url(#clip290)" d="M45.7664 726.602 Q39.4007 726.602 35.8996 729.244 Q32.3984 731.854 32.3984 736.597 Q32.3984 741.307 35.8996 743.949 Q39.4007 746.559 45.7664 746.559 Q52.1003 746.559 55.6014 743.949 Q59.1026 741.307 59.1026 736.597 Q59.1026 731.854 55.6014 729.244 Q52.1003 726.602 45.7664 726.602 M59.58 720.746 Q68.683 720.746 73.1071 724.788 Q77.5631 728.83 77.5631 737.169 Q77.5631 740.257 77.0857 742.994 Q76.6401 745.731 75.6852 748.309 L69.9879 748.309 Q71.3884 745.731 72.0568 743.217 Q72.7252 740.702 72.7252 738.092 Q72.7252 732.331 69.7015 729.467 Q66.7096 726.602 60.6303 726.602 L57.7339 726.602 Q60.885 728.417 62.4446 731.249 Q64.0042 734.082 64.0042 738.029 Q64.0042 744.585 59.0071 748.596 Q54.01 752.606 45.7664 752.606 Q37.491 752.606 32.4939 748.596 Q27.4968 744.585 27.4968 738.029 Q27.4968 734.082 29.0564 731.249 Q30.616 728.417 33.7671 726.602 L28.3562 726.602 L28.3562 720.746 L59.58 720.746 Z" fill="#ffffff" fill-rule="evenodd" fill-opacity="1" /><path clip-path="url(#clip290)" d="M44.7161 678.191 L47.5806 678.191 L47.5806 705.118 Q53.6281 704.736 56.8109 701.49 Q59.9619 698.211 59.9619 692.387 Q59.9619 689.013 59.1344 685.862 Q58.3069 682.679 56.6518 679.56 L62.1899 679.56 Q63.5267 682.711 64.227 686.021 Q64.9272 689.331 64.9272 692.737 Q64.9272 701.267 59.9619 706.264 Q54.9967 711.229 46.5303 711.229 Q37.7774 711.229 32.6531 706.519 Q27.4968 701.776 27.4968 693.755 Q27.4968 686.562 32.1438 682.393 Q36.7589 678.191 44.7161 678.191 M42.9973 684.048 Q38.1912 684.111 35.3266 686.753 Q32.4621 689.363 32.4621 693.692 Q32.4621 698.593 35.2312 701.553 Q38.0002 704.482 43.0292 704.927 L42.9973 684.048 Z" fill="#ffffff" fill-rule="evenodd" fill-opacity="1" /><circle clip-path="url(#clip292)" cx="1519.65" cy="898.398" r="36" fill="#ff7300" fill-rule="evenodd" fill-opacity="1" stroke="#ffffff" stroke-opacity="1" stroke-width="3.2"/>
<circle clip-path="url(#clip292)" cx="1704.61" cy="1215.07" r="36" fill="#3cd7d9" fill-rule="evenodd" fill-opacity="1" stroke="#ffffff" stroke-opacity="1" stroke-width="3.2"/>
<polyline clip-path="url(#clip292)" style="stroke:#ffffff; stroke-linecap:round; stroke-linejoin:round; stroke-width:8; stroke-opacity:1; fill:none" points="
  1519.65,898.398 1704.61,1215.07 
  "/>
<polyline clip-path="url(#clip292)" style="stroke:#ffffff; stroke-linecap:round; stroke-linejoin:round; stroke-width:8; stroke-opacity:1; fill:none" points="
  1701.99,1174.9 1704.61,1215.07 1670.91,1193.06 
  "/>
<polyline clip-path="url(#clip292)" style="stroke:#ffffff; stroke-linecap:round; stroke-linejoin:round; stroke-width:8; stroke-opacity:1; fill:none" points="
  1704.61,1215.07 1519.65,898.398 
  "/>
<circle clip-path="url(#clip292)" cx="2045.72" cy="86.1857" r="36" fill="#3cd7d9" fill-rule="evenodd" fill-opacity="1" stroke="#ffffff" stroke-opacity="1" stroke-width="3.2"/>
<polyline clip-path="url(#clip292)" style="stroke:#ffffff; stroke-linecap:round; stroke-linejoin:round; stroke-width:8; stroke-opacity:1; fill:none" points="
  1519.65,898.398 2045.72,86.1857 
  "/>
<polyline clip-path="url(#clip292)" style="stroke:#ffffff; stroke-linecap:round; stroke-linejoin:round; stroke-width:8; stroke-opacity:1; fill:none" points="
  2011.04,106.616 2045.72,86.1857 2041.26,126.187 
  "/>
<polyline clip-path="url(#clip292)" style="stroke:#ffffff; stroke-linecap:round; stroke-linejoin:round; stroke-width:8; stroke-opacity:1; fill:none" points="
  2045.72,86.1857 1519.65,898.398 
  "/>
<circle clip-path="url(#clip292)" cx="2292.13" cy="325.458" r="36" fill="#3cd7d9" fill-rule="evenodd" fill-opacity="1" stroke="#ffffff" stroke-opacity="1" stroke-width="3.2"/>
<polyline clip-path="url(#clip292)" style="stroke:#ffffff; stroke-linecap:round; stroke-linejoin:round; stroke-width:8; stroke-opacity:1; fill:none" points="
  1519.65,898.398 2292.13,325.458 
  "/>
<polyline clip-path="url(#clip292)" style="stroke:#ffffff; stroke-linecap:round; stroke-linejoin:round; stroke-width:8; stroke-opacity:1; fill:none" points="
  2252.5,332.446 2292.13,325.458 2273.94,361.361 
  "/>
<polyline clip-path="url(#clip292)" style="stroke:#ffffff; stroke-linecap:round; stroke-linejoin:round; stroke-width:8; stroke-opacity:1; fill:none" points="
  2292.13,325.458 1519.65,898.398 
  "/>
<circle clip-path="url(#clip292)" cx="1510.59" cy="1384.24" r="36" fill="#3cd7d9" fill-rule="evenodd" fill-opacity="1" stroke="#ffffff" stroke-opacity="1" stroke-width="3.2"/>
<polyline clip-path="url(#clip292)" style="stroke:#ffffff; stroke-linecap:round; stroke-linejoin:round; stroke-width:8; stroke-opacity:1; fill:none" points="
  1519.65,898.398 1510.59,1384.24 
  "/>
<polyline clip-path="url(#clip292)" style="stroke:#ffffff; stroke-linecap:round; stroke-linejoin:round; stroke-width:8; stroke-opacity:1; fill:none" points="
  1529.26,1348.58 1510.59,1384.24 1493.26,1347.91 
  "/>
<polyline clip-path="url(#clip292)" style="stroke:#ffffff; stroke-linecap:round; stroke-linejoin:round; stroke-width:8; stroke-opacity:1; fill:none" points="
  1510.59,1384.24 1519.65,898.398 
  "/>
<circle clip-path="url(#clip292)" cx="271.369" cy="1153.01" r="36" fill="#3cd7d9" fill-rule="evenodd" fill-opacity="1" stroke="#ffffff" stroke-opacity="1" stroke-width="3.2"/>
<polyline clip-path="url(#clip292)" style="stroke:#ffffff; stroke-linecap:round; stroke-linejoin:round; stroke-width:8; stroke-opacity:1; fill:none" points="
  1519.65,898.398 271.369,1153.01 
  "/>
<polyline clip-path="url(#clip292)" style="stroke:#ffffff; stroke-linecap:round; stroke-linejoin:round; stroke-width:8; stroke-opacity:1; fill:none" points="
  310.24,1163.45 271.369,1153.01 303.045,1128.18 
  "/>
<polyline clip-path="url(#clip292)" style="stroke:#ffffff; stroke-linecap:round; stroke-linejoin:round; stroke-width:8; stroke-opacity:1; fill:none" points="
  271.369,1153.01 1519.65,898.398 
  "/>
</svg>
