<?xml version="1.0" encoding="utf-8"?>
<svg xmlns="http://www.w3.org/2000/svg" xmlns:xlink="http://www.w3.org/1999/xlink" width="528" height="336" viewBox="0 0 2112 1344">
<defs>
  <clipPath id="clip020">
    <rect x="0" y="0" width="2112" height="1344"/>
  </clipPath>
</defs>
<path clip-path="url(#clip020)" d="M0 1344 L2112 1344 L2112 0 L0 0  Z" fill="#ffffff" fill-rule="evenodd" fill-opacity="1"/>
<defs>
  <clipPath id="clip021">
    <rect x="422" y="0" width="1479" height="1344"/>
  </clipPath>
</defs>
<path clip-path="url(#clip020)" d="M170.405 1173.47 L2064.76 1173.47 L2064.76 47.2441 L170.405 47.2441  Z" fill="#ffffff" fill-rule="evenodd" fill-opacity="1"/>
<defs>
  <clipPath id="clip022">
    <rect x="170" y="47" width="1895" height="1127"/>
  </clipPath>
</defs>
<polyline clip-path="url(#clip022)" style="stroke:#000000; stroke-linecap:round; stroke-linejoin:round; stroke-width:2; stroke-opacity:0.1; fill:none" points="219.041,1173.47 219.041,47.2441 "/>
<polyline clip-path="url(#clip022)" style="stroke:#000000; stroke-linecap:round; stroke-linejoin:round; stroke-width:2; stroke-opacity:0.1; fill:none" points="816.408,1173.47 816.408,47.2441 "/>
<polyline clip-path="url(#clip022)" style="stroke:#000000; stroke-linecap:round; stroke-linejoin:round; stroke-width:2; stroke-opacity:0.1; fill:none" points="1413.78,1173.47 1413.78,47.2441 "/>
<polyline clip-path="url(#clip022)" style="stroke:#000000; stroke-linecap:round; stroke-linejoin:round; stroke-width:2; stroke-opacity:0.1; fill:none" points="2011.14,1173.47 2011.14,47.2441 "/>
<polyline clip-path="url(#clip020)" style="stroke:#000000; stroke-linecap:round; stroke-linejoin:round; stroke-width:4; stroke-opacity:1; fill:none" points="170.405,1173.47 2064.76,1173.47 "/>
<polyline clip-path="url(#clip020)" style="stroke:#000000; stroke-linecap:round; stroke-linejoin:round; stroke-width:4; stroke-opacity:1; fill:none" points="219.041,1173.47 219.041,1154.57 "/>
<polyline clip-path="url(#clip020)" style="stroke:#000000; stroke-linecap:round; stroke-linejoin:round; stroke-width:4; stroke-opacity:1; fill:none" points="816.408,1173.47 816.408,1154.57 "/>
<polyline clip-path="url(#clip020)" style="stroke:#000000; stroke-linecap:round; stroke-linejoin:round; stroke-width:4; stroke-opacity:1; fill:none" points="1413.78,1173.47 1413.78,1154.57 "/>
<polyline clip-path="url(#clip020)" style="stroke:#000000; stroke-linecap:round; stroke-linejoin:round; stroke-width:4; stroke-opacity:1; fill:none" points="2011.14,1173.47 2011.14,1154.57 "/>
<path clip-path="url(#clip020)" d="M219.041 1202.09 Q215.43 1202.09 213.601 1205.65 Q211.796 1209.19 211.796 1216.32 Q211.796 1223.43 213.601 1226.99 Q215.43 1230.53 219.041 1230.53 Q222.675 1230.53 224.481 1226.99 Q226.309 1223.43 226.309 1216.32 Q226.309 1209.19 224.481 1205.65 Q222.675 1202.09 219.041 1202.09 M219.041 1198.38 Q224.851 1198.38 227.907 1202.99 Q230.985 1207.57 230.985 1216.32 Q230.985 1225.05 227.907 1229.65 Q224.851 1234.24 219.041 1234.24 Q213.231 1234.24 210.152 1229.65 Q207.096 1225.05 207.096 1216.32 Q207.096 1207.57 210.152 1202.99 Q213.231 1198.38 219.041 1198.38 Z" fill="#000000" fill-rule="nonzero" fill-opacity="1" /><path clip-path="url(#clip020)" d="M791.096 1229.63 L798.734 1229.63 L798.734 1203.27 L790.424 1204.93 L790.424 1200.67 L798.688 1199.01 L803.364 1199.01 L803.364 1229.63 L811.003 1229.63 L811.003 1233.57 L791.096 1233.57 L791.096 1229.63 Z" fill="#000000" fill-rule="nonzero" fill-opacity="1" /><path clip-path="url(#clip020)" d="M830.447 1202.09 Q826.836 1202.09 825.007 1205.65 Q823.202 1209.19 823.202 1216.32 Q823.202 1223.43 825.007 1226.99 Q826.836 1230.53 830.447 1230.53 Q834.081 1230.53 835.887 1226.99 Q837.716 1223.43 837.716 1216.32 Q837.716 1209.19 835.887 1205.65 Q834.081 1202.09 830.447 1202.09 M830.447 1198.38 Q836.257 1198.38 839.313 1202.99 Q842.392 1207.57 842.392 1216.32 Q842.392 1225.05 839.313 1229.65 Q836.257 1234.24 830.447 1234.24 Q824.637 1234.24 821.558 1229.65 Q818.503 1225.05 818.503 1216.32 Q818.503 1207.57 821.558 1202.99 Q824.637 1198.38 830.447 1198.38 Z" fill="#000000" fill-rule="nonzero" fill-opacity="1" /><path clip-path="url(#clip020)" d="M1392.55 1229.63 L1408.87 1229.63 L1408.87 1233.57 L1386.92 1233.57 L1386.92 1229.63 Q1389.59 1226.88 1394.17 1222.25 Q1398.78 1217.59 1399.96 1216.25 Q1402.2 1213.73 1403.08 1211.99 Q1403.98 1210.23 1403.98 1208.54 Q1403.98 1205.79 1402.04 1204.05 Q1400.12 1202.32 1397.02 1202.32 Q1394.82 1202.32 1392.36 1203.08 Q1389.93 1203.84 1387.15 1205.4 L1387.15 1200.67 Q1389.98 1199.54 1392.43 1198.96 Q1394.89 1198.38 1396.92 1198.38 Q1402.29 1198.38 1405.49 1201.07 Q1408.68 1203.75 1408.68 1208.24 Q1408.68 1210.37 1407.87 1212.29 Q1407.09 1214.19 1404.98 1216.78 Q1404.4 1217.46 1401.3 1220.67 Q1398.2 1223.87 1392.55 1229.63 Z" fill="#000000" fill-rule="nonzero" fill-opacity="1" /><path clip-path="url(#clip020)" d="M1428.68 1202.09 Q1425.07 1202.09 1423.24 1205.65 Q1421.44 1209.19 1421.44 1216.32 Q1421.44 1223.43 1423.24 1226.99 Q1425.07 1230.53 1428.68 1230.53 Q1432.32 1230.53 1434.12 1226.99 Q1435.95 1223.43 1435.95 1216.32 Q1435.95 1209.19 1434.12 1205.65 Q1432.32 1202.09 1428.68 1202.09 M1428.68 1198.38 Q1434.49 1198.38 1437.55 1202.99 Q1440.63 1207.57 1440.63 1216.32 Q1440.63 1225.05 1437.55 1229.65 Q1434.49 1234.24 1428.68 1234.24 Q1422.87 1234.24 1419.79 1229.65 Q1416.74 1225.05 1416.74 1216.32 Q1416.74 1207.57 1419.79 1202.99 Q1422.87 1198.38 1428.68 1198.38 Z" fill="#000000" fill-rule="nonzero" fill-opacity="1" /><path clip-path="url(#clip020)" d="M1999.98 1214.93 Q2003.34 1215.65 2005.22 1217.92 Q2007.11 1220.19 2007.11 1223.52 Q2007.11 1228.64 2003.6 1231.44 Q2000.08 1234.24 1993.6 1234.24 Q1991.42 1234.24 1989.11 1233.8 Q1986.81 1233.38 1984.36 1232.53 L1984.36 1228.01 Q1986.3 1229.15 1988.62 1229.72 Q1990.93 1230.3 1993.46 1230.3 Q1997.86 1230.3 2000.15 1228.57 Q2002.46 1226.83 2002.46 1223.52 Q2002.46 1220.46 2000.31 1218.75 Q1998.18 1217.02 1994.36 1217.02 L1990.33 1217.02 L1990.33 1213.17 L1994.55 1213.17 Q1997.99 1213.17 1999.82 1211.81 Q2001.65 1210.42 2001.65 1207.83 Q2001.65 1205.16 1999.75 1203.75 Q1997.88 1202.32 1994.36 1202.32 Q1992.44 1202.32 1990.24 1202.73 Q1988.04 1203.15 1985.4 1204.03 L1985.4 1199.86 Q1988.06 1199.12 1990.38 1198.75 Q1992.72 1198.38 1994.78 1198.38 Q2000.1 1198.38 2003.2 1200.81 Q2006.3 1203.22 2006.3 1207.34 Q2006.3 1210.21 2004.66 1212.2 Q2003.02 1214.17 1999.98 1214.93 Z" fill="#000000" fill-rule="nonzero" fill-opacity="1" /><path clip-path="url(#clip020)" d="M2025.98 1202.09 Q2022.37 1202.09 2020.54 1205.65 Q2018.73 1209.19 2018.73 1216.32 Q2018.73 1223.43 2020.54 1226.99 Q2022.37 1230.53 2025.98 1230.53 Q2029.61 1230.53 2031.42 1226.99 Q2033.25 1223.43 2033.25 1216.32 Q2033.25 1209.19 2031.42 1205.65 Q2029.61 1202.09 2025.98 1202.09 M2025.98 1198.38 Q2031.79 1198.38 2034.85 1202.99 Q2037.92 1207.57 2037.92 1216.32 Q2037.92 1225.05 2034.85 1229.65 Q2031.79 1234.24 2025.98 1234.24 Q2020.17 1234.24 2017.09 1229.65 Q2014.04 1225.05 2014.04 1216.32 Q2014.04 1207.57 2017.09 1202.99 Q2020.17 1198.38 2025.98 1198.38 Z" fill="#000000" fill-rule="nonzero" fill-opacity="1" /><path clip-path="url(#clip020)" d="M862.045 1266.49 L871.626 1266.49 L883.752 1298.83 L895.943 1266.49 L905.523 1266.49 L905.523 1314.01 L899.253 1314.01 L899.253 1272.29 L886.999 1304.88 L880.538 1304.88 L868.284 1272.29 L868.284 1314.01 L862.045 1314.01 L862.045 1266.49 Z" fill="#000000" fill-rule="nonzero" fill-opacity="1" /><path clip-path="url(#clip020)" d="M934.232 1296.1 Q927.135 1296.1 924.397 1297.72 Q921.66 1299.34 921.66 1303.26 Q921.66 1306.38 923.697 1308.22 Q925.766 1310.04 929.299 1310.04 Q934.169 1310.04 937.097 1306.6 Q940.057 1303.13 940.057 1297.4 L940.057 1296.1 L934.232 1296.1 M945.913 1293.68 L945.913 1314.01 L940.057 1314.01 L940.057 1308.6 Q938.052 1311.85 935.06 1313.41 Q932.068 1314.94 927.739 1314.94 Q922.265 1314.94 919.018 1311.88 Q915.804 1308.79 915.804 1303.64 Q915.804 1297.62 919.814 1294.57 Q923.856 1291.51 931.845 1291.51 L940.057 1291.51 L940.057 1290.94 Q940.057 1286.9 937.383 1284.7 Q934.742 1282.47 929.935 1282.47 Q926.88 1282.47 923.984 1283.2 Q921.087 1283.94 918.414 1285.4 L918.414 1279.99 Q921.628 1278.75 924.652 1278.14 Q927.676 1277.51 930.54 1277.51 Q938.275 1277.51 942.094 1281.52 Q945.913 1285.53 945.913 1293.68 Z" fill="#000000" fill-rule="nonzero" fill-opacity="1" /><path clip-path="url(#clip020)" d="M963.769 1268.25 L963.769 1278.37 L975.832 1278.37 L975.832 1282.92 L963.769 1282.92 L963.769 1302.27 Q963.769 1306.63 964.947 1307.87 Q966.156 1309.11 969.817 1309.11 L975.832 1309.11 L975.832 1314.01 L969.817 1314.01 Q963.037 1314.01 960.459 1311.5 Q957.881 1308.95 957.881 1302.27 L957.881 1282.92 L953.584 1282.92 L953.584 1278.37 L957.881 1278.37 L957.881 1268.25 L963.769 1268.25 Z" fill="#000000" fill-rule="nonzero" fill-opacity="1" /><path clip-path="url(#clip020)" d="M982.93 1299.95 L982.93 1278.37 L988.786 1278.37 L988.786 1299.72 Q988.786 1304.78 990.76 1307.33 Q992.733 1309.85 996.68 1309.85 Q1001.42 1309.85 1004.16 1306.82 Q1006.93 1303.8 1006.93 1298.58 L1006.93 1278.37 L1012.79 1278.37 L1012.79 1314.01 L1006.93 1314.01 L1006.93 1308.54 Q1004.8 1311.79 1001.96 1313.38 Q999.162 1314.94 995.439 1314.94 Q989.296 1314.94 986.113 1311.12 Q982.93 1307.3 982.93 1299.95 M997.667 1277.51 L997.667 1277.51 Z" fill="#000000" fill-rule="nonzero" fill-opacity="1" /><path clip-path="url(#clip020)" d="M1045.5 1283.84 Q1044.52 1283.27 1043.34 1283.01 Q1042.19 1282.73 1040.79 1282.73 Q1035.83 1282.73 1033.16 1285.97 Q1030.51 1289.19 1030.51 1295.24 L1030.51 1314.01 L1024.63 1314.01 L1024.63 1278.37 L1030.51 1278.37 L1030.51 1283.9 Q1032.36 1280.66 1035.32 1279.1 Q1038.28 1277.51 1042.51 1277.51 Q1043.12 1277.51 1043.85 1277.6 Q1044.58 1277.67 1045.47 1277.83 L1045.5 1283.84 Z" fill="#000000" fill-rule="nonzero" fill-opacity="1" /><path clip-path="url(#clip020)" d="M1051.65 1278.37 L1057.5 1278.37 L1057.5 1314.01 L1051.65 1314.01 L1051.65 1278.37 M1051.65 1264.49 L1057.5 1264.49 L1057.5 1271.91 L1051.65 1271.91 L1051.65 1264.49 Z" fill="#000000" fill-rule="nonzero" fill-opacity="1" /><path clip-path="url(#clip020)" d="M1075.55 1268.25 L1075.55 1278.37 L1087.61 1278.37 L1087.61 1282.92 L1075.55 1282.92 L1075.55 1302.27 Q1075.55 1306.63 1076.73 1307.87 Q1077.94 1309.11 1081.6 1309.11 L1087.61 1309.11 L1087.61 1314.01 L1081.6 1314.01 Q1074.82 1314.01 1072.24 1311.5 Q1069.66 1308.95 1069.66 1302.27 L1069.66 1282.92 L1065.37 1282.92 L1065.37 1278.37 L1069.66 1278.37 L1069.66 1268.25 L1075.55 1268.25 Z" fill="#000000" fill-rule="nonzero" fill-opacity="1" /><path clip-path="url(#clip020)" d="M1110.15 1317.32 Q1107.67 1323.69 1105.31 1325.63 Q1102.96 1327.57 1099.01 1327.57 L1094.33 1327.57 L1094.33 1322.67 L1097.77 1322.67 Q1100.19 1322.67 1101.52 1321.53 Q1102.86 1320.38 1104.48 1316.12 L1105.53 1313.44 L1091.12 1278.37 L1097.32 1278.37 L1108.46 1306.25 L1119.6 1278.37 L1125.81 1278.37 L1110.15 1317.32 Z" fill="#000000" fill-rule="nonzero" fill-opacity="1" /><path clip-path="url(#clip020)" d="M1168.68 1264.55 Q1164.42 1271.87 1162.35 1279.04 Q1160.28 1286.2 1160.28 1293.55 Q1160.28 1300.9 1162.35 1308.13 Q1164.45 1315.32 1168.68 1322.61 L1163.59 1322.61 Q1158.81 1315.13 1156.43 1307.9 Q1154.07 1300.68 1154.07 1293.55 Q1154.07 1286.45 1156.43 1279.26 Q1158.78 1272.06 1163.59 1264.55 L1168.68 1264.55 Z" fill="#000000" fill-rule="nonzero" fill-opacity="1" /><path clip-path="url(#clip020)" d="M1194.88 1317.32 Q1192.39 1323.69 1190.04 1325.63 Q1187.68 1327.57 1183.74 1327.57 L1179.06 1327.57 L1179.06 1322.67 L1182.49 1322.67 Q1184.91 1322.67 1186.25 1321.53 Q1187.59 1320.38 1189.21 1316.12 L1190.26 1313.44 L1175.84 1278.37 L1182.05 1278.37 L1193.19 1306.25 L1204.33 1278.37 L1210.54 1278.37 L1194.88 1317.32 Z" fill="#000000" fill-rule="nonzero" fill-opacity="1" /><path clip-path="url(#clip020)" d="M1249.11 1294.73 L1249.11 1297.59 L1222.19 1297.59 Q1222.57 1303.64 1225.81 1306.82 Q1229.09 1309.97 1234.92 1309.97 Q1238.29 1309.97 1241.44 1309.14 Q1244.62 1308.32 1247.74 1306.66 L1247.74 1312.2 Q1244.59 1313.54 1241.28 1314.24 Q1237.97 1314.94 1234.57 1314.94 Q1226.04 1314.94 1221.04 1309.97 Q1216.07 1305.01 1216.07 1296.54 Q1216.07 1287.79 1220.78 1282.66 Q1225.53 1277.51 1233.55 1277.51 Q1240.74 1277.51 1244.91 1282.15 Q1249.11 1286.77 1249.11 1294.73 M1243.26 1293.01 Q1243.19 1288.2 1240.55 1285.34 Q1237.94 1282.47 1233.61 1282.47 Q1228.71 1282.47 1225.75 1285.24 Q1222.82 1288.01 1222.38 1293.04 L1243.26 1293.01 Z" fill="#000000" fill-rule="nonzero" fill-opacity="1" /><path clip-path="url(#clip020)" d="M1274.92 1296.1 Q1267.83 1296.1 1265.09 1297.72 Q1262.35 1299.34 1262.35 1303.26 Q1262.35 1306.38 1264.39 1308.22 Q1266.46 1310.04 1269.99 1310.04 Q1274.86 1310.04 1277.79 1306.6 Q1280.75 1303.13 1280.75 1297.4 L1280.75 1296.1 L1274.92 1296.1 M1286.61 1293.68 L1286.61 1314.01 L1280.75 1314.01 L1280.75 1308.6 Q1278.74 1311.85 1275.75 1313.41 Q1272.76 1314.94 1268.43 1314.94 Q1262.96 1314.94 1259.71 1311.88 Q1256.5 1308.79 1256.5 1303.64 Q1256.5 1297.62 1260.51 1294.57 Q1264.55 1291.51 1272.54 1291.51 L1280.75 1291.51 L1280.75 1290.94 Q1280.75 1286.9 1278.08 1284.7 Q1275.43 1282.47 1270.63 1282.47 Q1267.57 1282.47 1264.68 1283.2 Q1261.78 1283.94 1259.11 1285.4 L1259.11 1279.99 Q1262.32 1278.75 1265.34 1278.14 Q1268.37 1277.51 1271.23 1277.51 Q1278.97 1277.51 1282.79 1281.52 Q1286.61 1285.53 1286.61 1293.68 Z" fill="#000000" fill-rule="nonzero" fill-opacity="1" /><path clip-path="url(#clip020)" d="M1319.33 1283.84 Q1318.34 1283.27 1317.16 1283.01 Q1316.02 1282.73 1314.62 1282.73 Q1309.65 1282.73 1306.98 1285.97 Q1304.33 1289.19 1304.33 1295.24 L1304.33 1314.01 L1298.45 1314.01 L1298.45 1278.37 L1304.33 1278.37 L1304.33 1283.9 Q1306.18 1280.66 1309.14 1279.1 Q1312.1 1277.51 1316.33 1277.51 Q1316.94 1277.51 1317.67 1277.6 Q1318.4 1277.67 1319.29 1277.83 L1319.33 1283.84 Z" fill="#000000" fill-rule="nonzero" fill-opacity="1" /><path clip-path="url(#clip020)" d="M1348.19 1279.42 L1348.19 1284.96 Q1345.71 1283.68 1343.04 1283.05 Q1340.36 1282.41 1337.5 1282.41 Q1333.14 1282.41 1330.94 1283.75 Q1328.78 1285.08 1328.78 1287.76 Q1328.78 1289.79 1330.34 1290.97 Q1331.9 1292.12 1336.61 1293.17 L1338.61 1293.61 Q1344.85 1294.95 1347.46 1297.4 Q1350.1 1299.82 1350.1 1304.18 Q1350.1 1309.14 1346.16 1312.04 Q1342.24 1314.94 1335.37 1314.94 Q1332.5 1314.94 1329.38 1314.36 Q1326.3 1313.82 1322.86 1312.71 L1322.86 1306.66 Q1326.11 1308.35 1329.26 1309.21 Q1332.41 1310.04 1335.49 1310.04 Q1339.63 1310.04 1341.86 1308.64 Q1344.09 1307.2 1344.09 1304.63 Q1344.09 1302.24 1342.47 1300.97 Q1340.87 1299.69 1335.43 1298.51 L1333.39 1298.04 Q1327.95 1296.89 1325.53 1294.54 Q1323.11 1292.15 1323.11 1288.01 Q1323.11 1282.98 1326.68 1280.24 Q1330.24 1277.51 1336.8 1277.51 Q1340.05 1277.51 1342.91 1277.98 Q1345.78 1278.46 1348.19 1279.42 Z" fill="#000000" fill-rule="nonzero" fill-opacity="1" /><path clip-path="url(#clip020)" d="M1358.51 1264.55 L1363.6 1264.55 Q1368.37 1272.06 1370.73 1279.26 Q1373.12 1286.45 1373.12 1293.55 Q1373.12 1300.68 1370.73 1307.9 Q1368.37 1315.13 1363.6 1322.61 L1358.51 1322.61 Q1362.74 1315.32 1364.81 1308.13 Q1366.91 1300.9 1366.91 1293.55 Q1366.91 1286.2 1364.81 1279.04 Q1362.74 1271.87 1358.51 1264.55 Z" fill="#000000" fill-rule="nonzero" fill-opacity="1" /><polyline clip-path="url(#clip022)" style="stroke:#000000; stroke-linecap:round; stroke-linejoin:round; stroke-width:2; stroke-opacity:0.1; fill:none" points="170.405,1173.47 2064.76,1173.47 "/>
<polyline clip-path="url(#clip022)" style="stroke:#000000; stroke-linecap:round; stroke-linejoin:round; stroke-width:2; stroke-opacity:0.1; fill:none" points="170.405,985.766 2064.76,985.766 "/>
<polyline clip-path="url(#clip022)" style="stroke:#000000; stroke-linecap:round; stroke-linejoin:round; stroke-width:2; stroke-opacity:0.1; fill:none" points="170.405,798.062 2064.76,798.062 "/>
<polyline clip-path="url(#clip022)" style="stroke:#000000; stroke-linecap:round; stroke-linejoin:round; stroke-width:2; stroke-opacity:0.1; fill:none" points="170.405,610.357 2064.76,610.357 "/>
<polyline clip-path="url(#clip022)" style="stroke:#000000; stroke-linecap:round; stroke-linejoin:round; stroke-width:2; stroke-opacity:0.1; fill:none" points="170.405,422.653 2064.76,422.653 "/>
<polyline clip-path="url(#clip022)" style="stroke:#000000; stroke-linecap:round; stroke-linejoin:round; stroke-width:2; stroke-opacity:0.1; fill:none" points="170.405,234.949 2064.76,234.949 "/>
<polyline clip-path="url(#clip022)" style="stroke:#000000; stroke-linecap:round; stroke-linejoin:round; stroke-width:2; stroke-opacity:0.1; fill:none" points="170.405,47.2441 2064.76,47.2441 "/>
<polyline clip-path="url(#clip020)" style="stroke:#000000; stroke-linecap:round; stroke-linejoin:round; stroke-width:4; stroke-opacity:1; fill:none" points="170.405,1173.47 170.405,47.2441 "/>
<polyline clip-path="url(#clip020)" style="stroke:#000000; stroke-linecap:round; stroke-linejoin:round; stroke-width:4; stroke-opacity:1; fill:none" points="170.405,1173.47 189.303,1173.47 "/>
<polyline clip-path="url(#clip020)" style="stroke:#000000; stroke-linecap:round; stroke-linejoin:round; stroke-width:4; stroke-opacity:1; fill:none" points="170.405,985.766 189.303,985.766 "/>
<polyline clip-path="url(#clip020)" style="stroke:#000000; stroke-linecap:round; stroke-linejoin:round; stroke-width:4; stroke-opacity:1; fill:none" points="170.405,798.062 189.303,798.062 "/>
<polyline clip-path="url(#clip020)" style="stroke:#000000; stroke-linecap:round; stroke-linejoin:round; stroke-width:4; stroke-opacity:1; fill:none" points="170.405,610.357 189.303,610.357 "/>
<polyline clip-path="url(#clip020)" style="stroke:#000000; stroke-linecap:round; stroke-linejoin:round; stroke-width:4; stroke-opacity:1; fill:none" points="170.405,422.653 189.303,422.653 "/>
<polyline clip-path="url(#clip020)" style="stroke:#000000; stroke-linecap:round; stroke-linejoin:round; stroke-width:4; stroke-opacity:1; fill:none" points="170.405,234.949 189.303,234.949 "/>
<polyline clip-path="url(#clip020)" style="stroke:#000000; stroke-linecap:round; stroke-linejoin:round; stroke-width:4; stroke-opacity:1; fill:none" points="170.405,47.2441 189.303,47.2441 "/>
<path clip-path="url(#clip020)" d="M126.781 1159.27 Q123.17 1159.27 121.341 1162.83 Q119.535 1166.38 119.535 1173.51 Q119.535 1180.61 121.341 1184.18 Q123.17 1187.72 126.781 1187.72 Q130.415 1187.72 132.221 1184.18 Q134.049 1180.61 134.049 1173.51 Q134.049 1166.38 132.221 1162.83 Q130.415 1159.27 126.781 1159.27 M126.781 1155.57 Q132.591 1155.57 135.647 1160.17 Q138.725 1164.76 138.725 1173.51 Q138.725 1182.23 135.647 1186.84 Q132.591 1191.42 126.781 1191.42 Q120.971 1191.42 117.892 1186.84 Q114.836 1182.23 114.836 1173.51 Q114.836 1164.76 117.892 1160.17 Q120.971 1155.57 126.781 1155.57 Z" fill="#000000" fill-rule="nonzero" fill-opacity="1" /><path clip-path="url(#clip020)" d="M118.818 999.111 L126.457 999.111 L126.457 972.746 L118.147 974.412 L118.147 970.153 L126.41 968.486 L131.086 968.486 L131.086 999.111 L138.725 999.111 L138.725 1003.05 L118.818 1003.05 L118.818 999.111 Z" fill="#000000" fill-rule="nonzero" fill-opacity="1" /><path clip-path="url(#clip020)" d="M122.406 811.407 L138.725 811.407 L138.725 815.342 L116.781 815.342 L116.781 811.407 Q119.443 808.652 124.026 804.022 Q128.633 799.37 129.813 798.027 Q132.059 795.504 132.938 793.768 Q133.841 792.009 133.841 790.319 Q133.841 787.564 131.897 785.828 Q129.975 784.092 126.873 784.092 Q124.674 784.092 122.221 784.856 Q119.79 785.62 117.012 787.171 L117.012 782.449 Q119.836 781.314 122.29 780.736 Q124.744 780.157 126.781 780.157 Q132.151 780.157 135.346 782.842 Q138.54 785.527 138.54 790.018 Q138.54 792.148 137.73 794.069 Q136.943 795.967 134.836 798.56 Q134.258 799.231 131.156 802.448 Q128.054 805.643 122.406 811.407 Z" fill="#000000" fill-rule="nonzero" fill-opacity="1" /><path clip-path="url(#clip020)" d="M131.596 609.003 Q134.952 609.721 136.827 611.989 Q138.725 614.258 138.725 617.591 Q138.725 622.707 135.207 625.508 Q131.688 628.309 125.207 628.309 Q123.031 628.309 120.716 627.869 Q118.424 627.452 115.971 626.596 L115.971 622.082 Q117.915 623.216 120.23 623.795 Q122.545 624.374 125.068 624.374 Q129.466 624.374 131.758 622.637 Q134.072 620.901 134.072 617.591 Q134.072 614.536 131.92 612.823 Q129.79 611.087 125.971 611.087 L121.943 611.087 L121.943 607.244 L126.156 607.244 Q129.605 607.244 131.434 605.878 Q133.262 604.489 133.262 601.897 Q133.262 599.235 131.364 597.823 Q129.489 596.388 125.971 596.388 Q124.049 596.388 121.85 596.804 Q119.651 597.221 117.012 598.101 L117.012 593.934 Q119.674 593.193 121.989 592.823 Q124.327 592.452 126.387 592.452 Q131.711 592.452 134.813 594.883 Q137.915 597.29 137.915 601.411 Q137.915 604.281 136.272 606.272 Q134.628 608.239 131.596 609.003 Z" fill="#000000" fill-rule="nonzero" fill-opacity="1" /><path clip-path="url(#clip020)" d="M129.142 409.447 L117.336 427.896 L129.142 427.896 L129.142 409.447 M127.915 405.373 L133.795 405.373 L133.795 427.896 L138.725 427.896 L138.725 431.785 L133.795 431.785 L133.795 439.933 L129.142 439.933 L129.142 431.785 L113.54 431.785 L113.54 427.271 L127.915 405.373 Z" fill="#000000" fill-rule="nonzero" fill-opacity="1" /><path clip-path="url(#clip020)" d="M117.823 217.669 L136.179 217.669 L136.179 221.604 L122.105 221.604 L122.105 230.076 Q123.123 229.729 124.142 229.567 Q125.16 229.381 126.179 229.381 Q131.966 229.381 135.346 232.553 Q138.725 235.724 138.725 241.141 Q138.725 246.719 135.253 249.821 Q131.781 252.9 125.461 252.9 Q123.285 252.9 121.017 252.529 Q118.772 252.159 116.364 251.418 L116.364 246.719 Q118.448 247.854 120.67 248.409 Q122.892 248.965 125.369 248.965 Q129.373 248.965 131.711 246.858 Q134.049 244.752 134.049 241.141 Q134.049 237.53 131.711 235.423 Q129.373 233.317 125.369 233.317 Q123.494 233.317 121.619 233.733 Q119.767 234.15 117.823 235.03 L117.823 217.669 Z" fill="#000000" fill-rule="nonzero" fill-opacity="1" /><path clip-path="url(#clip020)" d="M127.197 45.3807 Q124.049 45.3807 122.198 47.5334 Q120.369 49.6862 120.369 53.4362 Q120.369 57.163 122.198 59.3389 Q124.049 61.4917 127.197 61.4917 Q130.346 61.4917 132.174 59.3389 Q134.026 57.163 134.026 53.4362 Q134.026 49.6862 132.174 47.5334 Q130.346 45.3807 127.197 45.3807 M136.48 30.728 L136.48 34.9872 Q134.721 34.1539 132.915 33.7141 Q131.133 33.2743 129.373 33.2743 Q124.744 33.2743 122.29 36.3992 Q119.86 39.5242 119.512 45.8436 Q120.878 43.8298 122.938 42.765 Q124.998 41.677 127.475 41.677 Q132.684 41.677 135.693 44.8483 Q138.725 47.9964 138.725 53.4362 Q138.725 58.7602 135.577 61.9778 Q132.429 65.1954 127.197 65.1954 Q121.202 65.1954 118.031 60.6121 Q114.86 56.0056 114.86 47.2788 Q114.86 39.0844 118.748 34.2233 Q122.637 29.3391 129.188 29.3391 Q130.947 29.3391 132.73 29.6863 Q134.535 30.0335 136.48 30.728 Z" fill="#000000" fill-rule="nonzero" fill-opacity="1" /><path clip-path="url(#clip020)" d="M20.0842 751.978 L20.0842 745.072 L39.6269 731.895 L20.0842 718.813 L20.0842 711.906 L44.9741 728.712 L67.6042 728.712 L67.6042 735.173 L44.9741 735.173 L20.0842 751.978 Z" fill="#000000" fill-rule="nonzero" fill-opacity="1" /><path clip-path="url(#clip020)" d="M31.9562 708.214 L31.9562 702.358 L67.6042 702.358 L67.6042 708.214 L31.9562 708.214 M18.079 708.214 L18.079 702.358 L25.495 702.358 L25.495 708.214 L18.079 708.214 Z" fill="#000000" fill-rule="nonzero" fill-opacity="1" /><path clip-path="url(#clip020)" d="M48.3161 659.612 L51.1806 659.612 L51.1806 686.539 Q57.2281 686.157 60.4109 682.911 Q63.5619 679.632 63.5619 673.808 Q63.5619 670.434 62.7344 667.283 Q61.9069 664.1 60.2518 660.981 L65.7899 660.981 Q67.1267 664.132 67.827 667.442 Q68.5272 670.752 68.5272 674.158 Q68.5272 682.688 63.5619 687.685 Q58.5967 692.65 50.1303 692.65 Q41.3774 692.65 36.2531 687.939 Q31.0968 683.197 31.0968 675.176 Q31.0968 667.983 35.7438 663.813 Q40.3589 659.612 48.3161 659.612 M46.5973 665.469 Q41.7912 665.532 38.9266 668.174 Q36.0621 670.784 36.0621 675.113 Q36.0621 680.014 38.8312 682.974 Q41.6002 685.902 46.6292 686.348 L46.5973 665.469 Z" fill="#000000" fill-rule="nonzero" fill-opacity="1" /><path clip-path="url(#clip020)" d="M18.079 650 L18.079 644.143 L67.6042 644.143 L67.6042 650 L18.079 650 Z" fill="#000000" fill-rule="nonzero" fill-opacity="1" /><path clip-path="url(#clip020)" d="M37.3671 608.432 L18.079 608.432 L18.079 602.575 L67.6042 602.575 L67.6042 608.432 L62.257 608.432 Q65.4398 610.278 66.9994 613.111 Q68.5272 615.912 68.5272 619.858 Q68.5272 626.319 63.371 630.393 Q58.2147 634.436 49.812 634.436 Q41.4093 634.436 36.2531 630.393 Q31.0968 626.319 31.0968 619.858 Q31.0968 615.912 32.6564 613.111 Q34.1842 610.278 37.3671 608.432 M49.812 628.388 Q56.2732 628.388 59.9653 625.747 Q63.6256 623.073 63.6256 618.426 Q63.6256 613.779 59.9653 611.105 Q56.2732 608.432 49.812 608.432 Q43.3508 608.432 39.6905 611.105 Q35.9984 613.779 35.9984 618.426 Q35.9984 623.073 39.6905 625.747 Q43.3508 628.388 49.812 628.388 Z" fill="#000000" fill-rule="nonzero" fill-opacity="1" /><path clip-path="url(#clip020)" d="M18.1426 555.724 Q25.4632 559.989 32.6246 562.058 Q39.786 564.126 47.1384 564.126 Q54.4908 564.126 61.7159 562.058 Q68.9091 559.957 76.1979 555.724 L76.1979 560.816 Q68.7182 565.591 61.4931 567.978 Q54.268 570.333 47.1384 570.333 Q40.0406 570.333 32.8474 567.978 Q25.6542 565.622 18.1426 560.816 L18.1426 555.724 Z" fill="#000000" fill-rule="nonzero" fill-opacity="1" /><path clip-path="url(#clip020)" d="M46.6928 503.111 Q46.6928 505.88 49.0481 507.472 Q51.4034 509.031 55.6048 509.031 Q59.7425 509.031 62.1296 507.472 Q64.485 505.88 64.485 503.111 Q64.485 500.406 62.1296 498.846 Q59.7425 497.255 55.6048 497.255 Q51.4353 497.255 49.08 498.846 Q46.6928 500.406 46.6928 503.111 M42.6506 503.111 Q42.6506 498.082 46.1517 495.122 Q49.6529 492.162 55.6048 492.162 Q61.5567 492.162 65.0579 495.154 Q68.5272 498.114 68.5272 503.111 Q68.5272 508.204 65.0579 511.164 Q61.5567 514.124 55.6048 514.124 Q49.621 514.124 46.1517 511.164 Q42.6506 508.172 42.6506 503.111 M23.267 535.958 Q23.267 538.695 25.6542 540.287 Q28.0095 541.847 32.1472 541.847 Q36.3485 541.847 38.7038 540.287 Q41.0592 538.727 41.0592 535.958 Q41.0592 533.189 38.7038 531.63 Q36.3485 530.038 32.1472 530.038 Q28.0413 530.038 25.6542 531.63 Q23.267 533.221 23.267 535.958 M19.2248 507.217 L19.2248 502.124 L68.5272 531.852 L68.5272 536.945 L19.2248 507.217 M19.2248 535.958 Q19.2248 530.929 22.7259 527.937 Q26.1952 524.946 32.1472 524.946 Q38.1628 524.946 41.6321 527.937 Q45.1014 530.897 45.1014 535.958 Q45.1014 541.019 41.6321 543.979 Q38.1309 546.907 32.1472 546.907 Q26.2271 546.907 22.7259 543.947 Q19.2248 540.987 19.2248 535.958 Z" fill="#000000" fill-rule="nonzero" fill-opacity="1" /><path clip-path="url(#clip020)" d="M18.1426 483.346 L18.1426 478.253 Q25.6542 473.479 32.8474 471.124 Q40.0406 468.736 47.1384 468.736 Q54.268 468.736 61.4931 471.124 Q68.7182 473.479 76.1979 478.253 L76.1979 483.346 Q68.9091 479.112 61.7159 477.044 Q54.4908 474.943 47.1384 474.943 Q39.786 474.943 32.6246 477.044 Q25.4632 479.112 18.1426 483.346 Z" fill="#000000" fill-rule="nonzero" fill-opacity="1" /><polyline clip-path="url(#clip022)" style="stroke:#0000ff; stroke-linecap:round; stroke-linejoin:round; stroke-width:4; stroke-opacity:1; fill:none" points="224.019,1165.96 228.997,1165.96 233.975,1147.19 248.909,1109.65 278.778,1072.11 338.514,998.906 398.251,935.086 517.724,831.849 637.198,724.857 816.408,632.882 1413.78,460.194 2011.14,480.841 "/>
<circle clip-path="url(#clip022)" cx="224.019" cy="1165.96" r="14.4" fill="#0000ff" fill-rule="evenodd" fill-opacity="0.5" stroke="#000000" stroke-opacity="0.5" stroke-width="2.688"/>
<circle clip-path="url(#clip022)" cx="228.997" cy="1165.96" r="14.4" fill="#0000ff" fill-rule="evenodd" fill-opacity="0.5" stroke="#000000" stroke-opacity="0.5" stroke-width="2.688"/>
<circle clip-path="url(#clip022)" cx="233.975" cy="1147.19" r="14.4" fill="#0000ff" fill-rule="evenodd" fill-opacity="0.5" stroke="#000000" stroke-opacity="0.5" stroke-width="2.688"/>
<circle clip-path="url(#clip022)" cx="248.909" cy="1109.65" r="14.4" fill="#0000ff" fill-rule="evenodd" fill-opacity="0.5" stroke="#000000" stroke-opacity="0.5" stroke-width="2.688"/>
<circle clip-path="url(#clip022)" cx="278.778" cy="1072.11" r="14.4" fill="#0000ff" fill-rule="evenodd" fill-opacity="0.5" stroke="#000000" stroke-opacity="0.5" stroke-width="2.688"/>
<circle clip-path="url(#clip022)" cx="338.514" cy="998.906" r="14.4" fill="#0000ff" fill-rule="evenodd" fill-opacity="0.5" stroke="#000000" stroke-opacity="0.5" stroke-width="2.688"/>
<circle clip-path="url(#clip022)" cx="398.251" cy="935.086" r="14.4" fill="#0000ff" fill-rule="evenodd" fill-opacity="0.5" stroke="#000000" stroke-opacity="0.5" stroke-width="2.688"/>
<circle clip-path="url(#clip022)" cx="517.724" cy="831.849" r="14.4" fill="#0000ff" fill-rule="evenodd" fill-opacity="0.5" stroke="#000000" stroke-opacity="0.5" stroke-width="2.688"/>
<circle clip-path="url(#clip022)" cx="637.198" cy="724.857" r="14.4" fill="#0000ff" fill-rule="evenodd" fill-opacity="0.5" stroke="#000000" stroke-opacity="0.5" stroke-width="2.688"/>
<circle clip-path="url(#clip022)" cx="816.408" cy="632.882" r="14.4" fill="#0000ff" fill-rule="evenodd" fill-opacity="0.5" stroke="#000000" stroke-opacity="0.5" stroke-width="2.688"/>
<circle clip-path="url(#clip022)" cx="1413.78" cy="460.194" r="14.4" fill="#0000ff" fill-rule="evenodd" fill-opacity="0.5" stroke="#000000" stroke-opacity="0.5" stroke-width="2.688"/>
<circle clip-path="url(#clip022)" cx="2011.14" cy="480.841" r="14.4" fill="#0000ff" fill-rule="evenodd" fill-opacity="0.5" stroke="#000000" stroke-opacity="0.5" stroke-width="2.688"/>
</svg>
