<?xml version="1.0" encoding="utf-8"?>
<svg xmlns="http://www.w3.org/2000/svg" xmlns:xlink="http://www.w3.org/1999/xlink" width="800" height="300" viewBox="0 0 3200 1200">
<defs>
  <clipPath id="clip120">
    <rect x="0" y="0" width="3200" height="1200"/>
  </clipPath>
</defs>
<path clip-path="url(#clip120)" d="
M0 1200 L3200 1200 L3200 0 L0 0  Z
  " fill="#000000" fill-rule="evenodd" fill-opacity="0"/>
<defs>
  <clipPath id="clip121">
    <rect x="640" y="0" width="2241" height="1200"/>
  </clipPath>
</defs>
<path clip-path="url(#clip120)" d="
M178.857 1110.43 L1552.18 1110.43 L1552.18 97.0121 L178.857 97.0121  Z
  " fill="#000000" fill-rule="evenodd" fill-opacity="0"/>
<defs>
  <clipPath id="clip122">
    <rect x="178" y="97" width="1374" height="1014"/>
  </clipPath>
</defs>
<polyline clip-path="url(#clip122)" style="stroke:#000000; stroke-linecap:round; stroke-linejoin:round; stroke-width:2; stroke-opacity:0.1; fill:none" points="
  338.686,1110.43 338.686,97.0121 
  "/>
<polyline clip-path="url(#clip122)" style="stroke:#000000; stroke-linecap:round; stroke-linejoin:round; stroke-width:2; stroke-opacity:0.1; fill:none" points="
  549.418,1110.43 549.418,97.0121 
  "/>
<polyline clip-path="url(#clip122)" style="stroke:#000000; stroke-linecap:round; stroke-linejoin:round; stroke-width:2; stroke-opacity:0.1; fill:none" points="
  760.151,1110.43 760.151,97.0121 
  "/>
<polyline clip-path="url(#clip122)" style="stroke:#000000; stroke-linecap:round; stroke-linejoin:round; stroke-width:2; stroke-opacity:0.1; fill:none" points="
  970.884,1110.43 970.884,97.0121 
  "/>
<polyline clip-path="url(#clip122)" style="stroke:#000000; stroke-linecap:round; stroke-linejoin:round; stroke-width:2; stroke-opacity:0.1; fill:none" points="
  1181.62,1110.43 1181.62,97.0121 
  "/>
<polyline clip-path="url(#clip122)" style="stroke:#000000; stroke-linecap:round; stroke-linejoin:round; stroke-width:2; stroke-opacity:0.1; fill:none" points="
  1392.35,1110.43 1392.35,97.0121 
  "/>
<polyline clip-path="url(#clip120)" style="stroke:#000000; stroke-linecap:round; stroke-linejoin:round; stroke-width:4; stroke-opacity:1; fill:none" points="
  178.857,1110.43 1552.18,1110.43 
  "/>
<polyline clip-path="url(#clip120)" style="stroke:#000000; stroke-linecap:round; stroke-linejoin:round; stroke-width:4; stroke-opacity:1; fill:none" points="
  338.686,1110.43 338.686,1091.53 
  "/>
<polyline clip-path="url(#clip120)" style="stroke:#000000; stroke-linecap:round; stroke-linejoin:round; stroke-width:4; stroke-opacity:1; fill:none" points="
  549.418,1110.43 549.418,1091.53 
  "/>
<polyline clip-path="url(#clip120)" style="stroke:#000000; stroke-linecap:round; stroke-linejoin:round; stroke-width:4; stroke-opacity:1; fill:none" points="
  760.151,1110.43 760.151,1091.53 
  "/>
<polyline clip-path="url(#clip120)" style="stroke:#000000; stroke-linecap:round; stroke-linejoin:round; stroke-width:4; stroke-opacity:1; fill:none" points="
  970.884,1110.43 970.884,1091.53 
  "/>
<polyline clip-path="url(#clip120)" style="stroke:#000000; stroke-linecap:round; stroke-linejoin:round; stroke-width:4; stroke-opacity:1; fill:none" points="
  1181.62,1110.43 1181.62,1091.53 
  "/>
<polyline clip-path="url(#clip120)" style="stroke:#000000; stroke-linecap:round; stroke-linejoin:round; stroke-width:4; stroke-opacity:1; fill:none" points="
  1392.35,1110.43 1392.35,1091.53 
  "/>
<path clip-path="url(#clip120)" d="M252.097 1141.26 L252.097 1176.81 L249.146 1176.81 L249.146 1141.26 L252.097 1141.26 Z" fill="#000000" fill-rule="evenodd" fill-opacity="1" /><path clip-path="url(#clip120)" d="M279.511 1144.5 L279.511 1148.2 Q277.74 1146.55 275.726 1145.74 Q273.729 1144.92 271.472 1144.92 Q267.028 1144.92 264.667 1147.65 Q262.306 1150.36 262.306 1155.49 Q262.306 1160.62 264.667 1163.34 Q267.028 1166.05 271.472 1166.05 Q273.729 1166.05 275.726 1165.23 Q277.74 1164.42 279.511 1162.77 L279.511 1166.43 Q277.67 1167.68 275.604 1168.31 Q273.556 1168.93 271.264 1168.93 Q265.379 1168.93 261.993 1165.34 Q258.608 1161.73 258.608 1155.49 Q258.608 1149.24 261.993 1145.65 Q265.379 1142.04 271.264 1142.04 Q273.59 1142.04 275.639 1142.66 Q277.705 1143.27 279.511 1144.5 Z" fill="#000000" fill-rule="evenodd" fill-opacity="1" /><path clip-path="url(#clip120)" d="M288.903 1141.26 L288.903 1176.81 L285.951 1176.81 L285.951 1141.26 L288.903 1141.26 Z" fill="#000000" fill-rule="evenodd" fill-opacity="1" /><path clip-path="url(#clip120)" d="M310.674 1157.54 Q310.795 1158.83 311.889 1160.91 Q313.174 1163.32 315.604 1164.68 Q317.983 1166 320.552 1166.01 L332.653 1166.01 L332.653 1168.78 L320.552 1168.78 Q317.219 1168.78 314.128 1167.06 Q311.055 1165.34 309.406 1162.28 Q307.757 1159.23 307.757 1155.98 Q307.757 1152.77 309.406 1149.71 Q311.055 1146.66 314.128 1144.92 Q317.219 1143.18 320.552 1143.18 L332.653 1143.18 L332.653 1145.95 L320.552 1145.95 Q317.983 1145.96 315.604 1147.3 Q313.191 1148.67 311.889 1151.07 Q310.778 1153.15 310.621 1154.76 L332.653 1154.76 L332.653 1157.54 L310.674 1157.54 Z" fill="#000000" fill-rule="evenodd" fill-opacity="1" /><path clip-path="url(#clip120)" d="M350.048 1141.41 L357.409 1141.41 L357.409 1143.9 L353.243 1143.9 L353.243 1170.63 L357.409 1170.63 L357.409 1173.12 L350.048 1173.12 L350.048 1141.41 Z" fill="#000000" fill-rule="evenodd" fill-opacity="1" /><path clip-path="url(#clip120)" d="M372.166 1144.82 Q369.458 1144.82 368.086 1147.49 Q366.732 1150.15 366.732 1155.49 Q366.732 1160.82 368.086 1163.5 Q369.458 1166.15 372.166 1166.15 Q374.892 1166.15 376.246 1163.5 Q377.618 1160.82 377.618 1155.49 Q377.618 1150.15 376.246 1147.49 Q374.892 1144.82 372.166 1144.82 M372.166 1142.04 Q376.524 1142.04 378.816 1145.49 Q381.125 1148.93 381.125 1155.49 Q381.125 1162.04 378.816 1165.49 Q376.524 1168.93 372.166 1168.93 Q367.809 1168.93 365.5 1165.49 Q363.208 1162.04 363.208 1155.49 Q363.208 1148.93 365.5 1145.49 Q367.809 1142.04 372.166 1142.04 Z" fill="#000000" fill-rule="evenodd" fill-opacity="1" /><path clip-path="url(#clip120)" d="M387.652 1164.02 L391.315 1164.02 L391.315 1167 L388.468 1172.56 L386.229 1172.56 L387.652 1167 L387.652 1164.02 Z" fill="#000000" fill-rule="evenodd" fill-opacity="1" /><path clip-path="url(#clip120)" d="M399.197 1165.48 L404.926 1165.48 L404.926 1145.7 L398.694 1146.95 L398.694 1143.76 L404.892 1142.51 L408.399 1142.51 L408.399 1165.48 L414.128 1165.48 L414.128 1168.43 L399.197 1168.43 L399.197 1165.48 Z" fill="#000000" fill-rule="evenodd" fill-opacity="1" /><path clip-path="url(#clip120)" d="M428.225 1141.41 L428.225 1173.12 L420.864 1173.12 L420.864 1170.63 L425.013 1170.63 L425.013 1143.9 L420.864 1143.9 L420.864 1141.41 L428.225 1141.41 Z" fill="#000000" fill-rule="evenodd" fill-opacity="1" /><path clip-path="url(#clip120)" d="M462.83 1141.26 L462.83 1176.81 L459.879 1176.81 L459.879 1141.26 L462.83 1141.26 Z" fill="#000000" fill-rule="evenodd" fill-opacity="1" /><path clip-path="url(#clip120)" d="M490.243 1144.5 L490.243 1148.2 Q488.472 1146.55 486.459 1145.74 Q484.462 1144.92 482.205 1144.92 Q477.761 1144.92 475.4 1147.65 Q473.038 1150.36 473.038 1155.49 Q473.038 1160.62 475.4 1163.34 Q477.761 1166.05 482.205 1166.05 Q484.462 1166.05 486.459 1165.23 Q488.472 1164.42 490.243 1162.77 L490.243 1166.43 Q488.403 1167.68 486.337 1168.31 Q484.288 1168.93 481.997 1168.93 Q476.111 1168.93 472.726 1165.34 Q469.341 1161.73 469.341 1155.49 Q469.341 1149.24 472.726 1145.65 Q476.111 1142.04 481.997 1142.04 Q484.323 1142.04 486.372 1142.66 Q488.438 1143.27 490.243 1144.5 Z" fill="#000000" fill-rule="evenodd" fill-opacity="1" /><path clip-path="url(#clip120)" d="M499.636 1141.26 L499.636 1176.81 L496.684 1176.81 L496.684 1141.26 L499.636 1141.26 Z" fill="#000000" fill-rule="evenodd" fill-opacity="1" /><path clip-path="url(#clip120)" d="M521.406 1157.54 Q521.528 1158.83 522.622 1160.91 Q523.906 1163.32 526.337 1164.68 Q528.715 1166 531.285 1166.01 L543.385 1166.01 L543.385 1168.78 L531.285 1168.78 Q527.951 1168.78 524.861 1167.06 Q521.788 1165.34 520.139 1162.28 Q518.49 1159.23 518.49 1155.98 Q518.49 1152.77 520.139 1149.71 Q521.788 1146.66 524.861 1144.92 Q527.951 1143.18 531.285 1143.18 L543.385 1143.18 L543.385 1145.95 L531.285 1145.95 Q528.715 1145.96 526.337 1147.3 Q523.924 1148.67 522.622 1151.07 Q521.51 1153.15 521.354 1154.76 L543.385 1154.76 L543.385 1157.54 L521.406 1157.54 Z" fill="#000000" fill-rule="evenodd" fill-opacity="1" /><path clip-path="url(#clip120)" d="M560.781 1141.41 L568.142 1141.41 L568.142 1143.9 L563.975 1143.9 L563.975 1170.63 L568.142 1170.63 L568.142 1173.12 L560.781 1173.12 L560.781 1141.41 Z" fill="#000000" fill-rule="evenodd" fill-opacity="1" /><path clip-path="url(#clip120)" d="M578.42 1165.48 L590.659 1165.48 L590.659 1168.43 L574.201 1168.43 L574.201 1165.48 Q576.198 1163.41 579.635 1159.94 Q583.09 1156.45 583.975 1155.44 Q585.659 1153.55 586.319 1152.25 Q586.996 1150.93 586.996 1149.66 Q586.996 1147.59 585.538 1146.29 Q584.097 1144.99 581.771 1144.99 Q580.121 1144.99 578.281 1145.56 Q576.458 1146.14 574.375 1147.3 L574.375 1143.76 Q576.493 1142.91 578.333 1142.47 Q580.173 1142.04 581.701 1142.04 Q585.729 1142.04 588.125 1144.05 Q590.52 1146.07 590.52 1149.43 Q590.52 1151.03 589.913 1152.47 Q589.323 1153.9 587.743 1155.84 Q587.309 1156.34 584.982 1158.76 Q582.656 1161.15 578.42 1165.48 Z" fill="#000000" fill-rule="evenodd" fill-opacity="1" /><path clip-path="url(#clip120)" d="M598.385 1164.02 L602.048 1164.02 L602.048 1167 L599.201 1172.56 L596.961 1172.56 L598.385 1167 L598.385 1164.02 Z" fill="#000000" fill-rule="evenodd" fill-opacity="1" /><path clip-path="url(#clip120)" d="M619.947 1154.45 Q622.465 1154.99 623.871 1156.69 Q625.295 1158.39 625.295 1160.89 Q625.295 1164.73 622.656 1166.83 Q620.017 1168.93 615.156 1168.93 Q613.524 1168.93 611.788 1168.6 Q610.069 1168.29 608.229 1167.65 L608.229 1164.26 Q609.687 1165.11 611.423 1165.55 Q613.159 1165.98 615.052 1165.98 Q618.35 1165.98 620.069 1164.68 Q621.805 1163.38 621.805 1160.89 Q621.805 1158.6 620.19 1157.32 Q618.593 1156.01 615.729 1156.01 L612.708 1156.01 L612.708 1153.13 L615.868 1153.13 Q618.454 1153.13 619.826 1152.11 Q621.197 1151.07 621.197 1149.12 Q621.197 1147.13 619.774 1146.07 Q618.368 1144.99 615.729 1144.99 Q614.288 1144.99 612.638 1145.3 Q610.989 1145.62 609.01 1146.28 L609.01 1143.15 Q611.006 1142.59 612.743 1142.32 Q614.496 1142.04 616.041 1142.04 Q620.034 1142.04 622.361 1143.86 Q624.687 1145.67 624.687 1148.76 Q624.687 1150.91 623.454 1152.4 Q622.222 1153.88 619.947 1154.45 Z" fill="#000000" fill-rule="evenodd" fill-opacity="1" /><path clip-path="url(#clip120)" d="M638.958 1141.41 L638.958 1173.12 L631.597 1173.12 L631.597 1170.63 L635.746 1170.63 L635.746 1143.9 L631.597 1143.9 L631.597 1141.41 L638.958 1141.41 Z" fill="#000000" fill-rule="evenodd" fill-opacity="1" /><path clip-path="url(#clip120)" d="M673.563 1141.26 L673.563 1176.81 L670.612 1176.81 L670.612 1141.26 L673.563 1141.26 Z" fill="#000000" fill-rule="evenodd" fill-opacity="1" /><path clip-path="url(#clip120)" d="M700.976 1144.5 L700.976 1148.2 Q699.205 1146.55 697.191 1145.74 Q695.195 1144.92 692.938 1144.92 Q688.493 1144.92 686.132 1147.65 Q683.771 1150.36 683.771 1155.49 Q683.771 1160.62 686.132 1163.34 Q688.493 1166.05 692.938 1166.05 Q695.195 1166.05 697.191 1165.23 Q699.205 1164.42 700.976 1162.77 L700.976 1166.43 Q699.136 1167.68 697.07 1168.31 Q695.021 1168.93 692.729 1168.93 Q686.844 1168.93 683.459 1165.34 Q680.073 1161.73 680.073 1155.49 Q680.073 1149.24 683.459 1145.65 Q686.844 1142.04 692.729 1142.04 Q695.056 1142.04 697.104 1142.66 Q699.17 1143.27 700.976 1144.5 Z" fill="#000000" fill-rule="evenodd" fill-opacity="1" /><path clip-path="url(#clip120)" d="M710.368 1141.26 L710.368 1176.81 L707.417 1176.81 L707.417 1141.26 L710.368 1141.26 Z" fill="#000000" fill-rule="evenodd" fill-opacity="1" /><path clip-path="url(#clip120)" d="M732.139 1157.54 Q732.26 1158.83 733.354 1160.91 Q734.639 1163.32 737.069 1164.68 Q739.448 1166 742.017 1166.01 L754.118 1166.01 L754.118 1168.78 L742.017 1168.78 Q738.684 1168.78 735.594 1167.06 Q732.521 1165.34 730.872 1162.28 Q729.222 1159.23 729.222 1155.98 Q729.222 1152.77 730.872 1149.71 Q732.521 1146.66 735.594 1144.92 Q738.684 1143.18 742.017 1143.18 L754.118 1143.18 L754.118 1145.95 L742.017 1145.95 Q739.448 1145.96 737.069 1147.3 Q734.656 1148.67 733.354 1151.07 Q732.243 1153.15 732.087 1154.76 L754.118 1154.76 L754.118 1157.54 L732.139 1157.54 Z" fill="#000000" fill-rule="evenodd" fill-opacity="1" /><path clip-path="url(#clip120)" d="M771.514 1141.41 L778.875 1141.41 L778.875 1143.9 L774.708 1143.9 L774.708 1170.63 L778.875 1170.63 L778.875 1173.12 L771.514 1173.12 L771.514 1141.41 Z" fill="#000000" fill-rule="evenodd" fill-opacity="1" /><path clip-path="url(#clip120)" d="M795.767 1145.56 L786.913 1159.4 L795.767 1159.4 L795.767 1145.56 M794.847 1142.51 L799.257 1142.51 L799.257 1159.4 L802.955 1159.4 L802.955 1162.32 L799.257 1162.32 L799.257 1168.43 L795.767 1168.43 L795.767 1162.32 L784.066 1162.32 L784.066 1158.93 L794.847 1142.51 Z" fill="#000000" fill-rule="evenodd" fill-opacity="1" /><path clip-path="url(#clip120)" d="M809.118 1164.02 L812.781 1164.02 L812.781 1167 L809.934 1172.56 L807.694 1172.56 L809.118 1167 L809.118 1164.02 Z" fill="#000000" fill-rule="evenodd" fill-opacity="1" /><path clip-path="url(#clip120)" d="M820.09 1142.51 L833.857 1142.51 L833.857 1145.46 L823.302 1145.46 L823.302 1151.81 Q824.066 1151.55 824.829 1151.43 Q825.593 1151.29 826.357 1151.29 Q830.697 1151.29 833.232 1153.67 Q835.767 1156.05 835.767 1160.11 Q835.767 1164.3 833.163 1166.62 Q830.559 1168.93 825.819 1168.93 Q824.187 1168.93 822.486 1168.65 Q820.802 1168.38 818.996 1167.82 L818.996 1164.3 Q820.559 1165.15 822.225 1165.56 Q823.892 1165.98 825.75 1165.98 Q828.753 1165.98 830.506 1164.4 Q832.26 1162.82 832.26 1160.11 Q832.26 1157.4 830.506 1155.82 Q828.753 1154.24 825.75 1154.24 Q824.343 1154.24 822.937 1154.56 Q821.548 1154.87 820.09 1155.53 L820.09 1142.51 Z" fill="#000000" fill-rule="evenodd" fill-opacity="1" /><path clip-path="url(#clip120)" d="M849.69 1141.41 L849.69 1173.12 L842.329 1173.12 L842.329 1170.63 L846.479 1170.63 L846.479 1143.9 L842.329 1143.9 L842.329 1141.41 L849.69 1141.41 Z" fill="#000000" fill-rule="evenodd" fill-opacity="1" /><path clip-path="url(#clip120)" d="M884.296 1141.26 L884.296 1176.81 L881.344 1176.81 L881.344 1141.26 L884.296 1141.26 Z" fill="#000000" fill-rule="evenodd" fill-opacity="1" /><path clip-path="url(#clip120)" d="M911.709 1144.5 L911.709 1148.2 Q909.938 1146.55 907.924 1145.74 Q905.927 1144.92 903.67 1144.92 Q899.226 1144.92 896.865 1147.65 Q894.504 1150.36 894.504 1155.49 Q894.504 1160.62 896.865 1163.34 Q899.226 1166.05 903.67 1166.05 Q905.927 1166.05 907.924 1165.23 Q909.938 1164.42 911.709 1162.77 L911.709 1166.43 Q909.868 1167.68 907.802 1168.31 Q905.754 1168.93 903.462 1168.93 Q897.577 1168.93 894.191 1165.34 Q890.806 1161.73 890.806 1155.49 Q890.806 1149.24 894.191 1145.65 Q897.577 1142.04 903.462 1142.04 Q905.789 1142.04 907.837 1142.66 Q909.903 1143.27 911.709 1144.5 Z" fill="#000000" fill-rule="evenodd" fill-opacity="1" /><path clip-path="url(#clip120)" d="M921.101 1141.26 L921.101 1176.81 L918.15 1176.81 L918.15 1141.26 L921.101 1141.26 Z" fill="#000000" fill-rule="evenodd" fill-opacity="1" /><path clip-path="url(#clip120)" d="M942.872 1157.54 Q942.993 1158.83 944.087 1160.91 Q945.372 1163.32 947.802 1164.68 Q950.181 1166 952.75 1166.01 L964.851 1166.01 L964.851 1168.78 L952.75 1168.78 Q949.417 1168.78 946.327 1167.06 Q943.254 1165.34 941.604 1162.28 Q939.955 1159.23 939.955 1155.98 Q939.955 1152.77 941.604 1149.71 Q943.254 1146.66 946.327 1144.92 Q949.417 1143.18 952.75 1143.18 L964.851 1143.18 L964.851 1145.95 L952.75 1145.95 Q950.181 1145.96 947.802 1147.3 Q945.389 1148.67 944.087 1151.07 Q942.976 1153.15 942.82 1154.76 L964.851 1154.76 L964.851 1157.54 L942.872 1157.54 Z" fill="#000000" fill-rule="evenodd" fill-opacity="1" /><path clip-path="url(#clip120)" d="M982.246 1141.41 L989.608 1141.41 L989.608 1143.9 L985.441 1143.9 L985.441 1170.63 L989.608 1170.63 L989.608 1173.12 L982.246 1173.12 L982.246 1141.41 Z" fill="#000000" fill-rule="evenodd" fill-opacity="1" /><path clip-path="url(#clip120)" d="M1004.8 1154.07 Q1002.44 1154.07 1001.05 1155.68 Q999.677 1157.3 999.677 1160.11 Q999.677 1162.91 1001.05 1164.54 Q1002.44 1166.15 1004.8 1166.15 Q1007.16 1166.15 1008.53 1164.54 Q1009.92 1162.91 1009.92 1160.11 Q1009.92 1157.3 1008.53 1155.68 Q1007.16 1154.07 1004.8 1154.07 M1011.76 1143.08 L1011.76 1146.28 Q1010.44 1145.65 1009.09 1145.32 Q1007.75 1144.99 1006.43 1144.99 Q1002.96 1144.99 1001.12 1147.33 Q999.295 1149.68 999.035 1154.42 Q1000.06 1152.91 1001.6 1152.11 Q1003.15 1151.29 1005.01 1151.29 Q1008.91 1151.29 1011.17 1153.67 Q1013.44 1156.03 1013.44 1160.11 Q1013.44 1164.1 1011.08 1166.52 Q1008.72 1168.93 1004.8 1168.93 Q1000.3 1168.93 997.923 1165.49 Q995.545 1162.04 995.545 1155.49 Q995.545 1149.35 998.462 1145.7 Q1001.38 1142.04 1006.29 1142.04 Q1007.61 1142.04 1008.95 1142.3 Q1010.3 1142.56 1011.76 1143.08 Z" fill="#000000" fill-rule="evenodd" fill-opacity="1" /><path clip-path="url(#clip120)" d="M1019.85 1164.02 L1023.51 1164.02 L1023.51 1167 L1020.67 1172.56 L1018.43 1172.56 L1019.85 1167 L1019.85 1164.02 Z" fill="#000000" fill-rule="evenodd" fill-opacity="1" /><path clip-path="url(#clip120)" d="M1029.9 1142.51 L1046.57 1142.51 L1046.57 1144 L1037.16 1168.43 L1033.5 1168.43 L1042.35 1145.46 L1029.9 1145.46 L1029.9 1142.51 Z" fill="#000000" fill-rule="evenodd" fill-opacity="1" /><path clip-path="url(#clip120)" d="M1060.42 1141.41 L1060.42 1173.12 L1053.06 1173.12 L1053.06 1170.63 L1057.21 1170.63 L1057.21 1143.9 L1053.06 1143.9 L1053.06 1141.41 L1060.42 1141.41 Z" fill="#000000" fill-rule="evenodd" fill-opacity="1" /><path clip-path="url(#clip120)" d="M1095.03 1141.26 L1095.03 1176.81 L1092.08 1176.81 L1092.08 1141.26 L1095.03 1141.26 Z" fill="#000000" fill-rule="evenodd" fill-opacity="1" /><path clip-path="url(#clip120)" d="M1122.44 1144.5 L1122.44 1148.2 Q1120.67 1146.55 1118.66 1145.74 Q1116.66 1144.92 1114.4 1144.92 Q1109.96 1144.92 1107.6 1147.65 Q1105.24 1150.36 1105.24 1155.49 Q1105.24 1160.62 1107.6 1163.34 Q1109.96 1166.05 1114.4 1166.05 Q1116.66 1166.05 1118.66 1165.23 Q1120.67 1164.42 1122.44 1162.77 L1122.44 1166.43 Q1120.6 1167.68 1118.54 1168.31 Q1116.49 1168.93 1114.19 1168.93 Q1108.31 1168.93 1104.92 1165.34 Q1101.54 1161.73 1101.54 1155.49 Q1101.54 1149.24 1104.92 1145.65 Q1108.31 1142.04 1114.19 1142.04 Q1116.52 1142.04 1118.57 1142.66 Q1120.64 1143.27 1122.44 1144.5 Z" fill="#000000" fill-rule="evenodd" fill-opacity="1" /><path clip-path="url(#clip120)" d="M1131.83 1141.26 L1131.83 1176.81 L1128.88 1176.81 L1128.88 1141.26 L1131.83 1141.26 Z" fill="#000000" fill-rule="evenodd" fill-opacity="1" /><path clip-path="url(#clip120)" d="M1153.6 1157.54 Q1153.73 1158.83 1154.82 1160.91 Q1156.1 1163.32 1158.53 1164.68 Q1160.91 1166 1163.48 1166.01 L1175.58 1166.01 L1175.58 1168.78 L1163.48 1168.78 Q1160.15 1168.78 1157.06 1167.06 Q1153.99 1165.34 1152.34 1162.28 Q1150.69 1159.23 1150.69 1155.98 Q1150.69 1152.77 1152.34 1149.71 Q1153.99 1146.66 1157.06 1144.92 Q1160.15 1143.18 1163.48 1143.18 L1175.58 1143.18 L1175.58 1145.95 L1163.48 1145.95 Q1160.91 1145.96 1158.53 1147.3 Q1156.12 1148.67 1154.82 1151.07 Q1153.71 1153.15 1153.55 1154.76 L1175.58 1154.76 L1175.58 1157.54 L1153.6 1157.54 Z" fill="#000000" fill-rule="evenodd" fill-opacity="1" /><path clip-path="url(#clip120)" d="M1192.98 1141.41 L1200.34 1141.41 L1200.34 1143.9 L1196.17 1143.9 L1196.17 1170.63 L1200.34 1170.63 L1200.34 1173.12 L1192.98 1173.12 L1192.98 1141.41 Z" fill="#000000" fill-rule="evenodd" fill-opacity="1" /><path clip-path="url(#clip120)" d="M1215.1 1156.12 Q1212.6 1156.12 1211.16 1157.46 Q1209.73 1158.79 1209.73 1161.14 Q1209.73 1163.48 1211.16 1164.82 Q1212.6 1166.15 1215.1 1166.15 Q1217.6 1166.15 1219.04 1164.82 Q1220.48 1163.46 1220.48 1161.14 Q1220.48 1158.79 1219.04 1157.46 Q1217.61 1156.12 1215.1 1156.12 M1211.59 1154.63 Q1209.33 1154.07 1208.07 1152.53 Q1206.82 1150.98 1206.82 1148.76 Q1206.82 1145.65 1209.02 1143.84 Q1211.24 1142.04 1215.1 1142.04 Q1218.97 1142.04 1221.17 1143.84 Q1223.38 1145.65 1223.38 1148.76 Q1223.38 1150.98 1222.11 1152.53 Q1220.86 1154.07 1218.62 1154.63 Q1221.16 1155.22 1222.56 1156.93 Q1223.99 1158.65 1223.99 1161.14 Q1223.99 1164.9 1221.68 1166.92 Q1219.39 1168.93 1215.1 1168.93 Q1210.81 1168.93 1208.5 1166.92 Q1206.21 1164.9 1206.21 1161.14 Q1206.21 1158.65 1207.63 1156.93 Q1209.06 1155.22 1211.59 1154.63 M1210.31 1149.09 Q1210.31 1151.1 1211.56 1152.23 Q1212.82 1153.36 1215.1 1153.36 Q1217.35 1153.36 1218.62 1152.23 Q1219.91 1151.1 1219.91 1149.09 Q1219.91 1147.07 1218.62 1145.95 Q1217.35 1144.82 1215.1 1144.82 Q1212.82 1144.82 1211.56 1145.95 Q1210.31 1147.07 1210.31 1149.09 Z" fill="#000000" fill-rule="evenodd" fill-opacity="1" /><path clip-path="url(#clip120)" d="M1230.58 1164.02 L1234.25 1164.02 L1234.25 1167 L1231.4 1172.56 L1229.16 1172.56 L1230.58 1167 L1230.58 1164.02 Z" fill="#000000" fill-rule="evenodd" fill-opacity="1" /><path clip-path="url(#clip120)" d="M1241.62 1167.89 L1241.62 1164.7 Q1242.94 1165.32 1244.3 1165.65 Q1245.65 1165.98 1246.95 1165.98 Q1250.43 1165.98 1252.25 1163.65 Q1254.09 1161.31 1254.35 1156.55 Q1253.34 1158.05 1251.8 1158.84 Q1250.25 1159.64 1248.38 1159.64 Q1244.49 1159.64 1242.22 1157.3 Q1239.96 1154.94 1239.96 1150.86 Q1239.96 1146.87 1242.32 1144.45 Q1244.68 1142.04 1248.6 1142.04 Q1253.1 1142.04 1255.46 1145.49 Q1257.84 1148.93 1257.84 1155.49 Q1257.84 1161.62 1254.92 1165.29 Q1252.02 1168.93 1247.11 1168.93 Q1245.79 1168.93 1244.44 1168.67 Q1243.08 1168.41 1241.62 1167.89 M1248.6 1156.9 Q1250.96 1156.9 1252.34 1155.29 Q1253.73 1153.67 1253.73 1150.86 Q1253.73 1148.06 1252.34 1146.45 Q1250.96 1144.82 1248.6 1144.82 Q1246.24 1144.82 1244.85 1146.45 Q1243.48 1148.06 1243.48 1150.86 Q1243.48 1153.67 1244.85 1155.29 Q1246.24 1156.9 1248.6 1156.9 Z" fill="#000000" fill-rule="evenodd" fill-opacity="1" /><path clip-path="url(#clip120)" d="M1271.16 1141.41 L1271.16 1173.12 L1263.79 1173.12 L1263.79 1170.63 L1267.94 1170.63 L1267.94 1143.9 L1263.79 1143.9 L1263.79 1141.41 L1271.16 1141.41 Z" fill="#000000" fill-rule="evenodd" fill-opacity="1" /><path clip-path="url(#clip120)" d="M1311.41 1141.26 L1311.41 1176.81 L1308.46 1176.81 L1308.46 1141.26 L1311.41 1141.26 Z" fill="#000000" fill-rule="evenodd" fill-opacity="1" /><path clip-path="url(#clip120)" d="M1338.83 1144.5 L1338.83 1148.2 Q1337.05 1146.55 1335.04 1145.74 Q1333.04 1144.92 1330.79 1144.92 Q1326.34 1144.92 1323.98 1147.65 Q1321.62 1150.36 1321.62 1155.49 Q1321.62 1160.62 1323.98 1163.34 Q1326.34 1166.05 1330.79 1166.05 Q1333.04 1166.05 1335.04 1165.23 Q1337.05 1164.42 1338.83 1162.77 L1338.83 1166.43 Q1336.98 1167.68 1334.92 1168.31 Q1332.87 1168.93 1330.58 1168.93 Q1324.69 1168.93 1321.31 1165.34 Q1317.92 1161.73 1317.92 1155.49 Q1317.92 1149.24 1321.31 1145.65 Q1324.69 1142.04 1330.58 1142.04 Q1332.9 1142.04 1334.95 1142.66 Q1337.02 1143.27 1338.83 1144.5 Z" fill="#000000" fill-rule="evenodd" fill-opacity="1" /><path clip-path="url(#clip120)" d="M1348.22 1141.26 L1348.22 1176.81 L1345.27 1176.81 L1345.27 1141.26 L1348.22 1141.26 Z" fill="#000000" fill-rule="evenodd" fill-opacity="1" /><path clip-path="url(#clip120)" d="M1369.99 1157.54 Q1370.11 1158.83 1371.2 1160.91 Q1372.49 1163.32 1374.92 1164.68 Q1377.3 1166 1379.87 1166.01 L1391.97 1166.01 L1391.97 1168.78 L1379.87 1168.78 Q1376.53 1168.78 1373.44 1167.06 Q1370.37 1165.34 1368.72 1162.28 Q1367.07 1159.23 1367.07 1155.98 Q1367.07 1152.77 1368.72 1149.71 Q1370.37 1146.66 1373.44 1144.92 Q1376.53 1143.18 1379.87 1143.18 L1391.97 1143.18 L1391.97 1145.95 L1379.87 1145.95 Q1377.3 1145.96 1374.92 1147.3 Q1372.51 1148.67 1371.2 1151.07 Q1370.09 1153.15 1369.94 1154.76 L1391.97 1154.76 L1391.97 1157.54 L1369.99 1157.54 Z" fill="#000000" fill-rule="evenodd" fill-opacity="1" /><path clip-path="url(#clip120)" d="M1409.36 1141.41 L1416.72 1141.41 L1416.72 1143.9 L1412.56 1143.9 L1412.56 1170.63 L1416.72 1170.63 L1416.72 1173.12 L1409.36 1173.12 L1409.36 1141.41 Z" fill="#000000" fill-rule="evenodd" fill-opacity="1" /><path clip-path="url(#clip120)" d="M1424.59 1165.48 L1430.32 1165.48 L1430.32 1145.7 L1424.09 1146.95 L1424.09 1143.76 L1430.28 1142.51 L1433.79 1142.51 L1433.79 1165.48 L1439.52 1165.48 L1439.52 1168.43 L1424.59 1168.43 L1424.59 1165.48 Z" fill="#000000" fill-rule="evenodd" fill-opacity="1" /><path clip-path="url(#clip120)" d="M1454.1 1144.82 Q1451.39 1144.82 1450.02 1147.49 Q1448.67 1150.15 1448.67 1155.49 Q1448.67 1160.82 1450.02 1163.5 Q1451.39 1166.15 1454.1 1166.15 Q1456.83 1166.15 1458.18 1163.5 Q1459.55 1160.82 1459.55 1155.49 Q1459.55 1150.15 1458.18 1147.49 Q1456.83 1144.82 1454.1 1144.82 M1454.1 1142.04 Q1458.46 1142.04 1460.75 1145.49 Q1463.06 1148.93 1463.06 1155.49 Q1463.06 1162.04 1460.75 1165.49 Q1458.46 1168.93 1454.1 1168.93 Q1449.74 1168.93 1447.44 1165.49 Q1445.14 1162.04 1445.14 1155.49 Q1445.14 1148.93 1447.44 1145.49 Q1449.74 1142.04 1454.1 1142.04 Z" fill="#000000" fill-rule="evenodd" fill-opacity="1" /><path clip-path="url(#clip120)" d="M1476.24 1141.41 L1476.24 1173.12 L1468.88 1173.12 L1468.88 1170.63 L1473.03 1170.63 L1473.03 1143.9 L1468.88 1143.9 L1468.88 1141.41 L1476.24 1141.41 Z" fill="#000000" fill-rule="evenodd" fill-opacity="1" /><polyline clip-path="url(#clip122)" style="stroke:#000000; stroke-linecap:round; stroke-linejoin:round; stroke-width:2; stroke-opacity:0.1; fill:none" points="
  178.857,1081.75 1552.18,1081.75 
  "/>
<polyline clip-path="url(#clip122)" style="stroke:#000000; stroke-linecap:round; stroke-linejoin:round; stroke-width:2; stroke-opacity:0.1; fill:none" points="
  178.857,886.634 1552.18,886.634 
  "/>
<polyline clip-path="url(#clip122)" style="stroke:#000000; stroke-linecap:round; stroke-linejoin:round; stroke-width:2; stroke-opacity:0.1; fill:none" points="
  178.857,691.521 1552.18,691.521 
  "/>
<polyline clip-path="url(#clip122)" style="stroke:#000000; stroke-linecap:round; stroke-linejoin:round; stroke-width:2; stroke-opacity:0.1; fill:none" points="
  178.857,496.408 1552.18,496.408 
  "/>
<polyline clip-path="url(#clip122)" style="stroke:#000000; stroke-linecap:round; stroke-linejoin:round; stroke-width:2; stroke-opacity:0.1; fill:none" points="
  178.857,301.295 1552.18,301.295 
  "/>
<polyline clip-path="url(#clip122)" style="stroke:#000000; stroke-linecap:round; stroke-linejoin:round; stroke-width:2; stroke-opacity:0.1; fill:none" points="
  178.857,106.182 1552.18,106.182 
  "/>
<polyline clip-path="url(#clip120)" style="stroke:#000000; stroke-linecap:round; stroke-linejoin:round; stroke-width:4; stroke-opacity:1; fill:none" points="
  178.857,1110.43 178.857,97.0121 
  "/>
<polyline clip-path="url(#clip120)" style="stroke:#000000; stroke-linecap:round; stroke-linejoin:round; stroke-width:4; stroke-opacity:1; fill:none" points="
  178.857,1081.75 197.755,1081.75 
  "/>
<polyline clip-path="url(#clip120)" style="stroke:#000000; stroke-linecap:round; stroke-linejoin:round; stroke-width:4; stroke-opacity:1; fill:none" points="
  178.857,886.634 197.755,886.634 
  "/>
<polyline clip-path="url(#clip120)" style="stroke:#000000; stroke-linecap:round; stroke-linejoin:round; stroke-width:4; stroke-opacity:1; fill:none" points="
  178.857,691.521 197.755,691.521 
  "/>
<polyline clip-path="url(#clip120)" style="stroke:#000000; stroke-linecap:round; stroke-linejoin:round; stroke-width:4; stroke-opacity:1; fill:none" points="
  178.857,496.408 197.755,496.408 
  "/>
<polyline clip-path="url(#clip120)" style="stroke:#000000; stroke-linecap:round; stroke-linejoin:round; stroke-width:4; stroke-opacity:1; fill:none" points="
  178.857,301.295 197.755,301.295 
  "/>
<polyline clip-path="url(#clip120)" style="stroke:#000000; stroke-linecap:round; stroke-linejoin:round; stroke-width:4; stroke-opacity:1; fill:none" points="
  178.857,106.182 197.755,106.182 
  "/>
<path clip-path="url(#clip120)" d="M118.913 1067.54 Q115.302 1067.54 113.473 1071.11 Q111.668 1074.65 111.668 1081.78 Q111.668 1088.89 113.473 1092.45 Q115.302 1095.99 118.913 1095.99 Q122.547 1095.99 124.353 1092.45 Q126.182 1088.89 126.182 1081.78 Q126.182 1074.65 124.353 1071.11 Q122.547 1067.54 118.913 1067.54 M118.913 1063.84 Q124.723 1063.84 127.779 1068.45 Q130.857 1073.03 130.857 1081.78 Q130.857 1090.51 127.779 1095.11 Q124.723 1099.7 118.913 1099.7 Q113.103 1099.7 110.024 1095.11 Q106.969 1090.51 106.969 1081.78 Q106.969 1073.03 110.024 1068.45 Q113.103 1063.84 118.913 1063.84 Z" fill="#000000" fill-rule="evenodd" fill-opacity="1" /><path clip-path="url(#clip120)" d="M78.7975 869.354 L97.1539 869.354 L97.1539 873.289 L83.0799 873.289 L83.0799 881.761 Q84.0984 881.414 85.1169 881.252 Q86.1354 881.066 87.1539 881.066 Q92.941 881.066 96.3206 884.238 Q99.7002 887.409 99.7002 892.826 Q99.7002 898.404 96.228 901.506 Q92.7558 904.585 86.4364 904.585 Q84.2604 904.585 81.9919 904.214 Q79.7466 903.844 77.3392 903.103 L77.3392 898.404 Q79.4225 899.539 81.6447 900.094 Q83.8669 900.65 86.3438 900.65 Q90.3484 900.65 92.6863 898.543 Q95.0243 896.437 95.0243 892.826 Q95.0243 889.215 92.6863 887.108 Q90.3484 885.002 86.3438 885.002 Q84.4688 885.002 82.5938 885.418 Q80.7419 885.835 78.7975 886.715 L78.7975 869.354 Z" fill="#000000" fill-rule="evenodd" fill-opacity="1" /><path clip-path="url(#clip120)" d="M118.913 872.432 Q115.302 872.432 113.473 875.997 Q111.668 879.539 111.668 886.668 Q111.668 893.775 113.473 897.339 Q115.302 900.881 118.913 900.881 Q122.547 900.881 124.353 897.339 Q126.182 893.775 126.182 886.668 Q126.182 879.539 124.353 875.997 Q122.547 872.432 118.913 872.432 M118.913 868.729 Q124.723 868.729 127.779 873.335 Q130.857 877.918 130.857 886.668 Q130.857 895.395 127.779 900.002 Q124.723 904.585 118.913 904.585 Q113.103 904.585 110.024 900.002 Q106.969 895.395 106.969 886.668 Q106.969 877.918 110.024 873.335 Q113.103 868.729 118.913 868.729 Z" fill="#000000" fill-rule="evenodd" fill-opacity="1" /><path clip-path="url(#clip120)" d="M49.3995 704.866 L57.0384 704.866 L57.0384 678.5 L48.7282 680.167 L48.7282 675.907 L56.9921 674.241 L61.668 674.241 L61.668 704.866 L69.3068 704.866 L69.3068 708.801 L49.3995 708.801 L49.3995 704.866 Z" fill="#000000" fill-rule="evenodd" fill-opacity="1" /><path clip-path="url(#clip120)" d="M88.7512 677.319 Q85.1401 677.319 83.3114 680.884 Q81.5058 684.426 81.5058 691.555 Q81.5058 698.662 83.3114 702.227 Q85.1401 705.768 88.7512 705.768 Q92.3854 705.768 94.1909 702.227 Q96.0196 698.662 96.0196 691.555 Q96.0196 684.426 94.1909 680.884 Q92.3854 677.319 88.7512 677.319 M88.7512 673.616 Q94.5613 673.616 97.6169 678.222 Q100.696 682.806 100.696 691.555 Q100.696 700.282 97.6169 704.889 Q94.5613 709.472 88.7512 709.472 Q82.941 709.472 79.8623 704.889 Q76.8068 700.282 76.8068 691.555 Q76.8068 682.806 79.8623 678.222 Q82.941 673.616 88.7512 673.616 Z" fill="#000000" fill-rule="evenodd" fill-opacity="1" /><path clip-path="url(#clip120)" d="M118.913 677.319 Q115.302 677.319 113.473 680.884 Q111.668 684.426 111.668 691.555 Q111.668 698.662 113.473 702.227 Q115.302 705.768 118.913 705.768 Q122.547 705.768 124.353 702.227 Q126.182 698.662 126.182 691.555 Q126.182 684.426 124.353 680.884 Q122.547 677.319 118.913 677.319 M118.913 673.616 Q124.723 673.616 127.779 678.222 Q130.857 682.806 130.857 691.555 Q130.857 700.282 127.779 704.889 Q124.723 709.472 118.913 709.472 Q113.103 709.472 110.024 704.889 Q106.969 700.282 106.969 691.555 Q106.969 682.806 110.024 678.222 Q113.103 673.616 118.913 673.616 Z" fill="#000000" fill-rule="evenodd" fill-opacity="1" /><path clip-path="url(#clip120)" d="M49.3995 509.753 L57.0384 509.753 L57.0384 483.387 L48.7282 485.054 L48.7282 480.795 L56.9921 479.128 L61.668 479.128 L61.668 509.753 L69.3068 509.753 L69.3068 513.688 L49.3995 513.688 L49.3995 509.753 Z" fill="#000000" fill-rule="evenodd" fill-opacity="1" /><path clip-path="url(#clip120)" d="M78.7975 479.128 L97.1539 479.128 L97.1539 483.063 L83.0799 483.063 L83.0799 491.535 Q84.0984 491.188 85.1169 491.026 Q86.1354 490.841 87.1539 490.841 Q92.941 490.841 96.3206 494.012 Q99.7002 497.183 99.7002 502.6 Q99.7002 508.179 96.228 511.281 Q92.7558 514.359 86.4364 514.359 Q84.2604 514.359 81.9919 513.989 Q79.7466 513.619 77.3392 512.878 L77.3392 508.179 Q79.4225 509.313 81.6447 509.869 Q83.8669 510.424 86.3438 510.424 Q90.3484 510.424 92.6863 508.318 Q95.0243 506.211 95.0243 502.6 Q95.0243 498.989 92.6863 496.883 Q90.3484 494.776 86.3438 494.776 Q84.4688 494.776 82.5938 495.193 Q80.7419 495.609 78.7975 496.489 L78.7975 479.128 Z" fill="#000000" fill-rule="evenodd" fill-opacity="1" /><path clip-path="url(#clip120)" d="M118.913 482.207 Q115.302 482.207 113.473 485.771 Q111.668 489.313 111.668 496.443 Q111.668 503.549 113.473 507.114 Q115.302 510.656 118.913 510.656 Q122.547 510.656 124.353 507.114 Q126.182 503.549 126.182 496.443 Q126.182 489.313 124.353 485.771 Q122.547 482.207 118.913 482.207 M118.913 478.503 Q124.723 478.503 127.779 483.109 Q130.857 487.693 130.857 496.443 Q130.857 505.17 127.779 509.776 Q124.723 514.359 118.913 514.359 Q113.103 514.359 110.024 509.776 Q106.969 505.17 106.969 496.443 Q106.969 487.693 110.024 483.109 Q113.103 478.503 118.913 478.503 Z" fill="#000000" fill-rule="evenodd" fill-opacity="1" /><path clip-path="url(#clip120)" d="M52.6171 314.64 L68.9365 314.64 L68.9365 318.575 L46.9921 318.575 L46.9921 314.64 Q49.6541 311.885 54.2375 307.256 Q58.8439 302.603 60.0245 301.26 Q62.2698 298.737 63.1494 297.001 Q64.0522 295.242 64.0522 293.552 Q64.0522 290.798 62.1078 289.061 Q60.1865 287.325 57.0847 287.325 Q54.8856 287.325 52.4319 288.089 Q50.0014 288.853 47.2236 290.404 L47.2236 285.682 Q50.0477 284.548 52.5014 283.969 Q54.955 283.39 56.9921 283.39 Q62.3624 283.39 65.5568 286.075 Q68.7513 288.761 68.7513 293.251 Q68.7513 295.381 67.9411 297.302 Q67.1541 299.2 65.0476 301.793 Q64.4689 302.464 61.367 305.682 Q58.2652 308.876 52.6171 314.64 Z" fill="#000000" fill-rule="evenodd" fill-opacity="1" /><path clip-path="url(#clip120)" d="M88.7512 287.094 Q85.1401 287.094 83.3114 290.659 Q81.5058 294.2 81.5058 301.33 Q81.5058 308.436 83.3114 312.001 Q85.1401 315.543 88.7512 315.543 Q92.3854 315.543 94.1909 312.001 Q96.0196 308.436 96.0196 301.33 Q96.0196 294.2 94.1909 290.659 Q92.3854 287.094 88.7512 287.094 M88.7512 283.39 Q94.5613 283.39 97.6169 287.997 Q100.696 292.58 100.696 301.33 Q100.696 310.057 97.6169 314.663 Q94.5613 319.246 88.7512 319.246 Q82.941 319.246 79.8623 314.663 Q76.8068 310.057 76.8068 301.33 Q76.8068 292.58 79.8623 287.997 Q82.941 283.39 88.7512 283.39 Z" fill="#000000" fill-rule="evenodd" fill-opacity="1" /><path clip-path="url(#clip120)" d="M118.913 287.094 Q115.302 287.094 113.473 290.659 Q111.668 294.2 111.668 301.33 Q111.668 308.436 113.473 312.001 Q115.302 315.543 118.913 315.543 Q122.547 315.543 124.353 312.001 Q126.182 308.436 126.182 301.33 Q126.182 294.2 124.353 290.659 Q122.547 287.094 118.913 287.094 M118.913 283.39 Q124.723 283.39 127.779 287.997 Q130.857 292.58 130.857 301.33 Q130.857 310.057 127.779 314.663 Q124.723 319.246 118.913 319.246 Q113.103 319.246 110.024 314.663 Q106.969 310.057 106.969 301.33 Q106.969 292.58 110.024 287.997 Q113.103 283.39 118.913 283.39 Z" fill="#000000" fill-rule="evenodd" fill-opacity="1" /><path clip-path="url(#clip120)" d="M52.6171 119.527 L68.9365 119.527 L68.9365 123.462 L46.9921 123.462 L46.9921 119.527 Q49.6541 116.773 54.2375 112.143 Q58.8439 107.49 60.0245 106.148 Q62.2698 103.625 63.1494 101.888 Q64.0522 100.129 64.0522 98.4394 Q64.0522 95.6848 62.1078 93.9487 Q60.1865 92.2126 57.0847 92.2126 Q54.8856 92.2126 52.4319 92.9765 Q50.0014 93.7404 47.2236 95.2913 L47.2236 90.5691 Q50.0477 89.4348 52.5014 88.8561 Q54.955 88.2774 56.9921 88.2774 Q62.3624 88.2774 65.5568 90.9626 Q68.7513 93.6478 68.7513 98.1385 Q68.7513 100.268 67.9411 102.189 Q67.1541 104.088 65.0476 106.68 Q64.4689 107.351 61.367 110.569 Q58.2652 113.763 52.6171 119.527 Z" fill="#000000" fill-rule="evenodd" fill-opacity="1" /><path clip-path="url(#clip120)" d="M78.7975 88.9024 L97.1539 88.9024 L97.1539 92.8376 L83.0799 92.8376 L83.0799 101.31 Q84.0984 100.963 85.1169 100.801 Q86.1354 100.615 87.1539 100.615 Q92.941 100.615 96.3206 103.787 Q99.7002 106.958 99.7002 112.375 Q99.7002 117.953 96.228 121.055 Q92.7558 124.134 86.4364 124.134 Q84.2604 124.134 81.9919 123.763 Q79.7466 123.393 77.3392 122.652 L77.3392 117.953 Q79.4225 119.087 81.6447 119.643 Q83.8669 120.199 86.3438 120.199 Q90.3484 120.199 92.6863 118.092 Q95.0243 115.986 95.0243 112.375 Q95.0243 108.763 92.6863 106.657 Q90.3484 104.55 86.3438 104.55 Q84.4688 104.55 82.5938 104.967 Q80.7419 105.384 78.7975 106.263 L78.7975 88.9024 Z" fill="#000000" fill-rule="evenodd" fill-opacity="1" /><path clip-path="url(#clip120)" d="M118.913 91.9811 Q115.302 91.9811 113.473 95.5459 Q111.668 99.0876 111.668 106.217 Q111.668 113.324 113.473 116.888 Q115.302 120.43 118.913 120.43 Q122.547 120.43 124.353 116.888 Q126.182 113.324 126.182 106.217 Q126.182 99.0876 124.353 95.5459 Q122.547 91.9811 118.913 91.9811 M118.913 88.2774 Q124.723 88.2774 127.779 92.8839 Q130.857 97.4672 130.857 106.217 Q130.857 114.944 127.779 119.55 Q124.723 124.134 118.913 124.134 Q113.103 124.134 110.024 119.55 Q106.969 114.944 106.969 106.217 Q106.969 97.4672 110.024 92.8839 Q113.103 88.2774 118.913 88.2774 Z" fill="#000000" fill-rule="evenodd" fill-opacity="1" /><path clip-path="url(#clip120)" d="M500.47 49.7694 Q491.437 49.7694 487.953 51.8354 Q484.469 53.9013 484.469 58.8839 Q484.469 62.8538 487.062 65.2034 Q489.695 67.5124 494.191 67.5124 Q500.389 67.5124 504.116 63.1374 Q507.883 58.7219 507.883 51.4303 L507.883 49.7694 L500.47 49.7694 M515.337 46.6907 L515.337 72.576 L507.883 72.576 L507.883 65.6895 Q505.331 69.8214 501.523 71.8063 Q497.715 73.7508 492.206 73.7508 Q485.239 73.7508 481.107 69.8619 Q477.015 65.9325 477.015 59.3701 Q477.015 51.7138 482.119 47.825 Q487.264 43.9361 497.432 43.9361 L507.883 43.9361 L507.883 43.2069 Q507.883 38.0623 504.48 35.2672 Q501.118 32.4315 495.001 32.4315 Q491.112 32.4315 487.426 33.3632 Q483.74 34.295 480.337 36.1584 L480.337 29.2718 Q484.428 27.692 488.277 26.9223 Q492.125 26.1121 495.771 26.1121 Q505.615 26.1121 510.476 31.2163 Q515.337 36.3204 515.337 46.6907 Z" fill="#000000" fill-rule="evenodd" fill-opacity="1" /><path clip-path="url(#clip120)" d="M560.545 34.0924 L560.545 9.54393 L567.999 9.54393 L567.999 72.576 L560.545 72.576 L560.545 65.7705 Q558.195 69.8214 554.59 71.8063 Q551.025 73.7508 546.002 73.7508 Q537.779 73.7508 532.594 67.1883 Q527.449 60.6258 527.449 49.9314 Q527.449 39.2371 532.594 32.6746 Q537.779 26.1121 546.002 26.1121 Q551.025 26.1121 554.59 28.0971 Q558.195 30.0415 560.545 34.0924 M535.146 49.9314 Q535.146 58.1548 538.508 62.8538 Q541.911 67.5124 547.825 67.5124 Q553.739 67.5124 557.142 62.8538 Q560.545 58.1548 560.545 49.9314 Q560.545 41.7081 557.142 37.0496 Q553.739 32.3505 547.825 32.3505 Q541.911 32.3505 538.508 37.0496 Q535.146 41.7081 535.146 49.9314 Z" fill="#000000" fill-rule="evenodd" fill-opacity="1" /><path clip-path="url(#clip120)" d="M603.971 49.7694 Q594.937 49.7694 591.453 51.8354 Q587.97 53.9013 587.97 58.8839 Q587.97 62.8538 590.562 65.2034 Q593.195 67.5124 597.692 67.5124 Q603.89 67.5124 607.616 63.1374 Q611.384 58.7219 611.384 51.4303 L611.384 49.7694 L603.971 49.7694 M618.837 46.6907 L618.837 72.576 L611.384 72.576 L611.384 65.6895 Q608.832 69.8214 605.024 71.8063 Q601.216 73.7508 595.707 73.7508 Q588.739 73.7508 584.607 69.8619 Q580.516 65.9325 580.516 59.3701 Q580.516 51.7138 585.62 47.825 Q590.765 43.9361 600.933 43.9361 L611.384 43.9361 L611.384 43.2069 Q611.384 38.0623 607.981 35.2672 Q604.619 32.4315 598.502 32.4315 Q594.613 32.4315 590.927 33.3632 Q587.24 34.295 583.838 36.1584 L583.838 29.2718 Q587.929 27.692 591.777 26.9223 Q595.626 26.1121 599.272 26.1121 Q609.115 26.1121 613.976 31.2163 Q618.837 36.3204 618.837 46.6907 Z" fill="#000000" fill-rule="evenodd" fill-opacity="1" /><path clip-path="url(#clip120)" d="M641.401 65.7705 L641.401 89.8329 L633.907 89.8329 L633.907 27.2059 L641.401 27.2059 L641.401 34.0924 Q643.751 30.0415 647.315 28.0971 Q650.921 26.1121 655.903 26.1121 Q664.167 26.1121 669.312 32.6746 Q674.497 39.2371 674.497 49.9314 Q674.497 60.6258 669.312 67.1883 Q664.167 73.7508 655.903 73.7508 Q650.921 73.7508 647.315 71.8063 Q643.751 69.8214 641.401 65.7705 M666.76 49.9314 Q666.76 41.7081 663.357 37.0496 Q659.995 32.3505 654.08 32.3505 Q648.166 32.3505 644.763 37.0496 Q641.401 41.7081 641.401 49.9314 Q641.401 58.1548 644.763 62.8538 Q648.166 67.5124 654.08 67.5124 Q659.995 67.5124 663.357 62.8538 Q666.76 58.1548 666.76 49.9314 Z" fill="#000000" fill-rule="evenodd" fill-opacity="1" /><path clip-path="url(#clip120)" d="M694.225 14.324 L694.225 27.2059 L709.578 27.2059 L709.578 32.9987 L694.225 32.9987 L694.225 57.6282 Q694.225 63.1779 695.724 64.7578 Q697.263 66.3376 701.922 66.3376 L709.578 66.3376 L709.578 72.576 L701.922 72.576 Q693.293 72.576 690.012 69.3758 Q686.731 66.1351 686.731 57.6282 L686.731 32.9987 L681.262 32.9987 L681.262 27.2059 L686.731 27.2059 L686.731 14.324 L694.225 14.324 Z" fill="#000000" fill-rule="evenodd" fill-opacity="1" /><path clip-path="url(#clip120)" d="M719.381 27.2059 L726.835 27.2059 L726.835 72.576 L719.381 72.576 L719.381 27.2059 M719.381 9.54393 L726.835 9.54393 L726.835 18.9825 L719.381 18.9825 L719.381 9.54393 Z" fill="#000000" fill-rule="evenodd" fill-opacity="1" /><path clip-path="url(#clip120)" d="M737.083 27.2059 L744.983 27.2059 L759.161 65.2844 L773.339 27.2059 L781.238 27.2059 L764.224 72.576 L754.097 72.576 L737.083 27.2059 Z" fill="#000000" fill-rule="evenodd" fill-opacity="1" /><path clip-path="url(#clip120)" d="M830.335 48.0275 L830.335 51.6733 L796.065 51.6733 Q796.551 59.3701 800.683 63.421 Q804.855 67.4314 812.268 67.4314 Q816.562 67.4314 820.573 66.3781 Q824.623 65.3249 828.593 63.2184 L828.593 70.267 Q824.583 71.9684 820.37 72.8596 Q816.157 73.7508 811.823 73.7508 Q800.966 73.7508 794.606 67.4314 Q788.287 61.1119 788.287 50.3365 Q788.287 39.1965 794.282 32.6746 Q800.318 26.1121 810.526 26.1121 Q819.681 26.1121 824.988 32.0264 Q830.335 37.9003 830.335 48.0275 M822.882 45.84 Q822.801 39.7232 819.438 36.0774 Q816.117 32.4315 810.607 32.4315 Q804.369 32.4315 800.602 35.9558 Q796.875 39.4801 796.308 45.8805 L822.882 45.84 Z" fill="#000000" fill-rule="evenodd" fill-opacity="1" /><path clip-path="url(#clip120)" d="M877.042 86.3491 L877.042 92.1419 L833.941 92.1419 L833.941 86.3491 L877.042 86.3491 Z" fill="#000000" fill-rule="evenodd" fill-opacity="1" /><path clip-path="url(#clip120)" d="M884.05 27.2059 L891.504 27.2059 L891.504 72.576 L884.05 72.576 L884.05 27.2059 M884.05 9.54393 L891.504 9.54393 L891.504 18.9825 L884.05 18.9825 L884.05 9.54393 Z" fill="#000000" fill-rule="evenodd" fill-opacity="1" /><path clip-path="url(#clip120)" d="M944.814 45.1919 L944.814 72.576 L937.36 72.576 L937.36 45.4349 Q937.36 38.994 934.849 35.7938 Q932.337 32.5936 927.314 32.5936 Q921.278 32.5936 917.794 36.4419 Q914.31 40.2903 914.31 46.9338 L914.31 72.576 L906.816 72.576 L906.816 27.2059 L914.31 27.2059 L914.31 34.2544 Q916.984 30.163 920.589 28.1376 Q924.235 26.1121 928.975 26.1121 Q936.793 26.1121 940.803 30.9732 Q944.814 35.7938 944.814 45.1919 Z" fill="#000000" fill-rule="evenodd" fill-opacity="1" /><path clip-path="url(#clip120)" d="M989.536 34.0924 L989.536 9.54393 L996.989 9.54393 L996.989 72.576 L989.536 72.576 L989.536 65.7705 Q987.186 69.8214 983.581 71.8063 Q980.016 73.7508 974.993 73.7508 Q966.77 73.7508 961.585 67.1883 Q956.44 60.6258 956.44 49.9314 Q956.44 39.2371 961.585 32.6746 Q966.77 26.1121 974.993 26.1121 Q980.016 26.1121 983.581 28.0971 Q987.186 30.0415 989.536 34.0924 M964.137 49.9314 Q964.137 58.1548 967.499 62.8538 Q970.902 67.5124 976.816 67.5124 Q982.73 67.5124 986.133 62.8538 Q989.536 58.1548 989.536 49.9314 Q989.536 41.7081 986.133 37.0496 Q982.73 32.3505 976.816 32.3505 Q970.902 32.3505 967.499 37.0496 Q964.137 41.7081 964.137 49.9314 Z" fill="#000000" fill-rule="evenodd" fill-opacity="1" /><path clip-path="url(#clip120)" d="M1011.57 54.671 L1011.57 27.2059 L1019.03 27.2059 L1019.03 54.3874 Q1019.03 60.8284 1021.54 64.0691 Q1024.05 67.2693 1029.07 67.2693 Q1035.11 67.2693 1038.59 63.421 Q1042.12 59.5726 1042.12 52.9291 L1042.12 27.2059 L1049.57 27.2059 L1049.57 72.576 L1042.12 72.576 L1042.12 65.6084 Q1039.4 69.7404 1035.8 71.7658 Q1032.23 73.7508 1027.49 73.7508 Q1019.67 73.7508 1015.62 68.8897 Q1011.57 64.0286 1011.57 54.671 M1030.33 26.1121 L1030.33 26.1121 Z" fill="#000000" fill-rule="evenodd" fill-opacity="1" /><path clip-path="url(#clip120)" d="M1097.57 28.9478 L1097.57 35.9153 Q1094.41 34.1734 1091.21 33.3227 Q1088.05 32.4315 1084.81 32.4315 Q1077.56 32.4315 1073.55 37.0496 Q1069.54 41.6271 1069.54 49.9314 Q1069.54 58.2358 1073.55 62.8538 Q1077.56 67.4314 1084.81 67.4314 Q1088.05 67.4314 1091.21 66.5807 Q1094.41 65.6895 1097.57 63.9476 L1097.57 70.8341 Q1094.45 72.2924 1091.09 73.0216 Q1087.77 73.7508 1084 73.7508 Q1073.75 73.7508 1067.72 67.3098 Q1061.68 60.8689 1061.68 49.9314 Q1061.68 38.832 1067.76 32.472 Q1073.88 26.1121 1084.49 26.1121 Q1087.93 26.1121 1091.21 26.8413 Q1094.49 27.5299 1097.57 28.9478 Z" fill="#000000" fill-rule="evenodd" fill-opacity="1" /><path clip-path="url(#clip120)" d="M1117.91 14.324 L1117.91 27.2059 L1133.26 27.2059 L1133.26 32.9987 L1117.91 32.9987 L1117.91 57.6282 Q1117.91 63.1779 1119.41 64.7578 Q1120.95 66.3376 1125.61 66.3376 L1133.26 66.3376 L1133.26 72.576 L1125.61 72.576 Q1116.98 72.576 1113.7 69.3758 Q1110.41 66.1351 1110.41 57.6282 L1110.41 32.9987 L1104.95 32.9987 L1104.95 27.2059 L1110.41 27.2059 L1110.41 14.324 L1117.91 14.324 Z" fill="#000000" fill-rule="evenodd" fill-opacity="1" /><path clip-path="url(#clip120)" d="M1143.07 27.2059 L1150.52 27.2059 L1150.52 72.576 L1143.07 72.576 L1143.07 27.2059 M1143.07 9.54393 L1150.52 9.54393 L1150.52 18.9825 L1143.07 18.9825 L1143.07 9.54393 Z" fill="#000000" fill-rule="evenodd" fill-opacity="1" /><path clip-path="url(#clip120)" d="M1160.77 27.2059 L1168.67 27.2059 L1182.84 65.2844 L1197.02 27.2059 L1204.92 27.2059 L1187.91 72.576 L1177.78 72.576 L1160.77 27.2059 Z" fill="#000000" fill-rule="evenodd" fill-opacity="1" /><path clip-path="url(#clip120)" d="M1254.02 48.0275 L1254.02 51.6733 L1219.75 51.6733 Q1220.23 59.3701 1224.37 63.421 Q1228.54 67.4314 1235.95 67.4314 Q1240.25 67.4314 1244.26 66.3781 Q1248.31 65.3249 1252.28 63.2184 L1252.28 70.267 Q1248.27 71.9684 1244.05 72.8596 Q1239.84 73.7508 1235.51 73.7508 Q1224.65 73.7508 1218.29 67.4314 Q1211.97 61.1119 1211.97 50.3365 Q1211.97 39.1965 1217.97 32.6746 Q1224 26.1121 1234.21 26.1121 Q1243.37 26.1121 1248.67 32.0264 Q1254.02 37.9003 1254.02 48.0275 M1246.57 45.84 Q1246.48 39.7232 1243.12 36.0774 Q1239.8 32.4315 1234.29 32.4315 Q1228.05 32.4315 1224.29 35.9558 Q1220.56 39.4801 1219.99 45.8805 L1246.57 45.84 Z" fill="#000000" fill-rule="evenodd" fill-opacity="1" /><path clip-path="url(#clip122)" d="
M254.392 773.468 L254.392 1081.75 L422.979 1081.75 L422.979 773.468 L254.392 773.468 L254.392 773.468  Z
  " fill="#009af9" fill-rule="evenodd" fill-opacity="1"/>
<polyline clip-path="url(#clip122)" style="stroke:#000000; stroke-linecap:round; stroke-linejoin:round; stroke-width:4; stroke-opacity:1; fill:none" points="
  254.392,773.468 254.392,1081.75 422.979,1081.75 422.979,773.468 254.392,773.468 
  "/>
<path clip-path="url(#clip122)" d="
M465.125 125.694 L465.125 1081.75 L633.711 1081.75 L633.711 125.694 L465.125 125.694 L465.125 125.694  Z
  " fill="#009af9" fill-rule="evenodd" fill-opacity="1"/>
<polyline clip-path="url(#clip122)" style="stroke:#000000; stroke-linecap:round; stroke-linejoin:round; stroke-width:4; stroke-opacity:1; fill:none" points="
  465.125,125.694 465.125,1081.75 633.711,1081.75 633.711,125.694 465.125,125.694 
  "/>
<path clip-path="url(#clip122)" d="
M675.858 199.837 L675.858 1081.75 L844.444 1081.75 L844.444 199.837 L675.858 199.837 L675.858 199.837  Z
  " fill="#009af9" fill-rule="evenodd" fill-opacity="1"/>
<polyline clip-path="url(#clip122)" style="stroke:#000000; stroke-linecap:round; stroke-linejoin:round; stroke-width:4; stroke-opacity:1; fill:none" points="
  675.858,199.837 675.858,1081.75 844.444,1081.75 844.444,199.837 675.858,199.837 
  "/>
<path clip-path="url(#clip122)" d="
M886.591 203.739 L886.591 1081.75 L1055.18 1081.75 L1055.18 203.739 L886.591 203.739 L886.591 203.739  Z
  " fill="#009af9" fill-rule="evenodd" fill-opacity="1"/>
<polyline clip-path="url(#clip122)" style="stroke:#000000; stroke-linecap:round; stroke-linejoin:round; stroke-width:4; stroke-opacity:1; fill:none" points="
  886.591,203.739 886.591,1081.75 1055.18,1081.75 1055.18,203.739 886.591,203.739 
  "/>
<path clip-path="url(#clip122)" d="
M1097.32 410.558 L1097.32 1081.75 L1265.91 1081.75 L1265.91 410.558 L1097.32 410.558 L1097.32 410.558  Z
  " fill="#009af9" fill-rule="evenodd" fill-opacity="1"/>
<polyline clip-path="url(#clip122)" style="stroke:#000000; stroke-linecap:round; stroke-linejoin:round; stroke-width:4; stroke-opacity:1; fill:none" points="
  1097.32,410.558 1097.32,1081.75 1265.91,1081.75 1265.91,410.558 1097.32,410.558 
  "/>
<path clip-path="url(#clip122)" d="
M1308.06 874.927 L1308.06 1081.75 L1476.64 1081.75 L1476.64 874.927 L1308.06 874.927 L1308.06 874.927  Z
  " fill="#009af9" fill-rule="evenodd" fill-opacity="1"/>
<polyline clip-path="url(#clip122)" style="stroke:#000000; stroke-linecap:round; stroke-linejoin:round; stroke-width:4; stroke-opacity:1; fill:none" points="
  1308.06,874.927 1308.06,1081.75 1476.64,1081.75 1476.64,874.927 1308.06,874.927 
  "/>
<circle clip-path="url(#clip122)" style="fill:#009af9; stroke:none; fill-opacity:0" cx="338.686" cy="773.468" r="2"/>
<circle clip-path="url(#clip122)" style="fill:#009af9; stroke:none; fill-opacity:0" cx="549.418" cy="125.694" r="2"/>
<circle clip-path="url(#clip122)" style="fill:#009af9; stroke:none; fill-opacity:0" cx="760.151" cy="199.837" r="2"/>
<circle clip-path="url(#clip122)" style="fill:#009af9; stroke:none; fill-opacity:0" cx="970.884" cy="203.739" r="2"/>
<circle clip-path="url(#clip122)" style="fill:#009af9; stroke:none; fill-opacity:0" cx="1181.62" cy="410.558" r="2"/>
<circle clip-path="url(#clip122)" style="fill:#009af9; stroke:none; fill-opacity:0" cx="1392.35" cy="874.927" r="2"/>
<path clip-path="url(#clip120)" d="
M1779.44 1110.43 L3152.76 1110.43 L3152.76 97.0121 L1779.44 97.0121  Z
  " fill="#000000" fill-rule="evenodd" fill-opacity="0"/>
<defs>
  <clipPath id="clip123">
    <rect x="1779" y="97" width="1374" height="1014"/>
  </clipPath>
</defs>
<polyline clip-path="url(#clip123)" style="stroke:#000000; stroke-linecap:round; stroke-linejoin:round; stroke-width:2; stroke-opacity:0.1; fill:none" points="
  1956.83,1110.43 1956.83,97.0121 
  "/>
<polyline clip-path="url(#clip123)" style="stroke:#000000; stroke-linecap:round; stroke-linejoin:round; stroke-width:2; stroke-opacity:0.1; fill:none" points="
  2211.46,1110.43 2211.46,97.0121 
  "/>
<polyline clip-path="url(#clip123)" style="stroke:#000000; stroke-linecap:round; stroke-linejoin:round; stroke-width:2; stroke-opacity:0.1; fill:none" points="
  2466.1,1110.43 2466.1,97.0121 
  "/>
<polyline clip-path="url(#clip123)" style="stroke:#000000; stroke-linecap:round; stroke-linejoin:round; stroke-width:2; stroke-opacity:0.1; fill:none" points="
  2720.73,1110.43 2720.73,97.0121 
  "/>
<polyline clip-path="url(#clip123)" style="stroke:#000000; stroke-linecap:round; stroke-linejoin:round; stroke-width:2; stroke-opacity:0.1; fill:none" points="
  2975.37,1110.43 2975.37,97.0121 
  "/>
<polyline clip-path="url(#clip120)" style="stroke:#000000; stroke-linecap:round; stroke-linejoin:round; stroke-width:4; stroke-opacity:1; fill:none" points="
  1779.44,1110.43 3152.76,1110.43 
  "/>
<polyline clip-path="url(#clip120)" style="stroke:#000000; stroke-linecap:round; stroke-linejoin:round; stroke-width:4; stroke-opacity:1; fill:none" points="
  1956.83,1110.43 1956.83,1091.53 
  "/>
<polyline clip-path="url(#clip120)" style="stroke:#000000; stroke-linecap:round; stroke-linejoin:round; stroke-width:4; stroke-opacity:1; fill:none" points="
  2211.46,1110.43 2211.46,1091.53 
  "/>
<polyline clip-path="url(#clip120)" style="stroke:#000000; stroke-linecap:round; stroke-linejoin:round; stroke-width:4; stroke-opacity:1; fill:none" points="
  2466.1,1110.43 2466.1,1091.53 
  "/>
<polyline clip-path="url(#clip120)" style="stroke:#000000; stroke-linecap:round; stroke-linejoin:round; stroke-width:4; stroke-opacity:1; fill:none" points="
  2720.73,1110.43 2720.73,1091.53 
  "/>
<polyline clip-path="url(#clip120)" style="stroke:#000000; stroke-linecap:round; stroke-linejoin:round; stroke-width:4; stroke-opacity:1; fill:none" points="
  2975.37,1110.43 2975.37,1091.53 
  "/>
<path clip-path="url(#clip120)" d="M1870.24 1141.26 L1870.24 1176.81 L1867.29 1176.81 L1867.29 1141.26 L1870.24 1141.26 Z" fill="#000000" fill-rule="evenodd" fill-opacity="1" /><path clip-path="url(#clip120)" d="M1897.65 1144.5 L1897.65 1148.2 Q1895.88 1146.55 1893.87 1145.74 Q1891.87 1144.92 1889.61 1144.92 Q1885.17 1144.92 1882.81 1147.65 Q1880.45 1150.36 1880.45 1155.49 Q1880.45 1160.62 1882.81 1163.34 Q1885.17 1166.05 1889.61 1166.05 Q1891.87 1166.05 1893.87 1165.23 Q1895.88 1164.42 1897.65 1162.77 L1897.65 1166.43 Q1895.81 1167.68 1893.74 1168.31 Q1891.7 1168.93 1889.4 1168.93 Q1883.52 1168.93 1880.13 1165.34 Q1876.75 1161.73 1876.75 1155.49 Q1876.75 1149.24 1880.13 1145.65 Q1883.52 1142.04 1889.4 1142.04 Q1891.73 1142.04 1893.78 1142.66 Q1895.84 1143.27 1897.65 1144.5 Z" fill="#000000" fill-rule="evenodd" fill-opacity="1" /><path clip-path="url(#clip120)" d="M1907.04 1141.26 L1907.04 1176.81 L1904.09 1176.81 L1904.09 1141.26 L1907.04 1141.26 Z" fill="#000000" fill-rule="evenodd" fill-opacity="1" /><path clip-path="url(#clip120)" d="M1928.81 1157.54 Q1928.93 1158.83 1930.03 1160.91 Q1931.31 1163.32 1933.74 1164.68 Q1936.12 1166 1938.69 1166.01 L1950.79 1166.01 L1950.79 1168.78 L1938.69 1168.78 Q1935.36 1168.78 1932.27 1167.06 Q1929.2 1165.34 1927.55 1162.28 Q1925.9 1159.23 1925.9 1155.98 Q1925.9 1152.77 1927.55 1149.71 Q1929.2 1146.66 1932.27 1144.92 Q1935.36 1143.18 1938.69 1143.18 L1950.79 1143.18 L1950.79 1145.95 L1938.69 1145.95 Q1936.12 1145.96 1933.74 1147.3 Q1931.33 1148.67 1930.03 1151.07 Q1928.92 1153.15 1928.76 1154.76 L1950.79 1154.76 L1950.79 1157.54 L1928.81 1157.54 Z" fill="#000000" fill-rule="evenodd" fill-opacity="1" /><path clip-path="url(#clip120)" d="M1968.19 1141.41 L1975.55 1141.41 L1975.55 1143.9 L1971.38 1143.9 L1971.38 1170.63 L1975.55 1170.63 L1975.55 1173.12 L1968.19 1173.12 L1968.19 1141.41 Z" fill="#000000" fill-rule="evenodd" fill-opacity="1" /><path clip-path="url(#clip120)" d="M1990.31 1144.82 Q1987.6 1144.82 1986.23 1147.49 Q1984.87 1150.15 1984.87 1155.49 Q1984.87 1160.82 1986.23 1163.5 Q1987.6 1166.15 1990.31 1166.15 Q1993.03 1166.15 1994.39 1163.5 Q1995.76 1160.82 1995.76 1155.49 Q1995.76 1150.15 1994.39 1147.49 Q1993.03 1144.82 1990.31 1144.82 M1990.31 1142.04 Q1994.66 1142.04 1996.96 1145.49 Q1999.26 1148.93 1999.26 1155.49 Q1999.26 1162.04 1996.96 1165.49 Q1994.66 1168.93 1990.31 1168.93 Q1985.95 1168.93 1983.64 1165.49 Q1981.35 1162.04 1981.35 1155.49 Q1981.35 1148.93 1983.64 1145.49 Q1985.95 1142.04 1990.31 1142.04 Z" fill="#000000" fill-rule="evenodd" fill-opacity="1" /><path clip-path="url(#clip120)" d="M2005.79 1164.02 L2009.46 1164.02 L2009.46 1167 L2006.61 1172.56 L2004.37 1172.56 L2005.79 1167 L2005.79 1164.02 Z" fill="#000000" fill-rule="evenodd" fill-opacity="1" /><path clip-path="url(#clip120)" d="M2017.34 1165.48 L2023.07 1165.48 L2023.07 1145.7 L2016.83 1146.95 L2016.83 1143.76 L2023.03 1142.51 L2026.54 1142.51 L2026.54 1165.48 L2032.27 1165.48 L2032.27 1168.43 L2017.34 1168.43 L2017.34 1165.48 Z" fill="#000000" fill-rule="evenodd" fill-opacity="1" /><path clip-path="url(#clip120)" d="M2046.36 1141.41 L2046.36 1173.12 L2039 1173.12 L2039 1170.63 L2043.15 1170.63 L2043.15 1143.9 L2039 1143.9 L2039 1141.41 L2046.36 1141.41 Z" fill="#000000" fill-rule="evenodd" fill-opacity="1" /><path clip-path="url(#clip120)" d="M2124.87 1141.26 L2124.87 1176.81 L2121.92 1176.81 L2121.92 1141.26 L2124.87 1141.26 Z" fill="#000000" fill-rule="evenodd" fill-opacity="1" /><path clip-path="url(#clip120)" d="M2152.29 1144.5 L2152.29 1148.2 Q2150.51 1146.55 2148.5 1145.74 Q2146.5 1144.92 2144.25 1144.92 Q2139.8 1144.92 2137.44 1147.65 Q2135.08 1150.36 2135.08 1155.49 Q2135.08 1160.62 2137.44 1163.34 Q2139.8 1166.05 2144.25 1166.05 Q2146.5 1166.05 2148.5 1165.23 Q2150.51 1164.42 2152.29 1162.77 L2152.29 1166.43 Q2150.45 1167.68 2148.38 1168.31 Q2146.33 1168.93 2144.04 1168.93 Q2138.15 1168.93 2134.77 1165.34 Q2131.38 1161.73 2131.38 1155.49 Q2131.38 1149.24 2134.77 1145.65 Q2138.15 1142.04 2144.04 1142.04 Q2146.37 1142.04 2148.41 1142.66 Q2150.48 1143.27 2152.29 1144.5 Z" fill="#000000" fill-rule="evenodd" fill-opacity="1" /><path clip-path="url(#clip120)" d="M2161.68 1141.26 L2161.68 1176.81 L2158.73 1176.81 L2158.73 1141.26 L2161.68 1141.26 Z" fill="#000000" fill-rule="evenodd" fill-opacity="1" /><path clip-path="url(#clip120)" d="M2183.45 1157.54 Q2183.57 1158.83 2184.66 1160.91 Q2185.95 1163.32 2188.38 1164.68 Q2190.76 1166 2193.33 1166.01 L2205.43 1166.01 L2205.43 1168.78 L2193.33 1168.78 Q2189.99 1168.78 2186.9 1167.06 Q2183.83 1165.34 2182.18 1162.28 Q2180.53 1159.23 2180.53 1155.98 Q2180.53 1152.77 2182.18 1149.71 Q2183.83 1146.66 2186.9 1144.92 Q2189.99 1143.18 2193.33 1143.18 L2205.43 1143.18 L2205.43 1145.95 L2193.33 1145.95 Q2190.76 1145.96 2188.38 1147.3 Q2185.97 1148.67 2184.66 1151.07 Q2183.55 1153.15 2183.4 1154.76 L2205.43 1154.76 L2205.43 1157.54 L2183.45 1157.54 Z" fill="#000000" fill-rule="evenodd" fill-opacity="1" /><path clip-path="url(#clip120)" d="M2222.82 1141.41 L2230.18 1141.41 L2230.18 1143.9 L2226.02 1143.9 L2226.02 1170.63 L2230.18 1170.63 L2230.18 1173.12 L2222.82 1173.12 L2222.82 1141.41 Z" fill="#000000" fill-rule="evenodd" fill-opacity="1" /><path clip-path="url(#clip120)" d="M2240.46 1165.48 L2252.7 1165.48 L2252.7 1168.43 L2236.24 1168.43 L2236.24 1165.48 Q2238.24 1163.41 2241.68 1159.94 Q2245.13 1156.45 2246.02 1155.44 Q2247.7 1153.55 2248.36 1152.25 Q2249.04 1150.93 2249.04 1149.66 Q2249.04 1147.59 2247.58 1146.29 Q2246.14 1144.99 2243.81 1144.99 Q2242.16 1144.99 2240.32 1145.56 Q2238.5 1146.14 2236.42 1147.3 L2236.42 1143.76 Q2238.54 1142.91 2240.38 1142.47 Q2242.22 1142.04 2243.74 1142.04 Q2247.77 1142.04 2250.17 1144.05 Q2252.56 1146.07 2252.56 1149.43 Q2252.56 1151.03 2251.96 1152.47 Q2251.36 1153.9 2249.79 1155.84 Q2249.35 1156.34 2247.02 1158.76 Q2244.7 1161.15 2240.46 1165.48 Z" fill="#000000" fill-rule="evenodd" fill-opacity="1" /><path clip-path="url(#clip120)" d="M2260.43 1164.02 L2264.09 1164.02 L2264.09 1167 L2261.24 1172.56 L2259 1172.56 L2260.43 1167 L2260.43 1164.02 Z" fill="#000000" fill-rule="evenodd" fill-opacity="1" /><path clip-path="url(#clip120)" d="M2281.99 1154.45 Q2284.51 1154.99 2285.91 1156.69 Q2287.34 1158.39 2287.34 1160.89 Q2287.34 1164.73 2284.7 1166.83 Q2282.06 1168.93 2277.2 1168.93 Q2275.57 1168.93 2273.83 1168.6 Q2272.11 1168.29 2270.27 1167.65 L2270.27 1164.26 Q2271.73 1165.11 2273.47 1165.55 Q2275.2 1165.98 2277.09 1165.98 Q2280.39 1165.98 2282.11 1164.68 Q2283.85 1163.38 2283.85 1160.89 Q2283.85 1158.6 2282.23 1157.32 Q2280.64 1156.01 2277.77 1156.01 L2274.75 1156.01 L2274.75 1153.13 L2277.91 1153.13 Q2280.5 1153.13 2281.87 1152.11 Q2283.24 1151.07 2283.24 1149.12 Q2283.24 1147.13 2281.82 1146.07 Q2280.41 1144.99 2277.77 1144.99 Q2276.33 1144.99 2274.68 1145.3 Q2273.03 1145.62 2271.05 1146.28 L2271.05 1143.15 Q2273.05 1142.59 2274.78 1142.32 Q2276.54 1142.04 2278.08 1142.04 Q2282.08 1142.04 2284.4 1143.86 Q2286.73 1145.67 2286.73 1148.76 Q2286.73 1150.91 2285.5 1152.4 Q2284.26 1153.88 2281.99 1154.45 Z" fill="#000000" fill-rule="evenodd" fill-opacity="1" /><path clip-path="url(#clip120)" d="M2301 1141.41 L2301 1173.12 L2293.64 1173.12 L2293.64 1170.63 L2297.79 1170.63 L2297.79 1143.9 L2293.64 1143.9 L2293.64 1141.41 L2301 1141.41 Z" fill="#000000" fill-rule="evenodd" fill-opacity="1" /><path clip-path="url(#clip120)" d="M2379.51 1141.26 L2379.51 1176.81 L2376.56 1176.81 L2376.56 1141.26 L2379.51 1141.26 Z" fill="#000000" fill-rule="evenodd" fill-opacity="1" /><path clip-path="url(#clip120)" d="M2406.92 1144.5 L2406.92 1148.2 Q2405.15 1146.55 2403.14 1145.74 Q2401.14 1144.92 2398.88 1144.92 Q2394.44 1144.92 2392.08 1147.65 Q2389.72 1150.36 2389.72 1155.49 Q2389.72 1160.62 2392.08 1163.34 Q2394.44 1166.05 2398.88 1166.05 Q2401.14 1166.05 2403.14 1165.23 Q2405.15 1164.42 2406.92 1162.77 L2406.92 1166.43 Q2405.08 1167.68 2403.01 1168.31 Q2400.97 1168.93 2398.67 1168.93 Q2392.79 1168.93 2389.4 1165.34 Q2386.02 1161.73 2386.02 1155.49 Q2386.02 1149.24 2389.4 1145.65 Q2392.79 1142.04 2398.67 1142.04 Q2401 1142.04 2403.05 1142.66 Q2405.12 1143.27 2406.92 1144.5 Z" fill="#000000" fill-rule="evenodd" fill-opacity="1" /><path clip-path="url(#clip120)" d="M2416.31 1141.26 L2416.31 1176.81 L2413.36 1176.81 L2413.36 1141.26 L2416.31 1141.26 Z" fill="#000000" fill-rule="evenodd" fill-opacity="1" /><path clip-path="url(#clip120)" d="M2438.08 1157.54 Q2438.21 1158.83 2439.3 1160.91 Q2440.58 1163.32 2443.01 1164.68 Q2445.39 1166 2447.96 1166.01 L2460.06 1166.01 L2460.06 1168.78 L2447.96 1168.78 Q2444.63 1168.78 2441.54 1167.06 Q2438.47 1165.34 2436.82 1162.28 Q2435.17 1159.23 2435.17 1155.98 Q2435.17 1152.77 2436.82 1149.71 Q2438.47 1146.66 2441.54 1144.92 Q2444.63 1143.18 2447.96 1143.18 L2460.06 1143.18 L2460.06 1145.95 L2447.96 1145.95 Q2445.39 1145.96 2443.01 1147.3 Q2440.6 1148.67 2439.3 1151.07 Q2438.19 1153.15 2438.03 1154.76 L2460.06 1154.76 L2460.06 1157.54 L2438.08 1157.54 Z" fill="#000000" fill-rule="evenodd" fill-opacity="1" /><path clip-path="url(#clip120)" d="M2477.46 1141.41 L2484.82 1141.41 L2484.82 1143.9 L2480.65 1143.9 L2480.65 1170.63 L2484.82 1170.63 L2484.82 1173.12 L2477.46 1173.12 L2477.46 1141.41 Z" fill="#000000" fill-rule="evenodd" fill-opacity="1" /><path clip-path="url(#clip120)" d="M2501.71 1145.56 L2492.86 1159.4 L2501.71 1159.4 L2501.71 1145.56 M2500.79 1142.51 L2505.2 1142.51 L2505.2 1159.4 L2508.9 1159.4 L2508.9 1162.32 L2505.2 1162.32 L2505.2 1168.43 L2501.71 1168.43 L2501.71 1162.32 L2490.01 1162.32 L2490.01 1158.93 L2500.79 1142.51 Z" fill="#000000" fill-rule="evenodd" fill-opacity="1" /><path clip-path="url(#clip120)" d="M2515.06 1164.02 L2518.73 1164.02 L2518.73 1167 L2515.88 1172.56 L2513.64 1172.56 L2515.06 1167 L2515.06 1164.02 Z" fill="#000000" fill-rule="evenodd" fill-opacity="1" /><path clip-path="url(#clip120)" d="M2526.03 1142.51 L2539.8 1142.51 L2539.8 1145.46 L2529.25 1145.46 L2529.25 1151.81 Q2530.01 1151.55 2530.77 1151.43 Q2531.54 1151.29 2532.3 1151.29 Q2536.64 1151.29 2539.18 1153.67 Q2541.71 1156.05 2541.71 1160.11 Q2541.71 1164.3 2539.11 1166.62 Q2536.5 1168.93 2531.76 1168.93 Q2530.13 1168.93 2528.43 1168.65 Q2526.75 1168.38 2524.94 1167.82 L2524.94 1164.3 Q2526.5 1165.15 2528.17 1165.56 Q2529.84 1165.98 2531.69 1165.98 Q2534.7 1165.98 2536.45 1164.4 Q2538.21 1162.82 2538.21 1160.11 Q2538.21 1157.4 2536.45 1155.82 Q2534.7 1154.24 2531.69 1154.24 Q2530.29 1154.24 2528.88 1154.56 Q2527.49 1154.87 2526.03 1155.53 L2526.03 1142.51 Z" fill="#000000" fill-rule="evenodd" fill-opacity="1" /><path clip-path="url(#clip120)" d="M2555.64 1141.41 L2555.64 1173.12 L2548.27 1173.12 L2548.27 1170.63 L2552.42 1170.63 L2552.42 1143.9 L2548.27 1143.9 L2548.27 1141.41 L2555.64 1141.41 Z" fill="#000000" fill-rule="evenodd" fill-opacity="1" /><path clip-path="url(#clip120)" d="M2634.14 1141.26 L2634.14 1176.81 L2631.19 1176.81 L2631.19 1141.26 L2634.14 1141.26 Z" fill="#000000" fill-rule="evenodd" fill-opacity="1" /><path clip-path="url(#clip120)" d="M2661.56 1144.5 L2661.56 1148.2 Q2659.79 1146.55 2657.77 1145.74 Q2655.78 1144.92 2653.52 1144.92 Q2649.07 1144.92 2646.71 1147.65 Q2644.35 1150.36 2644.35 1155.49 Q2644.35 1160.62 2646.71 1163.34 Q2649.07 1166.05 2653.52 1166.05 Q2655.78 1166.05 2657.77 1165.23 Q2659.79 1164.42 2661.56 1162.77 L2661.56 1166.43 Q2659.72 1167.68 2657.65 1168.31 Q2655.6 1168.93 2653.31 1168.93 Q2647.42 1168.93 2644.04 1165.34 Q2640.65 1161.73 2640.65 1155.49 Q2640.65 1149.24 2644.04 1145.65 Q2647.42 1142.04 2653.31 1142.04 Q2655.64 1142.04 2657.68 1142.66 Q2659.75 1143.27 2661.56 1144.5 Z" fill="#000000" fill-rule="evenodd" fill-opacity="1" /><path clip-path="url(#clip120)" d="M2670.95 1141.26 L2670.95 1176.81 L2668 1176.81 L2668 1141.26 L2670.95 1141.26 Z" fill="#000000" fill-rule="evenodd" fill-opacity="1" /><path clip-path="url(#clip120)" d="M2692.72 1157.54 Q2692.84 1158.83 2693.93 1160.91 Q2695.22 1163.32 2697.65 1164.68 Q2700.03 1166 2702.6 1166.01 L2714.7 1166.01 L2714.7 1168.78 L2702.6 1168.78 Q2699.26 1168.78 2696.17 1167.06 Q2693.1 1165.34 2691.45 1162.28 Q2689.8 1159.23 2689.8 1155.98 Q2689.8 1152.77 2691.45 1149.71 Q2693.1 1146.66 2696.17 1144.92 Q2699.26 1143.18 2702.6 1143.18 L2714.7 1143.18 L2714.7 1145.95 L2702.6 1145.95 Q2700.03 1145.96 2697.65 1147.3 Q2695.24 1148.67 2693.93 1151.07 Q2692.82 1153.15 2692.67 1154.76 L2714.7 1154.76 L2714.7 1157.54 L2692.72 1157.54 Z" fill="#000000" fill-rule="evenodd" fill-opacity="1" /><path clip-path="url(#clip120)" d="M2732.09 1141.41 L2739.46 1141.41 L2739.46 1143.9 L2735.29 1143.9 L2735.29 1170.63 L2739.46 1170.63 L2739.46 1173.12 L2732.09 1173.12 L2732.09 1141.41 Z" fill="#000000" fill-rule="evenodd" fill-opacity="1" /><path clip-path="url(#clip120)" d="M2754.65 1154.07 Q2752.29 1154.07 2750.9 1155.68 Q2749.52 1157.3 2749.52 1160.11 Q2749.52 1162.91 2750.9 1164.54 Q2752.29 1166.15 2754.65 1166.15 Q2757.01 1166.15 2758.38 1164.54 Q2759.77 1162.91 2759.77 1160.11 Q2759.77 1157.3 2758.38 1155.68 Q2757.01 1154.07 2754.65 1154.07 M2761.61 1143.08 L2761.61 1146.28 Q2760.29 1145.65 2758.93 1145.32 Q2757.6 1144.99 2756.28 1144.99 Q2752.81 1144.99 2750.97 1147.33 Q2749.14 1149.68 2748.88 1154.42 Q2749.91 1152.91 2751.45 1152.11 Q2753 1151.29 2754.85 1151.29 Q2758.76 1151.29 2761.02 1153.67 Q2763.29 1156.03 2763.29 1160.11 Q2763.29 1164.1 2760.93 1166.52 Q2758.57 1168.93 2754.65 1168.93 Q2750.15 1168.93 2747.77 1165.49 Q2745.39 1162.04 2745.39 1155.49 Q2745.39 1149.35 2748.31 1145.7 Q2751.23 1142.04 2756.14 1142.04 Q2757.46 1142.04 2758.8 1142.3 Q2760.15 1142.56 2761.61 1143.08 Z" fill="#000000" fill-rule="evenodd" fill-opacity="1" /><path clip-path="url(#clip120)" d="M2769.7 1164.02 L2773.36 1164.02 L2773.36 1167 L2770.51 1172.56 L2768.27 1172.56 L2769.7 1167 L2769.7 1164.02 Z" fill="#000000" fill-rule="evenodd" fill-opacity="1" /><path clip-path="url(#clip120)" d="M2779.75 1142.51 L2796.42 1142.51 L2796.42 1144 L2787.01 1168.43 L2783.34 1168.43 L2792.2 1145.46 L2779.75 1145.46 L2779.75 1142.51 Z" fill="#000000" fill-rule="evenodd" fill-opacity="1" /><path clip-path="url(#clip120)" d="M2810.27 1141.41 L2810.27 1173.12 L2802.91 1173.12 L2802.91 1170.63 L2807.06 1170.63 L2807.06 1143.9 L2802.91 1143.9 L2802.91 1141.41 L2810.27 1141.41 Z" fill="#000000" fill-rule="evenodd" fill-opacity="1" /><path clip-path="url(#clip120)" d="M2888.78 1141.26 L2888.78 1176.81 L2885.83 1176.81 L2885.83 1141.26 L2888.78 1141.26 Z" fill="#000000" fill-rule="evenodd" fill-opacity="1" /><path clip-path="url(#clip120)" d="M2916.19 1144.5 L2916.19 1148.2 Q2914.42 1146.55 2912.41 1145.74 Q2910.41 1144.92 2908.15 1144.92 Q2903.71 1144.92 2901.35 1147.65 Q2898.99 1150.36 2898.99 1155.49 Q2898.99 1160.62 2901.35 1163.34 Q2903.71 1166.05 2908.15 1166.05 Q2910.41 1166.05 2912.41 1165.23 Q2914.42 1164.42 2916.19 1162.77 L2916.19 1166.43 Q2914.35 1167.68 2912.29 1168.31 Q2910.24 1168.93 2907.95 1168.93 Q2902.06 1168.93 2898.67 1165.34 Q2895.29 1161.73 2895.29 1155.49 Q2895.29 1149.24 2898.67 1145.65 Q2902.06 1142.04 2907.95 1142.04 Q2910.27 1142.04 2912.32 1142.66 Q2914.39 1143.27 2916.19 1144.5 Z" fill="#000000" fill-rule="evenodd" fill-opacity="1" /><path clip-path="url(#clip120)" d="M2925.58 1141.26 L2925.58 1176.81 L2922.63 1176.81 L2922.63 1141.26 L2925.58 1141.26 Z" fill="#000000" fill-rule="evenodd" fill-opacity="1" /><path clip-path="url(#clip120)" d="M2947.35 1157.54 Q2947.48 1158.83 2948.57 1160.91 Q2949.85 1163.32 2952.29 1164.68 Q2954.66 1166 2957.23 1166.01 L2969.33 1166.01 L2969.33 1168.78 L2957.23 1168.78 Q2953.9 1168.78 2950.81 1167.06 Q2947.74 1165.34 2946.09 1162.28 Q2944.44 1159.23 2944.44 1155.98 Q2944.44 1152.77 2946.09 1149.71 Q2947.74 1146.66 2950.81 1144.92 Q2953.9 1143.18 2957.23 1143.18 L2969.33 1143.18 L2969.33 1145.95 L2957.23 1145.95 Q2954.66 1145.96 2952.29 1147.3 Q2949.87 1148.67 2948.57 1151.07 Q2947.46 1153.15 2947.3 1154.76 L2969.33 1154.76 L2969.33 1157.54 L2947.35 1157.54 Z" fill="#000000" fill-rule="evenodd" fill-opacity="1" /><path clip-path="url(#clip120)" d="M2986.73 1141.41 L2994.09 1141.41 L2994.09 1143.9 L2989.92 1143.9 L2989.92 1170.63 L2994.09 1170.63 L2994.09 1173.12 L2986.73 1173.12 L2986.73 1141.41 Z" fill="#000000" fill-rule="evenodd" fill-opacity="1" /><path clip-path="url(#clip120)" d="M3008.85 1156.12 Q3006.35 1156.12 3004.91 1157.46 Q3003.48 1158.79 3003.48 1161.14 Q3003.48 1163.48 3004.91 1164.82 Q3006.35 1166.15 3008.85 1166.15 Q3011.35 1166.15 3012.79 1164.82 Q3014.23 1163.46 3014.23 1161.14 Q3014.23 1158.79 3012.79 1157.46 Q3011.36 1156.12 3008.85 1156.12 M3005.34 1154.63 Q3003.08 1154.07 3001.82 1152.53 Q3000.57 1150.98 3000.57 1148.76 Q3000.57 1145.65 3002.77 1143.84 Q3004.99 1142.04 3008.85 1142.04 Q3012.72 1142.04 3014.92 1143.84 Q3017.13 1145.65 3017.13 1148.76 Q3017.13 1150.98 3015.86 1152.53 Q3014.61 1154.07 3012.37 1154.63 Q3014.91 1155.22 3016.31 1156.93 Q3017.74 1158.65 3017.74 1161.14 Q3017.74 1164.9 3015.43 1166.92 Q3013.14 1168.93 3008.85 1168.93 Q3004.56 1168.93 3002.25 1166.92 Q2999.96 1164.9 2999.96 1161.14 Q2999.96 1158.65 3001.38 1156.93 Q3002.81 1155.22 3005.34 1154.63 M3004.06 1149.09 Q3004.06 1151.1 3005.31 1152.23 Q3006.57 1153.36 3008.85 1153.36 Q3011.1 1153.36 3012.37 1152.23 Q3013.66 1151.1 3013.66 1149.09 Q3013.66 1147.07 3012.37 1145.95 Q3011.1 1144.82 3008.85 1144.82 Q3006.57 1144.82 3005.31 1145.95 Q3004.06 1147.07 3004.06 1149.09 Z" fill="#000000" fill-rule="evenodd" fill-opacity="1" /><path clip-path="url(#clip120)" d="M3024.33 1164.02 L3028 1164.02 L3028 1167 L3025.15 1172.56 L3022.91 1172.56 L3024.33 1167 L3024.33 1164.02 Z" fill="#000000" fill-rule="evenodd" fill-opacity="1" /><path clip-path="url(#clip120)" d="M3035.38 1167.89 L3035.38 1164.7 Q3036.69 1165.32 3038.05 1165.65 Q3039.4 1165.98 3040.7 1165.98 Q3044.18 1165.98 3046 1163.65 Q3047.84 1161.31 3048.1 1156.55 Q3047.09 1158.05 3045.55 1158.84 Q3044 1159.64 3042.13 1159.64 Q3038.24 1159.64 3035.97 1157.3 Q3033.71 1154.94 3033.71 1150.86 Q3033.71 1146.87 3036.07 1144.45 Q3038.43 1142.04 3042.35 1142.04 Q3046.85 1142.04 3049.21 1145.49 Q3051.59 1148.93 3051.59 1155.49 Q3051.59 1161.62 3048.67 1165.29 Q3045.77 1168.93 3040.86 1168.93 Q3039.54 1168.93 3038.19 1168.67 Q3036.83 1168.41 3035.38 1167.89 M3042.35 1156.9 Q3044.72 1156.9 3046.09 1155.29 Q3047.48 1153.67 3047.48 1150.86 Q3047.48 1148.06 3046.09 1146.45 Q3044.72 1144.82 3042.35 1144.82 Q3039.99 1144.82 3038.6 1146.45 Q3037.23 1148.06 3037.23 1150.86 Q3037.23 1153.67 3038.6 1155.29 Q3039.99 1156.9 3042.35 1156.9 Z" fill="#000000" fill-rule="evenodd" fill-opacity="1" /><path clip-path="url(#clip120)" d="M3064.91 1141.41 L3064.91 1173.12 L3057.55 1173.12 L3057.55 1170.63 L3061.69 1170.63 L3061.69 1143.9 L3057.55 1143.9 L3057.55 1141.41 L3064.91 1141.41 Z" fill="#000000" fill-rule="evenodd" fill-opacity="1" /><polyline clip-path="url(#clip123)" style="stroke:#000000; stroke-linecap:round; stroke-linejoin:round; stroke-width:2; stroke-opacity:0.1; fill:none" points="
  1779.44,1081.75 3152.76,1081.75 
  "/>
<polyline clip-path="url(#clip123)" style="stroke:#000000; stroke-linecap:round; stroke-linejoin:round; stroke-width:2; stroke-opacity:0.1; fill:none" points="
  1779.44,927.544 3152.76,927.544 
  "/>
<polyline clip-path="url(#clip123)" style="stroke:#000000; stroke-linecap:round; stroke-linejoin:round; stroke-width:2; stroke-opacity:0.1; fill:none" points="
  1779.44,773.342 3152.76,773.342 
  "/>
<polyline clip-path="url(#clip123)" style="stroke:#000000; stroke-linecap:round; stroke-linejoin:round; stroke-width:2; stroke-opacity:0.1; fill:none" points="
  1779.44,619.14 3152.76,619.14 
  "/>
<polyline clip-path="url(#clip123)" style="stroke:#000000; stroke-linecap:round; stroke-linejoin:round; stroke-width:2; stroke-opacity:0.1; fill:none" points="
  1779.44,464.938 3152.76,464.938 
  "/>
<polyline clip-path="url(#clip123)" style="stroke:#000000; stroke-linecap:round; stroke-linejoin:round; stroke-width:2; stroke-opacity:0.1; fill:none" points="
  1779.44,310.736 3152.76,310.736 
  "/>
<polyline clip-path="url(#clip123)" style="stroke:#000000; stroke-linecap:round; stroke-linejoin:round; stroke-width:2; stroke-opacity:0.1; fill:none" points="
  1779.44,156.534 3152.76,156.534 
  "/>
<polyline clip-path="url(#clip120)" style="stroke:#000000; stroke-linecap:round; stroke-linejoin:round; stroke-width:4; stroke-opacity:1; fill:none" points="
  1779.44,1110.43 1779.44,97.0121 
  "/>
<polyline clip-path="url(#clip120)" style="stroke:#000000; stroke-linecap:round; stroke-linejoin:round; stroke-width:4; stroke-opacity:1; fill:none" points="
  1779.44,1081.75 1798.33,1081.75 
  "/>
<polyline clip-path="url(#clip120)" style="stroke:#000000; stroke-linecap:round; stroke-linejoin:round; stroke-width:4; stroke-opacity:1; fill:none" points="
  1779.44,927.544 1798.33,927.544 
  "/>
<polyline clip-path="url(#clip120)" style="stroke:#000000; stroke-linecap:round; stroke-linejoin:round; stroke-width:4; stroke-opacity:1; fill:none" points="
  1779.44,773.342 1798.33,773.342 
  "/>
<polyline clip-path="url(#clip120)" style="stroke:#000000; stroke-linecap:round; stroke-linejoin:round; stroke-width:4; stroke-opacity:1; fill:none" points="
  1779.44,619.14 1798.33,619.14 
  "/>
<polyline clip-path="url(#clip120)" style="stroke:#000000; stroke-linecap:round; stroke-linejoin:round; stroke-width:4; stroke-opacity:1; fill:none" points="
  1779.44,464.938 1798.33,464.938 
  "/>
<polyline clip-path="url(#clip120)" style="stroke:#000000; stroke-linecap:round; stroke-linejoin:round; stroke-width:4; stroke-opacity:1; fill:none" points="
  1779.44,310.736 1798.33,310.736 
  "/>
<polyline clip-path="url(#clip120)" style="stroke:#000000; stroke-linecap:round; stroke-linejoin:round; stroke-width:4; stroke-opacity:1; fill:none" points="
  1779.44,156.534 1798.33,156.534 
  "/>
<path clip-path="url(#clip120)" d="M1719.49 1067.54 Q1715.88 1067.54 1714.05 1071.11 Q1712.25 1074.65 1712.25 1081.78 Q1712.25 1088.89 1714.05 1092.45 Q1715.88 1095.99 1719.49 1095.99 Q1723.13 1095.99 1724.93 1092.45 Q1726.76 1088.89 1726.76 1081.78 Q1726.76 1074.65 1724.93 1071.11 Q1723.13 1067.54 1719.49 1067.54 M1719.49 1063.84 Q1725.3 1063.84 1728.36 1068.45 Q1731.44 1073.03 1731.44 1081.78 Q1731.44 1090.51 1728.36 1095.11 Q1725.3 1099.7 1719.49 1099.7 Q1713.68 1099.7 1710.6 1095.11 Q1707.55 1090.51 1707.55 1081.78 Q1707.55 1073.03 1710.6 1068.45 Q1713.68 1063.84 1719.49 1063.84 Z" fill="#000000" fill-rule="evenodd" fill-opacity="1" /><path clip-path="url(#clip120)" d="M1649.98 940.889 L1657.62 940.889 L1657.62 914.524 L1649.31 916.19 L1649.31 911.931 L1657.57 910.264 L1662.25 910.264 L1662.25 940.889 L1669.89 940.889 L1669.89 944.824 L1649.98 944.824 L1649.98 940.889 Z" fill="#000000" fill-rule="evenodd" fill-opacity="1" /><path clip-path="url(#clip120)" d="M1689.33 913.343 Q1685.72 913.343 1683.89 916.908 Q1682.08 920.449 1682.08 927.579 Q1682.08 934.685 1683.89 938.25 Q1685.72 941.792 1689.33 941.792 Q1692.96 941.792 1694.77 938.25 Q1696.6 934.685 1696.6 927.579 Q1696.6 920.449 1694.77 916.908 Q1692.96 913.343 1689.33 913.343 M1689.33 909.639 Q1695.14 909.639 1698.2 914.246 Q1701.27 918.829 1701.27 927.579 Q1701.27 936.306 1698.2 940.912 Q1695.14 945.496 1689.33 945.496 Q1683.52 945.496 1680.44 940.912 Q1677.39 936.306 1677.39 927.579 Q1677.39 918.829 1680.44 914.246 Q1683.52 909.639 1689.33 909.639 Z" fill="#000000" fill-rule="evenodd" fill-opacity="1" /><path clip-path="url(#clip120)" d="M1719.49 913.343 Q1715.88 913.343 1714.05 916.908 Q1712.25 920.449 1712.25 927.579 Q1712.25 934.685 1714.05 938.25 Q1715.88 941.792 1719.49 941.792 Q1723.13 941.792 1724.93 938.25 Q1726.76 934.685 1726.76 927.579 Q1726.76 920.449 1724.93 916.908 Q1723.13 913.343 1719.49 913.343 M1719.49 909.639 Q1725.3 909.639 1728.36 914.246 Q1731.44 918.829 1731.44 927.579 Q1731.44 936.306 1728.36 940.912 Q1725.3 945.496 1719.49 945.496 Q1713.68 945.496 1710.6 940.912 Q1707.55 936.306 1707.55 927.579 Q1707.55 918.829 1710.6 914.246 Q1713.68 909.639 1719.49 909.639 Z" fill="#000000" fill-rule="evenodd" fill-opacity="1" /><path clip-path="url(#clip120)" d="M1653.2 786.687 L1669.52 786.687 L1669.52 790.622 L1647.57 790.622 L1647.57 786.687 Q1650.23 783.932 1654.82 779.303 Q1659.42 774.65 1660.6 773.308 Q1662.85 770.784 1663.73 769.048 Q1664.63 767.289 1664.63 765.599 Q1664.63 762.845 1662.69 761.109 Q1660.77 759.372 1657.66 759.372 Q1655.46 759.372 1653.01 760.136 Q1650.58 760.9 1647.8 762.451 L1647.8 757.729 Q1650.63 756.595 1653.08 756.016 Q1655.53 755.437 1657.57 755.437 Q1662.94 755.437 1666.14 758.122 Q1669.33 760.808 1669.33 765.298 Q1669.33 767.428 1668.52 769.349 Q1667.73 771.247 1665.63 773.84 Q1665.05 774.511 1661.95 777.729 Q1658.84 780.923 1653.2 786.687 Z" fill="#000000" fill-rule="evenodd" fill-opacity="1" /><path clip-path="url(#clip120)" d="M1689.33 759.141 Q1685.72 759.141 1683.89 762.706 Q1682.08 766.247 1682.08 773.377 Q1682.08 780.483 1683.89 784.048 Q1685.72 787.59 1689.33 787.59 Q1692.96 787.59 1694.77 784.048 Q1696.6 780.483 1696.6 773.377 Q1696.6 766.247 1694.77 762.706 Q1692.96 759.141 1689.33 759.141 M1689.33 755.437 Q1695.14 755.437 1698.2 760.044 Q1701.27 764.627 1701.27 773.377 Q1701.27 782.104 1698.2 786.71 Q1695.14 791.294 1689.33 791.294 Q1683.52 791.294 1680.44 786.71 Q1677.39 782.104 1677.39 773.377 Q1677.39 764.627 1680.44 760.044 Q1683.52 755.437 1689.33 755.437 Z" fill="#000000" fill-rule="evenodd" fill-opacity="1" /><path clip-path="url(#clip120)" d="M1719.49 759.141 Q1715.88 759.141 1714.05 762.706 Q1712.25 766.247 1712.25 773.377 Q1712.25 780.483 1714.05 784.048 Q1715.88 787.59 1719.49 787.59 Q1723.13 787.59 1724.93 784.048 Q1726.76 780.483 1726.76 773.377 Q1726.76 766.247 1724.93 762.706 Q1723.13 759.141 1719.49 759.141 M1719.49 755.437 Q1725.3 755.437 1728.36 760.044 Q1731.44 764.627 1731.44 773.377 Q1731.44 782.104 1728.36 786.71 Q1725.3 791.294 1719.49 791.294 Q1713.68 791.294 1710.6 786.71 Q1707.55 782.104 1707.55 773.377 Q1707.55 764.627 1710.6 760.044 Q1713.68 755.437 1719.49 755.437 Z" fill="#000000" fill-rule="evenodd" fill-opacity="1" /><path clip-path="url(#clip120)" d="M1663.33 617.786 Q1666.69 618.504 1668.57 620.772 Q1670.46 623.041 1670.46 626.374 Q1670.46 631.49 1666.95 634.291 Q1663.43 637.091 1656.95 637.091 Q1654.77 637.091 1652.46 636.652 Q1650.16 636.235 1647.71 635.379 L1647.71 630.865 Q1649.65 631.999 1651.97 632.578 Q1654.28 633.156 1656.81 633.156 Q1661.21 633.156 1663.5 631.42 Q1665.81 629.684 1665.81 626.374 Q1665.81 623.318 1663.66 621.605 Q1661.53 619.869 1657.71 619.869 L1653.68 619.869 L1653.68 616.027 L1657.89 616.027 Q1661.34 616.027 1663.17 614.661 Q1665 613.272 1665 610.68 Q1665 608.018 1663.1 606.606 Q1661.23 605.17 1657.71 605.17 Q1655.79 605.17 1653.59 605.587 Q1651.39 606.004 1648.75 606.883 L1648.75 602.717 Q1651.41 601.976 1653.73 601.606 Q1656.07 601.235 1658.13 601.235 Q1663.45 601.235 1666.55 603.666 Q1669.65 606.073 1669.65 610.193 Q1669.65 613.064 1668.01 615.055 Q1666.37 617.022 1663.33 617.786 Z" fill="#000000" fill-rule="evenodd" fill-opacity="1" /><path clip-path="url(#clip120)" d="M1689.33 604.939 Q1685.72 604.939 1683.89 608.504 Q1682.08 612.045 1682.08 619.175 Q1682.08 626.281 1683.89 629.846 Q1685.72 633.388 1689.33 633.388 Q1692.96 633.388 1694.77 629.846 Q1696.6 626.281 1696.6 619.175 Q1696.6 612.045 1694.77 608.504 Q1692.96 604.939 1689.33 604.939 M1689.33 601.235 Q1695.14 601.235 1698.2 605.842 Q1701.27 610.425 1701.27 619.175 Q1701.27 627.902 1698.2 632.508 Q1695.14 637.091 1689.33 637.091 Q1683.52 637.091 1680.44 632.508 Q1677.39 627.902 1677.39 619.175 Q1677.39 610.425 1680.44 605.842 Q1683.52 601.235 1689.33 601.235 Z" fill="#000000" fill-rule="evenodd" fill-opacity="1" /><path clip-path="url(#clip120)" d="M1719.49 604.939 Q1715.88 604.939 1714.05 608.504 Q1712.25 612.045 1712.25 619.175 Q1712.25 626.281 1714.05 629.846 Q1715.88 633.388 1719.49 633.388 Q1723.13 633.388 1724.93 629.846 Q1726.76 626.281 1726.76 619.175 Q1726.76 612.045 1724.93 608.504 Q1723.13 604.939 1719.49 604.939 M1719.49 601.235 Q1725.3 601.235 1728.36 605.842 Q1731.44 610.425 1731.44 619.175 Q1731.44 627.902 1728.36 632.508 Q1725.3 637.091 1719.49 637.091 Q1713.68 637.091 1710.6 632.508 Q1707.55 627.902 1707.55 619.175 Q1707.55 610.425 1710.6 605.842 Q1713.68 601.235 1719.49 601.235 Z" fill="#000000" fill-rule="evenodd" fill-opacity="1" /><path clip-path="url(#clip120)" d="M1662.02 451.732 L1650.21 470.181 L1662.02 470.181 L1662.02 451.732 M1660.79 447.658 L1666.67 447.658 L1666.67 470.181 L1671.6 470.181 L1671.6 474.07 L1666.67 474.07 L1666.67 482.218 L1662.02 482.218 L1662.02 474.07 L1646.41 474.07 L1646.41 469.556 L1660.79 447.658 Z" fill="#000000" fill-rule="evenodd" fill-opacity="1" /><path clip-path="url(#clip120)" d="M1689.33 450.737 Q1685.72 450.737 1683.89 454.302 Q1682.08 457.843 1682.08 464.973 Q1682.08 472.079 1683.89 475.644 Q1685.72 479.186 1689.33 479.186 Q1692.96 479.186 1694.77 475.644 Q1696.6 472.079 1696.6 464.973 Q1696.6 457.843 1694.77 454.302 Q1692.96 450.737 1689.33 450.737 M1689.33 447.033 Q1695.14 447.033 1698.2 451.64 Q1701.27 456.223 1701.27 464.973 Q1701.27 473.7 1698.2 478.306 Q1695.14 482.889 1689.33 482.889 Q1683.52 482.889 1680.44 478.306 Q1677.39 473.7 1677.39 464.973 Q1677.39 456.223 1680.44 451.64 Q1683.52 447.033 1689.33 447.033 Z" fill="#000000" fill-rule="evenodd" fill-opacity="1" /><path clip-path="url(#clip120)" d="M1719.49 450.737 Q1715.88 450.737 1714.05 454.302 Q1712.25 457.843 1712.25 464.973 Q1712.25 472.079 1714.05 475.644 Q1715.88 479.186 1719.49 479.186 Q1723.13 479.186 1724.93 475.644 Q1726.76 472.079 1726.76 464.973 Q1726.76 457.843 1724.93 454.302 Q1723.13 450.737 1719.49 450.737 M1719.49 447.033 Q1725.3 447.033 1728.36 451.64 Q1731.44 456.223 1731.44 464.973 Q1731.44 473.7 1728.36 478.306 Q1725.3 482.889 1719.49 482.889 Q1713.68 482.889 1710.6 478.306 Q1707.55 473.7 1707.55 464.973 Q1707.55 456.223 1710.6 451.64 Q1713.68 447.033 1719.49 447.033 Z" fill="#000000" fill-rule="evenodd" fill-opacity="1" /><path clip-path="url(#clip120)" d="M1649.21 293.456 L1667.57 293.456 L1667.57 297.391 L1653.5 297.391 L1653.5 305.863 Q1654.52 305.516 1655.53 305.354 Q1656.55 305.169 1657.57 305.169 Q1663.36 305.169 1666.74 308.34 Q1670.12 311.512 1670.12 316.928 Q1670.12 322.507 1666.64 325.609 Q1663.17 328.687 1656.85 328.687 Q1654.68 328.687 1652.41 328.317 Q1650.16 327.947 1647.76 327.206 L1647.76 322.507 Q1649.84 323.641 1652.06 324.197 Q1654.28 324.752 1656.76 324.752 Q1660.77 324.752 1663.1 322.646 Q1665.44 320.539 1665.44 316.928 Q1665.44 313.317 1663.1 311.211 Q1660.77 309.104 1656.76 309.104 Q1654.89 309.104 1653.01 309.521 Q1651.16 309.938 1649.21 310.817 L1649.21 293.456 Z" fill="#000000" fill-rule="evenodd" fill-opacity="1" /><path clip-path="url(#clip120)" d="M1689.33 296.535 Q1685.72 296.535 1683.89 300.1 Q1682.08 303.641 1682.08 310.771 Q1682.08 317.877 1683.89 321.442 Q1685.72 324.984 1689.33 324.984 Q1692.96 324.984 1694.77 321.442 Q1696.6 317.877 1696.6 310.771 Q1696.6 303.641 1694.77 300.1 Q1692.96 296.535 1689.33 296.535 M1689.33 292.831 Q1695.14 292.831 1698.2 297.438 Q1701.27 302.021 1701.27 310.771 Q1701.27 319.498 1698.2 324.104 Q1695.14 328.687 1689.33 328.687 Q1683.52 328.687 1680.44 324.104 Q1677.39 319.498 1677.39 310.771 Q1677.39 302.021 1680.44 297.438 Q1683.52 292.831 1689.33 292.831 Z" fill="#000000" fill-rule="evenodd" fill-opacity="1" /><path clip-path="url(#clip120)" d="M1719.49 296.535 Q1715.88 296.535 1714.05 300.1 Q1712.25 303.641 1712.25 310.771 Q1712.25 317.877 1714.05 321.442 Q1715.88 324.984 1719.49 324.984 Q1723.13 324.984 1724.93 321.442 Q1726.76 317.877 1726.76 310.771 Q1726.76 303.641 1724.93 300.1 Q1723.13 296.535 1719.49 296.535 M1719.49 292.831 Q1725.3 292.831 1728.36 297.438 Q1731.44 302.021 1731.44 310.771 Q1731.44 319.498 1728.36 324.104 Q1725.3 328.687 1719.49 328.687 Q1713.68 328.687 1710.6 324.104 Q1707.55 319.498 1707.55 310.771 Q1707.55 302.021 1710.6 297.438 Q1713.68 292.831 1719.49 292.831 Z" fill="#000000" fill-rule="evenodd" fill-opacity="1" /><path clip-path="url(#clip120)" d="M1659.75 154.671 Q1656.6 154.671 1654.75 156.823 Q1652.92 158.976 1652.92 162.726 Q1652.92 166.453 1654.75 168.629 Q1656.6 170.782 1659.75 170.782 Q1662.89 170.782 1664.72 168.629 Q1666.58 166.453 1666.58 162.726 Q1666.58 158.976 1664.72 156.823 Q1662.89 154.671 1659.75 154.671 M1669.03 140.018 L1669.03 144.277 Q1667.27 143.444 1665.46 143.004 Q1663.68 142.564 1661.92 142.564 Q1657.29 142.564 1654.84 145.689 Q1652.41 148.814 1652.06 155.134 Q1653.43 153.12 1655.49 152.055 Q1657.55 150.967 1660.02 150.967 Q1665.23 150.967 1668.24 154.138 Q1671.27 157.286 1671.27 162.726 Q1671.27 168.05 1668.13 171.268 Q1664.98 174.485 1659.75 174.485 Q1653.75 174.485 1650.58 169.902 Q1647.41 165.296 1647.41 156.569 Q1647.41 148.374 1651.3 143.513 Q1655.19 138.629 1661.74 138.629 Q1663.5 138.629 1665.28 138.976 Q1667.08 139.324 1669.03 140.018 Z" fill="#000000" fill-rule="evenodd" fill-opacity="1" /><path clip-path="url(#clip120)" d="M1689.33 142.333 Q1685.72 142.333 1683.89 145.898 Q1682.08 149.439 1682.08 156.569 Q1682.08 163.675 1683.89 167.24 Q1685.72 170.782 1689.33 170.782 Q1692.96 170.782 1694.77 167.24 Q1696.6 163.675 1696.6 156.569 Q1696.6 149.439 1694.77 145.898 Q1692.96 142.333 1689.33 142.333 M1689.33 138.629 Q1695.14 138.629 1698.2 143.236 Q1701.27 147.819 1701.27 156.569 Q1701.27 165.296 1698.2 169.902 Q1695.14 174.485 1689.33 174.485 Q1683.52 174.485 1680.44 169.902 Q1677.39 165.296 1677.39 156.569 Q1677.39 147.819 1680.44 143.236 Q1683.52 138.629 1689.33 138.629 Z" fill="#000000" fill-rule="evenodd" fill-opacity="1" /><path clip-path="url(#clip120)" d="M1719.49 142.333 Q1715.88 142.333 1714.05 145.898 Q1712.25 149.439 1712.25 156.569 Q1712.25 163.675 1714.05 167.24 Q1715.88 170.782 1719.49 170.782 Q1723.13 170.782 1724.93 167.24 Q1726.76 163.675 1726.76 156.569 Q1726.76 149.439 1724.93 145.898 Q1723.13 142.333 1719.49 142.333 M1719.49 138.629 Q1725.3 138.629 1728.36 143.236 Q1731.44 147.819 1731.44 156.569 Q1731.44 165.296 1728.36 169.902 Q1725.3 174.485 1719.49 174.485 Q1713.68 174.485 1710.6 169.902 Q1707.55 165.296 1707.55 156.569 Q1707.55 147.819 1710.6 143.236 Q1713.68 138.629 1719.49 138.629 Z" fill="#000000" fill-rule="evenodd" fill-opacity="1" /><path clip-path="url(#clip120)" d="M2154.03 28.5427 L2154.03 35.5912 Q2150.87 33.9709 2147.47 33.1607 Q2144.07 32.3505 2140.42 32.3505 Q2134.87 32.3505 2132.08 34.0519 Q2129.32 35.7533 2129.32 39.156 Q2129.32 41.7486 2131.31 43.2475 Q2133.29 44.7058 2139.29 46.0426 L2141.84 46.6097 Q2149.78 48.3111 2153.1 51.4303 Q2156.47 54.509 2156.47 60.0587 Q2156.47 66.3781 2151.44 70.0644 Q2146.46 73.7508 2137.71 73.7508 Q2134.06 73.7508 2130.09 73.0216 Q2126.16 72.3329 2121.79 70.9151 L2121.79 63.2184 Q2125.92 65.3654 2129.93 66.4591 Q2133.94 67.5124 2137.87 67.5124 Q2143.14 67.5124 2145.97 65.73 Q2148.81 63.9071 2148.81 60.6258 Q2148.81 57.5877 2146.74 55.9673 Q2144.72 54.3469 2137.79 52.8481 L2135.2 52.2405 Q2128.27 50.7821 2125.19 47.7845 Q2122.11 44.7463 2122.11 39.4801 Q2122.11 33.0797 2126.65 29.5959 Q2131.19 26.1121 2139.53 26.1121 Q2143.66 26.1121 2147.31 26.7198 Q2150.96 27.3274 2154.03 28.5427 Z" fill="#000000" fill-rule="evenodd" fill-opacity="1" /><path clip-path="url(#clip120)" d="M2168.33 27.2059 L2175.79 27.2059 L2175.79 72.576 L2168.33 72.576 L2168.33 27.2059 M2168.33 9.54393 L2175.79 9.54393 L2175.79 18.9825 L2168.33 18.9825 L2168.33 9.54393 Z" fill="#000000" fill-rule="evenodd" fill-opacity="1" /><path clip-path="url(#clip120)" d="M2226.71 35.9153 Q2229.5 30.8922 2233.39 28.5022 Q2237.28 26.1121 2242.55 26.1121 Q2249.64 26.1121 2253.48 31.0947 Q2257.33 36.0368 2257.33 45.1919 L2257.33 72.576 L2249.84 72.576 L2249.84 45.4349 Q2249.84 38.913 2247.53 35.7533 Q2245.22 32.5936 2240.48 32.5936 Q2234.69 32.5936 2231.33 36.4419 Q2227.96 40.2903 2227.96 46.9338 L2227.96 72.576 L2220.47 72.576 L2220.47 45.4349 Q2220.47 38.8725 2218.16 35.7533 Q2215.85 32.5936 2211.03 32.5936 Q2205.32 32.5936 2201.96 36.4824 Q2198.59 40.3308 2198.59 46.9338 L2198.59 72.576 L2191.1 72.576 L2191.1 27.2059 L2198.59 27.2059 L2198.59 34.2544 Q2201.15 30.082 2204.71 28.0971 Q2208.28 26.1121 2213.18 26.1121 Q2218.12 26.1121 2221.56 28.6237 Q2225.05 31.1352 2226.71 35.9153 Z" fill="#000000" fill-rule="evenodd" fill-opacity="1" /><path clip-path="url(#clip120)" d="M2279.41 65.7705 L2279.41 89.8329 L2271.92 89.8329 L2271.92 27.2059 L2279.41 27.2059 L2279.41 34.0924 Q2281.76 30.0415 2285.32 28.0971 Q2288.93 26.1121 2293.91 26.1121 Q2302.18 26.1121 2307.32 32.6746 Q2312.51 39.2371 2312.51 49.9314 Q2312.51 60.6258 2307.32 67.1883 Q2302.18 73.7508 2293.91 73.7508 Q2288.93 73.7508 2285.32 71.8063 Q2281.76 69.8214 2279.41 65.7705 M2304.77 49.9314 Q2304.77 41.7081 2301.37 37.0496 Q2298 32.3505 2292.09 32.3505 Q2286.18 32.3505 2282.77 37.0496 Q2279.41 41.7081 2279.41 49.9314 Q2279.41 58.1548 2282.77 62.8538 Q2286.18 67.5124 2292.09 67.5124 Q2298 67.5124 2301.37 62.8538 Q2304.77 58.1548 2304.77 49.9314 Z" fill="#000000" fill-rule="evenodd" fill-opacity="1" /><path clip-path="url(#clip120)" d="M2324.86 9.54393 L2332.31 9.54393 L2332.31 72.576 L2324.86 72.576 L2324.86 9.54393 Z" fill="#000000" fill-rule="evenodd" fill-opacity="1" /><path clip-path="url(#clip120)" d="M2386.72 48.0275 L2386.72 51.6733 L2352.45 51.6733 Q2352.93 59.3701 2357.07 63.421 Q2361.24 67.4314 2368.65 67.4314 Q2372.95 67.4314 2376.96 66.3781 Q2381.01 65.3249 2384.98 63.2184 L2384.98 70.267 Q2380.97 71.9684 2376.75 72.8596 Q2372.54 73.7508 2368.21 73.7508 Q2357.35 73.7508 2350.99 67.4314 Q2344.67 61.1119 2344.67 50.3365 Q2344.67 39.1965 2350.67 32.6746 Q2356.7 26.1121 2366.91 26.1121 Q2376.06 26.1121 2381.37 32.0264 Q2386.72 37.9003 2386.72 48.0275 M2379.26 45.84 Q2379.18 39.7232 2375.82 36.0774 Q2372.5 32.4315 2366.99 32.4315 Q2360.75 32.4315 2356.98 35.9558 Q2353.26 39.4801 2352.69 45.8805 L2379.26 45.84 Z" fill="#000000" fill-rule="evenodd" fill-opacity="1" /><path clip-path="url(#clip120)" d="M2433.43 86.3491 L2433.43 92.1419 L2390.32 92.1419 L2390.32 86.3491 L2433.43 86.3491 Z" fill="#000000" fill-rule="evenodd" fill-opacity="1" /><path clip-path="url(#clip120)" d="M2440.43 27.2059 L2447.89 27.2059 L2447.89 72.576 L2440.43 72.576 L2440.43 27.2059 M2440.43 9.54393 L2447.89 9.54393 L2447.89 18.9825 L2440.43 18.9825 L2440.43 9.54393 Z" fill="#000000" fill-rule="evenodd" fill-opacity="1" /><path clip-path="url(#clip120)" d="M2501.2 45.1919 L2501.2 72.576 L2493.74 72.576 L2493.74 45.4349 Q2493.74 38.994 2491.23 35.7938 Q2488.72 32.5936 2483.7 32.5936 Q2477.66 32.5936 2474.18 36.4419 Q2470.69 40.2903 2470.69 46.9338 L2470.69 72.576 L2463.2 72.576 L2463.2 27.2059 L2470.69 27.2059 L2470.69 34.2544 Q2473.37 30.163 2476.97 28.1376 Q2480.62 26.1121 2485.36 26.1121 Q2493.18 26.1121 2497.19 30.9732 Q2501.2 35.7938 2501.2 45.1919 Z" fill="#000000" fill-rule="evenodd" fill-opacity="1" /><path clip-path="url(#clip120)" d="M2545.92 34.0924 L2545.92 9.54393 L2553.37 9.54393 L2553.37 72.576 L2545.92 72.576 L2545.92 65.7705 Q2543.57 69.8214 2539.96 71.8063 Q2536.4 73.7508 2531.38 73.7508 Q2523.15 73.7508 2517.97 67.1883 Q2512.82 60.6258 2512.82 49.9314 Q2512.82 39.2371 2517.97 32.6746 Q2523.15 26.1121 2531.38 26.1121 Q2536.4 26.1121 2539.96 28.0971 Q2543.57 30.0415 2545.92 34.0924 M2520.52 49.9314 Q2520.52 58.1548 2523.88 62.8538 Q2527.28 67.5124 2533.2 67.5124 Q2539.11 67.5124 2542.52 62.8538 Q2545.92 58.1548 2545.92 49.9314 Q2545.92 41.7081 2542.52 37.0496 Q2539.11 32.3505 2533.2 32.3505 Q2527.28 32.3505 2523.88 37.0496 Q2520.52 41.7081 2520.52 49.9314 Z" fill="#000000" fill-rule="evenodd" fill-opacity="1" /><path clip-path="url(#clip120)" d="M2567.96 54.671 L2567.96 27.2059 L2575.41 27.2059 L2575.41 54.3874 Q2575.41 60.8284 2577.92 64.0691 Q2580.43 67.2693 2585.46 67.2693 Q2591.49 67.2693 2594.98 63.421 Q2598.5 59.5726 2598.5 52.9291 L2598.5 27.2059 L2605.95 27.2059 L2605.95 72.576 L2598.5 72.576 L2598.5 65.6084 Q2595.79 69.7404 2592.18 71.7658 Q2588.62 73.7508 2583.88 73.7508 Q2576.06 73.7508 2572.01 68.8897 Q2567.96 64.0286 2567.96 54.671 M2586.71 26.1121 L2586.71 26.1121 Z" fill="#000000" fill-rule="evenodd" fill-opacity="1" /><path clip-path="url(#clip120)" d="M2653.96 28.9478 L2653.96 35.9153 Q2650.8 34.1734 2647.6 33.3227 Q2644.44 32.4315 2641.2 32.4315 Q2633.95 32.4315 2629.93 37.0496 Q2625.92 41.6271 2625.92 49.9314 Q2625.92 58.2358 2629.93 62.8538 Q2633.95 67.4314 2641.2 67.4314 Q2644.44 67.4314 2647.6 66.5807 Q2650.8 65.6895 2653.96 63.9476 L2653.96 70.8341 Q2650.84 72.2924 2647.48 73.0216 Q2644.15 73.7508 2640.39 73.7508 Q2630.14 73.7508 2624.1 67.3098 Q2618.07 60.8689 2618.07 49.9314 Q2618.07 38.832 2624.14 32.472 Q2630.26 26.1121 2640.87 26.1121 Q2644.32 26.1121 2647.6 26.8413 Q2650.88 27.5299 2653.96 28.9478 Z" fill="#000000" fill-rule="evenodd" fill-opacity="1" /><path clip-path="url(#clip120)" d="M2674.29 14.324 L2674.29 27.2059 L2689.65 27.2059 L2689.65 32.9987 L2674.29 32.9987 L2674.29 57.6282 Q2674.29 63.1779 2675.79 64.7578 Q2677.33 66.3376 2681.99 66.3376 L2689.65 66.3376 L2689.65 72.576 L2681.99 72.576 Q2673.36 72.576 2670.08 69.3758 Q2666.8 66.1351 2666.8 57.6282 L2666.8 32.9987 L2661.33 32.9987 L2661.33 27.2059 L2666.8 27.2059 L2666.8 14.324 L2674.29 14.324 Z" fill="#000000" fill-rule="evenodd" fill-opacity="1" /><path clip-path="url(#clip120)" d="M2699.45 27.2059 L2706.9 27.2059 L2706.9 72.576 L2699.45 72.576 L2699.45 27.2059 M2699.45 9.54393 L2706.9 9.54393 L2706.9 18.9825 L2699.45 18.9825 L2699.45 9.54393 Z" fill="#000000" fill-rule="evenodd" fill-opacity="1" /><path clip-path="url(#clip120)" d="M2717.15 27.2059 L2725.05 27.2059 L2739.23 65.2844 L2753.41 27.2059 L2761.31 27.2059 L2744.29 72.576 L2734.16 72.576 L2717.15 27.2059 Z" fill="#000000" fill-rule="evenodd" fill-opacity="1" /><path clip-path="url(#clip120)" d="M2810.4 48.0275 L2810.4 51.6733 L2776.13 51.6733 Q2776.62 59.3701 2780.75 63.421 Q2784.92 67.4314 2792.34 67.4314 Q2796.63 67.4314 2800.64 66.3781 Q2804.69 65.3249 2808.66 63.2184 L2808.66 70.267 Q2804.65 71.9684 2800.44 72.8596 Q2796.22 73.7508 2791.89 73.7508 Q2781.03 73.7508 2774.67 67.4314 Q2768.35 61.1119 2768.35 50.3365 Q2768.35 39.1965 2774.35 32.6746 Q2780.39 26.1121 2790.59 26.1121 Q2799.75 26.1121 2805.06 32.0264 Q2810.4 37.9003 2810.4 48.0275 M2802.95 45.84 Q2802.87 39.7232 2799.51 36.0774 Q2796.18 32.4315 2790.67 32.4315 Q2784.44 32.4315 2780.67 35.9558 Q2776.94 39.4801 2776.38 45.8805 L2802.95 45.84 Z" fill="#000000" fill-rule="evenodd" fill-opacity="1" /><path clip-path="url(#clip123)" d="
M1854.97 125.694 L1854.97 1081.75 L2058.68 1081.75 L2058.68 125.694 L1854.97 125.694 L1854.97 125.694  Z
  " fill="#009af9" fill-rule="evenodd" fill-opacity="1"/>
<polyline clip-path="url(#clip123)" style="stroke:#000000; stroke-linecap:round; stroke-linejoin:round; stroke-width:4; stroke-opacity:1; fill:none" points="
  1854.97,125.694 1854.97,1081.75 2058.68,1081.75 2058.68,125.694 1854.97,125.694 
  "/>
<path clip-path="url(#clip123)" d="
M2109.61 674.653 L2109.61 1081.75 L2313.31 1081.75 L2313.31 674.653 L2109.61 674.653 L2109.61 674.653  Z
  " fill="#009af9" fill-rule="evenodd" fill-opacity="1"/>
<polyline clip-path="url(#clip123)" style="stroke:#000000; stroke-linecap:round; stroke-linejoin:round; stroke-width:4; stroke-opacity:1; fill:none" points="
  2109.61,674.653 2109.61,1081.75 2313.31,1081.75 2313.31,674.653 2109.61,674.653 
  "/>
<path clip-path="url(#clip123)" d="
M2364.24 941.422 L2364.24 1081.75 L2567.95 1081.75 L2567.95 941.422 L2364.24 941.422 L2364.24 941.422  Z
  " fill="#009af9" fill-rule="evenodd" fill-opacity="1"/>
<polyline clip-path="url(#clip123)" style="stroke:#000000; stroke-linecap:round; stroke-linejoin:round; stroke-width:4; stroke-opacity:1; fill:none" points="
  2364.24,941.422 2364.24,1081.75 2567.95,1081.75 2567.95,941.422 2364.24,941.422 
  "/>
<path clip-path="url(#clip123)" d="
M2618.88 1047.82 L2618.88 1081.75 L2822.59 1081.75 L2822.59 1047.82 L2618.88 1047.82 L2618.88 1047.82  Z
  " fill="#009af9" fill-rule="evenodd" fill-opacity="1"/>
<polyline clip-path="url(#clip123)" style="stroke:#000000; stroke-linecap:round; stroke-linejoin:round; stroke-width:4; stroke-opacity:1; fill:none" points="
  2618.88,1047.82 2618.88,1081.75 2822.59,1081.75 2822.59,1047.82 2618.88,1047.82 
  "/>
<path clip-path="url(#clip123)" d="
M2873.51 1077.12 L2873.51 1081.75 L3077.22 1081.75 L3077.22 1077.12 L2873.51 1077.12 L2873.51 1077.12  Z
  " fill="#009af9" fill-rule="evenodd" fill-opacity="1"/>
<polyline clip-path="url(#clip123)" style="stroke:#000000; stroke-linecap:round; stroke-linejoin:round; stroke-width:4; stroke-opacity:1; fill:none" points="
  2873.51,1077.12 2873.51,1081.75 3077.22,1081.75 3077.22,1077.12 2873.51,1077.12 
  "/>
<circle clip-path="url(#clip123)" style="fill:#009af9; stroke:none; fill-opacity:0" cx="1956.83" cy="125.694" r="2"/>
<circle clip-path="url(#clip123)" style="fill:#009af9; stroke:none; fill-opacity:0" cx="2211.46" cy="674.653" r="2"/>
<circle clip-path="url(#clip123)" style="fill:#009af9; stroke:none; fill-opacity:0" cx="2466.1" cy="941.422" r="2"/>
<circle clip-path="url(#clip123)" style="fill:#009af9; stroke:none; fill-opacity:0" cx="2720.73" cy="1047.82" r="2"/>
<circle clip-path="url(#clip123)" style="fill:#009af9; stroke:none; fill-opacity:0" cx="2975.37" cy="1077.12" r="2"/>
</svg>
