<?xml version="1.0" encoding="iso-8859-1"?>
<!-- Generator: Adobe Illustrator 20.1.0, SVG Export Plug-In . SVG Version: 6.00 Build 0)  -->
<svg version="1.1" xmlns="http://www.w3.org/2000/svg" xmlns:xlink="http://www.w3.org/1999/xlink" x="0px" y="0px"
	 viewBox="0 0 100 44.85" style="enable-background:new 0 0 100 44.85;" xml:space="preserve">
<g id="Boundingbox">
	<rect style="fill:none;" width="100" height="44.85"/>
</g>
<g id="Ebene_1">
	<g>
		<path style="fill:#BF1528;" d="M78.27,11.02c-5.49,0-10.92,3.88-10.92,11.42c0,7.02,4.57,11.39,10.71,11.39
			c6.5,0,10.92-4.76,10.92-11.39C88.98,14.7,83.54,11.02,78.27,11.02z M78.16,29.28c-3.17,0-5.51-2.64-5.51-6.84
			c0-3.74,1.9-6.84,5.51-6.84c3.98,0,5.51,3.67,5.51,6.84C83.67,25.65,82.13,29.28,78.16,29.28z"/>
		<path style="fill:#BF1528;" d="M56.85,20.56l-0.01,4.37h3.75v3.86c-0.31,0.2-1.31,0.49-2.65,0.49c-3.69,0-5.81-2.69-5.81-6.84
			c0-3.84,1.58-6.62,6.23-6.62c1.89,0,3.48,0.34,4.87,0.92l1.86-4.29c-1.81-0.89-3.86-1.42-7.05-1.42
			c-6.43,0-11.36,4.59-11.36,11.55c0,6.18,3.62,11.24,10.96,11.24c3.73,0,6.47-1.18,7.77-2.05l0-11.2H56.85z"/>
		<path style="fill:#BF1528;" d="M41.29,24.89v-0.1c1.09-0.69,2.14-1.68,2.77-2.66c0.7-1.1,1.03-2.38,1.03-3.71
			c0-1-0.18-1.95-0.54-2.83c-0.34-0.9-0.9-1.73-1.69-2.39c-0.76-0.66-1.75-1.18-2.95-1.57c-1.2-0.38-2.67-0.57-4.4-0.57
			c-1.3,0-2.48,0.06-3.52,0.16c-1.13,0.1-1.9,0.2-2.98,0.37v21.85h5.12v-7.3c0.63,0.03,1.1,0.03,1.78,0.01c0,0,0.66,0.23,1.51,1.32
			c1.01,1.29,2.22,3.31,2.95,5.97h6.07C45.1,29.58,43.72,26,41.29,24.89z M38.83,21.19c-0.72,0.56-1.86,0.9-3.09,0.9
			c-0.58,0-1.28-0.03-1.63-0.07v-6.29c0.24-0.04,0.99-0.11,1.27-0.12c0.29-0.01,0.76-0.01,0.88-0.01c1.1,0.02,2.01,0.27,2.68,0.8
			c0.66,0.5,0.99,1.24,0.99,2.16C39.95,19.68,39.56,20.61,38.83,21.19z"/>
		<path style="fill:#BF1528;" d="M18.14,28.78c-1.14,0-2.01-0.63-2.01-2.11v-2.36h8.4l-0.01-4.46h-8.39v-3.78h9.92l0-4.7H11.02
			v16.84c0,3.46,1.35,5.23,5.19,5.23h10.26l-0.01-4.67C26.46,28.78,20.45,28.78,18.14,28.78z"/>
	</g>
</g>
</svg>
